<svg width="611" height="75" viewBox="0 0 611 75" fill="none" xmlns="http://www.w3.org/2000/svg">
<path d="M525.359 0.0344492C523.274 0.336115 521.387 1.24299 519.981 2.62633C515.943 6.56961 516.754 13.2814 521.619 16.2229C524.218 17.797 528.338 17.8609 531.069 16.3507C532.889 15.348 534.362 13.663 535.058 11.7863C535.553 10.4349 535.67 7.85803 535.289 6.45871C534.494 3.5163 532.112 1.17909 529.083 0.352091C528.09 0.0974136 526.154 -0.0773835 525.359 0.0344492Z" fill="black"/>
<path d="M48.672 14.3459C46.8187 14.8233 44.9156 16.2067 43.9884 17.7498C43.74 18.1473 41.6051 23.6177 39.2218 29.9151C36.8394 36.2125 34.7866 41.6199 34.6546 41.9216C34.3231 42.6697 33.6453 43.3369 32.8503 43.6874C32.238 43.9571 31.6258 43.9891 24.2949 43.9891C19.1811 43.9891 16.0858 44.053 15.5234 44.1639C13.5538 44.5614 11.634 45.7859 10.5426 47.376C10.1279 47.9803 8.55632 51.9245 4.98182 61.3711C2.23468 68.6064 0 74.5542 0 74.6021C0 74.65 5.69281 74.682 12.6443 74.682H25.2709L30.6166 60.56C33.5456 52.7994 36.1108 46.1675 36.3094 45.8179C36.4913 45.4843 36.9881 44.9749 37.3685 44.7052L38.0971 44.2278L48.6387 44.1799L59.1803 44.1479L64.0458 56.9814C66.7108 64.0588 69.0775 70.1814 69.3092 70.6109C69.8716 71.6916 71.3112 73.1069 72.4701 73.7112C74.472 74.729 73.2143 74.682 96.9459 74.682C117.418 74.682 118.527 74.666 118.444 74.3953C118.377 74.1407 114.819 64.742 102.308 31.7918C99.5776 24.5875 97.1611 18.37 96.9459 17.9565C96.4667 17.0177 94.9606 15.5705 93.8848 15.0141C92.0638 14.0602 93.0575 14.0922 70.3351 14.1082C52.7267 14.1082 49.4328 14.1552 48.672 14.3459ZM72.0564 18.417C72.205 18.7995 74.4387 24.6834 77.0206 31.5052L81.7041 43.9092L76.1111 43.9571C73.0158 43.9731 67.9684 43.9731 64.8898 43.9571L59.2635 43.9092L64.1455 31.0287C66.8095 23.9353 69.0442 18.0514 69.0941 17.9406C69.143 17.8127 69.5733 17.7498 70.4838 17.7498H71.7913L72.0564 18.417Z" fill="black"/>
<path d="M166.916 15.157C164.599 21.0729 143.812 74.761 143.812 74.8568C143.812 74.9358 147.106 74.9837 151.625 74.9677L159.419 74.9198L162.944 65.6969C164.88 60.6231 166.601 56.1705 166.75 55.7889C167.015 55.1057 167.015 55.1057 167.777 55.1527L168.538 55.2006L169.795 57.1412C171.268 59.4305 171.715 59.9239 172.94 60.4962L173.85 60.9257L181.562 60.9736L189.274 61.0216L191.806 67.6526C193.196 71.2942 194.404 74.4433 194.471 74.6341L194.619 74.9997H210.209L210.126 74.6501C210.076 74.4753 204.83 60.7669 198.476 44.1959L186.924 14.0923H167.347L166.916 15.157ZM177.822 30.901C178.103 31.6171 184.028 47.2013 184.028 47.2652C184.028 47.2972 180.85 47.3291 176.978 47.3291C170.325 47.3291 169.927 47.3131 170.044 47.0425C170.176 46.7089 175.902 31.6801 176.117 31.0598C176.267 30.6783 176.365 30.6313 176.994 30.6313C177.524 30.6313 177.74 30.7102 177.822 30.901Z" fill="black"/>
<path d="M604.762 20.1351C603.058 20.4687 601.618 21.5185 600.874 22.9657C600.327 24.0474 600.327 26.2418 600.874 27.3234C601.783 29.1043 603.621 30.186 605.739 30.2019C607.659 30.2019 609.595 29.0244 610.423 27.3554C610.985 26.2258 611.101 25.1441 610.787 24.0154C610.058 21.3277 607.411 19.6258 604.762 20.1351ZM606.897 21.2488C608.569 21.6933 609.843 23.3952 609.843 25.1441C609.843 28.7227 605.441 30.5196 602.76 28.0386C601.833 27.1956 601.503 26.4165 601.503 25.1441C601.503 24.3171 601.585 23.8726 601.85 23.3952C602.843 21.5984 604.912 20.7234 606.897 21.2488Z" fill="black"/>
<path d="M603.225 25.0337V27.7693H604.217V25.7018H604.879C605.525 25.7018 605.574 25.7488 606.236 26.7356C606.881 27.7054 606.964 27.7693 607.56 27.7693C607.907 27.7693 608.189 27.7214 608.189 27.6735C608.189 27.6255 607.858 27.1171 607.461 26.5598L606.716 25.558L607.213 25.0816C607.759 24.5563 607.842 23.889 607.445 23.1729C607.13 22.5846 606.931 22.5207 604.928 22.4098L603.225 22.314V25.0337ZM606.12 23.4755C606.468 23.6024 606.551 23.7293 606.501 24.0798C606.451 24.4933 606.418 24.5093 605.343 24.5563L604.217 24.6042V23.3158H604.945C605.359 23.3158 605.889 23.3956 606.12 23.4755Z" fill="black"/>
<path d="M235.298 20.4529C229.093 21.0891 223.416 23.5062 219.163 27.3715C214.844 31.2668 212.229 35.8632 210.888 41.9059C210.474 43.7507 210.442 44.1962 210.442 47.647C210.442 51.0978 210.474 51.5433 210.871 53.3721C212.113 58.9383 214.562 63.4548 218.368 67.1444C222.506 71.1516 227.255 73.5047 233.346 74.5385C236.043 75.0159 240.297 74.9999 243.01 74.5385C252.328 72.9484 259.808 67.0166 262.886 58.7795C263.3 57.6339 264.624 52.7518 264.624 52.3064C264.624 52.1316 263.251 52.0996 256.896 52.1316L249.167 52.1795L248.869 53.388C248.306 55.8051 247.032 57.7617 245.129 59.0971C241.057 61.9916 234.604 61.7369 230.449 58.5088C224.707 54.0243 223.896 44.307 228.795 38.3912C230.201 36.6742 232.799 35.0841 235.066 34.5269C241.455 32.9847 247.347 36.1489 248.703 41.874L249.002 43.1145L256.73 43.1624C262.274 43.1784 264.459 43.1464 264.459 43.0196C264.459 42.622 263.084 37.5332 262.704 36.4675C262.059 34.7656 260.602 32.0938 259.444 30.5197C257.475 27.8799 254.247 25.1292 251.137 23.4752C248.703 22.1867 245.145 21.0571 242.183 20.6286C240.462 20.3739 236.954 20.2941 235.298 20.4529Z" fill="black"/>
<path d="M296.068 20.4691C286.502 21.4079 278.277 26.6396 274.074 34.4482C271.906 38.4713 270.962 42.018 270.797 46.6934C270.565 53.4682 272.485 59.6537 276.391 64.5997C278.476 67.2555 281.686 69.9273 284.831 71.6292C287.197 72.9167 291.616 74.269 294.909 74.6975C297.292 75.0161 301.463 74.9362 303.929 74.5227C307.95 73.8715 311.905 72.3603 315.265 70.213C317.432 68.8456 320.941 65.4427 322.414 63.3113C328.19 54.9624 328.851 43.735 324.102 34.7658C320.031 27.101 312.766 22.0911 303.68 20.6918C301.628 20.3901 298.054 20.2783 296.068 20.4691ZM302.522 34.607C308.065 36.1022 311.641 40.6337 312.055 46.6934C312.253 49.46 311.74 51.957 310.432 54.4859C309.688 55.9322 309.39 56.3457 308.082 57.6022C306.808 58.8107 306.328 59.1453 305.004 59.7655C302.786 60.7993 301.562 61.069 298.963 61.069C297.425 61.069 296.481 60.9901 295.654 60.7833C290.689 59.5428 287.231 55.8852 286.237 50.8283C285.94 49.3332 285.89 46.2479 286.155 44.8486C287.197 39.1874 291.334 35.1473 296.978 34.2734C298.301 34.0666 301.131 34.2414 302.522 34.607Z" fill="black"/>
<path d="M333.336 47.5989L333.386 74.9199L340.949 74.9679L348.512 74.9998L348.562 58.5087C348.611 43.0035 348.628 41.9538 348.926 41.1268C350.068 37.8028 352.617 35.5135 355.893 34.8453C360.246 33.9704 363.986 35.8152 365.607 39.6635L365.988 40.5704L366.071 57.7456L366.154 74.9199H381.379V57.3481C381.379 39.9821 381.362 39.7594 381.015 37.8667C380.088 32.9686 378.334 29.359 375.455 26.4006C371.764 22.6001 366.352 20.4528 360.445 20.4528C358.475 20.4528 356.191 20.8663 354.04 21.5824C352.55 22.0908 349.952 23.2843 349.158 23.8087C348.926 23.9835 348.678 24.1103 348.628 24.1103C348.579 24.1103 348.529 23.2523 348.529 22.2026V20.2939H333.304L333.336 47.5989Z" fill="black"/>
<path d="M412.989 20.4689C408.454 20.8824 403.854 22.4415 400.081 24.8745C397.747 26.3688 394.47 29.5179 392.898 31.7922C390.829 34.8135 389.456 37.9937 388.612 41.7472C388.215 43.6079 388.182 44.0374 388.165 47.5672C388.165 50.9391 388.215 51.5912 388.545 53.2133C390.135 60.7512 394.238 66.715 400.577 70.7062C405.41 73.7275 411.996 75.3176 417.904 74.8571C424.706 74.3158 430.151 71.9786 434.685 67.6209C437.498 64.9021 439.302 62.2144 440.527 58.8745C440.99 57.602 442.365 52.672 442.365 52.2585C442.365 52.1476 439.898 52.0997 434.619 52.0997H426.858L426.576 53.3721C425.765 57.0297 423.018 59.7813 419.195 60.7831C417.623 61.1966 414.412 61.1487 412.691 60.7192C408.918 59.7334 405.922 57.1256 404.416 53.499C403.572 51.4794 403.407 50.4936 403.407 47.5672C403.423 45.2939 403.473 44.6576 403.771 43.5919C404.846 39.8545 407.18 36.96 410.341 35.4657C412.824 34.3051 415.174 33.9226 417.722 34.2732C422.207 34.9094 425.484 37.787 426.411 41.922L426.691 43.1944H434.454C438.707 43.1944 442.198 43.1465 442.198 43.0986C442.198 42.7969 440.957 38.1375 440.593 37.0718C439.948 35.1472 438.839 32.9848 437.615 31.2039C436.224 29.1683 432.948 25.9872 430.945 24.7157C425.682 21.3758 419.427 19.8966 412.989 20.4689Z" fill="black"/>
<path d="M472.17 20.4687C467.719 20.8822 463.598 22.2815 459.991 24.6516C458.136 25.8602 455.356 28.516 454 30.3607C449.349 36.7061 447.578 45.9769 449.398 54.3258C451.765 65.0927 459.759 72.7096 470.599 74.5384C472.964 74.9199 476.473 74.9998 478.277 74.6972C482.116 74.03 485.989 72.0893 489.58 69.0041L490.938 67.8594L491.93 67.8435H492.94L494.164 69.7841C495.72 72.2482 496.1 72.6466 497.441 73.2819L498.55 73.8072H507.487L507.536 67.0005L507.569 60.2106H502.439L502.406 40.2838L502.357 20.3738H487.297L487.197 23.6499L486.006 23.0136C482.001 20.8982 477.152 20.0082 472.17 20.4687ZM478.857 34.5427C483.357 35.7043 486.469 39.4728 487.297 44.7364C488.174 50.2707 486.486 55.7731 483.044 58.6995C481.901 59.6534 479.933 60.5922 478.343 60.9418C476.622 61.3074 473.676 61.1965 472.154 60.7031C469.043 59.6853 466.511 57.3631 465.17 54.2948C464.343 52.4181 464.028 50.9389 463.929 48.5218C463.73 43.7825 465.055 40.0291 467.851 37.2944C469.555 35.6404 471.393 34.7025 473.743 34.289C474.868 34.0982 477.665 34.2251 478.857 34.5427Z" fill="black"/>
<path d="M510.497 20.406C510.431 20.4529 510.381 23.5702 510.381 27.3236V34.1294H519.483L519.517 54.5168L519.567 74.9201L527.311 74.968L535.04 75L535.007 50.955L534.957 26.8941L534.56 26.178C534.096 25.304 530.257 21.5346 529.331 21.0102C528.966 20.8035 528.271 20.5648 527.791 20.4689C526.832 20.2781 510.68 20.2152 510.497 20.406Z" fill="black"/>
<path d="M564.913 20.4528C559.071 21.026 553.957 23.2204 550.001 26.846C544.689 31.7281 541.827 38.3911 541.545 46.4703C541.313 53.2131 542.919 59.0331 546.41 64.09C547.867 66.2054 551.077 69.3067 553.245 70.69C557.052 73.1071 561.238 74.4754 566.072 74.841C572.078 75.3174 577.639 73.2819 582.554 68.8293L583.647 67.8435H584.706L585.765 67.8594L587.006 69.8471C588.379 72.0734 589.356 73.0601 590.614 73.5046C591.259 73.7433 592.103 73.7913 595.827 73.8552L600.246 73.9181V60.2107H595.116V20.2939H580.056V21.9799C580.056 22.9018 580.006 23.6339 579.939 23.6019C579.857 23.57 579.062 23.1884 578.153 22.743C574.28 20.8353 569.496 20.0083 564.913 20.4528ZM571.615 34.5268C573.783 35.084 575.802 36.3715 577.275 38.1214C580.568 42.0806 581.28 49.221 578.913 54.5326C577.622 57.4271 574.992 59.8122 572.112 60.7191C570.572 61.1805 567.61 61.2914 565.922 60.9258C561.802 60.0509 558.74 57.0455 557.283 52.4811C556.837 51.1297 556.82 50.9069 556.82 47.8057C556.82 43.9573 557.018 43.0354 558.392 40.3477C559.12 38.9324 559.452 38.4869 560.676 37.3104C562.563 35.4975 564.3 34.6386 566.899 34.2251C567.76 34.0982 570.672 34.273 571.615 34.5268Z" fill="black"/>
</svg>
