<?xml version="1.0" encoding="UTF-8"?>
<svg xmlns="http://www.w3.org/2000/svg" xmlns:xlink="http://www.w3.org/1999/xlink" width="2444px" height="312px" viewBox="0 0 2441 312" version="1.1">
<g id="surface1">
<path style=" stroke:none;fill-rule:nonzero;fill:rgb(0%,0%,0%);fill-opacity:1;" d="M 2099.054688 0.398438 C 2090.726562 1.652344 2083.191406 5.421875 2077.574219 11.171875 C 2061.445312 27.5625 2064.683594 55.460938 2084.117188 67.6875 C 2094.496094 74.230469 2110.953125 74.496094 2121.863281 68.21875 C 2129.132812 64.050781 2135.015625 57.046875 2137.792969 49.246094 C 2139.773438 43.628906 2140.238281 32.917969 2138.71875 27.101562 C 2135.542969 14.871094 2126.027344 5.15625 2113.929688 1.71875 C 2109.964844 0.660156 2102.230469 -0.0664062 2099.054688 0.398438 Z M 2099.054688 0.398438 "/>
<path style=" stroke:none;fill-rule:nonzero;fill:rgb(0%,0%,0%);fill-opacity:1;" d="M 195.066406 59.886719 C 187.664062 61.871094 180.0625 67.621094 176.359375 74.035156 C 175.367188 75.6875 166.839844 98.425781 157.320312 124.601562 C 147.804688 150.777344 139.605469 173.253906 139.078125 174.507812 C 137.753906 177.617188 135.046875 180.390625 131.871094 181.847656 C 129.425781 182.96875 126.980469 183.101562 97.699219 183.101562 C 77.273438 183.101562 64.910156 183.367188 62.664062 183.828125 C 54.796875 185.480469 47.128906 190.570312 42.769531 197.179688 C 41.113281 199.691406 34.835938 216.085938 20.558594 255.351562 C 9.585938 285.425781 0.660156 310.148438 0.660156 310.347656 C 0.660156 310.546875 23.398438 310.679688 51.164062 310.679688 L 101.597656 310.679688 L 122.949219 251.980469 C 134.648438 219.722656 144.894531 192.15625 145.6875 190.703125 C 146.414062 189.316406 148.398438 187.199219 149.917969 186.078125 L 152.828125 184.09375 L 194.933594 183.894531 L 237.039062 183.761719 L 256.472656 237.105469 C 267.117188 266.523438 276.570312 291.972656 277.496094 293.757812 C 279.742188 298.25 285.492188 304.132812 290.121094 306.644531 C 298.117188 310.875 293.09375 310.679688 387.882812 310.679688 C 469.652344 310.679688 474.082031 310.613281 473.75 309.488281 C 473.484375 308.429688 459.273438 269.363281 409.300781 132.402344 C 398.394531 102.457031 388.742188 76.613281 387.882812 74.894531 C 385.96875 70.992188 379.953125 64.976562 375.65625 62.664062 C 368.382812 58.699219 372.351562 58.832031 281.59375 58.898438 C 211.261719 58.898438 198.105469 59.09375 195.066406 59.886719 Z M 288.46875 76.808594 C 289.0625 78.398438 297.984375 102.855469 308.296875 131.210938 L 327.003906 182.769531 L 304.664062 182.96875 C 292.300781 183.035156 272.140625 183.035156 259.84375 182.96875 L 237.371094 182.769531 L 256.871094 129.230469 C 267.511719 99.746094 276.4375 75.289062 276.636719 74.828125 C 276.832031 74.296875 278.550781 74.035156 282.1875 74.035156 L 287.410156 74.035156 Z M 288.46875 76.808594 "/>
<path style=" stroke:none;fill-rule:nonzero;fill:rgb(0%,0%,0%);fill-opacity:1;" d="M 667.363281 63.257812 C 658.109375 87.847656 575.082031 311.007812 575.082031 311.40625 C 575.082031 311.734375 588.238281 311.933594 606.285156 311.867188 L 637.417969 311.667969 L 651.496094 273.332031 C 659.230469 252.242188 666.105469 233.734375 666.699219 232.148438 C 667.757812 229.308594 667.757812 229.308594 670.800781 229.503906 L 673.839844 229.703125 L 678.863281 237.769531 C 684.746094 247.285156 686.53125 249.335938 691.421875 251.714844 L 695.058594 253.5 L 725.863281 253.699219 L 756.664062 253.898438 L 766.777344 281.460938 C 772.332031 296.597656 777.15625 309.6875 777.421875 310.480469 L 778.015625 312 L 840.285156 312 L 839.953125 310.546875 C 839.753906 309.820312 818.800781 252.839844 793.417969 183.960938 L 747.277344 58.832031 L 669.082031 58.832031 Z M 710.921875 128.699219 C 712.046875 131.675781 735.710938 196.453125 735.710938 196.71875 C 735.710938 196.851562 723.019531 196.984375 707.550781 196.984375 C 680.980469 196.984375 679.390625 196.917969 679.855469 195.792969 C 680.382812 194.40625 703.253906 131.9375 704.113281 129.359375 C 704.710938 127.773438 705.105469 127.578125 707.617188 127.578125 C 709.734375 127.578125 710.59375 127.90625 710.921875 128.699219 Z M 710.921875 128.699219 "/>
<path style=" stroke:none;fill-rule:nonzero;fill:rgb(0%,0%,0%);fill-opacity:1;" d="M 2416.210938 83.949219 C 2409.402344 85.335938 2403.652344 89.699219 2400.679688 95.714844 C 2398.496094 100.210938 2398.496094 109.332031 2400.679688 113.828125 C 2404.3125 121.230469 2411.652344 125.726562 2420.113281 125.792969 C 2427.78125 125.792969 2435.511719 120.898438 2438.820312 113.960938 C 2441.066406 109.265625 2441.527344 104.769531 2440.273438 100.078125 C 2437.363281 88.90625 2426.789062 81.832031 2416.210938 83.949219 Z M 2424.738281 88.578125 C 2431.414062 90.425781 2436.503906 97.5 2436.503906 104.769531 C 2436.503906 119.644531 2418.921875 127.113281 2408.214844 116.800781 C 2404.511719 113.296875 2403.191406 110.058594 2403.191406 104.769531 C 2403.191406 101.332031 2403.519531 99.484375 2404.578125 97.5 C 2408.542969 90.03125 2416.808594 86.394531 2424.738281 88.578125 Z M 2424.738281 88.578125 "/>
<path style=" stroke:none;fill-rule:nonzero;fill:rgb(0%,0%,0%);fill-opacity:1;" d="M 2410.066406 104.308594 L 2410.066406 115.679688 L 2414.03125 115.679688 L 2414.03125 107.085938 L 2416.675781 107.085938 C 2419.253906 107.085938 2419.449219 107.28125 2422.09375 111.382812 C 2424.671875 115.414062 2425.003906 115.679688 2427.382812 115.679688 C 2428.769531 115.679688 2429.894531 115.480469 2429.894531 115.28125 C 2429.894531 115.082031 2428.574219 112.96875 2426.988281 110.652344 L 2424.011719 106.488281 L 2425.996094 104.507812 C 2428.175781 102.324219 2428.507812 99.550781 2426.921875 96.574219 C 2425.664062 94.128906 2424.871094 93.863281 2416.871094 93.402344 L 2410.066406 93.003906 Z M 2421.632812 97.832031 C 2423.019531 98.359375 2423.351562 98.886719 2423.152344 100.34375 C 2422.953125 102.0625 2422.820312 102.128906 2418.527344 102.324219 L 2414.03125 102.523438 L 2414.03125 97.167969 L 2416.9375 97.167969 C 2418.589844 97.167969 2420.707031 97.5 2421.632812 97.832031 Z M 2421.632812 97.832031 "/>
<path style=" stroke:none;fill-rule:nonzero;fill:rgb(0%,0%,0%);fill-opacity:1;" d="M 940.492188 85.269531 C 915.707031 87.914062 893.03125 97.960938 876.042969 114.027344 C 858.792969 130.21875 848.347656 149.324219 842.992188 174.441406 C 841.339844 182.109375 841.210938 183.960938 841.210938 198.304688 C 841.210938 212.648438 841.339844 214.5 842.925781 222.101562 C 847.886719 245.238281 857.667969 264.011719 872.871094 279.347656 C 889.398438 296.003906 908.367188 305.785156 932.695312 310.082031 C 943.46875 312.066406 960.457031 312 971.296875 310.082031 C 1008.511719 303.472656 1038.390625 278.816406 1050.683594 244.578125 C 1052.335938 239.816406 1057.625 219.523438 1057.625 217.671875 C 1057.625 216.945312 1052.140625 216.8125 1026.757812 216.945312 L 995.886719 217.144531 L 994.695312 222.167969 C 992.449219 232.214844 987.359375 240.347656 979.757812 245.898438 C 963.496094 257.929688 937.71875 256.871094 921.125 243.453125 C 898.1875 224.8125 894.949219 184.421875 914.515625 159.832031 C 920.132812 152.695312 930.511719 146.085938 939.566406 143.769531 C 965.082031 137.359375 988.617188 150.511719 994.035156 174.308594 L 995.226562 179.464844 L 1026.09375 179.664062 C 1048.238281 179.730469 1056.964844 179.597656 1056.964844 179.070312 C 1056.964844 177.417969 1051.476562 156.265625 1049.957031 151.835938 C 1047.378906 144.761719 1041.5625 133.65625 1036.9375 127.113281 C 1029.070312 116.140625 1016.179688 104.707031 1003.753906 97.832031 C 994.035156 92.476562 979.824219 87.78125 967.992188 86 C 961.117188 84.941406 947.105469 84.609375 940.492188 85.269531 Z M 940.492188 85.269531 "/>
<path style=" stroke:none;fill-rule:nonzero;fill:rgb(0%,0%,0%);fill-opacity:1;" d="M 1183.21875 85.335938 C 1145.011719 89.238281 1112.160156 110.984375 1095.371094 143.441406 C 1086.710938 160.164062 1082.941406 174.90625 1082.28125 194.339844 C 1081.355469 222.5 1089.023438 248.210938 1104.625 268.769531 C 1112.953125 279.808594 1125.777344 290.914062 1138.335938 297.988281 C 1147.789062 303.339844 1165.4375 308.960938 1178.589844 310.742188 C 1188.109375 312.066406 1204.769531 311.734375 1214.617188 310.015625 C 1230.679688 307.308594 1246.476562 301.027344 1259.898438 292.101562 C 1268.554688 286.417969 1282.570312 272.273438 1288.453125 263.414062 C 1311.523438 228.710938 1314.164062 182.042969 1295.195312 144.761719 C 1278.933594 112.902344 1249.914062 92.078125 1213.625 86.261719 C 1205.429688 85.007812 1191.152344 84.542969 1183.21875 85.335938 Z M 1209 144.101562 C 1231.140625 150.316406 1245.421875 169.152344 1247.074219 194.339844 C 1247.867188 205.839844 1245.816406 216.21875 1240.59375 226.730469 C 1237.621094 232.742188 1236.429688 234.460938 1231.207031 239.683594 C 1226.117188 244.707031 1224.203125 246.097656 1218.914062 248.675781 C 1210.054688 252.972656 1205.164062 254.09375 1194.785156 254.09375 C 1188.640625 254.09375 1184.871094 253.765625 1181.566406 252.90625 C 1161.734375 247.75 1147.921875 232.546875 1143.953125 211.527344 C 1142.765625 205.3125 1142.566406 192.488281 1143.625 186.671875 C 1147.789062 163.140625 1164.3125 146.347656 1186.855469 142.714844 C 1192.140625 141.855469 1203.445312 142.582031 1209 144.101562 Z M 1209 144.101562 "/>
<path style=" stroke:none;fill-rule:nonzero;fill:rgb(0%,0%,0%);fill-opacity:1;" d="M 1332.078125 198.105469 L 1332.277344 311.667969 L 1362.484375 311.867188 L 1392.695312 312 L 1392.894531 243.453125 C 1393.089844 179.003906 1393.15625 174.640625 1394.347656 171.203125 C 1398.910156 157.386719 1409.089844 147.871094 1422.175781 145.09375 C 1439.5625 141.457031 1454.5 149.125 1460.976562 165.121094 L 1462.496094 168.890625 L 1462.828125 240.28125 L 1463.160156 311.667969 L 1523.972656 311.667969 L 1523.972656 238.628906 C 1523.972656 166.445312 1523.90625 165.519531 1522.519531 157.652344 C 1518.816406 137.292969 1511.808594 122.289062 1500.308594 109.992188 C 1485.566406 94.195312 1463.953125 85.269531 1440.355469 85.269531 C 1432.488281 85.269531 1423.367188 86.988281 1414.773438 89.964844 C 1408.824219 92.078125 1398.445312 97.039062 1395.273438 99.21875 C 1394.347656 99.945312 1393.355469 100.472656 1393.15625 100.472656 C 1392.960938 100.472656 1392.761719 96.90625 1392.761719 92.542969 L 1392.761719 84.609375 L 1331.949219 84.609375 Z M 1332.078125 198.105469 "/>
<path style=" stroke:none;fill-rule:nonzero;fill:rgb(0%,0%,0%);fill-opacity:1;" d="M 1650.226562 85.335938 C 1632.113281 87.054688 1613.738281 93.535156 1598.667969 103.648438 C 1589.347656 109.859375 1576.257812 122.949219 1569.980469 132.402344 C 1561.714844 144.960938 1556.230469 158.179688 1552.859375 173.78125 C 1551.273438 181.515625 1551.140625 183.300781 1551.074219 197.972656 C 1551.074219 211.988281 1551.273438 214.699219 1552.59375 221.441406 C 1558.941406 252.773438 1575.332031 277.5625 1600.648438 294.152344 C 1619.953125 306.710938 1646.261719 313.320312 1669.859375 311.40625 C 1697.027344 309.15625 1718.773438 299.441406 1736.886719 281.328125 C 1748.121094 270.027344 1755.328125 258.855469 1760.21875 244.972656 C 1762.070312 239.683594 1767.558594 219.191406 1767.558594 217.472656 C 1767.558594 217.011719 1757.707031 216.8125 1736.621094 216.8125 L 1705.621094 216.8125 L 1704.496094 222.101562 C 1701.257812 237.304688 1690.285156 248.742188 1675.015625 252.90625 C 1668.734375 254.625 1655.910156 254.425781 1649.035156 252.640625 C 1633.964844 248.542969 1622 237.703125 1615.984375 222.628906 C 1612.613281 214.234375 1611.953125 210.136719 1611.953125 197.972656 C 1612.019531 188.523438 1612.21875 185.878906 1613.40625 181.449219 C 1617.703125 165.914062 1627.023438 153.882812 1639.648438 147.671875 C 1649.566406 142.847656 1658.953125 141.257812 1669.132812 142.714844 C 1687.046875 145.359375 1700.132812 157.320312 1703.835938 174.507812 L 1704.957031 179.796875 L 1735.960938 179.796875 C 1752.949219 179.796875 1766.894531 179.597656 1766.894531 179.398438 C 1766.894531 178.144531 1761.9375 158.777344 1760.484375 154.347656 C 1757.90625 146.347656 1753.476562 137.359375 1748.585938 129.957031 C 1743.03125 121.496094 1729.945312 108.273438 1721.945312 102.988281 C 1700.925781 89.105469 1675.941406 82.957031 1650.226562 85.335938 Z M 1650.226562 85.335938 "/>
<path style=" stroke:none;fill-rule:nonzero;fill:rgb(0%,0%,0%);fill-opacity:1;" d="M 1886.605469 85.335938 C 1868.824219 87.054688 1852.367188 92.871094 1837.957031 102.722656 C 1830.550781 107.746094 1819.445312 118.785156 1814.027344 126.453125 C 1795.453125 152.828125 1788.378906 191.363281 1795.648438 226.066406 C 1805.101562 270.820312 1837.03125 302.480469 1880.328125 310.082031 C 1889.777344 311.667969 1903.792969 312 1910.996094 310.742188 C 1926.332031 307.96875 1941.800781 299.902344 1956.144531 287.078125 L 1961.566406 282.320312 L 1965.53125 282.253906 L 1969.5625 282.253906 L 1974.453125 290.320312 C 1980.667969 300.5625 1982.1875 302.21875 1987.542969 304.859375 L 1991.972656 307.042969 L 2027.667969 307.042969 L 2027.863281 278.75 L 2027.996094 250.527344 L 2007.503906 250.527344 L 2007.375 167.699219 L 2007.175781 84.941406 L 1947.023438 84.941406 L 1946.625 98.558594 L 1941.867188 95.914062 C 1925.871094 87.121094 1906.503906 83.421875 1886.605469 85.335938 Z M 1913.3125 143.835938 C 1931.289062 148.664062 1943.71875 164.328125 1947.023438 186.207031 C 1950.527344 209.210938 1943.785156 232.082031 1930.035156 244.246094 C 1925.472656 248.210938 1917.609375 252.113281 1911.261719 253.566406 C 1904.386719 255.085938 1892.621094 254.625 1886.539062 252.574219 C 1874.113281 248.34375 1864 238.691406 1858.644531 225.9375 C 1855.339844 218.136719 1854.082031 211.988281 1853.6875 201.941406 C 1852.894531 182.242188 1858.183594 166.640625 1869.351562 155.273438 C 1876.160156 148.398438 1883.5 144.5 1892.886719 142.78125 C 1897.378906 141.988281 1908.550781 142.515625 1913.3125 143.835938 Z M 1913.3125 143.835938 "/>
<path style=" stroke:none;fill-rule:nonzero;fill:rgb(0%,0%,0%);fill-opacity:1;" d="M 2039.695312 85.074219 C 2039.433594 85.269531 2039.234375 98.226562 2039.234375 113.828125 L 2039.234375 142.117188 L 2075.589844 142.117188 L 2075.722656 226.859375 L 2075.921875 311.667969 L 2106.855469 311.867188 L 2137.726562 312 L 2137.59375 212.054688 L 2137.394531 112.042969 L 2135.808594 109.066406 C 2133.957031 105.433594 2118.621094 89.765625 2114.921875 87.585938 C 2113.464844 86.726562 2110.691406 85.734375 2108.773438 85.335938 C 2104.941406 84.542969 2040.425781 84.28125 2039.695312 85.074219 Z M 2039.695312 85.074219 "/>
<path style=" stroke:none;fill-rule:nonzero;fill:rgb(0%,0%,0%);fill-opacity:1;" d="M 2257.039062 85.269531 C 2233.707031 87.652344 2213.28125 96.773438 2197.480469 111.84375 C 2176.261719 132.136719 2164.828125 159.832031 2163.703125 193.414062 C 2162.777344 221.441406 2169.191406 245.632812 2183.136719 266.652344 C 2188.953125 275.445312 2201.777344 288.335938 2210.4375 294.085938 C 2225.640625 304.132812 2242.363281 309.820312 2261.667969 311.339844 C 2285.660156 313.320312 2307.871094 304.859375 2327.503906 286.351562 L 2331.867188 282.253906 L 2336.097656 282.253906 L 2340.328125 282.320312 L 2345.285156 290.582031 C 2350.769531 299.835938 2354.671875 303.9375 2359.695312 305.785156 C 2362.273438 306.777344 2365.644531 306.976562 2380.515625 307.242188 L 2398.167969 307.503906 L 2398.167969 250.527344 L 2377.675781 250.527344 L 2377.675781 84.609375 L 2317.523438 84.609375 L 2317.523438 91.617188 C 2317.523438 95.449219 2317.324219 98.492188 2317.058594 98.359375 C 2316.730469 98.226562 2313.554688 96.640625 2309.921875 94.789062 C 2294.453125 86.859375 2275.347656 83.421875 2257.039062 85.269531 Z M 2283.808594 143.769531 C 2292.46875 146.085938 2300.535156 151.4375 2306.417969 158.710938 C 2319.570312 175.167969 2322.414062 204.847656 2312.960938 226.925781 C 2307.804688 238.957031 2297.296875 248.871094 2285.792969 252.640625 C 2279.644531 254.558594 2267.8125 255.019531 2261.070312 253.5 C 2244.613281 249.863281 2232.382812 237.371094 2226.566406 218.398438 C 2224.78125 212.78125 2224.714844 211.855469 2224.714844 198.964844 C 2224.714844 182.96875 2225.507812 179.136719 2230.996094 167.964844 C 2233.902344 162.082031 2235.226562 160.230469 2240.117188 155.339844 C 2247.652344 147.804688 2254.59375 144.234375 2264.972656 142.515625 C 2268.410156 141.988281 2280.042969 142.714844 2283.808594 143.769531 Z M 2283.808594 143.769531 "/>
</g>
</svg>
