<?xml version="1.0" standalone="no"?>
<!DOCTYPE svg PUBLIC "-//W3C//DTD SVG 20010904//EN"
 "http://www.w3.org/TR/2001/REC-SVG-20010904/DTD/svg10.dtd">
<svg version="1.0" xmlns="http://www.w3.org/2000/svg"
 width="3693.000000pt" height="472.000000pt" viewBox="0 0 3693.000000 472.000000"
 preserveAspectRatio="xMidYMid meet">

<g transform="translate(0.000000,472.000000) scale(0.100000,-0.100000)"
fill="#000000" stroke="none">
<path d="M31755 4714 c-126 -19 -240 -76 -325 -163 -244 -248 -195 -670 99
-855 157 -99 406 -103 571 -8 110 63 199 169 241 287 30 85 37 247 14 335 -48
185 -192 332 -375 384 -60 16 -177 27 -225 20z"/>
<path d="M2951 3814 c-112 -30 -227 -117 -283 -214 -15 -25 -144 -369 -288
-765 -144 -396 -268 -736 -276 -755 -20 -47 -61 -89 -109 -111 -37 -17 -74
-19 -517 -19 -309 0 -496 -4 -530 -11 -119 -25 -235 -102 -301 -202 -25 -38
-120 -286 -336 -880 -166 -455 -301 -829 -301 -832 0 -3 344 -5 764 -5 l763 0
323 888 c177 488 332 905 344 927 11 21 41 53 64 70 l44 30 637 3 637 2 294
-807 c161 -445 304 -830 318 -857 34 -68 121 -157 191 -195 121 -64 45 -61
1479 -61 1237 0 1304 1 1299 18 -4 16 -219 607 -975 2679 -165 453 -311 844
-324 870 -29 59 -120 150 -185 185 -110 60 -50 58 -1423 57 -1064 0 -1263 -3
-1309 -15z m1413 -256 c9 -24 144 -394 300 -823 l283 -780 -338 -3 c-187 -1
-492 -1 -678 0 l-340 3 295 810 c161 446 296 816 299 823 3 8 29 12 84 12 l79
0 16 -42z"/>
<path d="M10096 3763 c-140 -372 -1396 -3748 -1396 -3754 0 -5 199 -8 472 -7
l471 3 213 580 c117 319 221 599 230 623 16 43 16 43 62 40 l46 -3 76 -122
c89 -144 116 -175 190 -211 l55 -27 466 -3 466 -3 153 -417 c84 -229 157 -427
161 -439 l9 -23 471 0 471 0 -5 22 c-3 11 -320 873 -704 1915 l-698 1893 -591
0 -592 0 -26 -67z m659 -990 c17 -45 375 -1025 375 -1029 0 -2 -192 -4 -426
-4 -402 0 -426 1 -419 18 8 21 354 966 367 1005 9 24 15 27 53 27 32 0 45 -5
50 -17z"/>
<path d="M36553 3450 c-103 -21 -190 -87 -235 -178 -33 -68 -33 -206 0 -274
55 -112 166 -180 294 -181 116 0 233 74 283 179 34 71 41 139 22 210 -44 169
-204 276 -364 244z m129 -70 c101 -28 178 -135 178 -245 0 -225 -266 -338
-428 -182 -56 53 -76 102 -76 182 0 52 5 80 21 110 60 113 185 168 305 135z"/>
<path d="M36460 3142 l0 -172 30 0 30 0 0 65 0 65 40 0 c39 0 42 -3 82 -65 39
-61 44 -65 80 -65 21 0 38 3 38 6 0 3 -20 35 -44 70 l-45 63 30 30 c33 33 38
75 14 120 -19 37 -31 41 -152 48 l-103 6 0 -171z m175 98 c21 -8 26 -16 23
-38 -3 -26 -5 -27 -70 -30 l-68 -3 0 41 0 40 44 0 c25 0 57 -5 71 -10z"/>
<path d="M14228 3430 c-375 -40 -718 -192 -975 -435 -261 -245 -419 -534 -500
-914 -25 -116 -27 -144 -27 -361 0 -217 2 -245 26 -360 75 -350 223 -634 453
-866 250 -252 537 -400 905 -465 163 -30 420 -29 584 0 563 100 1015 473 1201
991 25 72 105 379 105 407 0 11 -83 13 -467 11 l-467 -3 -18 -76 c-34 -152
-111 -275 -226 -359 -246 -182 -636 -166 -887 37 -347 282 -396 893 -100 1265
85 108 242 208 379 243 386 97 742 -102 824 -462 l18 -78 467 -3 c335 -1 467
1 467 9 0 25 -83 345 -106 412 -39 107 -127 275 -197 374 -119 166 -314 339
-502 443 -147 81 -362 152 -541 179 -104 16 -316 21 -416 11z"/>
<path d="M17900 3429 c-578 -59 -1075 -388 -1329 -879 -131 -253 -188 -476
-198 -770 -14 -426 102 -815 338 -1126 126 -167 320 -335 510 -442 143 -81
410 -166 609 -193 144 -20 396 -15 545 11 243 41 482 136 685 271 131 86 343
300 432 434 349 525 389 1231 102 1795 -246 482 -685 797 -1234 885 -124 19
-340 26 -460 14z m390 -889 c335 -94 551 -379 576 -760 12 -174 -19 -331 -98
-490 -45 -91 -63 -117 -142 -196 -77 -76 -106 -97 -186 -136 -134 -65 -208
-82 -365 -82 -93 0 -150 5 -200 18 -300 78 -509 308 -569 626 -18 94 -21 288
-5 376 63 356 313 610 654 665 80 13 251 2 335 -21z"/>
<path d="M20152 1723 l3 -1718 457 -3 457 -2 3 1037 c3 975 4 1041 22 1093 69
209 223 353 421 395 263 55 489 -61 587 -303 l23 -57 5 -1080 5 -1080 460 0
460 0 0 1105 c0 1092 -1 1106 -22 1225 -56 308 -162 535 -336 721 -223 239
-550 374 -907 374 -119 0 -257 -26 -387 -71 -90 -32 -247 -107 -295 -140 -14
-11 -29 -19 -32 -19 -3 0 -6 54 -6 120 l0 120 -460 0 -460 0 2 -1717z"/>
<path d="M24965 3429 c-274 -26 -552 -124 -780 -277 -141 -94 -339 -292 -434
-435 -125 -190 -208 -390 -259 -626 -24 -117 -26 -144 -27 -366 0 -212 3 -253
23 -355 96 -474 344 -849 727 -1100 292 -190 690 -290 1047 -261 411 34 740
181 1014 455 170 171 279 340 353 550 28 80 111 390 111 416 0 7 -149 10 -468
10 l-469 0 -17 -80 c-49 -230 -215 -403 -446 -466 -95 -26 -289 -23 -393 4
-228 62 -409 226 -500 454 -51 127 -61 189 -61 373 1 143 4 183 22 250 65 235
206 417 397 511 150 73 292 97 446 75 271 -40 469 -221 525 -481 l17 -80 469
0 c257 0 468 3 468 6 0 19 -75 312 -97 379 -39 121 -106 257 -180 369 -84 128
-282 328 -403 408 -318 210 -696 303 -1085 267z"/>
<path d="M28541 3429 c-269 -26 -518 -114 -736 -263 -112 -76 -280 -243 -362
-359 -281 -399 -388 -982 -278 -1507 143 -677 626 -1156 1281 -1271 143 -24
355 -29 464 -10 232 42 466 164 683 358 l82 72 60 1 61 0 74 -122 c94 -155
117 -180 198 -220 l67 -33 270 0 270 0 3 428 2 427 -155 0 -155 0 -2 1253 -3
1252 -455 0 -455 0 -3 -103 -3 -103 -72 40 c-242 133 -535 189 -836 160z m404
-885 c272 -73 460 -310 510 -641 53 -348 -49 -694 -257 -878 -69 -60 -188
-119 -284 -141 -104 -23 -282 -16 -374 15 -188 64 -341 210 -422 403 -50 118
-69 211 -75 363 -12 298 68 534 237 706 103 104 214 163 356 189 68 12 237 4
309 -16z"/>
<path d="M30857 3433 c-4 -3 -7 -199 -7 -435 l0 -428 275 0 275 0 2 -1282 3
-1283 468 -3 467 -2 -2 1512 -3 1513 -24 45 c-28 55 -260 292 -316 325 -22 13
-64 28 -93 34 -58 12 -1034 16 -1045 4z"/>
<path d="M34145 3430 c-353 -36 -662 -174 -901 -402 -321 -307 -494 -726 -511
-1234 -14 -424 83 -790 294 -1108 88 -133 282 -328 413 -415 230 -152 483
-238 775 -261 363 -30 699 98 996 378 l66 62 64 0 64 -1 75 -125 c83 -140 142
-202 218 -230 39 -15 90 -18 315 -22 l267 -4 0 431 0 431 -155 0 -155 0 0
1255 0 1255 -455 0 -455 0 0 -106 c0 -58 -3 -104 -7 -102 -5 2 -53 26 -108 54
-234 120 -523 172 -800 144z m405 -885 c131 -35 253 -116 342 -226 199 -249
242 -698 99 -1032 -78 -182 -237 -332 -411 -389 -93 -29 -272 -36 -374 -13
-249 55 -434 244 -522 531 -27 85 -28 99 -28 294 0 242 12 300 95 469 44 89
64 117 138 191 114 114 219 168 376 194 52 8 228 -3 285 -19z"/>
</g>
</svg>
