<svg width="1027" height="126" viewBox="0 0 1027 126" fill="none" xmlns="http://www.w3.org/2000/svg">
<path d="M1019.03 42.8505L1018.9 42.7454C1019.4 42.6233 1019.85 42.375 1020.21 42.0271C1020.66 41.5683 1020.91 40.9586 1020.89 40.3285C1020.9 39.831 1020.76 39.3419 1020.49 38.9157C1020.24 38.5001 1019.85 38.1791 1019.38 38.0049C1018.78 37.816 1018.14 37.733 1017.5 37.7598H1013.35V46.7269H1015.06V42.9845H1016.13C1016.33 42.9758 1016.53 42.9856 1016.73 43.0137C1016.89 43.0556 1017.04 43.1207 1017.17 43.2065C1017.37 43.3473 1017.55 43.5166 1017.7 43.7085C1017.91 43.9712 1018.18 44.3449 1018.51 44.8762L1019.73 46.7558H1021.84L1020.02 44.0531C1019.73 43.6253 1019.39 43.233 1019.01 42.8854M1018.4 41.3793C1018.03 41.4882 1017.64 41.5355 1017.25 41.5193H1015.03V39.2659H1017.53C1017.97 39.2283 1018.41 39.342 1018.77 39.587C1018.89 39.6835 1018.98 39.8037 1019.04 39.939C1019.1 40.0744 1019.13 40.2213 1019.13 40.3691C1019.12 40.5769 1019.06 40.7796 1018.94 40.9531C1018.81 41.1414 1018.62 41.2814 1018.39 41.3501" fill="#00FFFF"/>
<path d="M1017.46 33.7313C1015.71 33.7313 1014 34.231 1012.54 35.1669C1011.09 36.1029 1009.95 37.4331 1009.28 38.9895C1008.61 40.5459 1008.44 42.2584 1008.78 43.9106C1009.12 45.5629 1009.96 47.0804 1011.2 48.2716C1012.44 49.4628 1014.02 50.274 1015.73 50.6027C1017.45 50.9313 1019.23 50.7627 1020.85 50.1181C1022.46 49.4734 1023.84 48.3817 1024.82 46.981C1025.79 45.5803 1026.31 43.9334 1026.31 42.2488C1026.31 39.9903 1025.37 37.8247 1023.71 36.2277C1022.06 34.6307 1019.81 33.7329 1017.46 33.7313ZM1024.63 42.2488C1024.63 43.6135 1024.21 44.948 1023.42 46.0828C1022.63 47.2175 1021.51 48.1017 1020.2 48.624C1018.89 49.1463 1017.45 49.2829 1016.06 49.0167C1014.67 48.7504 1013.39 48.0932 1012.39 47.1282C1011.39 46.1632 1010.7 44.9338 1010.43 43.5953C1010.15 42.2567 1010.29 40.869 1010.84 39.6081C1011.38 38.3472 1012.3 37.2696 1013.48 36.5113C1014.66 35.7531 1016.04 35.3487 1017.46 35.3487C1019.36 35.3502 1021.18 36.0777 1022.53 37.3715C1023.87 38.6652 1024.63 40.4191 1024.63 42.2488Z" fill="#00FFFF"/>
<path d="M179.691 74.0487H179.648L163.746 32.0156C162.82 29.5684 161.135 27.4548 158.918 25.9613C156.701 24.4679 154.061 23.667 151.356 23.6674H85.3452C82.6259 23.6686 79.9728 24.4746 77.7455 25.9763C75.5182 27.478 73.8245 29.6027 72.8941 32.0622L58.4717 70.2421C58.0437 71.3592 57.2712 72.3237 56.2576 73.0061C55.244 73.6885 54.0379 74.0566 52.801 74.0605H28.7537C26.0332 74.0597 23.3782 74.8647 21.1496 76.3665C18.9209 77.8684 17.2265 79.9944 16.2964 82.4553L0 125.562H42.4543L60.461 77.9482C60.8835 76.8273 61.6545 75.8589 62.6692 75.1747C63.6838 74.4905 64.8928 74.1239 66.1317 74.1246H99.4886L115.755 117.144C116.687 119.613 118.386 121.746 120.621 123.253C122.857 124.76 125.519 125.568 128.248 125.568H199.177L179.691 74.0487ZM99.4643 74.1128L116.21 29.7447H120.722L137.479 74.1128H99.4643Z" fill="#00FFFF"/>
<path d="M502.38 34.2336C496.093 34.1056 489.844 35.2056 484.01 37.4672C478.177 39.7288 472.88 43.1051 468.44 47.3921C464 51.6791 460.508 56.7879 458.177 62.4099C455.845 68.0319 454.722 74.0505 454.874 80.1022C454.637 86.1627 455.698 92.2052 457.99 97.8544C460.282 103.504 463.756 108.639 468.198 112.941C472.639 117.242 477.952 120.619 483.806 122.86C489.66 125.102 495.931 126.161 502.229 125.971C514.867 125.99 526.997 121.176 535.948 112.587C544.899 103.998 549.939 92.3383 549.959 80.1724C549.979 68.0065 544.978 56.3312 536.055 47.715C527.132 39.0987 515.019 34.253 502.38 34.2336ZM524.372 80.0965C524.072 84.2299 522.525 88.1889 519.921 91.4884C517.317 94.7878 513.77 97.2843 509.714 98.671C505.657 100.058 501.269 100.275 497.086 99.2957C492.904 98.3164 489.109 96.1833 486.168 93.1581C483.226 90.1329 481.266 86.347 480.528 82.2651C479.789 78.1831 480.305 73.9822 482.011 70.178C483.716 66.3739 486.539 63.1318 490.131 60.8492C493.724 58.5667 497.93 57.3431 502.234 57.3284C505.272 57.3267 508.278 57.926 511.065 59.0887C513.852 60.2514 516.361 61.9526 518.437 64.0875C520.512 66.2223 522.11 68.745 523.131 71.4989C524.152 74.2527 524.574 77.1791 524.372 80.0965Z" fill="#00FFFF"/>
<path d="M418.678 87.5984L418.241 89.6708C417.432 93.5381 415.207 96.9969 411.971 99.4175C408.735 101.838 404.703 103.059 400.61 102.858C394.691 102.396 389.166 99.8159 385.126 95.6259C381.086 91.436 378.824 85.9409 378.786 80.2244C378.748 74.508 380.937 68.9854 384.921 64.7459C388.905 60.5064 394.394 57.8578 400.307 57.3227C404.385 57.1299 408.401 58.3484 411.627 60.7577C414.852 63.1669 417.076 66.6077 417.895 70.4581L418.338 72.519H444.344L442.634 65.7001C440.33 56.5501 434.841 48.4354 427.079 42.7062C419.317 36.977 409.752 33.9789 399.974 34.2105C387.522 34.4993 375.682 39.4686 366.988 48.0545C358.295 56.6405 353.438 68.1609 353.458 80.1503C353.478 92.1397 358.373 103.645 367.094 112.205C375.816 120.764 387.672 125.697 400.125 125.948C409.926 126.195 419.518 123.205 427.308 117.475C435.097 111.745 440.613 103.62 442.937 94.4522L444.66 87.5749L418.678 87.5984Z" fill="#00FFFF"/>
<path d="M717.211 87.5984L716.774 89.6707C715.965 93.538 713.74 96.9969 710.504 99.4175C707.268 101.838 703.236 103.059 699.144 102.858C693.224 102.396 687.7 99.8146 683.661 95.6241C679.621 91.4337 677.36 85.9383 677.322 80.2219C677.285 74.5055 679.475 68.9831 683.459 64.7441C687.443 60.5051 692.934 57.8571 698.846 57.3227C702.924 57.1311 706.939 58.35 710.164 60.759C713.39 63.1681 715.614 66.6083 716.434 70.458L716.877 72.519H742.884L741.173 65.7062C738.87 56.5551 733.381 48.439 725.619 42.7086C717.858 36.9783 708.292 33.9791 698.513 34.2104C686.061 34.4993 674.221 39.4685 665.527 48.0545C656.834 56.6405 651.977 68.1609 651.997 80.1503C652.017 92.1397 656.912 103.645 665.634 112.205C674.355 120.764 686.212 125.697 698.664 125.948C708.464 126.195 718.056 123.205 725.844 117.475C733.632 111.744 739.147 103.619 741.47 94.4522L743.199 87.5749L717.211 87.5984Z" fill="#00FFFF"/>
<path d="M843.876 101.265V34.2101H818.658V39.9899C812.418 36.1331 805.137 34.1309 797.722 34.2336C771.873 34.2336 753.824 53.1544 753.824 80.2483C753.824 106.747 772.662 125.977 798.62 125.977C808.584 125.452 817.932 121.169 824.638 114.055H828.138L832.347 120.693L832.577 121.003C833.414 121.971 834.463 122.75 835.649 123.283C836.834 123.817 838.128 124.093 839.436 124.091H852.494V101.265H843.876ZM819.113 80.3883C819.113 91.276 812.89 103.005 799.232 103.005C787.436 103.005 779.218 93.7046 779.218 80.3883C779.218 66.8151 787.394 57.3402 799.099 57.3402C811.265 57.3402 819.113 66.3889 819.113 80.3883Z" fill="#00FFFF"/>
<path d="M999.738 101.265V34.2101H974.526V39.9899C968.286 36.135 961.004 34.133 953.59 34.2336C927.747 34.2336 909.698 53.1544 909.698 80.2483C909.698 106.747 928.536 125.977 954.493 125.977C964.458 125.452 973.806 121.168 980.512 114.055H984.011L988.214 120.693L988.445 121.003C989.283 121.97 990.331 122.749 991.517 123.283C992.702 123.816 993.995 124.093 995.304 124.091H1008.36V101.265H999.738ZM974.975 80.3883C974.975 91.276 968.752 103.005 955.094 103.005C943.298 103.005 935.08 93.7046 935.08 80.3883C935.08 66.8151 943.255 57.3402 954.961 57.3402C967.127 57.3402 974.975 66.3889 974.975 80.3883Z" fill="#00FFFF"/>
<path d="M884.395 29.3411C887.41 29.3561 890.361 28.5104 892.876 26.9106C895.392 25.3108 897.358 23.0289 898.525 20.3537C899.693 17.6784 900.01 14.7296 899.437 11.8808C898.864 9.03189 897.425 6.41098 895.304 4.3489C893.183 2.28681 890.475 0.876264 887.521 0.296126C884.567 -0.284012 881.501 -0.00773158 878.71 1.08965C875.92 2.18703 873.53 4.0562 871.843 6.46115C870.156 8.86611 869.248 11.6988 869.233 14.6005C869.188 16.5358 869.549 18.4601 870.293 20.2585C871.037 22.0569 872.15 23.6925 873.564 25.0681C874.979 26.4437 876.668 27.5309 878.528 28.265C880.389 28.9992 882.385 29.3651 884.395 29.3411Z" fill="#00FFFF"/>
<path d="M890.812 36.5102C890.077 35.7973 889.202 35.2321 888.237 34.8472C887.273 34.4624 886.24 34.2659 885.196 34.2686H857.552V57.3577H872.878V125.976H898.83V47.3979C898.823 45.3693 897.987 43.425 896.501 41.9861L890.812 36.5102Z" fill="#00FFFF"/>
<path d="M605.319 34.368C598.238 34.6697 591.385 36.8718 585.536 40.7255V34.1696H560.063V125.971H585.536V73.768C585.458 71.7348 585.809 69.7077 586.568 67.8089C587.327 65.9101 588.479 64.1792 589.953 62.721C591.427 61.2629 593.193 60.1077 595.144 59.3253C597.095 58.5429 599.191 58.1495 601.304 58.1691C603.185 58.1152 605.056 58.4395 606.798 59.1211C608.541 59.8028 610.117 60.8268 611.425 62.1278C612.733 63.4287 613.745 64.9782 614.396 66.6769C615.047 68.3756 615.322 70.1864 615.205 71.9935V126H640.678V71.2577C640.678 49.2079 626.48 34.3912 605.35 34.3912" fill="#00FFFF"/>
<path d="M314.023 23.6553H281.212L241.578 125.976H267.827L280.526 92.7006H283.189L286.882 98.4918C287.667 99.7119 288.761 100.72 290.062 101.42C291.363 102.121 292.827 102.491 294.318 102.497H318.032L326.996 125.965H353.22L314.023 23.6553ZM285.463 79.6526L296.216 51.3213H298.606L309.359 79.6526H285.463Z" fill="#00FFFF"/>
</svg>
