<?xml version="1.0" encoding="UTF-8"?>
<svg xmlns="http://www.w3.org/2000/svg" xmlns:xlink="http://www.w3.org/1999/xlink" width="4924px" height="2723px" viewBox="0 0 4924 2723" version="1.1">
<g id="surface1">
<path style=" stroke:none;fill-rule:nonzero;fill:rgb(0%,0%,0%);fill-opacity:1;" d="M 1247.304688 2.445312 C 999.066406 21.605469 834.796875 64 659.929688 153.269531 C 367.667969 302.871094 169.566406 551.121094 63.589844 901.6875 C 17.527344 1054.144531 -6.929688 1275.898438 3.261719 1451.996094 C 6.113281 1498.871094 11.003906 1558.796875 14.265625 1584.882812 C 50.136719 1860.445312 155.300781 2137.230469 293.074219 2317.402344 C 321.203125 2354.5 381.9375 2416.050781 409.652344 2435.617188 C 469.574219 2478.417969 521.75 2495.949219 586.96875 2496.355469 C 644.03125 2496.355469 678.679688 2484.941406 751.234375 2440.917969 C 851.101562 2380.585938 884.117188 2367.136719 937.925781 2367.136719 C 995.398438 2367.136719 1033.304688 2385.886719 1129.097656 2461.707031 C 1207.359375 2523.667969 1257.902344 2545.269531 1322.714844 2545.269531 C 1395.675781 2544.863281 1430.730469 2526.925781 1509.808594 2448.660156 C 1581.957031 2377.324219 1618.234375 2359.390625 1689.566406 2359.796875 C 1767.832031 2360.207031 1845.277344 2398.929688 1942.289062 2486.164062 C 1953.703125 2496.355469 1991.203125 2531.410156 2025.851562 2564.429688 C 2104.113281 2638.621094 2126.125 2657.371094 2163.21875 2682.238281 C 2219.875 2720.148438 2270.828125 2730.335938 2312.40625 2711.585938 C 2360.503906 2689.980469 2389.445312 2651.257812 2474.226562 2496.761719 C 2561.867188 2336.96875 2612.003906 2192.667969 2655.210938 1977.027344 C 2732.65625 1586.515625 2721.242188 1191.109375 2620.5625 811.601562 C 2613.632812 784.289062 2604.257812 757.792969 2600.589844 752.902344 C 2594.066406 745.15625 2589.582031 744.339844 2539.039062 744.339844 C 2488.085938 743.933594 2482.789062 743.117188 2461.59375 732.519531 C 2434.691406 719.476562 2404.933594 694.609375 2393.113281 675.042969 C 2388.222656 667.296875 2379.253906 659.144531 2372.324219 656.292969 C 2361.320312 651.808594 2358.058594 652.625 2334.417969 665.667969 C 2247.1875 714.582031 2151.804688 717.84375 2064.167969 674.636719 C 2002.210938 644.46875 1954.109375 593.515625 1927.617188 530.332031 C 1921.5 515.65625 1912.125 500.167969 1906.417969 496.089844 C 1897.453125 489.160156 1895.414062 488.753906 1860.359375 495.683594 C 1816.335938 503.835938 1782.097656 501.796875 1742.558594 487.9375 C 1583.996094 433.316406 1497.171875 302.058594 1535.898438 176.503906 C 1547.71875 138.597656 1544.863281 131.257812 1512.664062 114.136719 C 1482.089844 97.832031 1449.890625 64.40625 1436.4375 35.054688 C 1431.140625 22.828125 1423.394531 10.597656 1419.726562 7.335938 C 1414.835938 3.261719 1394.863281 2.039062 1339.425781 1.628906 C 1298.664062 1.222656 1257.496094 1.628906 1247.304688 2.445312 Z M 1280.320312 168.761719 C 1304.371094 177.730469 1327.199219 196.480469 1337.386719 216.863281 C 1341.871094 225.828125 1350.839844 257.625 1357.359375 287.382812 C 1374.074219 366.054688 1383.855469 394.996094 1409.535156 445.953125 C 1429.101562 484.269531 1438.070312 496.5 1467.417969 526.257812 C 1520.816406 580.472656 1560.761719 597.59375 1703.019531 627.351562 C 1817.558594 650.992188 1833.863281 661.589844 1890.523438 748.007812 C 1947.996094 835.242188 2001.800781 868.261719 2106.152344 880.492188 C 2158.734375 886.605469 2205.203125 881.304688 2266.753906 862.148438 C 2291.617188 854.402344 2319.742188 847.878906 2329.117188 847.878906 C 2409.011719 847.878906 2488.902344 981.585938 2528.847656 1182.140625 C 2546.785156 1273.449219 2553.304688 1343.15625 2553.304688 1447.101562 C 2552.492188 1718.996094 2497.460938 2042.25 2414.714844 2257.074219 C 2346.238281 2435.617188 2269.199219 2507.359375 2189.304688 2467.820312 C 2161.996094 2453.960938 2133.871094 2426.242188 2071.910156 2352.050781 C 1944.328125 2198.78125 1865.65625 2151.902344 1736.445312 2151.089844 C 1628.832031 2150.679688 1559.945312 2177.992188 1460.894531 2261.148438 C 1386.710938 2323.519531 1360.214844 2336.5625 1308.445312 2336.5625 C 1259.125 2336.96875 1228.148438 2321.480469 1163.742188 2264.410156 C 1093.226562 2202.042969 1054.910156 2177.992188 1005.996094 2166.578125 C 968.902344 2158.019531 904.90625 2158.832031 866.589844 2168.617188 C 829.90625 2177.992188 776.914062 2202.042969 743.492188 2224.460938 C 675.011719 2270.527344 626.097656 2286.015625 572.292969 2278.269531 C 557.210938 2276.230469 536.832031 2270.933594 527.046875 2266.449219 C 450.824219 2233.023438 311.011719 2007.601562 243.753906 1809.898438 C 195.65625 1668.042969 172.421875 1542.082031 168.34375 1398.1875 C 163.863281 1241.65625 186.28125 1087.160156 238.457031 915.140625 C 320.386719 645.695312 470.796875 449.214844 701.507812 309.394531 C 824.605469 235.207031 975.015625 183.027344 1112.792969 167.539062 C 1133.988281 165.09375 1157.222656 162.238281 1163.742188 161.421875 C 1190.644531 157.753906 1261.980469 162.238281 1280.320312 168.761719 Z M 1280.320312 168.761719 "/>
<path style=" stroke:none;fill-rule:nonzero;fill:rgb(0%,0%,0%);fill-opacity:1;" d="M 559.25 1045.992188 C 512.375 1069.226562 471.203125 1138.117188 452.453125 1223.71875 C 438.59375 1287.71875 440.226562 1385.550781 456.53125 1453.625 C 474.058594 1528.222656 518.488281 1597.929688 560.472656 1617.902344 C 584.519531 1629.316406 617.945312 1629.316406 641.996094 1617.902344 C 684.386719 1597.929688 725.554688 1534.746094 744.304688 1460.554688 C 772.839844 1348.457031 763.464844 1226.574219 719.441406 1134.855469 C 688.464844 1070.449219 646.886719 1035.390625 601.234375 1035.390625 C 586.96875 1035.390625 573.515625 1038.652344 559.25 1045.992188 Z M 559.25 1045.992188 "/>
<path style=" stroke:none;fill-rule:nonzero;fill:rgb(0%,0%,0%);fill-opacity:1;" d="M 1655.734375 1043.542969 C 1604.375 1066.78125 1559.539062 1145.859375 1542.417969 1243.285156 C 1532.636719 1301.578125 1536.304688 1402.671875 1550.570312 1456.886719 C 1570.953125 1534.746094 1606.820312 1591.8125 1650.84375 1615.863281 C 1669.1875 1626.054688 1675.300781 1627.277344 1699.757812 1625.648438 C 1723.398438 1624.425781 1730.738281 1621.980469 1748.265625 1610.15625 C 1846.09375 1543.710938 1884.410156 1324.8125 1826.121094 1165.019531 C 1789.027344 1063.519531 1720.140625 1014.195312 1655.734375 1043.542969 Z M 1655.734375 1043.542969 "/>
<path style=" stroke:none;fill-rule:nonzero;fill:rgb(0%,0%,0%);fill-opacity:1;" d="M 4101.429688 4.078125 C 4075.75 9.375 4036.621094 31.796875 4021.128906 50.140625 C 3971.808594 107.617188 3995.042969 201.777344 4066.785156 237.242188 C 4116.105469 261.292969 4171.132812 253.140625 4213.117188 215.230469 C 4241.242188 189.140625 4253.0625 162.238281 4253.0625 123.921875 C 4253.0625 101.09375 4251.027344 90.902344 4241.652344 72.152344 C 4217.601562 22.828125 4156.460938 -6.929688 4101.429688 4.078125 Z M 4101.429688 4.078125 "/>
<path style=" stroke:none;fill-rule:nonzero;fill:rgb(0%,0%,0%);fill-opacity:1;" d="M 3525.46875 142.671875 C 3398.292969 158.570312 3309.839844 236.429688 3309.839844 332.628906 C 3309.839844 353.417969 3310.25 353.828125 3325.332031 359.941406 C 3348.15625 368.910156 3397.480469 378.691406 3437.425781 381.546875 L 3472.070312 384.398438 L 3483.894531 360.757812 C 3498.566406 330.183594 3515.6875 320.808594 3557.671875 318.769531 C 3626.964844 315.101562 3652.238281 343.226562 3652.238281 424.347656 C 3652.238281 446.769531 3651.421875 464.703125 3650.609375 464.703125 C 3649.792969 464.703125 3635.527344 458.179688 3619.222656 450.4375 C 3551.964844 418.640625 3477.777344 420.679688 3405.628906 456.144531 C 3293.535156 511.582031 3252.773438 653.847656 3315.140625 771.652344 C 3349.378906 836.464844 3426.828125 880.492188 3507.535156 880.492188 C 3568.269531 880.492188 3620.035156 862.148438 3657.945312 827.90625 C 3670.582031 816.492188 3682.808594 807.933594 3684.847656 809.15625 C 3686.886719 810.378906 3694.222656 819.347656 3701.558594 829.128906 C 3724.386719 860.925781 3769.632812 878.046875 3831.589844 878.046875 C 3870.71875 878.453125 3892.324219 870.300781 3906.589844 850.734375 C 3913.929688 840.949219 3915.558594 831.574219 3916.78125 790.402344 C 3917.597656 763.5 3916.78125 733.335938 3915.152344 723.550781 L 3912.703125 705.207031 L 3892.730469 705.207031 C 3877.648438 705.207031 3869.90625 702.761719 3861.34375 695.425781 L 3849.933594 685.640625 L 3849.933594 520.957031 C 3849.933594 334.261719 3847.894531 317.140625 3819.359375 258.441406 C 3790.011719 198.109375 3743.542969 166.316406 3660.390625 149.195312 C 3620.851562 141.449219 3559.710938 138.1875 3525.46875 142.671875 Z M 3618.8125 576.804688 C 3626.964844 580.472656 3638.378906 587.402344 3643.679688 592.292969 C 3677.511719 623.679688 3675.878906 692.164062 3640.011719 717.4375 C 3624.519531 728.441406 3595.171875 737.820312 3575.605469 737.820312 C 3498.566406 737.820312 3455.359375 647.730469 3508.351562 598 C 3534.4375 573.542969 3586.613281 563.757812 3618.8125 576.804688 Z M 3618.8125 576.804688 "/>
<path style=" stroke:none;fill-rule:nonzero;fill:rgb(0%,0%,0%);fill-opacity:1;" d="M 4554.292969 144.710938 C 4434.859375 170.800781 4368.828125 300.019531 4368.417969 507.503906 C 4368.417969 641.210938 4396.136719 730.890625 4455.242188 791.21875 C 4499.671875 836.464844 4547.769531 853.996094 4618.289062 851.140625 C 4659.050781 849.511719 4679.839844 842.171875 4705.109375 820.976562 C 4711.632812 815.675781 4718.152344 811.191406 4719.785156 811.191406 C 4721.414062 811.191406 4722.636719 843.804688 4722.636719 883.34375 C 4722.636719 965.277344 4725.492188 975.878906 4748.726562 987.699219 C 4760.953125 994.222656 4771.550781 995.035156 4826.171875 993.8125 C 4899.136719 992.589844 4908.511719 988.921875 4915.441406 963.242188 C 4921.148438 940.003906 4922.371094 184.660156 4916.664062 170.390625 C 4914.21875 164.277344 4908.917969 157.753906 4904.84375 155.714844 C 4887.316406 146.75 4750.761719 147.5625 4741.386719 156.53125 C 4740.574219 157.347656 4738.941406 165.90625 4737.71875 174.875 C 4734.867188 194.441406 4729.566406 195.664062 4715.707031 180.988281 C 4699.8125 164.277344 4674.132812 151.234375 4644.375 144.710938 C 4610.136719 137.371094 4587.71875 137.371094 4554.292969 144.710938 Z M 4688.398438 325.699219 C 4720.601562 346.082031 4734.457031 387.253906 4738.941406 472.449219 C 4743.425781 553.160156 4731.199219 620.828125 4706.742188 650.585938 C 4691.25 668.929688 4673.722656 676.671875 4646.007812 676.671875 C 4618.695312 676.671875 4601.984375 666.890625 4588.125 642.839844 C 4568.964844 610.230469 4564.484375 589.441406 4562.445312 515.65625 C 4559.183594 404.78125 4572.226562 353.828125 4611.765625 326.921875 C 4638.261719 309.394531 4661.902344 308.988281 4688.398438 325.699219 Z M 4688.398438 325.699219 "/>
<path style=" stroke:none;fill-rule:nonzero;fill:rgb(0%,0%,0%);fill-opacity:1;" d="M 3995.449219 302.058594 C 3971.808594 306.542969 3955.097656 317.140625 3948.984375 331.816406 C 3942.460938 346.898438 3942.867188 428.832031 3949.390625 445.136719 C 3955.503906 461.441406 3969.363281 468.371094 4001.972656 471.226562 L 4031.320312 474.078125 L 4031.320312 701.132812 L 4008.902344 701.132812 C 3996.265625 701.132812 3979.960938 703.578125 3972.21875 706.839844 C 3948.574219 717.03125 3945.3125 726.8125 3945.3125 784.695312 C 3945.3125 841.765625 3947.761719 850.324219 3971.402344 862.960938 C 3983.222656 869.484375 3998.304688 870.300781 4129.148438 870.300781 C 4262.847656 870.300781 4275.074219 869.890625 4289.34375 862.554688 C 4312.984375 850.734375 4317.875 837.28125 4318.28125 784.695312 C 4318.691406 717.84375 4305.648438 701.132812 4253.472656 701.132812 L 4231.054688 701.132812 L 4231.054688 474.078125 L 4256.324219 471.226562 C 4312.167969 464.703125 4318.28125 455.328125 4315.835938 378.285156 C 4314.613281 334.667969 4313.800781 329.777344 4304.832031 320.402344 C 4299.125 314.285156 4288.121094 308.171875 4280.375 306.132812 C 4260.808594 301.242188 4017.871094 297.574219 3995.449219 302.058594 Z M 3995.449219 302.058594 "/>
<path style=" stroke:none;fill-rule:nonzero;fill:rgb(0%,0%,0%);fill-opacity:1;" d="M 4139.339844 1099.390625 C 4076.972656 1104.691406 4020.316406 1127.109375 3988.523438 1159.3125 C 3949.796875 1197.628906 3933.492188 1246.140625 3927.378906 1337.855469 L 3924.527344 1381.882812 L 3913.519531 1381.882812 C 3886.210938 1381.882812 3876.425781 1403.078125 3876.425781 1463.410156 C 3876.425781 1519.253906 3880.503906 1530.667969 3904.960938 1542.898438 L 3924.527344 1552.679688 L 3927.785156 1584.476562 C 3929.417969 1602.003906 3929.417969 1653.367188 3927.785156 1698.613281 C 3923.710938 1819.679688 3925.75 1822.535156 4019.09375 1825.386719 C 4085.125 1827.019531 4102.246094 1822.941406 4114.476562 1801.746094 C 4122.628906 1788.292969 4123.035156 1779.734375 4124.257812 1668.449219 L 4125.480469 1549.417969 L 4188.253906 1548.195312 C 4251.027344 1546.972656 4251.433594 1546.972656 4262.441406 1535.558594 L 4273.851562 1524.554688 L 4273.851562 1463.410156 C 4273.851562 1407.15625 4273.039062 1401.855469 4265.292969 1394.109375 C 4253.0625 1381.882812 4231.867188 1378.214844 4175.210938 1377.804688 L 4125.074219 1377.804688 L 4125.074219 1358.238281 C 4125.074219 1329.703125 4135.261719 1299.945312 4149.53125 1286.085938 C 4162.574219 1273.449219 4168.28125 1272.636719 4239.207031 1275.898438 C 4280.375 1277.933594 4290.15625 1273.859375 4296.273438 1252.253906 C 4301.570312 1232.28125 4300.753906 1161.351562 4294.640625 1135.261719 C 4290.566406 1116.917969 4288.527344 1114.472656 4275.074219 1109.988281 C 4243.6875 1099.796875 4186.621094 1095.316406 4139.339844 1099.390625 Z M 4139.339844 1099.390625 "/>
<path style=" stroke:none;fill-rule:nonzero;fill:rgb(0%,0%,0%);fill-opacity:1;" d="M 4555.921875 1104.28125 C 4459.726562 1125.480469 4400.621094 1179.695312 4367.195312 1277.121094 C 4344.777344 1342.339844 4336.625 1441.394531 4345.183594 1538.820312 C 4357.414062 1680.269531 4400.214844 1762.613281 4481.328125 1801.746094 C 4535.132812 1827.425781 4557.960938 1832.316406 4632.554688 1832.316406 C 4693.695312 1832.316406 4700.21875 1831.503906 4733.644531 1820.496094 C 4753.210938 1813.972656 4780.113281 1802.152344 4792.746094 1793.59375 C 4879.570312 1737.339844 4915.441406 1643.582031 4915.847656 1471.5625 C 4915.847656 1361.5 4904.84375 1301.171875 4872.640625 1235.949219 C 4840.847656 1171.132812 4791.523438 1127.519531 4725.492188 1106.320312 C 4693.289062 1095.722656 4599.945312 1094.90625 4555.921875 1104.28125 Z M 4668.832031 1285.273438 C 4687.992188 1300.355469 4698.589844 1318.289062 4708.777344 1355.792969 C 4716.117188 1383.105469 4717.339844 1399.410156 4717.339844 1463.410156 C 4717.339844 1548.195312 4711.632812 1584.476562 4692.882812 1618.71875 C 4686.769531 1630.132812 4675.355469 1643.992188 4667.203125 1649.289062 C 4642.335938 1666.410156 4601.984375 1660.296875 4576.304688 1635.429688 C 4552.660156 1612.601562 4538.394531 1535.558594 4542.0625 1445.066406 C 4545.324219 1349.679688 4563.261719 1298.316406 4598.722656 1280.378906 C 4621.957031 1268.558594 4649.265625 1270.597656 4668.832031 1285.273438 Z M 4668.832031 1285.273438 "/>
<path style=" stroke:none;fill-rule:nonzero;fill:rgb(0%,0%,0%);fill-opacity:1;" d="M 3676.695312 1991.703125 C 3664.46875 1994.964844 3646.941406 2001.894531 3637.972656 2007.195312 C 3619.222656 2018.605469 3584.574219 2054.480469 3573.160156 2074.859375 L 3565.007812 2089.128906 L 3562.15625 2076.898438 C 3560.933594 2069.96875 3559.300781 2053.664062 3558.894531 2039.804688 C 3558.488281 2015.753906 3558.078125 2014.9375 3543.40625 2006.785156 C 3521.394531 1994.558594 3481.449219 1987.625 3450.0625 1990.480469 C 3417.453125 1993.742188 3404 1999.855469 3394.625 2016.160156 C 3387.695312 2028.390625 3386.878906 2047.550781 3386.066406 2350.421875 C 3385.25 2667.96875 3385.25 2672.046875 3393.808594 2686.3125 C 3406.855469 2708.734375 3418.675781 2712.402344 3483.894531 2714.03125 C 3546.257812 2715.664062 3565.417969 2711.179688 3575.605469 2692.835938 C 3584.167969 2677.34375 3586.203125 2625.574219 3582.945312 2485.347656 C 3579.683594 2348.382812 3582.128906 2263.59375 3591.097656 2222.425781 C 3600.0625 2181.660156 3631.449219 2158.425781 3673.433594 2161.28125 C 3699.929688 2163.316406 3713.789062 2171.46875 3728.460938 2193.074219 C 3746.804688 2219.570312 3747.214844 2225.6875 3748.84375 2457.628906 C 3750.882812 2695.6875 3750.882812 2695.6875 3771.671875 2707.511719 C 3777.785156 2711.179688 3799.796875 2712.808594 3843.816406 2712.808594 C 3916.78125 2712.808594 3926.972656 2709.957031 3939.609375 2684.273438 C 3947.351562 2668.375 3947.761719 2659.816406 3947.761719 2445.808594 L 3947.761719 2223.648438 L 3957.949219 2205.710938 C 3974.253906 2177.175781 3994.226562 2163.316406 4022.761719 2161.28125 C 4042.734375 2159.648438 4050.070312 2161.28125 4063.929688 2169.023438 C 4084.71875 2180.847656 4094.5 2195.929688 4103.46875 2232.207031 C 4109.992188 2257.074219 4110.804688 2283.164062 4110.804688 2470.265625 C 4110.804688 2640.65625 4112.027344 2682.238281 4116.511719 2691.203125 C 4125.886719 2709.140625 4140.96875 2712.808594 4210.671875 2712.808594 C 4280.375 2712.808594 4291.378906 2709.546875 4301.570312 2687.128906 C 4308.09375 2672.046875 4310.539062 2302.320312 4304.832031 2221.203125 C 4298.308594 2130.707031 4280.78125 2083.828125 4237.574219 2040.621094 C 4198.851562 2002.300781 4154.011719 1985.179688 4091.648438 1985.179688 C 4023.167969 1985.179688 3967.324219 2014.53125 3931.046875 2069.152344 C 3922.894531 2081.382812 3915.964844 2091.167969 3915.152344 2091.167969 C 3914.335938 2091.167969 3908.222656 2081.789062 3900.882812 2070.785156 C 3875.613281 2031.242188 3828.734375 1999.855469 3779.414062 1989.664062 C 3750.066406 1983.550781 3703.597656 1984.367188 3676.695312 1991.703125 Z M 3676.695312 1991.703125 "/>
<path style=" stroke:none;fill-rule:nonzero;fill:rgb(0%,0%,0%);fill-opacity:1;" d="M 4580.378906 1991.703125 C 4466.246094 2016.976562 4405.105469 2088.71875 4379.425781 2225.6875 C 4369.640625 2278.679688 4367.195312 2413.199219 4375.347656 2465.78125 C 4396.953125 2606.824219 4454.425781 2681.828125 4564.074219 2711.585938 C 4589.347656 2718.109375 4607.691406 2720.148438 4652.933594 2720.148438 C 4718.152344 2720.148438 4756.0625 2712.402344 4798.863281 2689.574219 C 4864.082031 2655.332031 4911.773438 2578.699219 4911.773438 2507.769531 L 4911.773438 2486.164062 L 4893.429688 2478.011719 C 4865.710938 2465.78125 4824.132812 2458.039062 4784.59375 2458.039062 L 4749.539062 2458.039062 L 4745.058594 2478.417969 C 4738.535156 2508.992188 4730.382812 2521.628906 4710.816406 2533.449219 C 4674.132812 2554.648438 4631.332031 2550.570312 4605.246094 2522.851562 C 4586.902344 2503.691406 4574.671875 2467.820312 4571.003906 2420.941406 L 4568.152344 2388.332031 L 4726.714844 2389.148438 C 4862.859375 2389.554688 4887.316406 2388.738281 4900.765625 2383.441406 L 4915.847656 2376.917969 L 4915.847656 2328.816406 C 4915.847656 2248.105469 4897.914062 2153.941406 4872.640625 2100.949219 C 4847.777344 2047.957031 4805.792969 2012.898438 4749.539062 1996.59375 C 4711.632812 1985.589844 4619.101562 1982.734375 4580.378906 1991.703125 Z M 4684.730469 2145.789062 C 4693.289062 2149.050781 4704.296875 2154.757812 4708.777344 2159.242188 C 4721.414062 2170.65625 4735.273438 2200.820312 4740.164062 2227.722656 C 4748.316406 2270.527344 4756.46875 2266.449219 4658.640625 2266.449219 L 4572.636719 2266.449219 L 4575.488281 2244.84375 C 4582.824219 2193.484375 4599.128906 2162.503906 4627.253906 2148.644531 C 4647.230469 2138.859375 4662.71875 2138.042969 4684.730469 2145.789062 Z M 4684.730469 2145.789062 "/>
</g>
</svg>
