<svg width="219" height="122" viewBox="0 0 219 122" fill="none" xmlns="http://www.w3.org/2000/svg">
<path d="M55.4838 0.0435071C44.4328 0.897866 37.12 2.78826 29.3353 6.76882C16.3245 13.4396 7.5055 24.5092 2.78768 40.1411C0.737086 46.9392 -0.351682 56.8273 0.102015 64.6796C0.22896 66.7697 0.446679 69.4418 0.591883 70.605C2.18878 82.8925 6.87043 95.2344 13.0038 103.268C14.256 104.923 16.9598 107.667 18.1935 108.54C20.8611 110.448 23.1839 111.23 26.0872 111.248C28.6275 111.248 30.17 110.739 33.4 108.776C37.8458 106.086 39.3156 105.486 41.711 105.486C44.2696 105.486 45.9571 106.322 50.2215 109.703C53.7055 112.466 55.9556 113.429 58.8409 113.429C62.0889 113.411 63.6495 112.611 67.1699 109.121C70.3817 105.94 71.9967 105.141 75.1722 105.159C78.6564 105.177 82.1041 106.904 86.4229 110.794C86.931 111.248 88.6004 112.811 90.1429 114.283C93.6269 117.592 94.6068 118.428 96.2581 119.537C98.7803 121.227 101.049 121.681 102.9 120.845C105.041 119.882 106.329 118.155 110.103 111.266C114.005 104.141 116.237 97.7064 118.16 88.0909C121.608 70.6778 121.1 53.0465 116.618 36.1241C116.309 34.9062 115.892 33.7248 115.729 33.5067C115.438 33.1613 115.239 33.1249 112.989 33.1249C110.72 33.1068 110.485 33.0704 109.541 32.5978C108.343 32.0162 107.019 30.9074 106.492 30.0349C106.275 29.6895 105.875 29.326 105.567 29.1988C105.077 28.9989 104.932 29.0353 103.879 29.6169C99.9962 31.798 95.75 31.9434 91.8486 30.0168C89.0904 28.6716 86.9491 26.3996 85.7697 23.5822C85.4974 22.9278 85.08 22.2372 84.826 22.0553C84.4269 21.7463 84.3361 21.7282 82.7755 22.0372C80.8157 22.4007 79.2915 22.3098 77.5313 21.6918C70.4725 19.2562 66.6073 13.4034 68.3313 7.80485C68.8575 6.11459 68.7304 5.78731 67.297 5.02387C65.9359 4.29684 64.5025 2.80637 63.9036 1.49757C63.6678 0.952385 63.3229 0.407023 63.1596 0.261582C62.9419 0.079911 62.0528 0.0253922 59.5848 0.0071032C57.7702 -0.0110117 55.9375 0.0071032 55.4838 0.0435071ZM56.9536 7.45962C58.0243 7.85954 59.0405 8.69561 59.4941 9.60449C59.6937 10.0042 60.093 11.4221 60.3832 12.749C61.1273 16.257 61.5627 17.5475 62.7059 19.8197C63.577 21.5282 63.9762 22.0736 65.2827 23.4005C67.6599 25.818 69.4382 26.5814 75.7711 27.9083C80.8702 28.9625 81.596 29.435 84.1184 33.2884C86.6769 37.1783 89.0722 38.6506 93.7176 39.196C96.0585 39.4686 98.1271 39.2322 100.867 38.378C101.974 38.0326 103.226 37.7417 103.644 37.7417C107.2 37.7417 110.757 43.7038 112.535 52.6466C113.334 56.7181 113.624 59.8263 113.624 64.4613C113.588 76.5852 111.138 90.9992 107.454 100.578C104.406 108.54 100.976 111.739 97.4194 109.976C96.2037 109.358 94.9516 108.122 92.1933 104.813C86.5136 97.979 83.0113 95.8886 77.2592 95.8524C72.4685 95.8341 69.4018 97.052 64.9923 100.76C61.6899 103.541 60.5103 104.123 58.2057 104.123C56.01 104.141 54.631 103.45 51.7638 100.905C48.6246 98.1244 46.9189 97.052 44.7413 96.543C43.09 96.1614 40.2411 96.1976 38.5353 96.634C36.9022 97.052 34.5432 98.1244 33.0553 99.1241C30.0067 101.178 27.8292 101.869 25.4339 101.523C24.7625 101.432 23.8553 101.196 23.4197 100.996C20.0264 99.5059 13.8023 89.4542 10.8081 80.6386C8.66696 74.3132 7.63262 68.6965 7.45107 62.2802C7.25161 55.3004 8.2496 48.4114 10.5723 40.741C14.2197 28.7263 20.9156 19.9651 31.1863 13.7305C36.6663 10.4224 43.3622 8.09573 49.4957 7.4051C50.4392 7.29607 51.4736 7.16874 51.7638 7.13234C52.9614 6.96878 56.1371 7.16874 56.9536 7.45962Z" fill="black"/>
<path d="M24.8533 46.576C22.7665 47.612 20.9336 50.6839 20.0989 54.5009C19.482 57.3547 19.5546 61.7171 20.2805 64.7525C21.0608 68.0788 23.0387 71.1871 24.9077 72.0777C25.9782 72.5867 27.4663 72.5867 28.5369 72.0777C30.4241 71.1871 32.2568 68.3697 33.0915 65.0615C34.3618 60.063 33.9444 54.6282 31.9846 50.5384C30.6056 47.6665 28.7547 46.1033 26.7223 46.1033C26.0872 46.1033 25.4883 46.2487 24.8533 46.576Z" fill="black"/>
<path d="M73.666 46.4665C71.3796 47.5027 69.3836 51.0288 68.6214 55.373C68.186 57.9724 68.3493 62.4802 68.9844 64.8976C69.8918 68.3694 71.4885 70.914 73.4483 71.9865C74.2649 72.4409 74.5371 72.4954 75.6258 72.4228C76.6783 72.3683 77.005 72.2592 77.7853 71.732C82.1404 68.7691 83.8461 59.0084 81.2512 51.8832C79.5999 47.3572 76.5332 45.1578 73.666 46.4665Z" fill="black"/>
<path d="M182.542 0.116268C181.399 0.352458 179.657 1.35226 178.968 2.17021C176.772 4.73312 177.806 8.93176 181 10.5131C183.196 11.5856 185.645 11.2221 187.515 9.53164C188.767 8.36828 189.293 7.16869 189.293 5.46015C189.293 4.44223 189.202 3.98779 188.785 3.15172C187.714 0.952338 184.992 -0.374575 182.542 0.116268Z" fill="black"/>
<path d="M156.903 6.29628C151.241 7.0052 147.303 10.477 147.303 14.7665C147.303 15.6935 147.322 15.7118 147.993 15.9844C149.009 16.3843 151.205 16.8205 152.983 16.9478L154.525 17.075L155.052 16.0208C155.705 14.6575 156.467 14.2395 158.336 14.1485C161.421 13.985 162.546 15.2391 162.546 18.8563C162.546 19.8561 162.51 20.6558 162.473 20.6558C162.437 20.6558 161.802 20.3649 161.076 20.0197C158.082 18.6018 154.779 18.6928 151.568 20.2742C146.577 22.7461 144.763 29.0898 147.539 34.3428C149.063 37.2328 152.511 39.196 156.104 39.196C158.808 39.196 161.112 38.378 162.8 36.8512C163.363 36.3422 163.907 35.9606 163.998 36.0151C164.088 36.0696 164.415 36.4695 164.742 36.9057C165.758 38.3235 167.772 39.0869 170.53 39.0869C172.272 39.1051 173.234 38.7415 173.869 37.8691C174.196 37.4327 174.268 37.0147 174.323 35.1788C174.359 33.9793 174.323 32.6342 174.25 32.1979L174.141 31.3799H173.252C172.581 31.3799 172.236 31.2709 171.855 30.9438L171.347 30.5075V23.1642C171.347 14.8394 171.256 14.0759 169.986 11.4585C168.679 8.76826 166.611 7.3506 162.909 6.58717C161.149 6.24176 158.427 6.09632 156.903 6.29628ZM161.058 25.6544C161.421 25.818 161.929 26.127 162.165 26.3451C163.671 27.7446 163.598 30.7984 162.002 31.9253C161.312 32.416 160.006 32.8342 159.135 32.8342C155.705 32.8342 153.781 28.817 156.141 26.5995C157.302 25.509 159.625 25.0727 161.058 25.6544Z" fill="black"/>
<path d="M202.702 6.38731C197.386 7.55067 194.446 13.3126 194.428 22.5644C194.428 28.5264 195.662 32.5253 198.293 35.2154C200.271 37.2329 202.412 38.0146 205.551 37.8873C207.366 37.8147 208.291 37.4874 209.416 36.5423C209.707 36.3059 209.997 36.1059 210.07 36.1059C210.142 36.1059 210.197 37.5602 210.197 39.3232C210.197 42.9767 210.324 43.4494 211.358 43.9765C211.902 44.2674 212.374 44.3036 214.806 44.2491C218.054 44.1946 218.471 44.031 218.78 42.8859C219.034 41.8497 219.088 8.16866 218.834 7.53238C218.725 7.25978 218.489 6.9689 218.308 6.87798C217.528 6.47823 211.449 6.51446 211.031 6.91438C210.995 6.95079 210.923 7.33242 210.868 7.73234C210.741 8.60481 210.505 8.65933 209.888 8.00493C209.181 7.25978 208.037 6.67819 206.713 6.38731C205.188 6.06002 204.19 6.06002 202.702 6.38731ZM208.672 14.4577C210.106 15.3665 210.723 17.2024 210.923 21.0013C211.122 24.6002 210.578 27.6176 209.489 28.9445C208.799 29.7624 208.019 30.1077 206.785 30.1077C205.569 30.1077 204.826 29.6715 204.209 28.5991C203.356 27.145 203.156 26.218 203.065 22.9279C202.92 17.9839 203.501 15.7119 205.261 14.5122C206.441 13.7306 207.493 13.7125 208.672 14.4577Z" fill="black"/>
<path d="M177.824 13.4034C176.772 13.6034 176.028 14.0759 175.756 14.7303C175.465 15.4028 175.484 19.0563 175.774 19.7833C176.046 20.5103 176.663 20.8193 178.115 20.9467L179.421 21.0738V31.1983H178.423C177.861 31.1983 177.135 31.3073 176.79 31.4528C175.738 31.9072 175.592 32.3434 175.592 34.9244C175.592 37.4692 175.701 37.8508 176.754 38.4143C177.28 38.7051 177.951 38.7416 183.776 38.7416C189.728 38.7416 190.273 38.7233 190.908 38.3961C191.96 37.8691 192.178 37.2692 192.196 34.9244C192.214 31.9434 191.634 31.1983 189.311 31.1983H188.313V21.0738L189.438 20.9467C191.924 20.6558 192.196 20.2378 192.087 16.8024C192.033 14.8575 191.997 14.6394 191.597 14.2214C191.343 13.9486 190.853 13.676 190.509 13.5851C189.638 13.367 178.823 13.2034 177.824 13.4034Z" fill="black"/>
<path d="M184.23 48.9569C181.453 49.1932 178.931 50.1928 177.516 51.6288C175.792 53.3373 175.066 55.5005 174.794 59.5901L174.667 61.5533H174.177C172.961 61.5533 172.525 62.4984 172.525 65.1886C172.525 67.6787 172.707 68.1877 173.796 68.733L174.667 69.1692L174.812 70.587C174.884 71.3686 174.884 73.6589 174.812 75.6764C174.63 81.0748 174.721 81.2022 178.877 81.3293C181.816 81.4021 182.578 81.2203 183.123 80.2752C183.486 79.6753 183.504 79.2936 183.558 74.3314L183.613 69.0237L186.407 68.9692C189.202 68.9147 189.22 68.9147 189.71 68.4058L190.218 67.9151V65.1886C190.218 62.6802 190.182 62.4439 189.837 62.0985C189.292 61.5533 188.349 61.3897 185.827 61.3714H183.595V60.499C183.595 59.2266 184.048 57.8997 184.683 57.2817C185.264 56.7182 185.518 56.682 188.676 56.8274C190.508 56.9182 190.944 56.7365 191.216 55.7731C191.452 54.8825 191.415 51.7197 191.143 50.5564C190.962 49.7384 190.871 49.6294 190.272 49.4294C188.875 48.975 186.335 48.7752 184.23 48.9569Z" fill="black"/>
<path d="M202.775 49.1747C198.493 50.12 195.862 52.5375 194.374 56.8817C193.376 59.7899 193.013 64.2068 193.394 68.551C193.938 74.8583 195.844 78.53 199.455 80.275C201.85 81.42 202.866 81.6381 206.187 81.6381C208.909 81.6381 209.199 81.6019 210.687 81.111C211.558 80.8202 212.756 80.2931 213.318 79.9115C217.183 77.4031 218.78 73.2224 218.798 65.552C218.798 60.6442 218.309 57.9542 216.875 55.0459C215.46 52.1557 213.264 50.2109 210.324 49.2657C208.891 48.7931 204.735 48.7567 202.775 49.1747ZM207.802 57.2453C208.655 57.9178 209.127 58.7174 209.58 60.3897C209.907 61.6076 209.961 62.3347 209.961 65.1884C209.961 68.969 209.707 70.5868 208.873 72.1137C208.6 72.6227 208.092 73.2407 207.729 73.4769C206.622 74.2403 204.826 73.9677 203.683 72.8589C202.63 71.8409 201.995 68.4056 202.158 64.3705C202.304 60.1172 203.102 57.8268 204.681 57.027C205.715 56.4999 206.931 56.5909 207.802 57.2453Z" fill="black"/>
<path d="M163.634 88.7455C163.09 88.8909 162.309 89.1999 161.91 89.4363C161.075 89.9451 159.533 91.5447 159.025 92.4534L158.662 93.0897L158.535 92.5444C158.48 92.2354 158.408 91.5083 158.39 90.8903C158.372 89.8179 158.353 89.7815 157.7 89.418C156.72 88.8728 154.942 88.5636 153.545 88.691C152.093 88.8364 151.494 89.109 151.077 89.836C150.768 90.3814 150.732 91.2357 150.696 104.741C150.659 118.9 150.659 119.082 151.04 119.718C151.621 120.718 152.147 120.882 155.051 120.954C157.827 121.027 158.68 120.827 159.134 120.009C159.515 119.318 159.605 117.01 159.46 110.757C159.315 104.65 159.424 100.869 159.823 99.0335C160.222 97.2157 161.62 96.1797 163.489 96.307C164.668 96.3978 165.285 96.7613 165.938 97.7247C166.755 98.9062 166.773 99.1789 166.846 109.521C166.937 120.136 166.937 120.136 167.862 120.664C168.134 120.827 169.114 120.9 171.074 120.9C174.322 120.9 174.776 120.773 175.338 119.627C175.683 118.919 175.701 118.537 175.701 108.994V99.088L176.155 98.2882C176.88 97.0158 177.77 96.3978 179.04 96.307C179.929 96.2342 180.256 96.307 180.873 96.6523C181.798 97.1795 182.234 97.852 182.633 99.4696C182.923 100.578 182.959 101.742 182.959 110.085C182.959 117.683 183.014 119.537 183.213 119.936C183.631 120.736 184.302 120.9 187.405 120.9C190.508 120.9 190.998 120.754 191.452 119.755C191.742 119.082 191.851 102.596 191.597 98.979C191.307 94.9437 190.526 92.8534 188.603 90.9267C186.879 89.218 184.883 88.4546 182.107 88.4546C179.058 88.4546 176.572 89.7634 174.957 92.199C174.594 92.7443 174.286 93.1806 174.249 93.1806C174.213 93.1806 173.941 92.7624 173.614 92.2718C172.489 90.5085 170.402 89.109 168.207 88.6545C166.9 88.382 164.832 88.4184 163.634 88.7455Z" fill="black"/>
<path d="M203.864 88.7454C198.783 89.8724 196.061 93.0714 194.918 99.1789C194.482 101.542 194.374 107.54 194.737 109.885C195.698 116.174 198.257 119.518 203.138 120.845C204.263 121.136 205.08 121.227 207.094 121.227C209.997 121.227 211.685 120.882 213.59 119.864C216.494 118.337 218.617 114.92 218.617 111.757V110.794L217.8 110.43C216.566 109.885 214.715 109.54 212.955 109.54H211.395L211.195 110.448C210.905 111.812 210.542 112.375 209.671 112.902C208.038 113.847 206.132 113.666 204.971 112.43C204.154 111.575 203.61 109.976 203.447 107.885L203.32 106.431L210.379 106.468C216.439 106.486 217.528 106.449 218.127 106.213L218.798 105.922V103.777C218.798 100.178 218 95.9797 216.875 93.6167C215.768 91.2538 213.899 89.6905 211.395 88.9635C209.707 88.4728 205.588 88.3455 203.864 88.7454ZM208.51 95.6162C208.891 95.7616 209.381 96.0161 209.58 96.216C210.143 96.725 210.76 98.07 210.977 99.2696C211.34 101.178 211.703 100.996 207.348 100.996H203.519L203.646 100.033C203.973 97.7429 204.699 96.3615 205.951 95.7435C206.84 95.3072 207.53 95.2708 208.51 95.6162Z" fill="black"/>
</svg>
