<?xml version="1.0" standalone="no"?>
<!DOCTYPE svg PUBLIC "-//W3C//DTD SVG 20010904//EN"
 "http://www.w3.org/TR/2001/REC-SVG-20010904/DTD/svg10.dtd">
<svg version="1.0" xmlns="http://www.w3.org/2000/svg"
 width="1208.000000pt" height="668.000000pt" viewBox="0 0 1208.000000 668.000000"
 preserveAspectRatio="xMidYMid meet">

<g transform="translate(0.000000,668.000000) scale(0.100000,-0.100000)"
fill="#000000" stroke="none">
<path d="M3060 6674 c-609 -47 -1012 -151 -1441 -370 -717 -367 -1203 -976
-1463 -1836 -113 -374 -173 -918 -148 -1350 7 -115 19 -262 27 -326 88 -676
346 -1355 684 -1797 69 -91 218 -242 286 -290 147 -105 275 -148 435 -149 140
0 225 28 403 136 245 148 326 181 458 181 141 0 234 -46 469 -232 192 -152
316 -205 475 -205 179 1 265 45 459 237 177 175 266 219 441 218 192 -1 382
-96 620 -310 28 -25 120 -111 205 -192 192 -182 246 -228 337 -289 139 -93
264 -118 366 -72 118 53 189 148 397 527 215 392 338 746 444 1275 190 958
162 1928 -85 2859 -17 67 -40 132 -49 144 -16 19 -27 21 -151 21 -125 1 -138
3 -190 29 -66 32 -139 93 -168 141 -12 19 -34 39 -51 46 -27 11 -35 9 -93 -23
-214 -120 -448 -128 -663 -22 -152 74 -270 199 -335 354 -15 36 -38 74 -52 84
-22 17 -27 18 -113 1 -108 -20 -192 -15 -289 19 -389 134 -602 456 -507 764
29 93 22 111 -57 153 -75 40 -154 122 -187 194 -13 30 -32 60 -41 68 -12 10
-61 13 -197 14 -100 1 -201 0 -226 -2z m81 -408 c59 -22 115 -68 140 -118 11
-22 33 -100 49 -173 41 -193 65 -264 128 -389 48 -94 70 -124 142 -197 131
-133 229 -175 578 -248 281 -58 321 -84 460 -296 141 -214 273 -295 529 -325
129 -15 243 -2 394 45 61 19 130 35 153 35 196 0 392 -328 490 -820 44 -224
60 -395 60 -650 -2 -667 -137 -1460 -340 -1987 -168 -438 -357 -614 -553 -517
-67 34 -136 102 -288 284 -313 376 -506 491 -823 493 -264 1 -433 -66 -676
-270 -182 -153 -247 -185 -374 -185 -121 -1 -197 37 -355 177 -173 153 -267
212 -387 240 -91 21 -248 19 -342 -5 -90 -23 -220 -82 -302 -137 -168 -113
-288 -151 -420 -132 -37 5 -87 18 -111 29 -187 82 -530 635 -695 1120 -118
348 -175 657 -185 1010 -11 384 44 763 172 1185 201 661 570 1143 1136 1486
302 182 671 310 1009 348 52 6 109 13 125 15 66 9 241 -2 286 -18z"/>
<path d="M1372 4114 c-115 -57 -216 -226 -262 -436 -34 -157 -30 -397 10 -564
43 -183 152 -354 255 -403 59 -28 141 -28 200 0 104 49 205 204 251 386 70
275 47 574 -61 799 -76 158 -178 244 -290 244 -35 0 -68 -8 -103 -26z"/>
<path d="M4062 4120 c-126 -57 -236 -251 -278 -490 -24 -143 -15 -391 20 -524
50 -191 138 -331 246 -390 45 -25 60 -28 120 -24 58 3 76 9 119 38 240 163
334 700 191 1092 -91 249 -260 370 -418 298z"/>
<path d="M10062 6670 c-63 -13 -159 -68 -197 -113 -121 -141 -64 -372 112
-459 121 -59 256 -39 359 54 69 64 98 130 98 224 0 56 -5 81 -28 127 -59 121
-209 194 -344 167z"/>
<path d="M8649 6330 c-312 -39 -529 -230 -529 -466 0 -51 1 -52 38 -67 56 -22
177 -46 275 -53 l85 -7 29 58 c36 75 78 98 181 103 170 9 232 -60 232 -259 0
-55 -2 -99 -4 -99 -2 0 -37 16 -77 35 -165 78 -347 73 -524 -14 -275 -136
-375 -485 -222 -774 84 -159 274 -267 472 -267 149 0 276 45 369 129 31 28 61
49 66 46 5 -3 23 -25 41 -49 56 -78 167 -120 319 -120 96 -1 149 19 184 67 18
24 22 47 25 148 2 66 0 140 -4 164 l-6 45 -49 0 c-37 0 -56 6 -77 24 l-28 24
0 404 c0 458 -5 500 -75 644 -72 148 -186 226 -390 268 -97 19 -247 27 -331
16z m229 -1065 c20 -9 48 -26 61 -38 83 -77 79 -245 -9 -307 -38 -27 -110 -50
-158 -50 -189 0 -295 221 -165 343 64 60 192 84 271 52z"/>
<path d="M11173 6325 c-293 -64 -455 -381 -456 -890 0 -328 68 -548 213 -696
109 -111 227 -154 400 -147 100 4 151 22 213 74 16 13 32 24 36 24 4 0 7 -80
7 -177 0 -201 7 -227 64 -256 30 -16 56 -18 190 -15 179 3 202 12 219 75 14
57 17 1910 3 1945 -6 15 -19 31 -29 36 -43 22 -378 20 -401 -2 -2 -2 -6 -23
-9 -45 -7 -48 -20 -51 -54 -15 -39 41 -102 73 -175 89 -84 18 -139 18 -221 0z
m329 -444 c79 -50 113 -151 124 -360 11 -198 -19 -364 -79 -437 -38 -45 -81
-64 -149 -64 -67 0 -108 24 -142 83 -47 80 -58 131 -63 312 -8 272 24 397 121
463 65 43 123 44 188 3z"/>
<path d="M9802 5939 c-58 -11 -99 -37 -114 -73 -16 -37 -15 -238 1 -278 15
-40 49 -57 129 -64 l72 -7 0 -278 0 -279 -55 0 c-31 0 -71 -6 -90 -14 -58 -25
-66 -49 -66 -191 0 -140 6 -161 64 -192 29 -16 66 -18 387 -18 328 0 358 1
393 19 58 29 70 62 71 191 1 164 -31 205 -159 205 l-55 0 0 279 0 278 62 7
c137 16 152 39 146 228 -3 107 -5 119 -27 142 -14 15 -41 30 -60 35 -48 12
-644 21 -699 10z"/>
<path d="M10155 3983 c-153 -13 -292 -68 -370 -147 -95 -94 -135 -213 -150
-438 l-7 -108 -27 0 c-67 0 -91 -52 -91 -200 0 -137 10 -165 70 -195 l48 -24
8 -78 c4 -43 4 -169 0 -280 -10 -297 -5 -304 224 -311 162 -4 204 6 234 58 20
33 21 54 24 327 l3 292 154 3 c154 3 155 3 182 31 l28 27 0 150 c0 138 -2 151
-21 170 -30 30 -82 39 -221 40 l-123 0 0 48 c0 70 25 143 60 177 32 31 46 33
220 25 101 -5 125 5 140 58 13 49 11 223 -4 287 -10 45 -15 51 -48 62 -77 25
-217 36 -333 26z"/>
<path d="M11177 3971 c-236 -52 -381 -185 -463 -424 -55 -160 -75 -403 -54
-642 30 -347 135 -549 334 -645 132 -63 188 -75 371 -75 150 0 166 2 248 29
48 16 114 45 145 66 213 138 301 368 302 790 0 270 -27 418 -106 578 -78 159
-199 266 -361 318 -79 26 -308 28 -416 5z m277 -444 c47 -37 73 -81 98 -173
18 -67 21 -107 21 -264 0 -208 -14 -297 -60 -381 -15 -28 -43 -62 -63 -75 -61
-42 -160 -27 -223 34 -58 56 -93 245 -84 467 8 234 52 360 139 404 57 29 124
24 172 -12z"/>
<path d="M9020 1794 c-30 -8 -73 -25 -95 -38 -46 -28 -131 -116 -159 -166
l-20 -35 -7 30 c-3 17 -7 57 -8 91 -1 59 -2 61 -38 81 -54 30 -152 47 -229 40
-80 -8 -113 -23 -136 -63 -17 -30 -19 -77 -21 -820 -2 -779 -2 -789 19 -824
32 -55 61 -64 221 -68 153 -4 200 7 225 52 21 38 26 165 18 509 -8 336 -2 544
20 645 22 100 99 157 202 150 65 -5 99 -25 135 -78 45 -65 46 -80 50 -649 5
-584 5 -584 56 -613 15 -9 69 -13 177 -13 179 0 204 7 235 70 19 39 20 60 20
585 l0 545 25 44 c40 70 89 104 159 109 49 4 67 0 101 -19 51 -29 75 -66 97
-155 16 -61 18 -125 18 -584 0 -418 3 -520 14 -542 23 -44 60 -53 231 -53 171
0 198 8 223 63 16 37 22 944 8 1143 -16 222 -59 337 -165 443 -95 94 -205 136
-358 136 -168 0 -305 -72 -394 -206 -20 -30 -37 -54 -39 -54 -2 0 -17 23 -35
50 -62 97 -177 174 -298 199 -72 15 -186 13 -252 -5z"/>
<path d="M11237 1794 c-280 -62 -430 -238 -493 -574 -24 -130 -30 -460 -10
-589 53 -346 194 -530 463 -603 62 -16 107 -21 218 -21 160 0 253 19 358 75
160 84 277 272 277 446 l0 53 -45 20 c-68 30 -170 49 -267 49 l-86 0 -11 -50
c-16 -75 -36 -106 -84 -135 -90 -52 -195 -42 -259 26 -45 47 -75 135 -84 250
l-7 80 389 -2 c334 -1 394 1 427 14 l37 16 0 118 c0 198 -44 429 -106 559 -61
130 -164 216 -302 256 -93 27 -320 34 -415 12z m256 -378 c21 -8 48 -22 59
-33 31 -28 65 -102 77 -168 20 -105 40 -95 -200 -95 l-211 0 7 53 c18 126 58
202 127 236 49 24 87 26 141 7z"/>
</g>
</svg>
