<svg width="620" height="362" viewBox="0 0 620 362" fill="none" xmlns="http://www.w3.org/2000/svg">
<path d="M173.884 21.0122C177.391 20.5816 182.941 20.4202 186.266 21.6337C189.619 22.8576 191.471 27.3133 193.704 30.2649C196.467 33.9156 199.307 33.765 201.509 36.3348C203.43 39.7264 201.249 45.6652 201.202 49.2289C200.986 65.4917 216.914 76.2959 231.213 79.5422C235.407 80.4939 242.103 78.026 245.348 79.0642C246.177 79.329 251.55 90.6634 252.712 92.0018C256.964 96.5198 260.928 99.0075 266.415 101.275C278.019 106.07 287.711 102.413 298.565 97.4601C305.492 102.944 313.163 112.413 323.296 106.625C329.659 111.745 332.169 131.774 333.601 139.839C337.052 159.265 340.275 180.072 339.077 199.809C336.675 239.373 330.161 282.726 309.537 317.252C304.79 325.199 296.394 343.298 284.782 340.061C258.397 332.705 238.409 284.05 205.634 302.106C199.65 306.065 195.822 312.824 189.11 316.396C164.221 329.639 153.421 300.671 132.184 298.89C122.923 298.113 114.237 305.172 106.461 309.354C64.3497 331.177 38.717 266.883 29.4912 236.9C21.5452 211.077 20.0336 186.515 22.5069 159.768C26.0652 121.289 45.087 76.3701 77.0981 52.7415C97.5731 37.704 121.244 27.5982 146.267 23.2121C153.501 22.0051 166.142 21.5572 173.884 21.0122ZM208.672 274.82C217.636 270.952 230.941 271.355 239.918 274.906C244.597 276.725 248.881 279.431 252.533 282.876C256.179 286.302 259.93 290.755 263.14 294.421C267.885 299.841 277.353 314.425 286.281 310.035C298.638 303.96 303.492 286.545 307.11 274.644C316.146 244.76 320.177 213.587 319.039 182.387C318.902 178.027 319.138 174.039 318.588 169.58C317.182 158.183 314.096 147.146 309.84 136.516C307.822 131.475 303.346 124.237 298.134 122.228C291.967 120.109 285.069 123.649 278.776 124.387C272.536 125.12 267.91 124.795 261.98 123.764C246.847 121.134 244.273 107.652 233.902 99.4455C231.116 97.2409 225.707 96.5127 222.313 95.6721C203.335 91.941 193.375 89.7747 185.182 70.9684C183.784 67.7606 182.031 63.5294 181.04 60.0161C179.055 52.9769 179.534 45.1635 171.383 41.9151C169.095 41.0033 164.18 40.4741 161.792 40.8107C130.937 42.1477 99.3247 56.3215 78.246 78.9918C51.247 108.03 41.0636 150.503 42.6456 189.342C43.7082 215.427 52.6115 242.71 66.0084 265.059C71.5342 274.291 80.2448 288.249 92.6182 287.763C98.973 287.548 104.47 283.295 109.656 280.056C121.352 272.753 134.884 270.096 147.447 276.964C157.084 282.349 163.433 294.817 175.766 294.157C185.226 293.65 191.072 286.635 197.696 280.9C199.2 279.599 206.748 275.258 208.672 274.82Z" fill="#00FFFF"/>
<path d="M92.3542 142.201C99.7727 141.304 105.507 149.866 107.714 155.991C109.704 161.515 111.217 168.773 111.274 174.659C111.379 185.599 110.304 198.717 102.487 207.146C100.424 209.37 95.7571 212.502 92.6208 212.571C67.8722 207.654 66.9414 157.507 85.7449 144.507C88.0152 142.938 89.7364 142.726 92.3542 142.201Z" fill="#00FFFF"/>
<path d="M217.595 142.503C239.011 140.298 241.648 178.344 237.918 192.242C234.997 203.124 231.164 206.695 222.189 212.326C217.834 212.424 217.225 212.319 213.318 210.104C195.529 200.018 196.838 147.058 217.595 142.503Z" fill="#00FFFF"/>
<path d="M498.525 252.853C510.226 251.28 521.807 260.121 524.066 271.527C526.809 285.367 526.003 300.388 525.749 314.457C525.59 323.248 527.711 330.63 522.914 338.532C517.717 340.023 508.628 339.48 503.336 338.431C499.154 325.287 505.061 294.417 500.363 280.304C499.96 279.093 496.856 276.066 495.643 274.52C490.1 274.412 485.25 275.097 483.984 281.296C482.422 288.969 483.543 300.301 483.854 308.004C484.002 312.632 484.08 317.263 484.08 321.894C484.126 328.671 484.914 332.88 480.262 338.477C477.317 339.289 463.237 340.375 461.837 338.028C457.867 331.381 459.267 313.841 459.277 306.322C459.309 299.46 460.727 282.083 456.665 277.212C455.3 275.575 453.388 274.584 451.256 274.448C449.16 274.315 446.978 274.689 445.395 276.157C438.855 282.218 442.277 302.988 442.581 311.499C442.839 318.651 442.839 325.954 442.595 333.105C438.993 338.001 438.483 339.797 431.791 339.623C427.394 339.509 424.081 339.76 419.779 338.339C417.958 334.923 416.329 332.512 416.428 328.518C416.965 307.184 416.244 285.827 416.873 264.504C417.191 253.839 420.917 253.1 430.876 253.802C436.652 254.209 437.656 258.05 439.544 262.755C443.245 258.334 446.607 254.873 452.642 253.7C459.355 252.395 467.55 253.314 472.937 257.823C475.493 259.965 477.299 262.228 480.149 264.127C483.871 256.867 490.864 254.138 498.525 252.853Z" fill="#00FFFF"/>
<path d="M558.406 37.5886C563.108 37.4132 566.155 38.3599 570.1 40.3676C574.095 42.3989 574.06 41.9722 576.99 39.8306C577.814 39.2282 583.018 38.81 584.269 38.7827C587.525 38.711 591.721 38.344 594.885 39.4654C597.89 40.4386 598.102 44.1141 598.12 46.6912C598.148 50.9829 598.12 55.0367 598.046 59.3118C596.812 83.8447 597.625 108.358 597.289 132.89C597.272 134.153 596.731 135.579 596.264 136.745C591.41 138.751 582.247 138.535 576.895 137.973C575.393 137.816 574.816 137.033 574.042 135.853C573.017 131.535 573.176 122.271 573.208 117.576C570.744 119.043 567.346 120.356 564.518 120.864C557.522 122.069 550.335 120.479 544.502 116.435C527.438 104.408 528.573 63.8703 539.475 47.5789C543.495 41.5709 551.562 38.6767 558.406 37.5886ZM566.427 100.353C568.948 99.3166 569.478 99.1979 571.331 97.0071C577.291 89.9584 577.927 58.5977 565.232 58.3346C554.563 61.3349 556.373 71.1033 555.924 80.0663C555.553 87.4569 556.214 100.682 566.427 100.353Z" fill="#00FFFF"/>
<path d="M561.878 149.326C586.839 148.575 595.433 165.357 597.053 187.594C598.827 211.998 592.429 235.154 564.144 236.465C554.79 236.203 547.709 235.079 539.956 229.017C531.956 222.762 529.517 210.223 528.665 200.533C527.537 187.72 529.018 169.523 537.545 159.258C543.544 152.037 553.029 150.114 561.878 149.326ZM563.656 215.13C567.449 213.625 568.86 212.426 570.776 208.47C574.526 200.717 575.082 171.409 563.076 169.976C559.407 171.633 556.801 172.602 555.497 176.812C552.821 185.447 552.732 195.782 554.107 204.641C555.115 211.122 557.353 213.673 563.656 215.13Z" fill="#00FFFF"/>
<path d="M437.232 37.6059C443.659 37.5755 453.826 38.5519 459.09 41.4981C479.703 53.034 469.72 81.7197 472.651 100.337C472.94 102.176 476.179 103.49 477.837 104.328C478.632 105.498 479.505 107.266 479.523 108.682C479.562 111.588 480.053 119.615 478.374 121.695C475.178 125.65 467.638 124.836 463.198 123.698C458.641 122.529 455.473 120.183 451.892 117.232C448.272 119.968 445.812 121.809 441.393 123.139C431.059 126.25 420.44 124.746 412.712 116.907C411.351 115.691 409.255 113.185 408.544 111.567C399.013 89.8106 413.677 67.2991 438.151 71.572C442.1 72.2614 445.14 73.2512 448.954 74.4779C448.682 68.727 449.032 61.0723 442.071 59.2888C435.298 57.5537 431.25 61.4912 427.203 65.8621C426.612 66.0346 426.011 66.171 425.403 66.2714C422.391 66.7512 408.215 65.6832 408.272 61.0235C408.438 53.8263 412.15 47.5705 417.926 43.4435C423.466 39.4838 430.593 38.3455 437.232 37.6059ZM440.247 107.001C450.881 105.498 453.72 97.8284 446.126 90.0072C443.517 89.4667 442.368 89.3224 439.706 89.1874C421.614 92.2068 432.124 109.291 440.247 107.001Z" fill="#00FFFF"/>
<path d="M562.461 253.254C570.362 252.11 577.966 254.321 584.906 258.224C593.662 263.15 600.527 292.241 596.568 299.725C593.439 302.51 573.003 301.089 568.11 301.256C564.748 301.371 559.611 301.605 556.267 301.435C558.077 308.262 557.755 321.572 570.312 317.509C576.898 315.378 573.54 306.721 582.862 308.202C586.949 308.851 592.768 309.306 596.07 311.982C597.317 313.051 596.458 317.211 596.25 318.791C594.793 329.216 581.681 338.808 572.076 339.93C549.978 342.51 533.921 331.455 532.302 308.608C531.284 294.272 530.729 275.864 540.207 263.396C545.457 256.494 554.461 254.239 562.461 253.254ZM568.184 286.088C571.242 286.415 575.424 286.294 575.35 282.489C575.212 275.632 570.772 271.852 564.596 272.289C560.577 273.793 555.815 280.448 557.211 284.556C559.466 287.03 564.865 285.796 568.184 286.088Z" fill="#00FFFF"/>
<path d="M506.062 149.33C509.915 149.177 519.386 149.04 522.454 151.06C525.441 153.024 525.841 167.458 523.303 169.803C521.118 171.823 511.181 170.962 507.766 171.26C498.645 185.315 508.36 181.656 517.975 182.947C518.537 183.332 519.099 183.729 519.58 184.214C521.825 186.484 522.111 189.71 522.09 192.738C522.072 195.674 522.175 199.667 519.863 201.853C517.155 204.415 511.902 203.037 508.55 202.904C507.497 202.862 506.21 202.809 505.415 203.62C503.439 205.636 504.817 223.471 504.729 227.624C504.16 230.749 503.124 231.974 501.374 234.585C497.609 236.421 487.304 235.556 482.889 235.15C478.523 226.829 480.174 222.33 480.457 213.327C480.541 210.586 480.322 207.628 479.993 204.899C477.604 201.999 475.267 201.795 474.938 197.125C474.708 193.86 474.281 187.355 476.243 184.581C477.533 182.752 479.099 181.724 479.636 179.338C481.34 171.763 480.145 165.184 485.399 158.737C490.355 152.653 498.489 150.145 506.062 149.33Z" fill="#00FFFF"/>
<path d="M494.219 55.9816C500.367 55.5825 507.211 57.1379 513.581 56.0717C516.098 55.6503 522.472 56.2778 524.391 57.9818C528.163 61.3285 527.517 71.8633 524.561 75.6424C523.437 77.0405 518.307 77.0465 516.353 76.997C516.607 84.1684 516.119 91.2299 516.657 98.4572C517.25 106.637 526.583 100.896 527.015 110.832C527.517 122.425 525 123.587 514.2 124.393C507.734 123.64 501.501 123.836 494.937 123.875C485.448 123.599 481.128 123.463 481.404 112.946C481.719 100.889 488.602 104.375 491.055 101.992C493.781 99.3382 492.504 82.2814 492.515 77.2558C480.308 77.5432 479.453 67.6416 483.882 58.2087C484.681 56.5062 492.133 56.1637 494.219 55.9816Z" fill="#00FFFF"/>
<path d="M505.721 21.3393C520.774 19.9334 527.957 50.5913 502.698 51.3216C499.124 50.9734 495.752 49.4982 493.072 47.1088C490.074 44.4818 488.385 41.3603 488.151 37.3553C487.914 33.4096 489.29 29.5366 491.959 26.6224C496.031 22.1153 500.178 21.6498 505.721 21.3393Z" fill="#00FFFF"/>
</svg>
