<svg width="1600" height="286" viewBox="0 0 1600 286" fill="none" xmlns="http://www.w3.org/2000/svg">
<path d="M130.135 282.913C97.4851 276.41 72.2776 264.213 48.3159 243.302C-14.3631 188.631 -16.3046 99.7611 43.9313 42.8661C50.8884 36.2926 61.7448 27.6223 68.0386 23.613C78.9111 16.6995 104.895 4.6008 106.27 5.81917C106.626 6.13085 93.3917 22.1538 76.8401 41.4352C60.3048 60.7166 47.1024 76.7821 47.4907 77.1363C47.8952 77.4763 56.2438 72.7586 66.0323 66.6385C81.694 56.8632 122.434 31.8582 164.856 6.01749C172.46 1.38485 177.573 -1.10856 176.246 0.478152C170.308 7.54753 136.396 45.9687 108.406 77.3346C95.5597 91.7142 87.292 101.164 66.097 125.644C49.4484 144.883 50.4516 143.608 53.283 141.781C56.0335 139.996 123.097 92.5642 133.986 84.7156C146.767 75.4929 180.065 51.8339 191.617 43.7586C197.846 39.4093 209.123 31.3341 216.695 25.8231C224.267 20.3263 231.903 14.8719 233.683 13.7102C237.744 11.061 240.478 8.01504 199.998 51.1255C171.247 81.7406 142.205 112.851 109.118 148.468C102.873 155.183 93.3755 165.383 87.9877 171.135C76.4842 183.46 73.7823 187.002 78.4905 183.616C86.3698 177.949 211.129 90.6091 214.883 88.1299C224.38 81.868 268.048 51.168 273.226 47.1162C282.642 39.7635 280.798 41.8177 225.593 100.044C214.025 112.242 198.736 128.506 191.617 136.185C184.498 143.863 174.305 154.715 168.966 160.297C163.626 165.879 151.605 178.615 142.27 188.589C132.934 198.576 123.291 208.734 120.864 211.171C118.421 213.608 116.415 216.101 116.415 216.71C116.383 217.702 140.83 200.772 177.864 174.181C276.623 103.26 307.299 81.4431 307.299 82.1797C307.299 82.5056 299.841 91.0483 290.715 101.178C281.59 111.293 269.763 124.539 264.424 130.617C259.085 136.695 251.044 145.549 246.562 150.295C242.064 155.055 226.046 172.892 210.967 189.949C195.872 207.02 178.981 226.061 173.415 232.294C163.368 243.543 161.458 246.22 165.325 243.642C176.748 236.034 241.385 192.017 270.087 172.297C320.486 137.686 329.012 132.034 327.443 134.3C325.76 136.737 288.402 183.885 278.193 196.48C274.083 201.552 266.43 211.114 261.204 217.73C255.962 224.346 249.41 232.634 246.627 236.148C240.284 244.166 238.99 246.065 239.831 246.065C240.203 246.065 258.243 234.306 279.924 219.94C301.62 205.575 319.66 194.071 320.016 194.397C321.181 195.417 308.869 215.194 300.358 225.99C289.777 239.378 269.084 256.265 252.451 265.034C237.081 273.152 216.112 280.335 198.558 283.494C181.31 286.597 147.156 286.313 130.135 282.913ZM373.635 265.842V245.951L388.601 246.362C403.356 246.773 403.567 246.815 403.567 250.315C403.567 253.701 403.081 253.871 392.646 254.281C382.323 254.678 381.725 254.877 381.725 258.107C381.725 261.294 382.372 261.535 391.837 261.932C400.849 262.314 401.997 262.697 402.45 265.473C402.92 268.364 402.224 268.619 392.743 269.015L382.534 269.44L382.032 274.045L381.514 278.649H392.953C404.052 278.649 404.376 278.748 404.376 282.191C404.376 285.718 404.327 285.732 389.005 285.732H373.635V265.842ZM452.914 266.607V247.481H456.959H461.004V262.994V278.507L471.116 278.932C480.192 279.315 481.276 279.683 481.746 282.545C482.247 285.647 481.875 285.732 467.589 285.732H452.914V266.607ZM528.957 265.842V245.951L543.923 246.362C558.679 246.773 558.889 246.815 558.889 250.315C558.889 253.701 558.403 253.871 547.968 254.281C537.581 254.678 537.047 254.862 537.047 258.177C537.047 261.507 537.484 261.648 547.563 261.648C557.643 261.648 558.08 261.79 558.08 265.119C558.08 268.392 557.497 268.619 547.968 269.015C537.856 269.44 537.856 269.44 537.354 274.045L536.836 278.649H548.275C559.374 278.649 559.698 278.748 559.698 282.191C559.698 285.718 559.649 285.732 544.327 285.732H528.957V265.842ZM617.944 270.234V254.735L611.876 254.296C606.618 253.913 605.809 253.389 605.809 250.315C605.809 246.787 605.858 246.773 621.18 246.773H636.55L637.068 250.669C637.537 254.281 637.149 254.565 631.809 254.565H626.033V270.149V285.732H621.988H617.944V270.234ZM684.635 266.253L685.088 246.773L697.66 246.844C708.354 246.9 710.765 247.382 713.758 250.003C718.903 254.508 718.579 262.725 713.127 266.295L708.969 269.001L714.421 276.099C717.415 279.995 719.874 283.763 719.874 284.457C719.874 285.166 717.787 285.732 715.23 285.732C711.428 285.732 709.632 284.415 705.118 278.309C702.109 274.229 698.371 270.673 696.818 270.418C694.391 270.007 693.987 271.084 693.987 277.841C693.987 285.676 693.954 285.732 689.084 285.732H684.182L684.635 266.253ZM707.739 258.815C707.739 255.656 706.979 255.231 700.863 254.834C694.132 254.409 693.987 254.494 693.987 258.815C693.987 263.136 694.132 263.221 700.863 262.796C706.979 262.399 707.739 261.974 707.739 258.815ZM773.46 283.423C768.606 280.448 765.176 273.195 765.176 265.87C765.176 250.853 780.158 241.786 794.348 248.218C800.706 251.094 804.007 257.143 804.007 265.898C804.007 273.931 801.013 280.179 795.561 283.522C790.837 286.427 778.265 286.37 773.46 283.423ZM792.034 275.674C794.153 273.605 795.108 270.588 795.108 265.898C795.108 254.692 785.805 249.252 778.12 255.982C774.091 259.509 773.67 270.843 777.408 275.504C780.644 279.556 787.924 279.641 792.034 275.674ZM852.545 265.898V246.065H861.492C874.468 246.065 880.6 248.742 883.852 255.84C888.414 265.856 886.861 275.815 879.661 282.545C876.717 285.293 874.597 285.732 864.404 285.732H852.545V265.898ZM875.131 275.915C877.768 271.608 877.202 259.367 874.274 256.789C872.866 255.571 869.226 254.565 866.184 254.565H860.634V266.607V278.649H867.042C871.734 278.649 873.918 277.912 875.131 275.915ZM941.887 283.522C930.076 276.283 930.756 253.8 942.939 248.289C957.29 241.786 972.272 250.782 972.272 265.87C972.272 273.45 968.875 280.321 963.649 283.324C958.39 286.342 946.66 286.455 941.887 283.522ZM959.604 276.311C963.924 272.883 963.746 259.849 959.329 255.982C955.268 252.426 951.061 252.383 946.159 255.854C941.127 259.424 940.69 271.098 945.414 275.674C949.12 279.244 955.527 279.527 959.604 276.311ZM1019.55 266.267C1020.03 245.172 1020.34 244.591 1029.55 246.617C1032.62 247.283 1033.62 249.21 1036.04 259.027C1039.22 272.004 1040.5 271.82 1043.51 257.894C1045.66 247.878 1047.73 245.654 1054.29 246.32L1058.83 246.773L1059.29 266.253L1059.74 285.732H1055.64C1051.57 285.732 1051.55 285.676 1051.42 272.628C1051.28 258.291 1050.69 258.517 1046.73 274.399C1044.3 284.117 1043.72 285.067 1039.82 285.463C1035.26 285.931 1035.76 286.852 1030.84 269.44C1029.34 264.142 1029.22 264.496 1029.06 274.753L1028.9 285.732H1024H1019.1L1019.55 266.267ZM1108.54 266.253L1108.99 246.773H1123.55C1138 246.773 1138.11 246.801 1138.11 250.315C1138.11 253.672 1137.58 253.885 1128 254.281C1118.47 254.678 1117.89 254.905 1117.89 258.177C1117.89 261.478 1118.37 261.648 1127.59 261.648C1136.87 261.648 1137.3 261.804 1137.3 265.19C1137.3 268.576 1136.87 268.732 1127.59 268.732H1117.89V273.69V278.649H1128.4C1138.55 278.649 1138.92 278.776 1138.92 282.191C1138.92 285.718 1138.87 285.732 1123.5 285.732H1108.08L1108.54 266.253ZM1191.21 282.545C1186.67 278.125 1185.29 274.158 1187.81 272.769C1191.47 270.729 1193.95 271.466 1195.87 275.178C1197.38 278.054 1198.74 278.706 1202.55 278.366C1208.44 277.841 1212.13 273.591 1208.49 271.523C1207.15 270.772 1203.33 269.483 1200 268.675C1187.86 265.728 1183.66 256.35 1191.42 249.536C1197.36 244.35 1207.18 244.69 1213.6 250.315C1218.94 254.99 1218.98 257.866 1213.73 258.546C1211.6 258.829 1209.66 257.894 1208.54 256.067C1206.45 252.652 1198.01 252.015 1196.63 255.174C1195.5 257.738 1197.93 259.41 1206.06 261.648C1215.69 264.298 1218.2 266.805 1218.2 273.804C1218.2 278.663 1217.36 280.448 1213.94 282.8C1207.83 286.993 1195.66 286.866 1191.21 282.545ZM1276.44 270.149V254.565H1270.78C1265.56 254.565 1265.12 254.239 1265.12 250.258V245.965L1280.89 246.362C1296.52 246.773 1296.67 246.801 1296.67 250.315C1296.67 253.389 1295.86 253.913 1290.6 254.296L1284.53 254.735V270.234V285.732H1280.49H1276.44V270.149ZM1343.14 266.352L1343.59 246.773H1347.63H1351.68V265.898V285.024L1347.18 285.477L1342.68 285.931L1343.14 266.352ZM1405.82 281.411C1396.97 273.124 1398 256.817 1407.85 249.564C1412.22 246.348 1414.1 245.866 1420.15 246.461C1427.66 247.212 1432.79 250.541 1433.66 255.273C1434.42 259.282 1428.03 259.792 1423.77 256.067C1416.27 249.493 1409.12 254.664 1409.12 266.706C1409.12 271.934 1409.94 274.611 1412.08 276.311C1416.38 279.711 1421.35 279.187 1424.87 274.937C1427.25 272.075 1428.79 271.452 1431.56 272.217C1434.29 272.982 1434.91 273.931 1434.13 276.283C1432.27 281.978 1425.76 285.732 1417.77 285.732C1411.66 285.732 1409.63 284.996 1405.82 281.411ZM1490.21 283.423C1482.28 278.564 1479.48 264.453 1484.56 255.075C1489.12 246.66 1501 243.642 1511.26 248.289C1523.44 253.8 1524.12 276.283 1512.31 283.522C1507.58 286.427 1495.01 286.37 1490.21 283.423ZM1508.76 275.66C1513.39 271.197 1512.87 259.282 1507.91 255.769C1503.13 252.383 1498.9 252.454 1494.87 255.982C1490.66 259.665 1490.32 272.203 1494.32 276.056C1497.89 279.527 1504.98 279.343 1508.76 275.66ZM1571.54 282.162C1566.74 277.955 1566.83 272.486 1571.72 271.863C1573.81 271.608 1575.52 272.6 1576.57 274.696C1577.82 277.19 1579.5 277.941 1583.85 277.941C1588.76 277.941 1589.52 277.487 1589.52 274.526C1589.52 271.735 1588.14 270.687 1582.2 268.859C1572.69 265.941 1571.01 264.893 1569.26 260.855C1565.83 252.978 1573.11 246.065 1584.81 246.065C1591.3 246.065 1598.41 251.221 1598.41 255.911C1598.41 259.835 1591.81 259.807 1589.01 255.897C1586.25 252.015 1578.19 252.567 1578.19 256.633C1578.19 258.702 1580.03 259.863 1585.47 261.209C1599.05 264.595 1604.3 275.036 1596.07 282.261C1590.32 287.291 1577.33 287.234 1571.54 282.162ZM1119.5 244.039C1119.5 243.699 1120.22 241.786 1121.09 239.789C1122.21 237.21 1123.86 236.148 1126.75 236.148C1131.59 236.148 1131.77 237.182 1127.69 241.46C1125.09 244.18 1119.5 245.937 1119.5 244.039ZM373.635 198.562C373.635 198.137 380.867 186.761 389.717 173.26C398.551 159.759 407.175 146.555 408.874 143.906C410.572 141.271 425.555 118.15 442.155 92.5501L472.329 45.997L467.475 40.6418C464.806 37.6951 462.621 34.89 462.621 34.4225C462.621 33.9408 483.914 33.5866 509.946 33.615L557.271 33.6575L606.618 115.246C633.751 160.113 656.192 197.33 656.451 197.939C656.726 198.562 648.717 198.959 638.653 198.832L620.371 198.605L615.954 191.521C613.527 187.625 596.037 159.334 577.107 128.648C558.161 97.9619 542.03 72.787 541.237 72.6878C540.461 72.5886 522.776 97.8627 501.954 128.846L464.094 185.16L469.029 191.436C471.73 194.879 473.947 198.066 473.947 198.506C473.947 198.945 451.377 199.313 423.791 199.313C396.205 199.313 373.635 198.973 373.635 198.562ZM708.03 198.392C707.432 197.854 706.93 166.616 706.93 128.945V60.4758H667.485H628.056L627.036 56.0556C626.486 53.6189 626.033 47.5554 626.033 42.5969V33.5583H741.716H857.399V47.017V60.4758H821.011H784.624L784.203 129.54L783.782 198.605L746.457 198.987C725.941 199.2 708.645 198.931 708.03 198.392ZM879.516 198.364C878.917 197.854 878.432 160.552 878.432 115.487V33.5583H917.295H956.158L955.721 101.206C955.478 138.409 954.653 169.973 953.892 171.333C952.598 173.671 955.769 173.812 1009.31 173.812H1066.11V186.563V199.313H973.356C922.326 199.313 880.098 198.888 879.516 198.364ZM1088.76 197.741C1088.76 196.876 1100.17 178.544 1114.12 157.01C1128.06 135.476 1149.94 101.688 1162.74 81.9389L1185.97 46.0253L1182.15 41.5627C1180.05 39.1118 1177.8 36.3067 1177.14 35.3292C1176.2 33.9266 1185.89 33.5583 1223.47 33.5583H1270.99L1301.64 84.1631C1318.48 111.987 1336.15 141.157 1340.89 148.978C1364.69 188.263 1370.29 197.67 1370.29 198.506C1370.29 199.002 1362.16 199.228 1352.23 199.002L1334.17 198.605L1295.05 135.193C1273.53 100.328 1255.64 71.5402 1255.27 71.2144C1254.89 70.9027 1245.19 84.7723 1233.67 102.042C1222.15 119.312 1204.83 145.11 1195.18 159.39L1177.64 185.344L1182.56 191.195C1185.24 194.411 1187.46 197.556 1187.46 198.18C1187.46 198.803 1165.26 199.313 1138.11 199.313C1102.95 199.313 1088.76 198.86 1088.76 197.741ZM1467.44 197.769C1433.63 194.921 1402.87 186.506 1385.09 175.215C1378.75 171.206 1368.67 160.637 1368.67 158.016C1368.67 157.35 1381.72 156.812 1397.69 156.812H1426.74L1434.87 164.363C1450.05 178.403 1470.08 184.211 1492.7 181.137C1512.66 178.417 1525.72 170.115 1523.29 161.671C1521.87 156.684 1513.72 150.04 1505.04 146.767C1501.31 145.365 1487.39 142.277 1474.12 139.911C1418.11 129.909 1385.02 115.501 1371.81 95.3268C1366.56 87.3082 1365.75 80.1113 1369.27 72.7445C1374.8 61.1416 1407.08 43.9853 1435 37.8226C1454.05 33.615 1488.51 32.5383 1510.24 35.4567C1530.83 38.2193 1550.48 43.6169 1566.69 50.9697C1579.68 56.849 1598.41 70.506 1598.41 74.0903C1598.41 75.6912 1593.35 76.0596 1570.99 76.0596H1543.58L1532.82 68.9335C1511.37 54.7098 1495.29 50.3322 1475.21 53.2364C1462.44 55.0781 1454.97 57.8832 1450.81 62.4025C1446.81 66.7518 1447.28 69.6277 1452.9 75.2237C1459.13 81.4431 1479.46 88.5833 1519.94 98.7836C1552.37 106.944 1568.97 113.036 1581.67 121.423C1617.02 144.798 1597.23 181.307 1542.6 193.505C1519.56 198.647 1494.59 200.064 1467.44 197.769Z" fill="black"/>
</svg>
