<?xml version="1.0" standalone="no"?>
<!DOCTYPE svg PUBLIC "-//W3C//DTD SVG 20010904//EN"
 "http://www.w3.org/TR/2001/REC-SVG-20010904/DTD/svg10.dtd">
<svg version="1.0" xmlns="http://www.w3.org/2000/svg"
 width="1080.000000pt" height="1080.000000pt" viewBox="0 0 1080.000000 1080.000000"
 preserveAspectRatio="xMidYMid meet">

<g transform="translate(0.000000,1080.000000) scale(0.100000,-0.100000)"
fill="#000000" stroke="none">
<path d="M3935 9180 c-3 -5 -37 -10 -76 -10 -38 0 -77 -4 -87 -9 -9 -5 -48
-15 -87 -21 -38 -7 -95 -16 -125 -21 -30 -6 -72 -12 -93 -15 -20 -4 -40 -10
-43 -15 -3 -5 -23 -9 -45 -9 -21 0 -39 -4 -39 -10 0 -5 -13 -10 -29 -10 -17 0
-33 -4 -36 -10 -3 -5 -21 -10 -40 -10 -19 0 -37 -4 -40 -10 -3 -5 -17 -10 -30
-10 -13 0 -27 -4 -30 -10 -3 -5 -17 -10 -31 -10 -13 0 -24 -4 -24 -10 0 -5
-13 -10 -30 -10 -16 0 -30 -4 -30 -10 0 -5 -6 -10 -14 -10 -7 0 -27 -7 -42
-15 -16 -8 -37 -15 -46 -15 -10 0 -18 -4 -18 -10 0 -5 -9 -10 -19 -10 -11 0
-23 -4 -26 -10 -3 -5 -14 -10 -24 -10 -10 0 -47 -14 -82 -31 -35 -17 -71 -35
-79 -39 -21 -10 -49 -24 -86 -44 -18 -9 -51 -26 -75 -38 -24 -13 -45 -26 -47
-30 -2 -5 -10 -8 -18 -8 -8 0 -14 -4 -14 -10 0 -5 -9 -10 -20 -10 -11 0 -20
-4 -20 -10 0 -5 -6 -10 -13 -10 -7 0 -23 -9 -35 -20 -12 -11 -24 -20 -27 -20
-6 0 -147 -91 -155 -101 -3 -3 -27 -21 -55 -39 -27 -19 -51 -37 -53 -42 -2 -4
-9 -8 -16 -8 -7 0 -28 -15 -48 -32 -20 -18 -50 -44 -67 -56 -17 -13 -49 -41
-71 -63 -22 -21 -44 -39 -48 -39 -11 0 -280 -267 -312 -309 -14 -18 -44 -53
-68 -77 -23 -24 -42 -48 -42 -53 0 -5 -3 -11 -7 -13 -5 -1 -24 -23 -43 -48
-50 -66 -53 -69 -77 -95 -13 -13 -23 -27 -23 -30 0 -10 -83 -130 -92 -133 -4
-2 -8 -8 -8 -14 0 -5 -15 -30 -32 -56 -42 -60 -67 -102 -74 -124 -4 -10 -10
-18 -15 -18 -5 0 -9 -9 -9 -20 0 -11 -4 -20 -8 -20 -5 0 -14 -16 -22 -35 -8
-19 -17 -35 -22 -35 -4 0 -8 -7 -8 -15 0 -8 -12 -36 -27 -62 -14 -26 -30 -56
-35 -65 -4 -10 -13 -27 -18 -38 -6 -11 -10 -27 -10 -35 0 -8 -4 -15 -10 -15
-5 0 -10 -9 -10 -20 0 -11 -4 -20 -10 -20 -5 0 -10 -9 -10 -19 0 -11 -4 -23
-10 -26 -5 -3 -10 -15 -10 -26 0 -10 -4 -27 -9 -37 -5 -9 -14 -30 -21 -47 -7
-16 -16 -38 -21 -47 -5 -10 -9 -27 -9 -37 0 -11 -4 -23 -10 -26 -5 -3 -10 -15
-10 -25 0 -17 -18 -66 -41 -112 -5 -10 -9 -31 -9 -47 0 -17 -4 -33 -10 -36 -5
-3 -10 -19 -10 -35 0 -16 -4 -32 -10 -35 -5 -3 -10 -21 -10 -40 0 -19 -4 -37
-10 -40 -5 -3 -10 -26 -10 -50 0 -24 -5 -47 -10 -50 -6 -3 -10 -28 -10 -56 0
-27 -4 -49 -10 -49 -6 0 -10 -26 -10 -58 0 -32 -4 -62 -9 -67 -16 -17 -22
-145 -27 -524 -3 -241 -1 -368 6 -375 5 -5 10 -45 10 -87 0 -43 5 -81 10 -84
6 -3 10 -30 10 -60 0 -30 4 -57 10 -60 5 -3 10 -28 10 -55 0 -27 5 -52 10 -55
6 -3 10 -24 10 -46 0 -21 5 -39 10 -39 6 0 10 -18 10 -39 0 -22 4 -43 10 -46
5 -3 10 -19 10 -35 0 -16 5 -32 10 -35 6 -3 10 -23 10 -44 0 -20 4 -41 9 -46
4 -6 16 -35 26 -65 9 -30 21 -63 26 -72 5 -10 9 -25 9 -33 0 -8 4 -23 9 -33 5
-9 14 -30 21 -47 7 -16 16 -38 21 -47 5 -10 9 -25 9 -33 0 -8 5 -15 10 -15 6
0 10 -11 10 -24 0 -14 4 -28 10 -31 5 -3 10 -15 10 -26 0 -10 5 -19 10 -19 6
0 10 -9 10 -19 0 -11 5 -23 10 -26 6 -3 10 -15 10 -26 0 -10 4 -19 8 -19 9 0
42 -70 42 -88 0 -7 5 -12 10 -12 6 0 10 -7 10 -15 0 -8 5 -15 10 -15 6 0 10
-9 10 -20 0 -11 5 -20 10 -20 6 0 10 -9 10 -19 0 -11 3 -21 8 -23 9 -4 41 -57
49 -80 3 -10 9 -18 14 -18 5 0 9 -5 9 -10 0 -14 149 -244 161 -248 5 -2 9 -9
9 -15 0 -7 12 -25 26 -42 14 -16 38 -45 52 -64 15 -19 33 -40 40 -47 6 -7 12
-16 12 -21 0 -4 24 -34 53 -65 28 -31 84 -92 122 -134 39 -43 88 -94 109 -114
22 -19 55 -52 75 -72 19 -21 39 -38 43 -38 4 0 35 -27 70 -60 34 -33 65 -60
69 -60 4 0 28 -20 55 -45 26 -25 52 -45 58 -45 7 0 18 -9 26 -20 8 -11 20 -20
27 -20 7 0 13 -4 13 -10 0 -5 6 -10 13 -10 7 0 22 -8 33 -18 10 -10 36 -28 57
-41 21 -13 43 -28 50 -34 6 -7 26 -19 42 -27 17 -8 39 -23 49 -32 11 -10 26
-18 33 -18 7 0 13 -4 13 -9 0 -5 8 -11 18 -14 9 -4 44 -22 77 -42 33 -20 68
-39 78 -42 9 -3 17 -9 17 -14 0 -5 9 -9 20 -9 11 0 20 -4 20 -10 0 -5 7 -10
15 -10 8 0 30 -9 50 -20 20 -11 42 -20 50 -20 8 0 15 -4 15 -10 0 -5 7 -10 15
-10 8 0 30 -9 50 -20 20 -11 41 -20 48 -20 7 0 37 -11 65 -25 29 -14 56 -25
62 -25 6 0 19 -4 30 -10 11 -5 29 -14 40 -20 11 -5 31 -10 45 -10 14 0 25 -4
25 -10 0 -5 14 -10 30 -10 17 0 30 -4 30 -10 0 -5 13 -10 29 -10 17 0 33 -5
36 -10 3 -5 19 -10 35 -10 16 0 32 -5 35 -10 3 -5 19 -10 35 -10 16 0 32 -4
35 -10 3 -5 23 -10 44 -10 20 0 41 -4 46 -9 6 -5 30 -11 55 -14 73 -9 164 -27
182 -37 10 -6 47 -10 82 -10 36 0 68 -5 71 -10 3 -6 50 -10 105 -10 55 0 102
-4 105 -10 8 -14 492 -14 500 0 3 6 52 10 111 10 63 0 104 4 104 10 0 6 28 10
63 10 35 0 67 3 71 7 4 5 40 14 79 21 40 7 95 17 122 23 28 5 68 12 90 16 22
3 44 9 50 14 5 5 24 9 42 9 18 0 33 5 33 10 0 6 15 10 34 10 19 0 38 5 41 10
3 6 19 10 36 10 16 0 29 5 29 10 0 6 11 10 25 10 14 0 25 5 25 10 0 6 13 10
29 10 17 0 33 5 36 10 3 6 16 10 29 10 12 0 26 4 31 8 6 5 42 21 80 36 39 16
78 32 87 37 10 5 25 9 33 9 8 0 15 5 15 10 0 6 9 10 20 10 11 0 20 5 20 10 0
6 7 10 15 10 8 0 30 9 50 20 20 11 42 20 50 20 8 0 15 5 15 10 0 6 9 10 20 10
11 0 20 3 20 8 0 4 10 12 23 18 80 39 167 89 167 96 0 4 9 8 20 8 11 0 20 5
20 10 0 6 6 10 13 10 7 0 23 9 35 20 12 11 24 20 27 20 10 0 223 151 290 206
81 66 110 91 131 111 13 13 27 23 31 23 10 0 259 247 318 315 22 25 56 63 75
84 51 57 70 80 70 89 0 4 14 21 30 39 38 40 42 90 8 98 -39 10 -571 0 -608
-11 -58 -18 -128 -53 -152 -77 -13 -12 -39 -34 -58 -49 -19 -15 -60 -50 -90
-78 -30 -29 -75 -66 -100 -83 -25 -17 -46 -34 -48 -39 -2 -4 -9 -8 -16 -8 -6
0 -28 -15 -48 -32 -55 -49 -63 -56 -105 -79 -21 -12 -40 -24 -43 -28 -8 -9
-63 -42 -82 -48 -10 -3 -18 -9 -18 -14 0 -5 -5 -9 -10 -9 -6 0 -29 -12 -53
-27 -64 -41 -147 -83 -163 -83 -8 0 -14 -4 -14 -10 0 -5 -9 -10 -20 -10 -11 0
-20 -4 -20 -10 0 -5 -11 -10 -24 -10 -14 0 -28 -4 -31 -10 -3 -5 -15 -10 -26
-10 -10 0 -19 -4 -19 -10 0 -5 -6 -10 -12 -10 -11 0 -79 -30 -140 -61 -10 -5
-27 -9 -37 -9 -11 0 -23 -4 -26 -10 -3 -5 -17 -10 -30 -10 -13 0 -27 -4 -30
-10 -3 -5 -19 -10 -36 -10 -16 0 -29 -4 -29 -10 0 -5 -15 -10 -34 -10 -19 0
-38 -4 -41 -10 -3 -5 -24 -10 -45 -10 -21 0 -42 -4 -45 -10 -3 -5 -26 -10 -50
-10 -24 0 -47 -4 -50 -10 -3 -5 -30 -10 -60 -10 -29 0 -55 -4 -57 -9 -8 -24
-318 -53 -548 -53 -228 1 -525 28 -555 51 -5 5 -35 12 -65 15 -108 14 -130 18
-136 27 -3 5 -25 9 -49 9 -24 0 -47 5 -50 10 -3 6 -19 10 -35 10 -16 0 -32 5
-35 10 -3 6 -17 10 -30 10 -13 0 -27 5 -30 10 -3 6 -17 10 -31 10 -13 0 -32 4
-42 9 -20 10 -49 22 -114 48 -27 10 -48 21 -48 26 0 4 -9 7 -19 7 -11 0 -23 5
-26 10 -3 6 -17 10 -31 10 -13 0 -24 5 -24 10 0 6 -8 10 -19 10 -16 0 -139 57
-151 70 -3 4 -26 16 -51 27 -25 12 -51 28 -58 37 -8 9 -20 16 -27 16 -8 0 -14
5 -14 10 0 6 -9 10 -20 10 -11 0 -20 5 -20 10 0 6 -9 10 -20 10 -11 0 -20 5
-20 10 0 6 -7 10 -15 10 -8 0 -15 5 -15 10 0 6 -6 10 -13 10 -7 0 -23 9 -35
20 -12 11 -25 20 -29 20 -7 0 -20 10 -91 71 -12 10 -27 19 -32 19 -6 0 -10 4
-10 8 0 5 -12 15 -27 23 -15 8 -45 31 -67 52 -22 21 -57 52 -79 70 -55 44
-267 255 -297 296 -14 19 -30 39 -35 45 -6 6 -28 33 -50 61 -22 27 -45 56 -52
63 -7 7 -20 26 -30 42 -9 17 -21 30 -25 30 -4 0 -8 7 -8 15 0 8 -4 15 -10 15
-5 0 -10 7 -10 15 0 9 -9 26 -20 38 -38 41 -66 82 -89 130 -13 26 -28 47 -33
47 -4 0 -8 9 -8 19 0 11 -3 21 -7 23 -5 1 -22 30 -39 63 -17 33 -47 91 -67
128 -21 38 -37 77 -37 88 0 10 -4 19 -10 19 -5 0 -10 9 -10 20 0 11 -4 20 -10
20 -5 0 -10 11 -10 24 0 14 -5 28 -10 31 -6 3 -10 17 -10 31 0 13 -4 24 -10
24 -5 0 -10 13 -10 29 0 17 -4 33 -10 36 -5 3 -10 19 -10 35 0 16 -4 31 -9 34
-5 4 -17 32 -26 64 -9 31 -21 66 -25 77 -10 24 -20 66 -27 118 -3 20 -9 40
-14 43 -5 3 -9 25 -9 49 0 24 -5 47 -10 50 -5 3 -10 32 -10 64 0 31 -4 61 -9
66 -16 17 -23 158 -23 475 0 317 7 458 23 475 5 5 9 35 9 67 0 32 4 58 10 58
6 0 10 18 10 39 0 22 5 43 10 46 6 3 10 26 10 50 0 24 5 47 10 50 6 3 10 19
10 35 0 16 5 32 10 35 6 3 10 15 10 27 0 27 33 118 42 118 5 0 8 10 8 23 0 24
22 92 33 103 4 4 7 18 7 30 0 13 5 26 10 29 6 3 10 15 10 26 0 10 5 19 10 19
6 0 10 9 10 19 0 11 5 23 10 26 6 3 10 15 10 25 0 20 69 153 82 158 4 2 8 10
8 18 0 13 19 53 30 64 3 3 16 28 30 55 14 28 28 52 33 53 4 2 7 10 7 18 0 8 3
14 8 14 4 0 13 13 20 29 7 16 29 47 48 67 18 21 34 44 34 51 0 7 5 13 10 13 6
0 10 6 10 13 0 14 93 141 125 172 12 11 33 36 46 55 46 67 321 334 453 440 10
8 24 21 31 28 8 6 18 12 24 12 6 0 11 5 11 10 0 6 5 10 10 10 12 0 14 2 75 55
22 19 46 35 53 35 6 0 12 4 12 9 0 4 29 23 65 41 36 18 65 37 65 41 0 5 9 9
20 9 11 0 20 5 20 10 0 6 6 10 14 10 7 0 19 6 25 13 6 8 41 29 78 47 38 19 80
42 95 52 14 10 36 18 47 18 12 0 21 5 21 10 0 6 11 10 24 10 14 0 28 5 31 10
3 6 15 10 26 10 10 0 19 5 19 10 0 6 7 10 15 10 8 0 23 4 33 10 15 8 47 22
122 52 14 6 33 14 42 19 10 5 29 9 43 9 14 0 25 5 25 10 0 6 15 10 34 10 19 0
38 5 41 10 3 6 19 10 35 10 16 0 32 5 35 10 3 6 26 10 50 10 24 0 47 5 50 10
3 6 26 10 50 10 24 0 47 5 50 10 3 6 35 10 70 10 35 0 65 5 67 10 14 44 940
45 968 1 3 -5 32 -12 65 -15 157 -15 181 -18 190 -27 5 -5 24 -9 42 -9 18 0
33 -4 33 -10 0 -5 15 -10 34 -10 19 0 38 -4 41 -10 3 -5 22 -10 41 -10 19 0
34 -4 34 -10 0 -5 14 -10 30 -10 17 0 30 -4 30 -10 0 -5 8 -10 17 -10 25 0
153 -52 153 -62 0 -4 11 -8 24 -8 14 0 28 -4 31 -10 3 -5 17 -10 31 -10 13 0
24 -4 24 -10 0 -5 9 -10 20 -10 11 0 20 -4 20 -10 0 -5 9 -10 19 -10 11 0 23
-4 26 -10 3 -5 15 -10 26 -10 10 0 19 -4 19 -10 0 -5 11 -10 24 -10 14 0 28
-4 31 -10 3 -5 44 -10 90 -10 46 0 87 5 90 10 3 6 15 10 26 10 10 0 19 5 19
10 0 6 7 10 16 10 21 0 104 88 104 111 0 9 5 19 11 21 15 5 16 201 0 206 -6 2
-11 12 -11 23 0 10 -4 19 -10 19 -5 0 -10 6 -10 13 0 27 -120 117 -155 117 -8
0 -15 5 -15 10 0 6 -9 10 -20 10 -11 0 -20 5 -20 10 0 6 -9 10 -20 10 -11 0
-20 5 -20 10 0 6 -9 10 -19 10 -11 0 -23 5 -26 10 -3 6 -15 10 -26 10 -10 0
-19 5 -19 10 0 6 -8 10 -17 10 -22 0 -75 19 -132 48 -25 12 -53 22 -62 22 -10
0 -21 5 -24 10 -3 6 -17 10 -30 10 -13 0 -27 5 -30 10 -3 6 -19 10 -35 10 -16
0 -32 5 -35 10 -3 6 -17 10 -30 10 -13 0 -27 5 -30 10 -3 6 -22 10 -41 10 -19
0 -34 5 -34 10 0 6 -16 10 -35 10 -19 0 -43 4 -53 9 -9 5 -51 15 -92 21 -41 7
-87 16 -103 21 -15 4 -54 11 -87 15 -33 4 -63 11 -66 15 -3 5 -41 9 -84 9 -43
0 -82 5 -85 10 -4 6 -140 10 -375 10 -235 0 -371 -4 -375 -10z"/>
<path d="M6625 8230 c-3 -5 -15 -10 -25 -10 -22 0 -140 -115 -140 -136 0 -8
-4 -14 -10 -14 -5 0 -10 -18 -10 -40 0 -22 -4 -40 -10 -40 -5 0 -10 -11 -10
-25 0 -14 5 -25 10 -25 6 0 10 -13 10 -28 0 -16 7 -43 16 -60 19 -40 101 -122
120 -122 8 0 14 -4 14 -10 0 -5 9 -10 19 -10 11 0 23 -4 26 -10 8 -12 129 -13
153 -1 9 5 31 15 47 22 17 8 37 21 45 30 8 8 23 18 33 22 9 3 17 13 17 22 0 8
3 15 8 15 4 0 13 15 20 33 7 17 18 40 23 49 12 24 12 125 -1 133 -5 3 -10 14
-10 24 0 52 -104 171 -149 171 -11 0 -23 5 -26 10 -3 6 -42 10 -85 10 -43 0
-82 -4 -85 -10z"/>
<path d="M3192 7110 c-70 -16 -156 -91 -191 -166 -24 -50 -29 -161 -10 -224
34 -113 157 -200 281 -200 145 0 250 81 297 229 29 91 -5 207 -84 286 -70 71
-186 101 -293 75z"/>
<path d="M4291 7103 c-61 -31 -85 -83 -111 -243 -5 -30 -13 -80 -19 -110 -5
-30 -24 -136 -41 -235 -27 -162 -48 -276 -81 -460 -13 -75 -25 -141 -39 -225
-6 -36 -15 -87 -20 -115 -6 -27 -16 -90 -24 -140 -8 -49 -27 -155 -41 -235
-46 -258 -45 -279 5 -305 35 -18 149 -20 236 -4 166 30 326 170 382 334 15 44
20 67 58 294 19 113 44 258 55 321 19 112 29 167 48 288 25 154 42 234 54 252
6 11 27 27 46 36 31 15 76 16 415 11 282 -4 401 -9 457 -21 242 -49 340 -127
378 -304 22 -105 11 -208 -95 -827 -8 -49 -19 -115 -24 -145 -5 -30 -14 -81
-20 -112 -5 -32 -14 -82 -19 -110 -36 -204 -55 -257 -119 -338 -89 -111 -187
-163 -392 -207 -66 -15 -201 -17 -1099 -20 -563 -3 -1034 -2 -1047 1 -13 4
-31 18 -40 31 -14 22 -15 34 -6 83 7 31 25 136 42 232 16 96 39 229 50 295 12
66 25 145 30 175 9 58 39 228 64 370 8 47 27 153 41 235 14 83 28 162 31 176
9 44 -17 59 -98 59 -150 0 -322 -72 -428 -179 -114 -115 -143 -198 -220 -631
-11 -63 -24 -135 -29 -160 -6 -25 -15 -76 -21 -115 -7 -38 -16 -88 -20 -110
-5 -22 -13 -67 -19 -100 -84 -467 -105 -584 -122 -665 -23 -115 -24 -188 -3
-218 38 -55 -26 -52 1271 -52 1411 0 1587 6 1830 65 277 67 531 238 705 475
71 96 74 103 128 275 28 90 105 448 150 695 6 30 19 105 30 165 11 61 24 133
30 160 43 228 52 318 47 483 -5 184 -19 257 -77 396 -18 43 -59 114 -91 156
-130 173 -297 263 -583 317 -67 13 -214 16 -841 19 -698 4 -763 3 -794 -13z"/>
<path d="M8040 7110 c-179 -23 -382 -129 -550 -287 -250 -235 -391 -525 -407
-838 -20 -379 145 -649 443 -725 73 -19 114 -20 760 -20 456 0 700 -4 734 -11
93 -20 161 -93 188 -201 63 -250 -137 -498 -439 -547 -42 -7 -329 -11 -810
-11 -898 0 -897 0 -1056 -108 -68 -46 -119 -100 -158 -165 -30 -53 -95 -231
-95 -264 l0 -23 1084 0 c696 0 1113 4 1163 10 271 37 533 210 719 476 144 206
214 386 244 624 10 79 9 112 -3 197 -37 244 -140 407 -325 510 -124 70 -91 67
-887 73 -803 6 -754 1 -829 76 -62 62 -80 115 -81 234 0 97 3 110 30 165 41
82 142 181 227 223 120 60 145 61 953 62 726 0 800 3 920 36 132 36 287 165
357 300 41 78 88 191 88 211 0 11 -193 13 -1107 12 -610 -1 -1133 -5 -1163 -9z"/>
</g>
</svg>
