<svg width="192" height="149" viewBox="0 0 192 149" fill="none" xmlns="http://www.w3.org/2000/svg">
<path d="M66.8956 0.196045C66.8368 0.294067 66.1703 0.392075 65.4057 0.392075C64.6608 0.392075 63.8962 0.47049 63.7002 0.568512C63.5237 0.666534 62.7592 0.862579 61.9946 0.980194C61.2497 1.11743 60.1322 1.29387 59.5441 1.39188C58.956 1.50951 58.1326 1.62714 57.721 1.68594C57.3289 1.76436 56.9368 1.88199 56.878 1.98C56.8192 2.07802 56.4271 2.15643 55.9958 2.15643C55.5841 2.15643 55.2313 2.23485 55.2313 2.35248C55.2313 2.4505 54.9764 2.54852 54.6627 2.54852C54.3295 2.54852 54.0158 2.62694 53.957 2.74455C53.8982 2.84258 53.5453 2.9406 53.1728 2.9406C52.8004 2.9406 52.4475 3.01901 52.3887 3.13664C52.3299 3.23465 52.0554 3.33267 51.8006 3.33267C51.5457 3.33267 51.2713 3.41109 51.2124 3.52872C51.1536 3.62674 50.8792 3.72476 50.6047 3.72476C50.3499 3.72476 50.1342 3.80318 50.1342 3.92079C50.1342 4.01881 49.8794 4.11684 49.5461 4.11684C49.2324 4.11684 48.958 4.19525 48.958 4.31288C48.958 4.41089 48.8404 4.50891 48.6835 4.50891C48.5463 4.50891 48.1542 4.64615 47.8602 4.80298C47.5465 4.95981 47.1348 5.09703 46.9584 5.09703C46.7623 5.09703 46.6055 5.17545 46.6055 5.29308C46.6055 5.3911 46.4291 5.48912 46.233 5.48912C46.0174 5.48912 45.7821 5.56754 45.7233 5.68515C45.6645 5.78317 45.4489 5.8812 45.2528 5.8812C45.0568 5.8812 44.3314 6.15565 43.6453 6.48892C42.9592 6.82219 42.2534 7.17505 42.0966 7.25348C41.6849 7.44951 41.136 7.72397 40.4107 8.11604C40.0578 8.29248 39.4108 8.62575 38.9404 8.86099C38.4699 9.11584 38.0582 9.3707 38.019 9.44911C37.9798 9.54713 37.8229 9.60594 37.6661 9.60594C37.5093 9.60594 37.3916 9.68436 37.3916 9.80199C37.3916 9.90001 37.2152 9.99803 36.9996 9.99803C36.7839 9.99803 36.6075 10.0764 36.6075 10.1941C36.6075 10.2921 36.4899 10.3901 36.3526 10.3901C36.2154 10.3901 35.9017 10.5665 35.6665 10.7822C35.4312 10.9978 35.196 11.1743 35.1372 11.1743C35.0196 11.1743 32.2554 12.9582 32.0986 13.1543C32.0398 13.2131 31.5693 13.5659 31.0203 13.9188C30.491 14.2913 30.0205 14.6442 29.9813 14.7422C29.9421 14.8206 29.8049 14.899 29.6677 14.899C29.5304 14.899 29.1188 15.1931 28.7267 15.5264C28.3346 15.8792 27.7465 16.3889 27.4132 16.6242C27.0799 16.879 26.4526 17.4279 26.0213 17.8592C25.59 18.2709 25.1588 18.6238 25.0803 18.6238C24.8647 18.6238 19.5912 23.858 18.9639 24.6814C18.6894 25.0343 18.1013 25.7204 17.6308 26.1909C17.1799 26.6614 16.8075 27.1319 16.8075 27.2299C16.8075 27.3279 16.7487 27.4456 16.6702 27.4848C16.5722 27.5044 16.1997 27.9357 15.8273 28.4258C14.8471 29.7196 14.7883 29.7784 14.3178 30.2881C14.0629 30.543 13.8669 30.8174 13.8669 30.8763C13.8669 31.0723 12.2397 33.4248 12.0633 33.4836C11.9849 33.5228 11.9065 33.6404 11.9065 33.758C11.9065 33.8561 11.6124 34.3462 11.2791 34.8559C10.4558 36.0321 9.96568 36.8555 9.82845 37.2868C9.75004 37.4828 9.63241 37.6396 9.53439 37.6396C9.43637 37.6396 9.35796 37.8161 9.35796 38.0317C9.35796 38.2474 9.27954 38.4238 9.20113 38.4238C9.10311 38.4238 8.92667 38.7374 8.76984 39.1099C8.61301 39.4824 8.43657 39.7961 8.33855 39.7961C8.26013 39.7961 8.18172 39.9333 8.18172 40.0901C8.18172 40.247 7.94647 40.7959 7.65241 41.3056C7.37796 41.8153 7.06429 42.4034 6.96627 42.5798C6.88786 42.7759 6.71142 43.1091 6.6134 43.3248C6.49578 43.5404 6.41736 43.8541 6.41736 44.0109C6.41736 44.1678 6.33894 44.305 6.22132 44.305C6.1233 44.305 6.02528 44.4814 6.02528 44.6971C6.02528 44.9127 5.94687 45.0891 5.82924 45.0891C5.73122 45.0891 5.6332 45.2656 5.6332 45.4616C5.6332 45.6773 5.55479 45.9125 5.43716 45.9713C5.33914 46.0301 5.24112 46.2654 5.24112 46.481C5.24112 46.6771 5.16271 47.0103 5.06469 47.2064C4.96667 47.3828 4.79023 47.7945 4.653 48.1278C4.51578 48.4414 4.33934 48.8727 4.24132 49.0491C4.1433 49.2452 4.06488 49.5785 4.06488 49.7745C4.06488 49.9901 3.98647 50.2254 3.86884 50.2842C3.77082 50.343 3.6728 50.5783 3.6728 50.7743C3.6728 51.1076 3.31993 52.0682 2.86904 52.9699C2.77102 53.166 2.69261 53.5777 2.69261 53.8913C2.69261 54.2246 2.61419 54.5383 2.49657 54.5971C2.39855 54.6559 2.30053 54.9695 2.30053 55.2832C2.30053 55.5969 2.22211 55.9105 2.10449 55.9693C2.00647 56.0282 1.90845 56.381 1.90845 56.7535C1.90845 57.126 1.83003 57.4789 1.71241 57.5377C1.61439 57.5965 1.51637 58.0474 1.51637 58.5179C1.51637 58.9884 1.41835 59.4392 1.32033 59.4981C1.2027 59.5569 1.12429 60.047 1.12429 60.5959C1.12429 61.1252 1.04587 61.5565 0.928248 61.5565C0.810624 61.5565 0.732208 62.0662 0.732208 62.6935C0.732208 63.3208 0.653793 63.909 0.555773 64.007C0.242109 64.3402 0.124485 66.8495 0.0264654 74.2795C-0.0323466 79.004 0.00686139 81.4937 0.144089 81.6309C0.242109 81.729 0.340129 82.5131 0.340129 83.3365C0.340129 84.1795 0.438149 84.9244 0.536169 84.9832C0.653793 85.042 0.732208 85.5713 0.732208 86.1595C0.732208 86.7476 0.810624 87.2769 0.928248 87.3357C1.02627 87.3945 1.12429 87.8846 1.12429 88.4139C1.12429 88.9432 1.22231 89.4333 1.32033 89.4921C1.43795 89.551 1.51637 89.9626 1.51637 90.3939C1.51637 90.8056 1.61439 91.1585 1.71241 91.1585C1.83003 91.1585 1.90845 91.5113 1.90845 91.923C1.90845 92.3543 1.98686 92.766 2.10449 92.8248C2.20251 92.8836 2.30053 93.1973 2.30053 93.511C2.30053 93.8246 2.39855 94.1383 2.49657 94.1971C2.61419 94.2559 2.69261 94.648 2.69261 95.0597C2.69261 95.4517 2.77102 95.8634 2.86904 95.9614C2.94746 96.0791 3.18271 96.6476 3.37874 97.2357C3.55518 97.8238 3.79043 98.4708 3.88845 98.6472C3.98647 98.8432 4.06488 99.1373 4.06488 99.2941C4.06488 99.451 4.1433 99.745 4.24132 99.9411C4.33934 100.117 4.51578 100.529 4.653 100.862C4.79023 101.176 4.96667 101.607 5.06469 101.784C5.16271 101.98 5.24112 102.274 5.24112 102.431C5.24112 102.588 5.33914 102.725 5.43716 102.725C5.55479 102.725 5.6332 102.94 5.6332 103.195C5.6332 103.47 5.71162 103.744 5.82924 103.803C5.92726 103.862 6.02528 104.097 6.02528 104.313C6.02528 104.509 6.1233 104.685 6.22132 104.685C6.33894 104.685 6.41736 104.862 6.41736 105.058C6.41736 105.273 6.51538 105.509 6.6134 105.567C6.73102 105.626 6.80944 105.861 6.80944 106.077C6.80944 106.273 6.88786 106.45 6.96627 106.45C7.14271 106.45 7.78964 107.822 7.78964 108.175C7.78964 108.312 7.88766 108.41 7.98568 108.41C8.1033 108.41 8.18172 108.547 8.18172 108.704C8.18172 108.861 8.27974 108.998 8.37776 108.998C8.49538 108.998 8.5738 109.175 8.5738 109.39C8.5738 109.606 8.67182 109.782 8.76984 109.782C8.88746 109.782 8.96588 109.959 8.96588 110.155C8.96588 110.37 9.02469 110.566 9.12271 110.606C9.29914 110.684 9.92647 111.723 10.0833 112.174C10.1421 112.37 10.2597 112.527 10.3578 112.527C10.4558 112.527 10.5342 112.625 10.5342 112.723C10.5342 112.997 13.4552 117.506 13.6904 117.585C13.7885 117.624 13.8669 117.761 13.8669 117.879C13.8669 118.016 14.1021 118.369 14.3766 118.702C14.651 119.016 15.1215 119.584 15.396 119.957C15.69 120.329 16.0429 120.741 16.1801 120.878C16.2978 121.015 16.4154 121.192 16.4154 121.29C16.4154 121.368 16.8859 121.956 17.4544 122.564C18.0033 123.172 19.1011 124.368 19.8461 125.191C20.6106 126.034 21.5712 127.034 21.9829 127.426C22.4142 127.798 23.0611 128.445 23.4532 128.837C23.8257 129.249 24.2178 129.582 24.2962 129.582C24.3746 129.582 24.9823 130.112 25.6685 130.759C26.335 131.405 26.9427 131.935 27.0211 131.935C27.0996 131.935 27.57 132.327 28.0994 132.817C28.6091 133.307 29.1188 133.699 29.2364 133.699C29.3736 133.699 29.5893 133.876 29.7461 134.091C29.9029 134.307 30.1382 134.483 30.2754 134.483C30.4126 134.483 30.5302 134.562 30.5302 134.679C30.5302 134.777 30.6479 134.875 30.7851 134.875C30.9223 134.875 31.2164 135.032 31.432 135.228C31.6281 135.424 32.1378 135.777 32.5495 136.032C32.9611 136.287 33.3924 136.581 33.5297 136.699C33.6473 136.836 34.0394 137.071 34.353 137.228C34.6863 137.385 35.1176 137.679 35.3136 137.855C35.5293 138.051 35.8233 138.208 35.9605 138.208C36.0978 138.208 36.2154 138.286 36.2154 138.384C36.2154 138.482 36.3722 138.6 36.5683 138.659C36.7447 138.737 37.4308 139.09 38.0778 139.482C38.7247 139.874 39.4108 140.247 39.6069 140.306C39.7833 140.364 39.9402 140.482 39.9402 140.58C39.9402 140.678 40.1166 140.757 40.3322 140.757C40.5479 140.757 40.7243 140.835 40.7243 140.953C40.7243 141.051 40.8615 141.149 41.0184 141.149C41.1752 141.149 41.6065 141.325 41.9986 141.541C42.3907 141.756 42.8219 141.933 42.9788 141.933C43.1356 141.933 43.2728 142.011 43.2728 142.129C43.2728 142.227 43.4101 142.325 43.5669 142.325C43.7237 142.325 44.155 142.501 44.5471 142.717C44.9392 142.933 45.3509 143.109 45.4881 143.109C45.6253 143.109 46.2134 143.325 46.7623 143.599C47.3309 143.874 47.8602 144.089 47.9778 144.089C48.0954 144.089 48.3503 144.168 48.5659 144.285C48.7815 144.383 49.1344 144.56 49.3501 144.677C49.5657 144.775 49.9578 144.873 50.2322 144.873C50.5067 144.873 50.7223 144.952 50.7223 145.069C50.7223 145.167 50.9968 145.265 51.3105 145.265C51.6437 145.265 51.8986 145.344 51.8986 145.461C51.8986 145.56 52.1534 145.658 52.4671 145.658C52.8004 145.658 53.114 145.756 53.1728 145.854C53.2317 145.952 53.5453 146.05 53.859 146.05C54.1726 146.05 54.4863 146.148 54.5451 146.246C54.6039 146.344 54.9176 146.442 55.2313 146.442C55.5449 146.442 55.8586 146.52 55.9174 146.638C55.9762 146.736 56.3683 146.834 56.78 146.834C57.1721 146.834 57.5837 146.912 57.6818 147.01C57.7994 147.108 58.2699 147.226 58.76 147.285C60.1911 147.461 61.975 147.814 62.3279 148.01C62.5239 148.128 63.2493 148.206 63.9354 148.206C64.6412 148.206 65.2685 148.304 65.3273 148.402C65.3861 148.52 66.3075 148.598 67.3857 148.598C68.4639 148.598 69.3853 148.677 69.4441 148.794C69.601 149.069 79.0893 149.069 79.2461 148.794C79.3049 148.677 80.2655 148.598 81.4222 148.598C82.6572 148.598 83.461 148.52 83.461 148.402C83.461 148.284 84.0099 148.206 84.696 148.206C85.3822 148.206 86.0095 148.147 86.0879 148.069C86.1663 147.971 86.8721 147.794 87.6366 147.657C88.4208 147.52 89.499 147.324 90.0283 147.206C90.5772 147.108 91.3614 146.971 91.7927 146.893C92.224 146.834 92.6552 146.716 92.7729 146.618C92.8709 146.52 93.2434 146.442 93.5962 146.442C93.9491 146.442 94.2432 146.344 94.2432 146.246C94.2432 146.128 94.5372 146.05 94.9097 146.05C95.2822 146.05 95.6546 145.952 95.7135 145.854C95.7723 145.736 96.0859 145.658 96.4192 145.658C96.7329 145.658 96.9877 145.56 96.9877 145.461C96.9877 145.344 97.2034 145.265 97.4778 145.265C97.7523 145.265 97.9679 145.167 97.9679 145.069C97.9679 144.952 98.2228 144.873 98.5364 144.873C98.8697 144.873 99.1834 144.775 99.2422 144.677C99.301 144.56 99.5558 144.481 99.8107 144.481C100.046 144.481 100.32 144.403 100.418 144.324C100.536 144.226 101.242 143.913 101.987 143.619C102.751 143.305 103.516 142.991 103.692 142.893C103.888 142.795 104.182 142.717 104.339 142.717C104.496 142.717 104.633 142.619 104.633 142.521C104.633 142.403 104.81 142.325 105.025 142.325C105.241 142.325 105.417 142.227 105.417 142.129C105.417 142.011 105.555 141.933 105.711 141.933C105.868 141.933 106.3 141.756 106.692 141.541C107.084 141.325 107.515 141.149 107.672 141.149C107.829 141.149 107.966 141.051 107.966 140.953C107.966 140.835 108.142 140.757 108.358 140.757C108.574 140.757 108.75 140.698 108.75 140.6C108.75 140.521 108.946 140.364 109.201 140.247C110.769 139.482 112.475 138.502 112.475 138.365C112.475 138.286 112.651 138.208 112.867 138.208C113.083 138.208 113.259 138.11 113.259 138.012C113.259 137.894 113.377 137.816 113.514 137.816C113.651 137.816 113.965 137.639 114.2 137.424C114.435 137.208 114.671 137.032 114.729 137.032C114.925 137.032 119.101 134.072 120.414 132.993C122.002 131.699 122.571 131.209 122.983 130.817C123.237 130.562 123.512 130.366 123.59 130.366C123.786 130.366 128.668 125.524 129.824 124.191C130.256 123.701 130.922 122.956 131.295 122.544C132.294 121.427 132.667 120.976 132.667 120.8C132.667 120.721 132.941 120.388 133.255 120.035C134 119.251 134.078 118.271 133.412 118.114C132.647 117.918 122.218 118.114 121.493 118.33C120.356 118.682 118.983 119.369 118.513 119.839C118.258 120.074 117.748 120.506 117.376 120.8C117.003 121.094 116.2 121.78 115.611 122.329C115.023 122.897 114.141 123.623 113.651 123.956C113.161 124.289 112.749 124.622 112.71 124.72C112.671 124.799 112.534 124.877 112.396 124.877C112.279 124.877 111.848 125.171 111.455 125.505C110.377 126.465 110.22 126.602 109.397 127.053C108.985 127.289 108.613 127.524 108.554 127.602C108.397 127.779 107.319 128.426 106.947 128.543C106.75 128.602 106.594 128.72 106.594 128.818C106.594 128.916 106.496 128.994 106.398 128.994C106.28 128.994 105.829 129.229 105.359 129.523C104.104 130.327 102.477 131.151 102.163 131.151C102.006 131.151 101.889 131.229 101.889 131.347C101.889 131.445 101.712 131.543 101.497 131.543C101.281 131.543 101.105 131.621 101.105 131.739C101.105 131.837 100.889 131.935 100.634 131.935C100.36 131.935 100.085 132.013 100.026 132.131C99.9675 132.229 99.7323 132.327 99.5166 132.327C99.3206 132.327 99.1442 132.405 99.1442 132.523C99.1442 132.621 99.0265 132.719 98.9089 132.719C98.6933 132.719 97.3602 133.307 96.1644 133.915C95.9683 134.013 95.635 134.091 95.439 134.091C95.2234 134.091 94.9881 134.17 94.9293 134.287C94.8705 134.385 94.596 134.483 94.3412 134.483C94.0863 134.483 93.8119 134.562 93.7531 134.679C93.6943 134.777 93.3806 134.875 93.0473 134.875C92.7337 134.875 92.4788 134.954 92.4788 135.071C92.4788 135.169 92.1847 135.267 91.8123 135.267C91.4398 135.267 91.0673 135.346 91.0085 135.463C90.9497 135.561 90.538 135.659 90.1263 135.659C89.7146 135.659 89.303 135.738 89.2441 135.856C89.1853 135.954 88.7344 136.052 88.264 136.052C87.7935 136.052 87.3426 136.13 87.2838 136.248C87.2249 136.346 86.6956 136.444 86.1075 136.444C85.539 136.444 85.0293 136.522 84.9901 136.62C84.8333 137.091 78.756 137.659 74.2471 137.659C69.7774 137.639 63.955 137.11 63.3669 136.659C63.2689 136.561 62.6808 136.424 62.0926 136.365C59.9754 136.091 59.5441 136.012 59.4265 135.836C59.3677 135.738 58.9364 135.659 58.4659 135.659C57.9954 135.659 57.5445 135.561 57.4857 135.463C57.4269 135.346 57.1132 135.267 56.7996 135.267C56.4859 135.267 56.1722 135.169 56.1134 135.071C56.0546 134.954 55.7802 134.875 55.5253 134.875C55.2705 134.875 54.996 134.777 54.9372 134.679C54.8784 134.562 54.6039 134.483 54.3295 134.483C54.0746 134.483 53.7021 134.405 53.5061 134.307C53.114 134.111 52.5455 133.876 51.2713 133.366C50.7419 133.17 50.3303 132.954 50.3303 132.856C50.3303 132.778 50.1538 132.719 49.9578 132.719C49.7421 132.719 49.5069 132.621 49.4481 132.523C49.3893 132.405 49.1148 132.327 48.8404 132.327C48.5855 132.327 48.3699 132.229 48.3699 132.131C48.3699 132.013 48.213 131.935 47.9974 131.935C47.6837 131.935 45.2724 130.817 45.0372 130.562C44.9784 130.484 44.5275 130.249 44.0374 130.033C43.5473 129.798 43.0376 129.484 42.9004 129.308C42.7435 129.131 42.5083 128.994 42.371 128.994C42.2142 128.994 42.0966 128.896 42.0966 128.798C42.0966 128.68 41.9202 128.602 41.7045 128.602C41.4889 128.602 41.3124 128.504 41.3124 128.406C41.3124 128.288 41.136 128.21 40.9204 128.21C40.7047 128.21 40.5283 128.112 40.5283 128.014C40.5283 127.896 40.391 127.818 40.2342 127.818C40.0774 127.818 39.9402 127.72 39.9402 127.622C39.9402 127.504 39.8225 127.426 39.6853 127.426C39.5481 127.426 39.2344 127.249 38.9992 127.034C38.7639 126.818 38.5091 126.642 38.4306 126.642C38.2934 126.642 38.0386 126.446 36.6467 125.25C36.4114 125.054 36.1174 124.877 36.0194 124.877C35.9017 124.877 35.8233 124.799 35.8233 124.72C35.8233 124.622 35.5881 124.426 35.294 124.27C35 124.113 34.4118 123.662 33.9805 123.25C33.5493 122.838 32.8631 122.231 32.4318 121.878C31.3536 121.015 27.1976 116.879 26.6095 116.075C26.335 115.703 26.0213 115.311 25.9233 115.193C25.8057 115.075 25.3744 114.546 24.9431 113.997C24.5118 113.468 24.0609 112.899 23.9237 112.762C23.7865 112.625 23.5316 112.252 23.3356 111.939C23.1592 111.605 22.9239 111.351 22.8455 111.351C22.7671 111.351 22.6887 111.213 22.6887 111.057C22.6887 110.9 22.6102 110.762 22.4926 110.762C22.3946 110.762 22.2966 110.625 22.2966 110.468C22.2966 110.292 22.1201 109.959 21.9045 109.723C21.1595 108.92 20.6106 108.116 20.1597 107.175C19.9049 106.665 19.6108 106.254 19.5128 106.254C19.4344 106.254 19.356 106.077 19.356 105.881C19.356 105.665 19.2972 105.469 19.2188 105.43C19.1207 105.411 18.7875 104.842 18.4542 104.195C18.1209 103.548 17.5328 102.411 17.1407 101.686C16.729 100.941 16.4154 100.176 16.4154 99.9607C16.4154 99.7646 16.337 99.5882 16.2193 99.5882C16.1213 99.5882 16.0233 99.4118 16.0233 99.1961C16.0233 98.9805 15.9449 98.804 15.8273 98.804C15.7292 98.804 15.6312 98.5884 15.6312 98.3335C15.6312 98.0591 15.5332 97.7846 15.4352 97.7258C15.3176 97.667 15.2391 97.3925 15.2391 97.1181C15.2391 96.8632 15.1607 96.6476 15.0431 96.6476C14.9451 96.6476 14.8471 96.3927 14.8471 96.0791C14.8471 95.7458 14.7687 95.4321 14.651 95.3733C14.553 95.3145 14.455 95.0009 14.455 94.6872C14.455 94.3735 14.3766 94.0795 14.2786 94.0207C14.1805 93.9422 13.9453 93.3933 13.7689 92.766C13.5924 92.1583 13.3572 91.4721 13.2788 91.2565C13.0827 90.786 12.8867 89.9626 12.7494 88.9432C12.6906 88.5511 12.573 88.1591 12.475 88.1003C12.377 88.0414 12.2986 87.6102 12.2986 87.1397C12.2986 86.6692 12.2005 86.2183 12.1025 86.1595C12.0045 86.1007 11.9065 85.5321 11.9065 84.9048C11.9065 84.2971 11.8281 83.709 11.73 83.6109C11.4164 83.2777 11.2791 80.5135 11.2791 74.2991C11.2791 68.0846 11.4164 65.3204 11.73 64.9872C11.8281 64.8892 11.9065 64.301 11.9065 63.6737C11.9065 63.0464 11.9849 62.5367 12.1025 62.5367C12.2201 62.5367 12.2986 62.1838 12.2986 61.7721C12.2986 61.3408 12.3966 60.9292 12.4946 60.8703C12.6122 60.8115 12.6906 60.3606 12.6906 59.8901C12.6906 59.4196 12.7887 58.9688 12.8867 58.9099C13.0043 58.8511 13.0827 58.5375 13.0827 58.2238C13.0827 57.9101 13.1807 57.5965 13.2788 57.5377C13.3964 57.4789 13.4748 57.2436 13.4748 57.0084C13.4748 56.479 14.1217 54.6951 14.2982 54.6951C14.3962 54.6951 14.455 54.499 14.455 54.2442C14.455 53.7737 14.8863 52.4406 15.1019 52.225C15.1803 52.1466 15.2391 51.8721 15.2391 51.6369C15.2391 51.382 15.3372 51.1272 15.4352 51.0684C15.5528 51.0095 15.6312 50.7743 15.6312 50.5586C15.6312 50.3626 15.7292 50.1862 15.8273 50.1862C15.9449 50.1862 16.0233 50.0097 16.0233 49.8137C16.0233 49.5981 16.1213 49.3628 16.2193 49.304C16.337 49.2452 16.4154 49.0099 16.4154 48.8139C16.4154 48.4218 17.7681 45.8145 18.0229 45.7165C18.1013 45.6773 18.1797 45.5204 18.1797 45.3636C18.1797 45.1087 18.5522 44.3246 18.7679 44.1089C18.8267 44.0501 19.0815 43.56 19.356 43.0307C19.6304 42.4818 19.9049 42.0113 20.0029 41.9917C20.0813 41.9525 20.1401 41.7957 20.1401 41.6388C20.1401 41.482 20.199 41.3644 20.297 41.3644C20.3754 41.3644 20.5518 41.1095 20.6891 40.7959C20.8263 40.4822 21.2576 39.8745 21.63 39.4824C21.9829 39.0707 22.2966 38.6198 22.2966 38.4826C22.2966 38.3454 22.3946 38.2278 22.4926 38.2278C22.6102 38.2278 22.6887 38.1101 22.6887 37.9729C22.6887 37.6984 24.5118 35.2087 25.1392 34.601C25.3744 34.3854 25.7861 33.8953 26.0409 33.5228C26.9427 32.2093 32.3338 26.9751 34.9215 24.897C35.1176 24.7402 35.392 24.4854 35.5293 24.3481C35.6861 24.2305 35.8821 24.1129 35.9998 24.1129C36.1174 24.1129 36.2154 24.0149 36.2154 23.9168C36.2154 23.7992 36.3134 23.7208 36.4114 23.7208C36.6467 23.7208 36.6859 23.6816 37.8817 22.6426C38.313 22.2701 38.7835 21.9565 38.9207 21.9565C39.0384 21.9565 39.156 21.878 39.156 21.78C39.156 21.7016 39.7245 21.3291 40.4303 20.9763C41.136 20.6234 41.7045 20.2509 41.7045 20.1725C41.7045 20.0745 41.881 19.996 42.0966 19.996C42.3122 19.996 42.4887 19.898 42.4887 19.8C42.4887 19.6824 42.6063 19.604 42.7631 19.604C42.9004 19.604 43.1356 19.4863 43.2532 19.3491C43.3709 19.1923 44.057 18.7806 44.7823 18.4277C45.5273 18.0553 46.3507 17.6044 46.6447 17.4083C46.9192 17.2123 47.3505 17.0555 47.5661 17.0555C47.8013 17.0555 47.9778 16.9574 47.9778 16.8594C47.9778 16.7418 48.1934 16.6634 48.4483 16.6634C48.7227 16.6634 48.9972 16.5654 49.056 16.4673C49.1148 16.3497 49.3501 16.2713 49.5657 16.2713C49.7617 16.2713 49.9382 16.1733 49.9382 16.0753C49.9382 15.9576 50.0754 15.8792 50.2322 15.8792C50.3891 15.8792 50.6831 15.8008 50.8792 15.6832C51.1732 15.5264 51.8006 15.2519 53.2709 14.6638C53.5453 14.5461 53.9178 14.3893 54.0942 14.2913C54.2903 14.1933 54.6627 14.1149 54.9372 14.1149C55.2117 14.1149 55.4273 14.0168 55.4273 13.9188C55.4273 13.8012 55.7214 13.7228 56.0938 13.7228C56.4663 13.7228 56.8388 13.6248 56.8976 13.5267C56.9564 13.4091 57.2701 13.3307 57.5837 13.3307C57.8974 13.3307 58.2111 13.2327 58.2699 13.1347C58.3287 13.017 58.7796 12.9386 59.2501 12.9386C59.7206 12.9386 60.1715 12.8406 60.2303 12.7426C60.2891 12.625 60.74 12.5465 61.2105 12.5465C61.681 12.5465 62.1319 12.4485 62.1907 12.3505C62.2495 12.2329 62.8768 12.1545 63.5629 12.1545C64.2491 12.1545 64.8372 12.0564 64.8764 11.9584C65.1509 11.0959 83.3041 11.0762 83.8531 11.9388C83.9119 12.0368 84.4804 12.1741 85.1273 12.2329C88.2051 12.5269 88.6756 12.5858 88.8521 12.7622C88.9501 12.8602 89.3226 12.9386 89.6754 12.9386C90.0283 12.9386 90.3224 13.017 90.3224 13.1347C90.3224 13.2327 90.6164 13.3307 90.9889 13.3307C91.3614 13.3307 91.7339 13.4091 91.7927 13.5267C91.8515 13.6248 92.224 13.7228 92.5964 13.7228C92.9689 13.7228 93.263 13.8012 93.263 13.9188C93.263 14.0168 93.5374 14.1149 93.8511 14.1149C94.1843 14.1149 94.4392 14.1933 94.4392 14.3109C94.4392 14.4089 94.596 14.5069 94.7725 14.5069C95.2626 14.5069 97.7719 15.5264 97.7719 15.7224C97.7719 15.8008 97.9875 15.8792 98.2424 15.8792C98.5168 15.8792 98.7913 15.9576 98.8501 16.0753C98.9089 16.1733 99.1834 16.2713 99.4578 16.2713C99.7127 16.2713 99.9283 16.3497 99.9283 16.4673C99.9283 16.5654 100.105 16.6634 100.32 16.6634C100.536 16.6634 100.712 16.7418 100.712 16.8594C100.712 16.9574 100.889 17.0555 101.085 17.0555C101.301 17.0555 101.536 17.1339 101.595 17.2515C101.653 17.3495 101.889 17.4475 102.104 17.4475C102.3 17.4475 102.477 17.526 102.477 17.6436C102.477 17.7416 102.692 17.8396 102.947 17.8396C103.222 17.8396 103.496 17.918 103.555 18.0357C103.614 18.1337 104.418 18.2317 105.319 18.2317C106.221 18.2317 107.025 18.1337 107.084 18.0357C107.143 17.918 107.378 17.8396 107.593 17.8396C107.79 17.8396 107.966 17.7416 107.966 17.6436C107.966 17.526 108.103 17.4475 108.28 17.4475C108.691 17.4475 110.318 15.7224 110.318 15.2715C110.318 15.0951 110.416 14.899 110.534 14.8598C110.828 14.7618 110.848 10.9194 110.534 10.8214C110.416 10.7822 110.318 10.5862 110.318 10.3705C110.318 10.1745 110.24 9.99803 110.122 9.99803C110.024 9.99803 109.926 9.8804 109.926 9.74318C109.926 9.21387 107.574 7.44951 106.888 7.44951C106.731 7.44951 106.594 7.35149 106.594 7.25348C106.594 7.13585 106.417 7.05743 106.202 7.05743C105.986 7.05743 105.81 6.95941 105.81 6.86139C105.81 6.74377 105.633 6.66536 105.417 6.66536C105.202 6.66536 105.025 6.56734 105.025 6.46931C105.025 6.35168 104.849 6.27327 104.653 6.27327C104.437 6.27327 104.202 6.17525 104.143 6.07724C104.084 5.95961 103.849 5.8812 103.633 5.8812C103.437 5.8812 103.261 5.78317 103.261 5.68515C103.261 5.56754 103.104 5.48912 102.928 5.48912C102.496 5.48912 101.457 5.11664 100.34 4.54813C99.8499 4.31288 99.301 4.11684 99.1245 4.11684C98.9285 4.11684 98.7129 4.01881 98.6541 3.92079C98.5952 3.80318 98.3208 3.72476 98.0659 3.72476C97.8111 3.72476 97.5366 3.62674 97.4778 3.52872C97.419 3.41109 97.1053 3.33267 96.7917 3.33267C96.478 3.33267 96.1644 3.23465 96.1055 3.13664C96.0467 3.01901 95.7723 2.9406 95.5174 2.9406C95.2626 2.9406 94.9881 2.84258 94.9293 2.74455C94.8705 2.62694 94.498 2.54852 94.1255 2.54852C93.7531 2.54852 93.459 2.4505 93.459 2.35248C93.459 2.23485 93.1453 2.15643 92.7729 2.15643C92.4004 2.15643 91.9299 2.07802 91.7339 1.98C91.5574 1.88199 90.7341 1.68594 89.9303 1.56831C89.1265 1.43109 88.2247 1.25465 87.9111 1.15663C87.617 1.07822 86.8525 0.940994 86.2055 0.862579C85.5586 0.784164 84.9705 0.646927 84.9117 0.568512C84.8529 0.47049 84.1079 0.392075 83.2649 0.392075C82.422 0.392075 81.6574 0.294067 81.5986 0.196045C81.5202 0.0784149 78.854 0 74.2471 0C69.6402 0 66.974 0.0784149 66.8956 0.196045Z" fill="black"/>
<path d="M119.63 18.8198C119.571 18.9179 119.336 19.0159 119.14 19.0159C118.709 19.0159 116.395 21.2703 116.395 21.682C116.395 21.8388 116.317 21.9565 116.199 21.9565C116.101 21.9565 116.003 22.3093 116.003 22.7406C116.003 23.1719 115.925 23.5248 115.807 23.5248C115.709 23.5248 115.611 23.7404 115.611 24.0149C115.611 24.2893 115.709 24.505 115.807 24.505C115.925 24.505 116.003 24.7598 116.003 25.0539C116.003 25.3676 116.141 25.8969 116.317 26.2301C116.69 27.0143 118.297 28.6218 118.67 28.6218C118.826 28.6218 118.944 28.7002 118.944 28.8179C118.944 28.9159 119.12 29.0139 119.316 29.0139C119.532 29.0139 119.767 29.0923 119.826 29.2099C119.983 29.4452 122.355 29.4648 122.826 29.2295C123.002 29.1315 123.433 28.9355 123.747 28.7983C124.08 28.6414 124.472 28.3866 124.629 28.2101C124.786 28.0533 125.08 27.8573 125.276 27.7789C125.453 27.72 125.609 27.524 125.609 27.3476C125.609 27.1907 125.668 27.0535 125.766 27.0535C125.845 27.0535 126.021 26.7594 126.158 26.4066C126.295 26.0733 126.511 25.6224 126.609 25.446C126.844 24.9755 126.844 22.9955 126.59 22.8387C126.492 22.7798 126.394 22.5642 126.394 22.3682C126.394 21.3487 124.355 19.0159 123.473 19.0159C123.257 19.0159 123.022 18.9179 122.963 18.8198C122.904 18.7022 122.139 18.6238 121.296 18.6238C120.454 18.6238 119.689 18.7022 119.63 18.8198Z" fill="black"/>
<path d="M52.3302 40.7762C50.9579 41.0898 49.2719 42.5601 48.5858 44.0304C48.1153 45.0106 48.0173 47.1867 48.3898 48.4217C49.0563 50.637 51.4676 52.3425 53.8985 52.3425C56.741 52.3425 58.7995 50.7546 59.7209 47.8532C60.2894 46.0693 59.6228 43.7952 58.0741 42.2465C56.7018 40.8546 54.4278 40.2665 52.3302 40.7762Z" fill="black"/>
<path d="M73.8747 40.9135C72.6789 41.5212 72.2084 42.5406 71.6987 45.6772C71.6007 46.2654 71.4438 47.2455 71.3262 47.8337C71.2282 48.4218 70.8557 50.4998 70.5224 52.4406C69.9931 55.6164 69.5815 57.8513 68.9345 61.4584C68.6797 62.9287 68.4444 64.2226 68.17 65.8693C68.0523 66.5751 67.8759 67.5749 67.7779 68.1238C67.6603 68.6531 67.4642 69.8881 67.3074 70.8683C67.1506 71.8289 66.7781 73.907 66.5036 75.4753C65.6018 80.5331 65.6215 80.9448 66.6017 81.4545C67.2878 81.8074 69.5226 81.8466 71.2282 81.5329C74.4824 80.9448 77.6191 78.2002 78.7169 74.9852C79.011 74.1226 79.109 73.6717 79.8539 69.2216C80.2264 67.0064 80.7165 64.1638 80.9322 62.9287C81.3046 60.7331 81.5007 59.6549 81.8731 57.2828C82.3633 54.2638 82.6965 52.6955 82.9318 52.3426C83.0494 52.1269 83.4611 51.8133 83.8335 51.6368C84.4413 51.3428 85.3235 51.3232 91.9692 51.4212C97.4975 51.4996 99.8304 51.5976 100.928 51.8329C105.672 52.7935 107.594 54.3226 108.339 57.7925C108.77 59.8509 108.554 61.8701 106.476 74.005C106.319 74.9656 106.104 76.2594 106.006 76.8475C105.908 77.4357 105.731 78.4355 105.614 79.0432C105.516 79.6705 105.339 80.6507 105.241 81.1996C104.535 85.1988 104.163 86.2379 102.908 87.8258C101.163 90.0018 99.2423 91.0212 95.2235 91.8838C93.9296 92.1779 91.2831 92.2171 73.6787 92.2759C62.6416 92.3347 53.4082 92.3151 53.1533 92.2563C52.8985 92.1779 52.5456 91.9034 52.3692 91.6485C52.0947 91.2173 52.0751 90.982 52.2515 90.0214C52.3888 89.4137 52.7416 87.3553 53.0749 85.4733C53.3886 83.5913 53.8395 80.984 54.0551 79.6901C54.2904 78.3963 54.5452 76.8475 54.6432 76.2594C54.8197 75.1224 55.4078 71.7897 55.8979 69.006C56.0547 68.0846 56.4272 66.0065 56.7016 64.399C56.9761 62.7719 57.2506 61.2232 57.3094 60.9487C57.4858 60.0862 56.9761 59.7921 55.3882 59.7921C52.4476 59.7921 49.0757 61.2036 46.9977 63.3012C44.7628 65.5557 44.1943 67.1828 42.6848 75.6713C42.4692 76.9064 42.2143 78.3178 42.1163 78.8079C41.9987 79.298 41.8222 80.2978 41.7046 81.0624C41.5674 81.8074 41.3909 82.7876 41.3125 83.2188C41.2145 83.6501 41.0577 84.5323 40.94 85.1792C39.2933 94.3343 38.8816 96.628 38.5484 98.2159C38.0975 100.47 38.0779 101.901 38.4896 102.49C39.2345 103.568 37.9798 103.509 63.4062 103.509C91.0674 103.509 94.5177 103.391 99.2815 102.235C104.712 100.921 109.691 97.5689 113.102 92.9228C114.494 91.0408 114.553 90.9036 115.612 87.5317C116.16 85.7674 117.67 78.7491 118.552 73.907C118.67 73.3188 118.925 71.8485 119.14 70.6723C119.356 69.4765 119.611 68.065 119.728 67.5357C120.571 63.066 120.748 61.3016 120.65 58.0669C120.552 54.4598 120.277 53.0287 119.14 50.3038C118.787 49.4608 117.984 48.0689 117.356 47.2455C114.808 43.8541 111.534 42.0897 105.927 41.0311C104.614 40.7762 101.732 40.7174 89.4403 40.6586C75.7567 40.5802 74.4824 40.5998 73.8747 40.9135Z" fill="black"/>
<path d="M147.37 40.7763C143.861 41.2272 139.881 43.3052 136.587 46.4027C131.686 51.0096 128.922 56.6947 128.609 62.8308C128.217 70.2607 131.451 75.5538 137.293 77.0437C138.724 77.4161 139.528 77.4357 152.192 77.4357C161.132 77.4357 165.915 77.5142 166.582 77.6514C168.405 78.0435 169.738 79.4746 170.267 81.5918C171.502 86.4928 167.581 91.3546 161.661 92.3152C160.838 92.4524 155.211 92.5308 145.782 92.5308C128.177 92.5308 128.197 92.5308 125.08 94.648C123.747 95.5498 122.747 96.6084 121.982 97.8827C121.394 98.9217 120.12 102.411 120.12 103.058V103.509H141.371C155.015 103.509 163.19 103.431 164.17 103.313C169.483 102.588 174.619 99.1962 178.265 93.9815C181.088 89.9431 182.461 86.4144 183.049 81.7486C183.245 80.1999 183.225 79.553 182.99 77.8866C182.265 73.1033 180.245 69.9078 176.619 67.8886C174.188 66.5163 174.835 66.5751 159.23 66.4575C143.488 66.3399 144.449 66.4379 142.978 64.9676C141.763 63.7522 141.41 62.7132 141.39 60.3803C141.39 58.4787 141.449 58.2239 141.979 57.1456C142.782 55.5381 144.762 53.5973 146.429 52.7739C148.781 51.5977 149.271 51.5781 165.111 51.5585C179.344 51.5585 180.794 51.4997 183.147 50.8528C185.735 50.147 188.773 47.6181 190.146 44.9716C190.949 43.4425 191.871 41.2272 191.871 40.8351C191.871 40.6195 188.087 40.5803 170.169 40.5999C158.211 40.6195 147.958 40.6979 147.37 40.7763Z" fill="black"/>
</svg>
