<svg width="512" height="512" viewBox="0 0 512 512" fill="none" xmlns="http://www.w3.org/2000/svg">
<path d="M196.698 74.6032C205.471 74.2922 214.254 74.5454 222.995 75.3617C241.735 76.9559 263.925 83.1012 280.81 91.1519C284.48 92.9022 288.51 94.518 291.145 97.6812C293.71 100.813 294.947 104.824 294.595 108.857C293.877 116.508 286.317 123.654 278.4 122.415C272.082 121.426 265.852 117.515 259.827 115.187C247.789 110.534 235.441 107.35 222.612 105.827C187.257 101.737 151.585 110.15 121.783 129.607C109.932 137.301 98.4665 147.471 89.3835 158.264C69.96 181.092 57.7248 209.157 54.2188 238.924C49.4963 279.057 61.044 319.412 86.2828 350.972C111.122 381.81 146.988 401.767 186.286 406.622C209.809 409.52 233.684 406.762 255.925 398.575C262.387 396.237 268.987 393.412 275.027 390.112C277.36 388.837 279.172 387.452 281.35 386.025C282.79 385.077 284.585 384.265 286.045 383.287C292.51 378.955 298.23 374.27 304.3 369.465C308.155 364.972 313.385 361.875 319.177 360.655C322.35 360.015 346.435 359.612 349.625 361.362C353.782 363.647 342.877 373.997 341.687 376.16C341.377 376.722 337.98 380.005 337.357 380.73C305.902 414.692 263.602 434.062 217.765 437.662C169.909 441.045 122.636 425.512 86.1148 394.4C53.0755 366.157 31.2513 327.01 24.5996 284.057C22.4588 270.762 22.1306 258.112 23.0172 244.725C24.9072 212.45 35.363 181.262 53.309 154.37C81.5855 112.436 126.614 84.2799 176.511 76.5642C183.336 75.5089 189.835 75.0964 196.698 74.6032Z" fill="#00FFFF"/>
<path d="M205.608 174.062C208.95 173.839 213.257 173.966 216.673 173.969L235.367 173.971L256.165 173.97C272.795 173.966 293.218 173.622 305.66 186.413C310.258 191.138 313.45 196.563 315.303 202.883C316.998 208.791 317.733 214.934 317.48 221.075C317.06 230.343 314.793 239.986 313.138 249.101C311.2 259.767 306.538 288.41 301.718 297.065C295.113 308.922 280.793 319.635 267.813 323.302C260.61 325.337 252.908 326.302 245.45 326.682C237.707 327.077 229.838 326.802 222.083 326.802L179.688 326.837L141.858 326.902C135.622 326.915 129.254 326.997 123.015 326.89C120.82 326.852 119.665 326.392 117.811 325.362C116.928 323.82 116.345 322.37 116.534 320.552C117.07 315.387 118.172 310.262 119.117 305.162L123.85 279.387L128.248 255.037C130.532 242.61 131.65 230.673 143.947 224.408C149.145 221.761 156.65 219.368 162.62 220.603C163.327 220.749 163.498 221.411 163.751 221.964C163.75 225.798 161.67 236.869 160.94 241.085L154.61 277.295C154.138 280.027 150.697 297.02 151.948 298.527C155.533 299.6 165.642 299.265 169.994 299.265L191.344 299.27L224.06 299.265C231.352 299.26 238.673 299.385 245.957 299.017C250.358 298.795 254.783 298.257 259.05 297.147C266.125 295.31 271.958 291.36 275.538 284.872C278.263 279.935 285.883 232.733 286.448 225.251C286.72 221.635 286.76 218.047 285.805 214.522C284.708 210.476 282.26 207.334 278.62 205.286C275.51 203.534 271.89 202.502 268.38 201.938C263.04 201.081 231.642 200.157 228.03 201.298C226.617 201.745 225.867 203.171 225.372 204.475C224.066 207.913 223.786 212.258 223.177 215.903L219.844 235.462C218.653 242.619 217.598 250.68 215.84 257.552C212.897 267.17 203.328 274.162 193.299 274.355C187.892 274.457 182.295 275.127 183.47 267.465C184.108 263.307 185.079 259.037 185.83 254.827L190.639 227.09L195.986 196.38C196.806 191.652 197.509 186.901 198.384 182.185C199.164 177.986 201.167 174.784 205.608 174.062Z" fill="#00FFFF"/>
<path d="M488.355 174.116L489.145 174.021L489.477 174.305C489.43 176.774 485.72 185.054 484.202 187.234C480.63 192.357 474.135 198.296 467.907 199.736C457.01 202.257 445.4 201.697 434.32 201.696C421.672 201.749 409.025 201.702 396.377 201.556C387.417 201.518 379.827 201.791 373.15 208.588C368.862 212.955 366.985 216.608 366.917 222.85C366.862 228.087 369.345 233.495 374.302 235.651C377.965 237.243 385.22 236.697 389.46 236.687L422.352 236.584C428.547 236.57 440.315 236.215 445.675 237.488C450.42 238.616 454.775 240.999 458.282 244.388C465.395 251.367 468.217 260.285 468.11 270.17C467.857 293.868 450.457 318.807 427.407 325.655C421.79 327.325 412.872 326.905 406.95 326.905H387.38L315.812 326.887L314.99 326.885C313.615 325.345 318.33 313.975 319.382 312.167C322.23 307.285 329.535 302.072 334.995 300.91C344.352 298.915 354.485 299.4 364.015 299.402L395.26 299.412C401.077 299.415 407.422 299.545 413.192 299.327C419.92 299.048 426.26 296.112 430.827 291.165C434 287.702 437.225 281.815 436.617 277.025C434.75 262.29 425.567 263.98 414.747 264.002L379.457 264.03C372.98 264.032 362.85 264.522 356.73 263.217C347.295 261.017 339.81 253.665 337.067 244.438C328.645 216.123 348.37 183.303 376.39 175.436C382.345 173.765 387.97 174.224 394.045 174.226L409.867 174.228L460.687 174.225C469.392 174.223 479.822 174.507 488.355 174.116Z" fill="#00FFFF"/>
<path d="M316.995 119.517C325.175 118.886 332.323 124.992 332.978 133.169C333.633 141.347 327.55 148.513 319.373 149.193C311.163 149.876 303.96 143.76 303.303 135.548C302.643 127.336 308.78 120.151 316.995 119.517Z" fill="#00FFFF"/>
<path d="M153.599 173.995C161.742 173.053 169.1 178.91 170.01 187.057C170.919 195.204 165.034 202.539 156.883 203.416C148.778 204.289 141.493 198.443 140.588 190.341C139.684 182.24 145.5 174.932 153.599 173.995Z" fill="#00FFFF"/>
</svg>
