<svg width="409" height="409" viewBox="0 0 409 409" fill="none" xmlns="http://www.w3.org/2000/svg">
<g clip-path="url(#clip0_90_4)">
<path d="M188.79 65.6003C190.673 65.2533 198.557 65.408 200.853 65.5108C222.127 66.3925 243.006 71.5505 262.242 80.6768C303.902 100.67 333.212 139.699 340.802 185.279C341.997 192.485 342.68 199.767 342.845 207.069C343.098 215.179 343.02 224.583 344.665 232.665C345.47 236.623 349.043 239.487 350.408 243.799C352.343 249.92 351.905 256.38 349.052 262.115C346.102 268.07 340.85 272.562 334.508 274.552C327.508 276.805 321.225 275.64 314.842 272.318C310.475 269.903 306.623 265.288 304.753 260.668C302.34 254.658 302.375 247.943 304.855 241.961C308.825 232.576 313.987 230.752 322.395 227.364C324.357 221.304 322.77 199.269 321.848 192.304C314.343 135.635 272.88 94.907 216.57 87.257C208.444 86.2323 200.249 85.8478 192.062 86.1075C188.143 86.2235 176.619 87.395 173.141 85.6803C171.264 84.755 169.792 77.233 169.482 75.1965C169.254 73.7055 169.448 70.9278 170.736 69.7508C174.06 66.0588 184.049 66.04 188.79 65.6003Z" fill="#00E5FF"/>
<path d="M190.922 115.111C206.163 114.834 225.461 117.408 239.393 123.864C252.775 130.065 265.988 141.458 275.465 152.609C279.853 157.774 281.653 163.807 285.605 169.141C286.265 170.032 291.013 171.554 292.318 172.154C294.085 172.987 295.763 174.001 297.32 175.182C301.905 178.684 305.13 185.004 305.858 190.699C306.728 197.218 304.908 203.81 300.815 208.958C287.083 226.272 258.918 217.386 257.473 195.441C256.96 187.663 259.748 182.247 264.55 176.406C265.135 175.48 265.245 174.534 264.83 173.49C260.37 162.207 248.204 151.596 238.072 145.533C213.504 130.829 180.122 131.47 156.543 147.88C153.061 150.284 141.542 160.541 139.422 161.073C137.492 160.803 134.934 158.703 133.36 157.328C131.774 155.944 127.427 151.843 127.052 149.651C126.864 148.553 128.789 146.254 129.608 145.387C146.329 127.681 166.323 116.301 190.922 115.111Z" fill="#00E5FF"/>
<path d="M121.322 72.8364C125.51 72.6499 127.999 72.5934 132.1 74.0114C146.052 78.8359 152.919 94.8272 145.698 108.339C142.53 114.156 137.165 118.463 130.8 120.298C126.504 121.582 119.591 121.528 115.584 119.394C114.364 120.005 112.806 120.774 111.731 121.669C96.0395 134.731 85.1465 155.927 78.8687 175.033C77.4767 179.269 76.445 185.342 75.9025 189.566C75.1595 192.82 74.7752 196.784 71.0542 197.785C67.2882 198.797 63.2535 198.665 59.3465 198.344C55.2577 198.008 54.8712 195.753 55.1712 192.208C58.6702 167.611 68.7502 142.986 83.7267 123.167C89.5442 115.469 95.4652 110.211 100.06 101.745C99.9317 97.8257 99.7705 94.2049 100.839 90.3642C103.547 80.6264 111.361 74.1657 121.322 72.8364Z" fill="#00E5FF"/>
<path d="M85.113 261.225C87.6862 267.925 90.8495 272.77 94.8365 278.732C104.865 293.737 117.662 306.23 132.582 316.33C136.375 318.902 147.301 326.575 152.15 325.037C157.665 322.665 157.64 313.19 158.623 308.617C160.983 298.287 154.509 296.387 147.575 291.387C127.426 276.855 111.758 255.927 105.936 231.617C103.074 219.667 102.582 209.798 94.4292 200.413C90.6362 196.046 90.229 185.569 92.1185 179.982C94.1475 173.888 98.531 168.859 104.291 166.017C124.382 156.27 146.103 176.257 137.669 196.99C135.386 202.601 132.015 205.229 127.51 208.974C126.071 210.217 125.391 212.506 124.883 214.393C122.729 222.399 125.97 234.044 129.814 241.765C135.573 253.332 149.813 270.257 161.566 276.702C162.001 276.94 163.042 277.162 163.475 276.887C165.76 275.432 167.895 269.112 168.507 266.67C169.598 262.3 171.639 256.767 169.155 252.837C166.076 247.967 161.987 244.443 158.406 239.773C149.145 227.696 145.556 210.741 149.685 196.069C153.3 183.221 161.875 172.65 173.582 166.361C184.896 160.204 199.056 156.848 211.699 160.583C224.86 164.471 237.1 174.632 243.735 186.505C253.675 204.292 250.555 226.157 238.359 241.956C235.342 245.864 231.196 249.788 229.334 254.455C227.427 260.205 228.991 269.14 231.605 274.557C233.102 277.657 235.384 277.407 238.068 275.817C249.456 268.107 258.693 256.807 266.385 245.527C269.36 241.163 270.455 233.903 274.282 230.604C276.26 228.898 288.555 231.876 289.905 234.325C291.1 236.495 289.427 241.214 288.737 243.491C282.74 259.937 268.572 276.642 254.765 287.127C249.173 291.372 242.269 295.07 236.618 299.127C237.976 302.917 241.972 324.672 244.007 325.637C245.73 326.455 249.903 324.467 251.6 323.715C262.553 318.86 277.957 307.087 286.607 298.637C291.81 293.555 296.952 287.252 303.117 283.355C305.232 282.017 307.057 281.555 309.48 282.455C312.895 283.725 316.865 286.612 318.387 289.992C318.52 290.287 318.647 290.582 318.77 290.88C316.925 295.492 313.982 299.287 310.785 303.057C304.482 310.492 297.022 317.752 289.155 323.522C278.1 331.635 265.32 337.33 253.693 344.48C251.058 346.1 248.168 348.947 248.952 352.19C249.588 355.352 250.152 357.622 251.14 361.152C252.477 365.937 253.123 376.632 257.315 379.642C259.113 380.932 265.867 378.162 267.747 377.24C277.337 372.872 286.057 367.65 294.785 361.775C302.957 356.377 310.757 350.437 318.132 343.997C320.837 341.592 323.367 338.947 325.925 336.387C343.412 318.877 358.092 298.36 366.73 275.037C369.192 268.385 374.422 247.223 380.472 244.47C382.522 243.537 384.857 244.028 386.847 244.864C389.38 245.929 391.832 247.607 393.195 250.04C393.595 255.762 391.685 262.185 390.067 267.635C381.947 294.977 366.09 320.237 347.495 341.56C326.077 366.122 301.6 384.04 271.13 395.585C254.145 402.022 238.19 407.13 219.758 407.867C216.61 408.057 209.419 408.222 206.868 409H185.85C183.848 408.03 176.468 408.025 173.745 407.8C157.159 406.455 140.867 401.577 125.664 394.887C102.465 384.677 80.3532 371.775 61.262 355.012C55.2475 349.732 48.851 339.845 42.7867 336.262C19.9942 338.265 6.6371 313.532 21.0785 295.93C24.9429 291.217 31.645 288.205 37.6807 287.827C44.2865 287.387 50.791 289.625 55.729 294.035C60.5075 298.255 63.376 304.23 63.683 310.597C63.969 316.35 62.7527 318.312 61.1232 323.302C63.077 329.107 69.5987 335.355 74.0872 339.452C89.269 353.165 106.265 364.722 124.598 373.797C127.97 375.48 137.618 380.017 140.411 379.087C143.46 378.072 147.008 359.23 148.01 355.495C148.848 352.365 149.079 349.99 149.997 347.265L149.668 347.07C143.21 343.27 135.599 340.61 128.991 336.785C110.397 326.022 94.3997 311.06 81.6647 293.805C75.6195 285.605 70.9765 276.312 64.7802 268.19C62.8845 265.72 60.147 264.567 57.4972 263.112C45.7545 256.67 41.897 241.271 48.8335 229.883C55.9747 218.158 70.8807 214.505 82.63 221.824C88.0487 225.207 91.9132 230.591 93.3835 236.808C94.8902 243.132 93.7457 249.797 90.2157 255.255C88.6315 257.74 87.1912 259.185 85.113 261.225ZM191.469 241.87C191.669 251.267 187.397 270.137 185.421 279.78C179.968 306.387 172.868 332.767 167.515 359.415C165.953 367.19 163.202 378.682 164.077 386.567C164.09 386.642 164.103 386.717 164.116 386.795C173.225 389.322 191.484 388.975 201.318 388.935C206.365 388.77 231.203 388.585 234.22 385.62C235.823 379.647 219.811 310.412 217.258 299.842C213.267 283.325 208.182 258.167 203.868 241.736C212.312 237.51 220.226 232.122 223.294 222.62C225.958 214.367 226.653 200.758 222.771 192.862C218.111 183.384 205.274 177.683 194.874 178.902C177.718 180.272 167.369 194.577 168.253 211.174C169.019 225.537 178.84 236.227 191.469 241.87Z" fill="#00E5FF"/>
<path d="M153.32 0H161.421L161.598 0.0706408C163.64 0.863813 165.616 1.20913 167.92 2.24358C173.129 4.58203 177.579 9.28635 179.858 14.4648C182.489 20.4084 182.602 27.1645 180.169 33.1922C177.617 39.5852 172.796 44.0727 166.528 46.7445C160.644 49.2522 154.027 49.11 148.238 46.5028C139.798 42.701 139.309 40.4763 129.962 44.2518C123.748 46.7615 118.808 49.464 112.889 52.6263C76.6933 71.9668 48.6218 105.287 32.5605 142.771C29.8593 149.075 25.2515 161.496 23.8133 168.505C18.514 194.33 18.114 225.334 23.3301 251.185C24.4703 256.697 26.4995 262.635 25.8398 268.29C25.7155 269.355 24.2802 270.818 23.4069 271.383C20.772 273.083 16.7571 274.822 13.6759 273.34C9.76428 271.457 7.76442 266.45 6.34325 262.625C3.25952 253.137 2.09579 242.845 1.1653 232.945C0.973173 230.901 0.668853 221.241 0 220.197V197.253C0.49126 196.547 1.16582 186.216 1.39809 184.332C2.86557 172.586 5.43955 161.004 9.08568 149.742C18.9734 118.993 36.1765 91.103 59.218 68.467C68.4017 59.1285 78.5505 50.7905 89.4938 43.5935C95.5045 39.6772 101.736 35.8208 108.144 32.5918C111.027 31.1385 113.966 29.7585 116.823 28.2575C120.804 26.1235 124.689 23.8158 128.467 21.3409C132.269 18.8926 133.847 17.974 135.742 13.7542C137.615 9.611 139.993 6.98775 143.517 4.2647C146.603 1.88004 150.375 1.64907 153.32 0Z" fill="#00E5FF"/>
<path d="M409 179.939C408.643 180.594 408.405 181.636 408.177 182.379C404.102 195.665 390.413 203.079 377.008 198.644C370.888 196.632 365.84 192.232 363.01 186.443C358.978 178.209 359.645 168.352 365.388 161.071C366.568 159.576 369.232 157.463 369.688 155.635C370.52 152.284 361.908 133.746 360.015 129.914C358.653 127.15 357.122 124.443 355.612 121.757C333.44 82.3242 293.702 50.2387 250.145 37.7042C243.906 35.909 237.55 34.324 231.124 33.3772C225.095 32.4892 218.682 32.211 212.815 30.524C210.817 29.9492 208.405 28.9767 207.403 27.0317C205.996 24.2991 205.306 17.2392 206.321 14.4001C206.768 13.1473 207.881 12.3455 209.071 11.8664C217.436 8.49977 246.974 16.3447 255.96 19.2298C262.522 21.3534 268.977 23.8005 275.297 26.5622C319.452 45.6345 350.25 73.159 374.165 114.684C380.12 125.022 383.55 134.716 388.18 145.506C391.747 153.819 401.155 155.258 405.36 162.741C407.26 165.975 407.622 168.147 408.927 171.386L409 171.561V179.939Z" fill="#00E5FF"/>
</g>
<defs>
<clipPath id="clip0_90_4">
<rect width="409" height="409" fill="white"/>
</clipPath>
</defs>
</svg>
