<svg version="1.1" id="Layer_1" xmlns="http://www.w3.org/2000/svg" xmlns:xlink="http://www.w3.org/1999/xlink" x="0px" y="0px"
	 width="100%" viewBox="0 0 1024 1024" enable-background="new 0 0 1024 1024" xml:space="preserve">
<path fill="#000000" opacity="1.000000" stroke="none" 
	d="
M482.770477,594.575928 
	C480.543091,594.341309 478.732147,594.188599 476.368774,593.989319 
	C475.766541,599.870300 476.981445,605.418396 477.687469,610.896912 
	C478.636719,618.262329 480.933228,625.392334 480.722717,632.997009 
	C480.572357,638.428284 479.932709,639.703308 474.631409,638.843445 
	C460.003723,636.470764 445.511627,633.438782 431.453033,628.663879 
	C395.837280,616.567383 363.675415,598.481995 335.833252,573.033691 
	C296.953369,537.496765 270.540771,494.357880 256.923889,443.412842 
	C249.453613,415.464142 247.052277,386.964172 248.967300,358.254791 
	C252.337875,307.724823 268.780273,261.634338 298.651611,220.612076 
	C329.765808,177.882980 369.948547,146.823502 419.458740,128.007263 
	C426.716461,125.248962 427.139465,125.444626 428.652374,132.867493 
	C431.608856,147.372986 435.069092,161.775101 436.675385,176.542572 
	C437.626251,185.284241 437.422180,186.447937 429.675720,190.092133 
	C399.450928,204.310852 373.766998,224.258713 353.165924,250.602936 
	C332.794739,276.653107 319.660370,305.964783 313.476746,338.480469 
	C308.101074,366.747406 308.480255,394.977051 315.423950,422.749023 
	C329.451019,478.851837 360.953186,522.432129 411.011963,552.099854 
	C411.865814,552.605896 412.779633,553.020996 413.696686,553.403748 
	C413.960419,553.513794 414.333588,553.361633 415.024689,553.293335 
	C417.408295,546.491577 417.059937,539.032227 418.832520,532.076660 
	C421.188477,522.832031 416.948273,518.255676 409.993317,513.073608 
	C380.116425,490.812469 359.431610,461.708313 348.608124,425.948090 
	C339.392822,395.501160 338.591156,364.736481 346.632294,333.879517 
	C359.096222,286.050629 387.263824,250.310883 430.073730,225.911163 
	C436.534973,222.228531 436.580322,222.719131 438.107819,229.675827 
	C439.864868,237.678101 436.988892,241.813126 430.214722,245.908524 
	C400.952362,263.599487 380.510345,289.110016 368.342712,320.805206 
	C355.188202,355.071075 354.273529,390.089447 366.139709,424.982452 
	C377.975555,459.786316 399.273499,487.393494 430.760010,506.760834 
	C434.907379,509.311890 436.540070,512.350647 436.428040,517.321655 
	C436.039703,534.552917 433.712006,551.486633 429.485718,568.152100 
	C426.641113,579.369324 426.409851,579.407654 416.297455,574.207397 
	C358.673248,544.574463 319.116302,499.301331 301.800995,436.682312 
	C280.577393,359.929352 296.915344,290.725403 348.413452,229.987488 
	C366.535095,208.614471 388.647339,192.173920 413.621002,179.616058 
	C418.137115,177.345139 420.349731,175.044159 418.721100,169.646500 
	C417.242981,164.747665 416.864807,159.524765 415.864380,154.471924 
	C414.749878,148.842926 413.795746,148.419754 408.497864,150.952621 
	C355.141205,176.461853 315.381561,215.768951 289.487305,268.910339 
	C276.305939,295.961700 268.877350,324.659363 266.219055,354.657349 
	C262.020691,402.034698 270.962250,446.961853 292.456207,489.113617 
	C315.037872,533.398376 348.183075,567.982849 391.611847,592.605652 
	C412.207397,604.282654 434.091766,612.410950 456.942291,618.202820 
	C458.235352,618.530518 459.516479,618.917969 461.417786,617.824890 
	C460.515686,609.747070 459.500092,601.393188 458.667450,593.021057 
	C457.444580,580.724731 457.583344,568.388123 458.550507,556.102112 
	C459.111115,548.980286 460.345642,541.923584 459.990906,534.727417 
	C459.885590,532.591187 460.385010,530.427002 460.584229,528.273499 
	C460.994141,523.841797 462.892242,522.165222 467.521637,523.735718 
	C477.465607,527.109253 487.744873,528.968018 498.726440,530.062256 
	C499.362915,519.540222 499.233154,509.437195 498.767090,499.351074 
	C498.618927,496.145142 495.638580,496.303650 493.331818,496.420959 
	C477.416565,497.230316 462.260620,493.656555 447.422119,488.429169 
	C436.685638,484.646912 436.727020,484.522736 436.719666,473.343323 
	C436.716278,468.177094 436.784943,463.009918 436.706818,457.844910 
	C436.648804,454.007751 438.108856,453.036407 441.592438,454.753387 
	C449.509674,458.655518 457.430542,462.523163 465.951080,465.055054 
	C478.035278,468.645782 490.400146,470.102112 502.899170,469.431915 
	C515.194885,468.772644 527.466858,467.398529 538.720398,461.634949 
	C557.816162,451.854980 558.184814,430.580963 548.915222,418.246613 
	C539.920227,406.277740 527.539551,398.294708 514.968018,390.706390 
	C500.004456,381.674194 484.297363,373.781494 470.587463,362.827576 
	C456.900299,351.891724 445.007294,339.554016 440.407043,321.718506 
	C435.135437,301.279968 443.114899,280.437592 461.032990,269.338989 
	C463.015076,268.111267 465.047119,266.961273 467.084259,265.825928 
	C471.389435,263.426514 472.521729,263.951660 472.786957,269.006775 
	C473.066101,274.326691 472.964661,279.667358 472.997986,284.999176 
	C473.032379,290.498566 473.502167,296.045929 472.953125,301.488739 
	C471.295166,317.924255 479.186249,329.363037 491.223907,339.190216 
	C501.766357,347.796722 513.800171,353.911346 525.339294,360.866669 
	C539.876160,369.628845 554.669006,377.907684 567.325317,389.536743 
	C587.021362,407.634247 593.263672,429.203369 585.214905,454.660492 
	C581.328552,466.952515 572.692566,475.722290 562.092163,482.540100 
	C552.409973,488.767395 541.358276,491.576904 530.271973,493.952942 
	C526.655090,494.728088 525.123718,495.997437 525.212585,499.775177 
	C525.408386,508.102997 525.431152,516.442810 525.209412,524.769348 
	C525.092957,529.140015 526.887512,530.495850 530.922180,529.659424 
	C532.381653,529.356995 533.873291,529.202576 535.324890,528.869995 
	C537.797424,528.303345 538.890747,529.099060 539.336060,531.745117 
	C541.436707,544.227844 540.352051,546.029358 526.900635,546.918945 
	C512.094727,547.898132 497.232147,547.904602 482.624756,544.670166 
	C478.281799,543.708496 476.534912,544.943054 476.000946,549.313049 
	C475.046509,557.123840 475.218292,564.941406 475.201111,572.766235 
	C475.196045,575.059753 476.072632,576.322144 478.613434,576.771118 
	C488.957397,578.598877 499.335632,579.780457 509.859100,579.724548 
	C519.356323,579.674133 519.356873,579.768799 519.204590,589.366516 
	C519.091858,596.476929 518.479675,597.318848 511.532104,596.926758 
	C502.071136,596.392883 492.634186,595.434326 482.770477,594.575928 
z"/>
<path fill="#000000" opacity="1.000000" stroke="none" 
	d="
M604.276001,625.367798 
	C582.209656,633.466003 559.854126,638.408997 536.817810,640.380493 
	C532.995605,640.707581 531.876587,639.329590 531.818359,635.660645 
	C531.625061,623.491516 531.523315,623.576965 543.857727,622.721375 
	C552.833252,622.098755 561.577698,620.030884 570.348999,618.130127 
	C573.677002,617.408997 574.647461,615.994995 573.865601,612.572815 
	C571.791504,603.494141 569.858887,594.372314 568.249329,585.201050 
	C566.152161,573.251831 566.385071,573.437317 577.731995,569.417114 
	C636.362427,548.644043 678.140076,509.881012 702.346497,452.394684 
	C708.780945,437.113892 712.725342,421.156708 715.475403,404.892059 
	C716.073730,401.353394 717.617188,400.640503 720.742615,400.607025 
	C732.673340,400.479187 732.972168,400.457123 730.991943,412.301117 
	C724.034485,453.912292 706.605957,490.584839 678.612305,522.216064 
	C654.052002,549.967712 624.420410,570.297607 589.662903,583.105225 
	C586.379272,584.315247 585.725647,586.345947 586.296997,589.275208 
	C587.410889,594.985229 588.612000,600.678162 589.758362,606.381897 
	C590.637390,610.755615 593.100159,611.468933 597.099243,610.085571 
	C610.853699,605.328064 623.917908,599.039612 636.518799,591.883484 
	C664.660950,575.901367 688.737976,555.019653 708.720764,529.602661 
	C736.175049,494.682343 753.164368,455.120941 759.439758,411.125793 
	C762.078674,392.624725 762.588318,373.994629 760.868469,355.323669 
	C760.531799,351.669647 759.008240,350.912933 755.751831,351.181183 
	C744.274902,352.126434 733.021301,354.424316 721.787720,356.763000 
	C717.799438,357.593292 716.340881,356.408325 715.854370,352.539062 
	C709.703125,303.612000 688.972290,261.875549 653.168701,227.978882 
	C621.356689,197.861145 583.504883,179.921875 539.973083,174.326599 
	C527.703003,172.749481 527.758240,172.964005 528.494629,160.339478 
	C528.661194,157.484451 529.746643,156.602905 532.454041,156.653458 
	C540.992798,156.812897 549.336792,158.364090 557.647705,160.070465 
	C601.119629,168.995941 638.684265,189.117050 669.905701,220.586182 
	C699.442749,250.357513 719.300354,285.673920 728.375305,326.813934 
	C730.781372,337.721527 730.756897,337.663727 741.954041,335.814484 
	C745.390808,335.246857 748.892944,334.991455 752.376404,334.811462 
	C756.578735,334.594269 758.245361,333.069427 757.334412,328.486084 
	C748.977295,286.439331 731.119690,248.990814 703.504517,216.193146 
	C677.698120,185.543793 646.246582,162.508194 609.390808,146.949463 
	C569.417664,130.074768 527.773010,124.547600 484.675110,129.253326 
	C479.565002,129.811295 476.872620,131.289169 477.138428,137.065567 
	C477.389557,142.522598 476.632263,148.032501 476.216614,153.511414 
	C475.947876,157.053528 476.730072,158.785522 480.950378,157.996399 
	C485.833191,157.083389 490.884644,157.114334 495.821442,156.434509 
	C499.663757,155.905380 501.471619,157.003235 501.328033,161.134598 
	C500.928528,172.631287 503.562256,172.039398 490.892059,173.667923 
	C490.231506,173.752838 489.580872,173.921616 488.919312,173.991318 
	C474.457306,175.514999 476.878998,175.246048 477.492493,188.219955 
	C477.719269,193.015533 478.846344,197.765656 479.503479,202.544678 
	C479.981628,206.022293 481.867096,207.439468 485.351990,206.950989 
	C495.253571,205.563004 505.166260,204.682510 515.208679,204.892700 
	C560.168335,205.833725 599.129333,221.614059 631.750549,252.427521 
	C658.338196,277.541840 675.689148,308.290039 681.724182,344.353851 
	C690.667664,397.797668 678.651489,446.132568 643.030212,487.878845 
	C627.758728,505.776337 609.361084,519.524841 588.419006,530.015137 
	C582.478271,532.990967 582.114075,532.699341 580.455994,526.416504 
	C577.569458,515.478821 577.457642,517.169800 587.110229,511.714691 
	C620.204102,493.012115 644.319336,466.326447 657.817993,430.582947 
	C666.913696,406.498352 669.649597,381.747833 666.203857,356.025055 
	C659.598572,306.716644 634.120911,270.002319 592.737427,243.817627 
	C573.924438,231.914078 552.923523,225.488800 530.858459,222.590088 
	C527.389526,222.134369 525.368164,223.122803 525.381836,227.000259 
	C525.409485,234.832367 525.306152,242.664856 525.298645,250.497223 
	C525.294861,254.457886 526.951904,256.549072 531.295410,256.696198 
	C541.314270,257.035553 551.039429,259.382568 560.788025,261.544067 
	C563.970581,262.249725 565.282349,263.868988 565.242310,267.059631 
	C565.162781,273.391266 565.125427,279.728638 565.311279,286.056549 
	C565.430908,290.130157 563.709351,290.925018 560.084534,289.974609 
	C550.584839,287.483948 541.109070,284.685547 531.276428,283.940430 
	C515.978149,282.781036 500.636047,281.957855 485.826630,287.352356 
	C482.439697,288.586060 481.575775,287.113312 481.563904,284.179810 
	C481.536163,277.347931 481.555511,270.515625 481.481567,263.684296 
	C481.449371,260.709198 482.638702,259.062073 485.727264,258.638824 
	C488.185333,258.302002 490.564453,257.425751 493.012390,256.970917 
	C499.651947,255.737167 500.056549,255.518143 499.441559,248.964523 
	C498.784943,241.967056 499.092957,234.976013 499.075714,227.985519 
	C499.065887,224.008728 497.406281,222.668182 493.565155,223.027634 
	C487.072845,223.635178 480.700531,224.955521 474.468353,226.676285 
	C469.428253,228.067902 467.431885,226.169037 466.353790,221.627121 
	C463.309601,208.802307 461.044586,195.818954 460.112488,182.706284 
	C458.681488,162.574814 458.887604,142.443863 461.891449,122.386002 
	C462.656799,117.275330 464.537262,115.273407 469.848663,114.387253 
	C489.513794,111.106323 509.316071,110.166565 529.088440,111.322128 
	C555.607056,112.871971 581.553772,118.001396 606.449768,127.635429 
	C676.620239,154.789368 726.879761,202.979416 757.387451,271.585815 
	C768.828735,297.315094 775.072937,324.505890 777.459290,352.645081 
	C781.972839,405.866425 772.113708,456.189209 746.519043,502.993530 
	C721.536865,548.677856 685.976624,584.209290 640.133240,609.253235 
	C628.703491,615.497253 616.899963,620.857666 604.276001,625.367798 
z"/>
<path fill="#000000" opacity="1.000000" stroke="none" 
	d="
M513.004028,800.243774 
	C508.673920,800.242493 504.833679,800.077820 501.014008,800.287842 
	C497.744476,800.467590 496.339905,798.988831 495.354584,796.013855 
	C491.160339,783.349915 491.079346,783.374939 477.813263,783.362671 
	C471.816406,783.357117 465.815338,783.495117 459.824402,783.306519 
	C456.481934,783.201355 454.758514,784.441650 453.584412,787.632324 
	C448.934082,800.269531 448.835175,800.252380 435.024872,800.242676 
	C428.031464,800.237732 421.037994,800.159119 414.045044,800.073303 
	C413.589722,800.067749 413.138641,799.715332 412.766754,799.558533 
	C411.730103,798.151367 412.503510,796.914246 412.945038,795.704895 
	C425.557495,761.159302 438.232483,726.636414 450.744171,692.054443 
	C452.108246,688.284241 454.190674,686.923279 458.111084,686.996521 
	C468.268707,687.186279 478.434723,687.164185 488.592682,686.974548 
	C492.348206,686.904419 494.300720,688.328369 495.563538,691.850830 
	C506.119019,721.293640 516.799255,750.691772 527.466980,780.094299 
	C529.168152,784.783020 530.915649,789.458252 532.783569,794.082397 
	C535.030945,799.645935 534.682678,800.225281 528.495056,800.241882 
	C523.497620,800.255310 518.500244,800.243591 513.004028,800.243774 
M469.317841,739.696777 
	C467.715881,744.681458 466.113922,749.666077 464.308136,755.285034 
	C470.347992,756.040466 475.646881,755.892944 481.526093,755.418030 
	C479.582062,746.033691 476.505096,737.631531 473.228912,728.464355 
	C470.883423,732.198364 470.836365,735.786133 469.317841,739.696777 
z"/>
<path fill="#000000" opacity="1.000000" stroke="none" 
	d="
M364.658447,715.253052 
	C361.564270,713.774475 358.921906,713.773804 357.631927,716.926636 
	C356.429199,719.866150 357.381195,722.480347 360.191620,724.246094 
	C366.588806,728.265259 373.776062,730.534180 380.657715,733.475647 
	C386.170624,735.832214 391.658997,738.128296 396.558655,741.747681 
	C416.449127,756.440613 409.196625,785.444214 391.644257,795.268616 
	C374.746063,804.727051 346.653229,803.009827 331.326080,791.128113 
	C323.692841,785.210815 319.591553,777.288757 318.106476,767.844116 
	C317.571899,764.444519 318.628754,762.825500 322.245697,762.854431 
	C332.077484,762.933167 341.910828,762.918213 351.742645,762.833435 
	C354.465942,762.809937 356.188599,763.755371 356.830505,766.497192 
	C357.055664,767.458862 357.435547,768.414307 357.910370,769.282043 
	C359.477112,772.145264 362.054352,773.045837 365.109314,772.557068 
	C367.389679,772.192322 369.225006,770.977295 369.705200,768.555847 
	C370.329956,765.405457 368.400635,763.505737 365.963226,762.145569 
	C359.241791,758.394653 351.815216,756.308716 344.763062,753.334045 
	C339.697601,751.197510 334.560425,749.143005 330.167511,745.763794 
	C319.358276,737.448975 316.210205,726.329895 318.681244,713.300720 
	C321.241272,699.802368 330.377716,692.185242 342.647491,688.339111 
	C356.873138,683.879822 371.320190,684.274780 385.197906,690.051758 
	C398.109650,695.426758 405.372925,705.282349 406.775970,719.374634 
	C407.043488,722.061523 406.198364,723.154419 403.662231,723.156860 
	C392.996887,723.166931 382.331543,723.155090 371.666199,723.162354 
	C369.748962,723.163635 368.456238,722.324158 368.025116,720.430725 
	C367.565277,718.411316 366.751648,716.648010 364.658447,715.253052 
z"/>
<path fill="#000000" opacity="1.000000" stroke="none" 
	d="
M697.709229,728.828979 
	C701.255920,728.597961 702.945862,729.970093 702.949646,733.112915 
	C702.957458,739.607788 702.889832,746.102722 702.896545,752.597595 
	C702.900024,755.970398 701.033447,756.663452 698.031616,756.593140 
	C689.708740,756.397949 681.376343,756.571411 673.055786,756.325317 
	C669.342407,756.215515 668.152771,757.554810 668.142822,761.235596 
	C668.116211,771.090393 667.969116,771.088135 677.714844,771.078064 
	C685.875977,771.069702 694.038330,771.147522 702.197693,771.023804 
	C705.876160,770.968079 707.661316,771.999023 707.428955,776.171814 
	C707.077576,782.481384 707.203369,788.828552 707.385315,795.152344 
	C707.487732,798.712585 706.338745,800.278503 702.562561,800.260742 
	C680.577942,800.157288 658.592407,800.163757 636.607666,800.254700 
	C632.884338,800.270081 631.705200,798.720032 631.713074,795.152161 
	C631.788513,760.842224 631.786560,726.531982 631.714600,692.221985 
	C631.707031,688.627441 632.863953,687.266602 636.656616,687.278259 
	C657.970215,687.343689 679.284546,687.153809 700.598694,687.084106 
	C707.067932,687.062988 707.329956,687.364075 707.336365,693.835510 
	C707.341614,699.165222 707.327271,704.494873 707.309143,709.824585 
	C707.287048,716.312195 707.281372,716.323792 700.549377,716.333191 
	C691.388916,716.345947 682.217529,716.610596 673.071899,716.242493 
	C667.170776,716.004944 668.434448,719.821045 668.173401,723.165833 
	C667.877380,726.960083 668.739685,729.086487 673.262207,728.917786 
	C681.245789,728.619995 689.248413,728.830017 697.709229,728.828979 
z"/>
<path fill="#000000" opacity="1.000000" stroke="none" 
	d="
M540.910767,714.000000 
	C540.913696,706.504272 541.027466,699.506165 540.875671,692.513794 
	C540.794067,688.757690 542.120300,687.049133 546.066345,687.063110 
	C569.385071,687.145813 592.704468,687.133728 616.023315,687.053406 
	C619.786072,687.040466 621.470276,688.343567 621.329895,692.314026 
	C621.106445,698.635681 621.098511,704.977051 621.327454,711.298218 
	C621.473328,715.325012 619.773438,716.446716 615.992798,716.386902 
	C605.168762,716.215698 594.333496,716.552979 583.516602,716.226685 
	C578.808411,716.084595 577.123718,717.856750 577.407593,722.254456 
	C577.493225,723.580627 577.480530,724.925171 577.369995,726.249451 
	C577.101929,729.460205 578.489380,730.739197 581.725403,730.687866 
	C589.218689,730.568909 596.718201,730.792236 604.209595,730.625061 
	C607.812256,730.544678 609.363525,731.747070 609.230652,735.500854 
	C609.024536,741.323425 608.987000,747.166199 609.229736,752.985718 
	C609.408569,757.273254 607.513428,758.449890 603.549133,758.323364 
	C596.726929,758.105652 589.886353,758.441711 583.066040,758.195862 
	C579.061340,758.051514 577.814331,759.683655 577.867065,763.468811 
	C578.008484,773.627075 577.773132,783.791443 577.976501,793.947571 
	C578.069336,798.584656 576.597656,800.544189 571.657654,800.334717 
	C563.510620,799.989197 555.330627,800.030457 547.179382,800.321594 
	C542.359863,800.493774 540.802246,798.691101 540.830505,793.951599 
	C540.988770,767.468506 540.909302,740.984009 540.910767,714.000000 
z"/>
<path fill="#000000" opacity="1.000000" stroke="none" 
	d="
M227.825500,871.111633 
	C220.356689,871.112915 213.363632,871.035156 206.373123,871.135925 
	C203.053146,871.183716 201.585953,870.014282 201.621506,866.473938 
	C201.756866,852.990601 201.730713,839.504639 201.632324,826.020691 
	C201.609573,822.901978 202.585831,821.481506 205.907440,821.534851 
	C214.394638,821.671143 222.886978,821.660950 231.374298,821.525146 
	C234.404785,821.476624 235.032288,823.070496 235.087128,825.555115 
	C235.146210,828.231750 235.009186,830.779175 231.469498,830.876709 
	C226.977905,831.000610 222.480606,831.045166 217.988251,830.972046 
	C214.791000,830.920044 213.006134,831.851440 213.100601,835.515442 
	C213.187668,838.892578 213.977402,840.956482 217.890137,840.736816 
	C221.208511,840.550476 224.549011,840.798218 227.875671,840.706787 
	C230.883972,840.624084 232.066025,842.080811 232.072769,844.944519 
	C232.079269,847.706482 231.622635,850.032043 228.179764,850.101746 
	C224.684937,850.172485 221.185577,850.278992 217.694077,850.174133 
	C214.636887,850.082336 212.922592,851.061646 213.142853,854.435364 
	C213.343140,857.503174 212.391251,861.139343 217.408386,861.174866 
	C221.397522,861.203125 225.392044,861.563110 229.372086,861.425659 
	C232.469086,861.318665 235.001816,861.135437 235.165222,865.413147 
	C235.317673,869.404419 234.034515,871.496277 229.799896,871.094849 
	C229.305481,871.047913 228.801727,871.099792 227.825500,871.111633 
z"/>
<path fill="#000000" opacity="1.000000" stroke="none" 
	d="
M238.649933,844.136963 
	C242.626938,833.990662 246.562073,832.088074 259.128479,834.059143 
	C260.838226,830.685303 259.950897,826.985657 260.003876,823.466614 
	C260.066162,819.331421 262.193207,818.633850 265.733063,818.596863 
	C269.493591,818.557678 271.214172,819.745422 271.182678,823.713745 
	C271.074402,837.351807 271.176788,850.991516 271.162384,864.630554 
	C271.156036,870.631714 268.789368,872.701782 263.144562,870.790588 
	C260.355316,869.846313 258.265564,870.147095 255.642502,870.965698 
	C249.143951,872.993713 242.502487,869.569458 239.750092,863.091675 
	C237.190750,857.068176 236.948181,850.853943 238.649933,844.136963 
M248.857300,854.777039 
	C249.030075,855.589294 249.131317,856.424988 249.388092,857.209778 
	C250.440872,860.426941 252.480759,862.363953 256.067017,861.753723 
	C259.399689,861.186646 260.049866,858.636169 260.036041,855.767822 
	C260.022461,852.944580 260.081177,850.112671 259.880310,847.300842 
	C259.671478,844.378235 257.708374,842.831848 254.988556,842.516907 
	C252.320129,842.207825 250.476700,843.768921 249.719879,846.192139 
	C248.935806,848.702637 248.238419,851.303223 248.857300,854.777039 
z"/>
<path fill="#000000" opacity="1.000000" stroke="none" 
	d="
M543.187378,850.318359 
	C538.635010,851.904663 534.291016,851.178650 530.003418,851.212280 
	C526.628967,851.238770 525.107178,852.476929 525.213257,855.911011 
	C525.326111,859.564331 525.164368,863.225159 525.185242,866.882385 
	C525.209045,871.042969 522.367432,871.086182 519.366028,871.122925 
	C516.218201,871.161499 513.767578,870.713867 513.787354,866.649841 
	C513.853699,853.017151 513.829102,839.383667 513.739258,825.751099 
	C513.720459,822.890442 514.771606,821.271362 517.699219,821.256287 
	C526.164307,821.212708 534.629822,821.190552 543.094788,821.236633 
	C546.110229,821.252991 546.945068,823.189087 546.967529,825.896790 
	C546.991516,828.790527 546.170044,830.848145 542.882141,830.905823 
	C538.394653,830.984558 533.904663,831.074036 529.418152,831.003052 
	C526.105042,830.950684 525.069397,832.591309 525.203674,835.658142 
	C525.331604,838.578247 525.092041,841.584656 529.279541,841.644714 
	C531.939148,841.682861 534.599609,841.669250 537.259644,841.665039 
	C544.369629,841.653748 545.128052,842.662109 543.187378,850.318359 
z"/>
<path fill="#000000" opacity="1.000000" stroke="none" 
	d="
M352.804443,868.280701 
	C346.100922,860.660522 348.471191,851.660400 357.663452,848.816589 
	C359.860626,848.136841 362.232574,848.034485 364.513275,847.608093 
	C366.111481,847.309326 368.077698,847.377563 368.605804,845.381775 
	C369.061890,843.658264 367.885468,842.580017 366.413757,841.912292 
	C364.472626,841.031616 362.682556,841.429626 361.604462,843.218750 
	C359.352234,846.956116 355.887451,845.936279 352.664764,845.662903 
	C349.954803,845.432983 349.496277,843.799438 350.396393,841.404968 
	C352.396149,836.084717 360.477875,832.035278 367.617035,832.871521 
	C374.749115,833.706909 379.692871,837.846313 380.243530,844.227722 
	C380.929230,852.174133 381.072113,860.166809 381.479370,868.138000 
	C381.578613,870.080261 380.435699,871.179504 378.804688,870.943604 
	C371.994202,869.958862 365.229492,870.990540 358.446289,871.042908 
	C356.417938,871.058533 354.707397,869.753723 352.804443,868.280701 
M369.524841,857.439270 
	C367.562683,853.013367 364.392090,854.886475 361.795319,856.313110 
	C359.814545,857.401489 359.539978,859.782104 361.263214,861.390442 
	C363.891235,863.843140 366.451630,862.521118 368.620148,860.403137 
	C369.145996,859.889404 369.237976,858.931396 369.524841,857.439270 
z"/>
<path fill="#000000" opacity="1.000000" stroke="none" 
	d="
M431.665161,845.086548 
	C430.226562,845.527405 429.065857,845.991760 427.971100,845.868774 
	C425.812469,845.626282 422.809662,846.995728 421.777679,844.183716 
	C420.833252,841.610291 422.782349,839.404724 424.471039,837.574646 
	C428.693848,832.998230 437.507446,831.543640 444.033936,834.158264 
	C450.391510,836.705322 452.205231,841.784668 452.250519,848.133850 
	C452.296661,854.598022 451.682617,861.097412 452.974945,867.524231 
	C453.528503,870.277100 451.830719,871.347351 449.546478,871.032532 
	C443.549164,870.205933 437.627411,870.898438 431.647736,871.132996 
	C425.735107,871.364868 421.493073,867.020386 420.732056,861.504700 
	C419.906372,855.520569 422.790375,850.775818 428.776611,848.841675 
	C431.276001,848.034119 433.989441,847.912109 436.572754,847.332214 
	C438.076080,846.994751 440.152618,847.375305 440.505493,845.082581 
	C440.706421,843.777405 439.870087,842.887085 438.809998,842.277344 
	C437.104095,841.296143 435.337036,840.962341 433.754822,842.452454 
	C433.042145,843.123779 432.559723,844.039551 431.665161,845.086548 
M432.432251,857.916077 
	C431.878571,860.197998 432.425842,862.007996 434.927124,862.480530 
	C437.053680,862.882263 438.909485,861.936646 440.181366,860.259277 
	C441.140839,858.993896 441.360535,857.261780 440.251312,856.073242 
	C438.659790,854.368103 436.534393,854.993652 434.641724,855.663696 
	C433.919678,855.919373 433.380096,856.690369 432.432251,857.916077 
z"/>
<path fill="#000000" opacity="1.000000" stroke="none" 
	d="
M622.700684,847.020142 
	C625.465271,845.643799 625.030640,844.026855 623.404114,842.569885 
	C621.683594,841.028687 619.381775,840.827637 618.063416,842.678284 
	C614.737122,847.347534 610.563110,845.654419 606.299805,845.042053 
	C605.349915,841.593567 607.064941,839.163635 609.171326,837.424683 
	C614.846863,832.738953 621.354736,831.396973 628.331482,834.194214 
	C634.637695,836.722717 636.476624,841.856812 636.436829,848.273315 
	C636.399780,854.257629 636.660645,860.272095 637.283875,866.221619 
	C637.658020,869.792725 636.537842,871.533264 633.109436,871.061340 
	C627.759033,870.324951 622.560669,870.536987 617.169373,871.144531 
	C610.875916,871.853760 605.853943,867.282166 604.955750,861.667236 
	C603.985718,855.603333 607.337158,850.662048 614.022034,848.715637 
	C616.718872,847.930359 619.561218,847.644531 622.700684,847.020142 
M617.685730,861.795898 
	C620.488159,863.425415 622.778625,862.539490 624.440918,860.097839 
	C625.281982,858.862549 625.382690,857.089172 624.195740,855.985718 
	C622.378174,854.296143 620.148438,854.810242 618.265564,855.900757 
	C616.062866,857.176575 615.665649,859.124817 617.685730,861.795898 
z"/>
<path fill="#000000" opacity="1.000000" stroke="none" 
	d="
M385.639160,856.246826 
	C385.649536,852.843140 385.455048,849.833252 385.753693,846.873169 
	C386.490784,839.567200 391.758972,834.331177 399.394501,833.004272 
	C406.501343,831.769226 413.436646,834.983887 416.190063,840.962891 
	C417.198273,843.152283 418.992676,846.263672 416.304932,847.646606 
	C413.584839,849.046265 409.700562,849.636108 407.187317,846.461731 
	C405.359406,844.153137 403.701660,841.577942 400.369232,842.790588 
	C396.857117,844.068604 396.336670,847.399658 396.299011,850.658752 
	C396.276154,852.638245 396.415161,854.664124 396.834137,856.592651 
	C397.340515,858.923401 398.397400,861.052612 401.056915,861.665588 
	C403.678040,862.269714 405.397583,861.120789 406.939026,858.982361 
	C408.568665,856.721680 414.866577,855.762451 416.413116,857.551880 
	C418.807190,860.322021 416.674683,862.802246 415.251495,865.174377 
	C413.580017,867.960510 410.509552,869.196472 408.096039,871.089844 
	C412.508514,878.508545 410.617096,883.768982 403.099762,885.547363 
	C401.342041,885.963257 399.284851,886.810547 398.224823,884.643127 
	C397.326019,882.805359 397.326569,880.757385 399.122009,879.168579 
	C399.605042,878.741272 400.011169,878.227112 400.693634,877.493713 
	C397.028503,874.449768 395.304077,870.006592 391.065155,867.413818 
	C387.431732,865.191345 385.828705,861.077515 385.639160,856.246826 
z"/>
<path fill="#000000" opacity="1.000000" stroke="none" 
	d="
M804.210938,833.800354 
	C807.704102,832.966553 810.807190,832.456543 813.982605,833.204407 
	C821.189453,834.901489 824.802307,839.325195 825.208374,847.070251 
	C825.573120,854.025269 824.516968,861.032654 825.998718,867.949951 
	C826.345520,869.568787 825.449768,870.521057 823.975586,870.828796 
	C822.848694,871.064087 821.573608,871.343018 820.520203,871.047424 
	C815.819580,869.728271 811.274170,870.617065 806.563110,871.169739 
	C800.155701,871.921509 794.484253,867.414124 793.621155,861.955017 
	C792.564331,855.270508 796.057068,850.395996 803.329590,848.587097 
	C805.417053,848.067932 807.598450,847.934631 809.700928,847.464172 
	C811.092102,847.152893 812.919922,847.271423 813.401001,845.461609 
	C813.788391,844.004578 812.879883,842.890198 811.685364,842.153381 
	C809.965698,841.092712 807.724792,840.790955 806.687683,842.460083 
	C803.555664,847.500732 799.257812,845.220154 795.231445,845.111267 
	C794.759460,839.551147 796.945557,836.781433 804.210938,833.800354 
M805.065063,860.660095 
	C807.545532,864.062195 810.210510,862.661560 812.693848,860.786621 
	C814.194214,859.653870 813.914246,857.832214 813.566650,856.207458 
	C813.331482,855.107971 812.381470,854.465088 811.367004,854.611389 
	C808.128723,855.078674 804.509583,855.239990 805.065063,860.660095 
z"/>
<path fill="#000000" opacity="1.000000" stroke="none" 
	d="
M742.505676,868.899231 
	C729.636902,874.330627 717.796448,869.910706 715.214539,858.551392 
	C712.806458,847.956848 715.903259,835.359131 728.777039,833.300720 
	C741.626709,831.246094 748.771912,840.480530 748.013977,853.008179 
	C747.852600,855.675903 745.721863,855.992432 743.636902,856.021912 
	C739.812195,856.076050 735.983643,855.960815 732.161804,856.079285 
	C730.421692,856.133179 728.479919,855.563599 726.997925,857.063232 
	C728.645020,861.804932 733.334717,863.727600 738.043091,861.028076 
	C741.080933,859.286194 743.231567,858.401367 745.473999,861.903015 
	C747.813660,865.556396 744.945984,866.920837 742.505676,868.899231 
M735.405701,847.625122 
	C738.031860,844.232666 734.940247,843.137268 732.877686,842.593079 
	C729.513733,841.705505 727.435791,843.497864 726.747864,847.021423 
	C729.510742,848.410095 732.121216,847.854370 735.405701,847.625122 
z"/>
<path fill="#000000" opacity="1.000000" stroke="none" 
	d="
M277.135590,860.345947 
	C276.995819,852.588135 276.987671,845.262634 276.815643,837.941101 
	C276.737762,834.626953 278.327606,833.481445 281.397278,833.631897 
	C284.318542,833.775085 287.854858,832.946594 287.970581,837.556580 
	C288.120880,843.547241 288.088654,849.542480 288.137756,855.535706 
	C288.164124,858.752441 288.633484,861.854431 292.760040,861.825928 
	C296.846741,861.797729 297.967621,859.052002 297.917114,855.386353 
	C297.839111,849.726379 298.060120,844.060486 297.905884,838.403870 
	C297.791077,834.192200 300.074677,833.546021 303.592285,833.541321 
	C307.161774,833.536621 309.286346,834.317078 309.215942,838.480347 
	C309.072388,846.969666 309.225372,855.463806 309.226685,863.955933 
	C309.227722,870.900146 306.740906,872.821350 299.922455,870.654785 
	C297.851776,869.996826 296.185577,870.001221 294.201752,870.609436 
	C285.213959,873.365051 279.286591,869.890503 277.135590,860.345947 
z"/>
<path fill="#000000" opacity="1.000000" stroke="none" 
	d="
M476.397278,871.382812 
	C463.740509,871.591858 456.837189,864.801880 456.679108,852.414307 
	C456.535095,841.126465 463.448761,833.133789 473.626099,832.822571 
	C481.976471,832.567200 488.663452,837.166565 490.840515,845.230469 
	C493.789001,856.151611 490.338074,869.591248 476.397278,871.382812 
M478.778076,844.997559 
	C473.168640,841.022156 468.882904,842.805054 468.255768,849.491943 
	C468.041870,851.772461 468.057800,854.138123 468.416779,856.393616 
	C468.937561,859.666016 470.881897,861.776001 474.438568,861.810974 
	C477.832611,861.844299 479.562134,859.689697 480.274384,856.744629 
	C481.189911,852.958740 480.701965,849.206116 478.778076,844.997559 
z"/>
<path fill="#000000" opacity="1.000000" stroke="none" 
	d="
M584.092773,842.471802 
	C580.294556,843.074402 579.115723,845.221680 579.173218,848.534668 
	C579.271240,854.189514 578.984497,859.855164 579.209106,865.502380 
	C579.390015,870.051453 577.166748,871.130127 573.119202,871.186035 
	C568.760498,871.246094 567.767090,869.131287 567.831238,865.310791 
	C567.973877,856.827881 567.842712,848.340759 567.869263,839.855408 
	C567.887329,834.079956 571.557617,831.402161 576.870300,833.888123 
	C579.132751,834.946777 580.591980,834.897339 582.744812,834.102966 
	C592.388245,830.544800 599.517700,835.020020 600.125366,845.249878 
	C600.548767,852.379761 600.241638,859.552246 600.287109,866.705566 
	C600.315552,871.179443 597.160828,871.014404 594.062012,871.136719 
	C590.598877,871.273315 589.442139,869.723083 589.491272,866.307617 
	C589.579651,860.162170 589.267883,854.010254 589.092651,847.861938 
	C589.006592,844.843994 587.809326,842.720398 584.092773,842.471802 
z"/>
<path fill="#000000" opacity="1.000000" stroke="none" 
	d="
M642.718750,869.311890 
	C642.530762,858.289551 642.434143,847.647278 642.540405,837.007080 
	C642.572815,833.757751 646.942749,831.991333 651.135986,833.989563 
	C653.430786,835.083069 654.998962,834.814148 657.137756,834.029297 
	C666.743713,830.503967 673.466553,835.213440 674.361572,845.509460 
	C674.984741,852.677795 674.118958,859.809326 674.442932,866.953125 
	C674.622498,870.914368 671.893311,871.004089 669.081665,871.065491 
	C666.235229,871.127625 663.616455,871.037903 663.652039,867.085083 
	C663.704468,861.257629 663.716980,855.427612 663.600403,849.601624 
	C663.531006,846.130737 663.003662,842.479980 658.502014,842.430115 
	C653.726135,842.377136 653.147339,845.936523 653.212952,849.769043 
	C653.292786,854.430176 653.256470,859.093628 653.243164,863.755981 
	C653.221497,871.338928 649.995361,873.182617 642.718750,869.311890 
z"/>
<path fill="#000000" opacity="1.000000" stroke="none" 
	d="
M329.133240,871.349854 
	C320.988037,870.893616 316.455017,866.540344 314.525909,859.397949 
	C313.022339,853.831360 312.926239,848.132141 315.210144,842.723938 
	C317.951233,836.233215 323.154480,833.059998 330.106567,832.829529 
	C336.736664,832.609802 342.409424,835.948303 344.702179,841.366699 
	C345.581055,843.443787 347.310516,846.374451 344.757690,847.639038 
	C341.967224,849.021484 338.216980,849.609253 335.658752,846.424622 
	C334.507874,844.991943 333.678894,843.261475 331.778442,842.725281 
	C328.620697,841.834473 326.386017,843.356812 325.528809,846.171326 
	C324.354553,850.026855 324.258026,854.083801 325.645508,857.963745 
	C327.267334,862.498962 331.926666,863.342224 334.969574,859.652039 
	C336.044769,858.348145 336.833160,856.781921 338.789612,856.874695 
	C341.042786,856.981567 343.836426,856.010437 345.266541,858.323730 
	C346.648956,860.559998 345.171936,862.867859 343.862701,864.781982 
	C340.440430,869.785156 335.449066,871.573914 329.133240,871.349854 
z"/>
<path fill="#000000" opacity="1.000000" stroke="none" 
	d="
M690.426514,857.086731 
	C693.786072,863.556519 696.642761,863.976624 700.729126,858.880005 
	C703.363037,855.594910 707.102905,856.098206 709.764404,857.513306 
	C712.851440,859.154663 710.746643,862.238892 709.428955,864.461243 
	C706.172485,869.953491 699.822998,872.375000 692.400208,871.156738 
	C686.395081,870.171204 681.186401,865.477905 679.838806,859.677124 
	C678.693787,854.748352 678.577698,849.794067 679.832642,844.842957 
	C681.557129,838.039001 687.377014,833.343628 694.739258,832.865601 
	C701.647217,832.416931 708.032593,835.917725 710.210999,841.603333 
	C710.988647,843.633240 712.702698,846.591064 709.821960,847.735840 
	C707.123657,848.808044 703.344238,849.737183 701.118652,846.590942 
	C699.260498,843.964233 697.721802,841.434692 694.043030,842.801819 
	C690.374023,844.165344 690.163086,847.443298 690.164246,850.697144 
	C690.164978,852.693542 690.282898,854.689880 690.426514,857.086731 
z"/>
<path fill="#000000" opacity="1.000000" stroke="none" 
	d="
M787.090210,843.491089 
	C782.518433,844.196899 780.909912,846.655212 781.105042,850.871948 
	C781.343018,856.016174 781.062866,861.182373 781.201172,866.333862 
	C781.305664,870.224487 779.152100,871.086182 775.840637,871.095459 
	C772.686462,871.104370 770.155151,870.685669 770.160767,866.687683 
	C770.174438,857.043274 770.023804,847.397156 770.155579,837.754761 
	C770.234680,831.972351 774.936768,833.338013 777.901794,833.874390 
	C780.758118,834.391174 783.153564,834.587524 785.871216,833.468506 
	C788.004089,832.590454 790.577698,832.033569 791.363159,835.485596 
	C792.462280,840.316162 791.177124,842.931274 787.090210,843.491089 
z"/>
<path fill="#000000" opacity="1.000000" stroke="none" 
	d="
M562.077148,859.943542 
	C562.050415,861.763611 562.035950,863.094299 562.003906,864.424561 
	C561.852722,870.701233 560.674377,871.662109 554.567261,871.100159 
	C551.878174,870.852722 550.715698,869.688293 550.718201,867.016785 
	C550.727478,857.203064 550.743774,847.388123 550.593079,837.576172 
	C550.535400,833.822021 552.727112,833.112610 555.702087,833.145325 
	C558.753540,833.178894 561.982788,833.010864 561.993408,837.498108 
	C562.010681,844.816711 562.050781,852.135376 562.077148,859.943542 
z"/>
<path fill="#000000" opacity="1.000000" stroke="none" 
	d="
M763.912354,845.073730 
	C763.920044,852.199097 763.783752,858.840271 763.989014,865.470947 
	C764.114319,869.520569 762.602905,871.166443 758.484619,871.104065 
	C754.714478,871.046875 752.563049,870.189941 752.664307,865.803894 
	C752.874878,856.683228 752.794556,847.553467 752.688721,838.429138 
	C752.650330,835.116577 753.810608,833.561340 757.307434,833.595581 
	C760.659302,833.628479 763.818604,833.454651 763.831604,838.117188 
	C763.837585,840.273254 763.884216,842.429199 763.912354,845.073730 
z"/>
<path fill="#000000" opacity="1.000000" stroke="none" 
	d="
M443.273651,819.872925 
	C445.648682,818.340942 447.949524,818.242188 449.323425,820.229248 
	C450.749664,822.291992 449.292053,824.386292 447.838043,826.003601 
	C444.987030,829.174744 441.514008,830.153809 437.549011,828.226746 
	C435.040253,827.007568 432.814514,826.185486 430.340942,828.582031 
	C429.003662,829.877502 426.668854,829.891785 425.242462,828.708923 
	C423.591522,827.340027 424.506683,825.316895 425.281189,823.666748 
	C427.219604,819.536682 431.322815,818.209595 436.268158,820.120239 
	C438.538300,820.997437 440.739502,822.750793 443.273651,819.872925 
z"/>
<path fill="#000000" opacity="1.000000" stroke="none" 
	d="
M550.531189,823.505737 
	C551.380005,821.568298 552.510986,820.448608 554.195923,819.935486 
	C557.774658,818.845459 561.525574,820.596924 562.025513,823.858215 
	C562.584473,827.504761 561.049194,829.924927 557.187866,830.504578 
	C552.874390,831.152039 550.644226,828.971252 550.531189,823.505737 
z"/>
<path fill="#000000" opacity="1.000000" stroke="none" 
	d="
M757.156433,819.811096 
	C761.719421,819.815430 764.414307,821.597351 763.696472,826.059082 
	C763.075256,829.920471 760.149048,830.935425 756.594543,830.224304 
	C754.218567,829.748840 752.913635,828.177917 752.714600,825.748779 
	C752.465332,822.706421 753.694519,820.657837 757.156433,819.811096 
z"/>
</svg>