<?xml version="1.0" standalone="no"?>
<!DOCTYPE svg PUBLIC "-//W3C//DTD SVG 20010904//EN"
 "http://www.w3.org/TR/2001/REC-SVG-20010904/DTD/svg10.dtd">
<svg version="1.0" xmlns="http://www.w3.org/2000/svg"
 width="18000.000000pt" height="18000.000000pt" viewBox="0 0 18000.000000 18000.000000"
 preserveAspectRatio="xMidYMid meet">

<g transform="translate(0.000000,18000.000000) scale(0.100000,-0.100000)"
fill="#000000" stroke="none">
<path d="M19854 106552 c-5000 -2897 -9116 -5284 -9147 -5304 -237 -158 -447
-439 -518 -693 l-22 -80 2 -10570 c2 -9276 4 -10579 17 -10645 38 -190 206
-436 394 -577 30 -22 4166 -2388 9190 -5258 5024 -2870 9147 -5224 9161 -5232
25 -15 203 86 9100 5167 4991 2850 9110 5207 9154 5236 277 186 462 422 541
692 16 53 18 425 25 5167 5 2811 8 7599 6 10640 l-2 5530 -28 90 c-15 50 -39
114 -52 143 -69 152 -224 315 -417 440 -277 180 -10984 6384 -11305 6551 l-23
12 0 -1593 0 -1593 748 -434 c1099 -640 7873 -4623 7972 -4689 278 -186 429
-459 469 -852 6 -61 4 -2816 -5 -7760 -20 -10847 -16 -9875 -42 -9992 -45
-197 -112 -344 -216 -473 -119 -147 209 49 -3026 -1810 -5244 -3013 -9515
-5453 -11373 -6499 -1037 -584 -1438 -803 -1487 -812 -22 -5 -60 12 -182 79
-962 528 -6101 3485 -14423 8300 -665 385 -1242 724 -1282 754 -89 67 -217
202 -261 276 -39 64 -76 167 -92 252 -16 81 -45 17668 -30 17798 13 111 49
224 97 307 49 82 157 193 253 257 41 27 3638 2143 7993 4703 l7917 4653 0
1543 c0 849 -3 1544 -7 1543 -5 -1 -4099 -2371 -9099 -5267z"/>
<path d="M29950 93170 c0 -14462 3 -18081 13 -18077 43 16 12475 7245 12527
7284 107 80 191 198 241 343 l22 65 9 1145 c4 630 6 1151 3 1158 -3 9 -796 12
-3915 12 l-3910 0 0 11663 0 11663 -2478 1406 c-1362 774 -2485 1410 -2495
1414 -16 6 -17 -939 -17 -18076z"/>
<path d="M25438 103482 l-2488 -1477 -2 -8453 -3 -8453 -1475 861 c-811 474
-1475 862 -1476 863 -2 3 21 3955 62 10725 9 1503 14 2735 12 2738 -3 3 -1065
-624 -2359 -1393 l-2353 -1398 -87 -85 c-140 -138 -209 -281 -229 -477 -7 -67
-10 -2286 -8 -7053 3 -6653 4 -6958 21 -7015 10 -33 39 -103 64 -155 41 -82
60 -108 142 -189 l96 -95 6280 -3664 c3453 -2015 6285 -3666 6292 -3669 11 -4
13 2685 13 14931 0 8215 -3 14936 -7 14935 -5 0 -1127 -665 -2495 -1477z"/>
<path d="M78989 98386 c-104 -28 -183 -98 -220 -196 -19 -49 -19 -222 -19
-7870 l0 -7819 21 -58 c26 -67 92 -139 159 -169 61 -28 4680 -1034 4748 -1034
113 0 228 73 279 178 l28 57 5 1865 5 1865 22 47 c30 66 96 133 162 165 l56
28 5000 7 c2750 3 5029 9 5065 12 36 4 171 13 300 22 1348 87 2426 370 3141
824 262 166 527 398 699 612 457 567 797 1423 984 2478 257 1452 276 3446 45
4850 -204 1241 -593 2137 -1184 2725 -655 652 -1773 1089 -3307 1290 -381 50
-748 81 -1353 117 -300 17 -14571 22 -14636 4z m13196 -4194 c733 -72 1142
-183 1473 -398 106 -69 248 -210 320 -319 248 -373 366 -956 349 -1730 -14
-649 -116 -1072 -335 -1401 -266 -398 -797 -607 -1742 -686 -124 -10 -947 -13
-4090 -13 l-3935 0 -47 23 c-65 32 -125 94 -156 160 l-27 57 0 2040 0 2040 22
47 c39 85 125 162 213 189 43 13 7817 5 7955 -9z"/>
<path d="M129773 98379 c-45 -14 -76 -33 -112 -67 -46 -42 -520 -888 -4652
-8302 -2531 -4540 -4606 -8266 -4611 -8280 -61 -156 17 -345 170 -413 99 -43
-34 -67 2662 467 1378 273 2525 504 2550 513 104 39 81 2 920 1547 426 785
789 1444 806 1464 18 21 56 51 85 67 l54 30 5504 3 5503 2 59 -26 c36 -16 76
-45 101 -73 33 -35 219 -384 788 -1475 552 -1059 755 -1439 783 -1468 22 -22
62 -51 91 -64 37 -17 739 -160 2551 -520 2719 -540 2568 -513 2669 -465 63 31
123 93 154 159 36 76 37 183 5 255 -12 26 -2044 3755 -4514 8285 -4068 7459
-4497 8242 -4545 8289 -41 41 -66 56 -119 72 l-67 21 -3387 -1 c-3338 0 -3387
0 -3448 -20z m3551 -3685 c29 -10 69 -37 102 -68 52 -49 112 -163 1661 -3171
883 -1716 1614 -3141 1624 -3168 29 -74 26 -168 -10 -242 -32 -69 -100 -137
-169 -168 l-47 -22 -3300 0 -3300 0 -67 33 c-139 68 -215 224 -178 362 19 72
3288 6304 3335 6357 57 66 140 103 231 103 39 0 92 -7 118 -16z"/>
<path d="M147837 98389 c-94 -22 -188 -104 -223 -194 -44 -115 -65 -33 449
-1772 257 -870 471 -1592 476 -1605 28 -72 115 -151 201 -181 27 -9 1483 -13
6815 -17 6312 -6 6789 -7 6910 -23 436 -57 736 -149 950 -292 221 -147 362
-390 419 -725 56 -322 35 -773 -49 -1065 -37 -131 -132 -315 -207 -404 -203
-240 -566 -379 -1198 -458 -125 -16 -660 -17 -7390 -22 -7017 -6 -7257 -7
-7302 -24 -67 -26 -141 -97 -175 -165 l-28 -57 -3 -1439 c-2 -1295 -1 -1445
14 -1495 30 -102 95 -174 194 -212 49 -19 168 -19 7348 -19 4432 0 7399 -4
7557 -10 859 -31 1333 -172 1620 -482 157 -170 262 -378 317 -631 20 -92 22
-130 23 -397 0 -336 -14 -473 -70 -697 -88 -349 -253 -585 -489 -698 -162 -77
-603 -168 -1021 -209 -356 -36 -577 -37 -5325 -34 l-4675 3 -56 26 c-69 33
-127 89 -160 155 l-24 49 -5 1115 c-4 931 -7 1121 -19 1150 -42 103 -113 171
-211 201 -64 19 -99 19 -2420 17 l-2355 -3 -56 -28 c-66 -32 -132 -99 -162
-165 l-22 -47 0 -3065 0 -3065 26 -55 c33 -70 89 -126 159 -159 l55 -26 8305
-3 c8435 -3 8609 -2 9100 33 1469 108 2572 443 3319 1010 617 467 1027 1202
1231 2205 187 917 209 2139 54 2995 -118 655 -347 1151 -674 1458 -348 328
-868 581 -1681 821 -47 14 -104 39 -127 56 -91 66 -138 171 -130 289 10 132
84 224 229 282 319 128 699 380 989 656 260 247 460 583 585 980 115 369 194
882 226 1468 15 286 7 1005 -15 1230 -103 1057 -392 1810 -920 2399 -251 279
-672 570 -1116 771 -764 346 -1660 530 -2805 575 -320 13 -16404 12 -16458 -1z"/>
<path d="M104215 97824 c-1270 -271 -2330 -501 -2355 -510 -64 -25 -142 -106
-168 -177 l-22 -58 0 -7829 0 -7829 20 -55 c27 -72 88 -139 158 -173 l57 -28
8270 -3 c7525 -2 8275 -1 8324 14 144 42 240 177 229 322 -6 72 -962 3741
-991 3802 -29 62 -97 125 -165 152 l-57 23 -5190 5 -5190 5 -43 23 c-61 33
-120 95 -151 161 l-26 56 -5 6180 -5 6180 -28 57 c-54 110 -167 179 -290 177
-40 -1 -870 -174 -2372 -495z"/>
<path d="M54821 98288 c-117 -17 -216 -102 -251 -216 -20 -64 -20 -97 -20
-5306 0 -5229 2 -5522 35 -6011 103 -1512 438 -2670 1009 -3486 33 -46 110
-147 171 -224 714 -892 1644 -1459 2778 -1694 1024 -212 2412 -330 4262 -361
610 -11 5427 -38 5750 -33 2655 41 4678 464 6000 1254 475 283 845 638 1159
1109 536 803 847 1861 950 3235 36 467 37 714 34 6145 l-3 5355 -28 57 c-53
107 -164 179 -280 180 -46 0 -659 -129 -2337 -491 -1251 -270 -2311 -500
-2355 -511 -117 -29 -181 -77 -233 -175 l-27 -50 -6 -4485 c-4 -3240 -9 -4527
-17 -4635 -28 -371 -49 -553 -87 -786 -94 -560 -257 -979 -488 -1251 -280
-329 -861 -548 -1692 -637 -411 -45 -506 -48 -2065 -66 -997 -12 -1357 -12
-2495 0 -1350 15 -1755 24 -2060 51 -1155 99 -1834 352 -2155 802 -77 108
-196 348 -249 505 -146 425 -239 960 -285 1632 -9 121 -18 249 -22 285 -3 36
-9 1978 -12 4315 l-7 4250 -26 55 c-14 31 -40 72 -57 91 -70 79 45 52 -2454
593 -1278 277 -2336 506 -2353 508 -16 2 -54 0 -84 -4z"/>
</g>
</svg>
