<svg xmlns="http://www.w3.org/2000/svg" xmlns:xlink="http://www.w3.org/1999/xlink" xmlns:inkscape="http://www.inkscape.org/namespaces/inkscape" version="1.1" width="341.969" height="341.795" viewBox="0 0 341.969 341.795">
<defs>
<clipPath id="clip_1">
<path transform="matrix(1,0,0,-1,0,341.795)" d="M0 341.795H341.969V0H0Z"/>
</clipPath>
</defs>
<g inkscape:groupmode="layer" inkscape:label="Camada 1">
<g clip-path="url(#clip_1)">
<path transform="matrix(1,0,0,-1,125.201,126.60361)" d="M0 0C-.696 .205-1.376-.446-1.847-.856-2.107-1.071-2.647-1.35-2.613-1.728-2.608-1.942-2.439-2.1-2.32-2.257L-1.898-2.714C-1.646-2.989-1.408-3.325-1.103-3.527-.821-3.728-.602-3.599-.38-3.368 .157-2.85 .88-2.402 1.015-1.578 1.13-.916 .647-.179 0 0M3.167-.975C3.129-1.566 3.049-2.265 2.739-2.794 2.658-2.942 1.567-4.066 1.543-4.04L1.53-4.051C1.229-4.328 .518-4.79 .648-5.248 .717-5.452 .937-5.612 1.069-5.757 1.262-5.939 1.404-6.147 1.585-6.342 1.897-6.707 2.47-7.147 2.372-7.698 2.323-7.959 2.14-8.126 1.957-8.295 1.775-8.464 1.552-8.644 1.323-8.736 .749-8.926 .368-8.382 .03-8.015-.319-7.636-.629-7.22-1.004-6.89-1.367-6.546-1.731-6.229-2.056-5.876-2.466-5.433-2.874-4.964-3.309-4.544-4.034-3.834-4.77-3.06-5.35-2.218-5.67-1.74-5.629-1.339-5.209-.93-4.828-.556-4.449-.207-4.093 .194-3.699 .63-3.319 1.004-2.863 1.352-2.434 1.673-2.029 2.047-1.53 2.239-.993 2.444-.523 2.512 .049 2.413 .548 2.317 1.096 2.194 1.552 1.935 2.597 1.352 3.242 .229 3.167-.975" fill="#3a3a33"/>
<path transform="matrix(1,0,0,-1,138.7623,125.73682)" d="M0 0C-.35-.004-.639 .196-.843 .467-1.324 1.132-1.615 1.887-1.982 2.6-2.368 3.343-2.865 3.997-3.349 4.661-3.846 5.316-4.187 6.085-4.608 6.785L-5.276 7.895C-5.478 8.231-5.457 8.575-5.188 8.883-4.953 9.149-4.494 9.489-4.114 9.511-3.709 9.526-3.442 9.188-3.233 8.877-3.133 8.71-1.746 6.684-1.746 6.684L-1.743 6.644C-1.339 5.974-1.012 5.261-.61 4.591-.39 4.225-.154 3.868 .096 3.522 .321 3.181 .489 2.803 .707 2.438 .909 2.103 1.231 1.777 1.341 1.39 1.449 1.038 1.291 .714 1.014 .486 .751 .267 .365 .012 0 0" fill="#3a3a33"/>
<path transform="matrix(1,0,0,-1,145.541,112.85811)" d="M0 0C-.337-.12-.698-.267-1.04-.106-1.341 .052-1.467 .459-1.507 .784-1.56 1.143-1.409 1.461-1.07 1.619-.714 1.784-.304 1.854 .052 2.021 .442 2.198 .832 2.374 1.268 2.474 2.036 2.652 2.755 2.909 3.493 3.172L4.665 3.591C5 3.71 5.369 3.786 5.672 3.571 5.945 3.386 6.055 2.972 6.147 2.665 6.239 2.244 6.122 1.882 6.003 1.481 5.77 .701 5.533-.063 5.258-.823 4.982-1.582 4.608-2.283 4.394-3.056 4.288-3.453 4.162-3.836 4.052-4.217 3.957-4.534 3.724-4.882 3.702-5.192 3.681-5.614 4.235-5.416 4.47-5.334 4.821-5.207 5.173-5.082 5.534-4.934 6.239-4.683 6.972-4.308 7.713-4.158 8.435-4.012 8.967-4.71 8.824-5.423 8.731-5.795 8.437-5.976 8.107-6.112 7.751-6.277 7.4-6.402 7.03-6.534 6.327-6.785 5.575-6.902 4.909-7.254 4.541-7.439 4.191-7.566 3.787-7.652 3.4-7.733 3.043-7.843 2.687-8.008 2.363-8.16 2.027-8.28 1.674-8.086 1.356-7.879 1.28-7.508 1.179-7.169 1.062-6.795 1.113-6.456 1.212-6.099L1.567-4.82C1.771-4.069 2.054-3.324 2.284-2.545 2.494-1.809 2.72-1.069 2.986-.331 3.088-.03 3.353 .442 3.295 .762 3.218 1.187 2.578 .92 2.326 .832 2.227 .795 1.21 .415 1.203 .431Z" fill="#3a3a33"/>
<path transform="matrix(1,0,0,-1,161.6737,108.50522)" d="M0 0C-.352-.038-.739-.1-1.034 .135-1.291 .357-1.321 .783-1.286 1.106-1.254 1.468-1.036 1.743-.668 1.82-.284 1.898 .13 1.874 .515 1.953 .934 2.036 1.354 2.118 1.802 2.115 2.588 2.114 3.347 2.199 4.124 2.286L5.36 2.424C5.713 2.464 6.09 2.452 6.336 2.177 6.559 1.933 6.571 1.505 6.589 1.187 6.584 .755 6.389 .431 6.18 .069 5.776-.639 5.369-1.328 4.927-2.003 4.485-2.68 3.961-3.275 3.575-3.978 3.383-4.339 3.172-4.684 2.978-5.029 2.813-5.316 2.507-5.6 2.413-5.897 2.299-6.303 2.88-6.237 3.129-6.21 3.5-6.169 3.871-6.128 4.257-6.066 4.998-5.982 5.799-5.786 6.552-5.807 7.288-5.834 7.645-6.633 7.343-7.292 7.166-7.634 6.839-7.743 6.489-7.801 6.104-7.877 5.733-7.919 5.345-7.963 4.604-8.045 3.846-7.987 3.115-8.177 2.716-8.276 2.346-8.317 1.934-8.309 1.54-8.301 1.168-8.324 .783-8.402 .434-8.478 .081-8.518-.218-8.247-.481-7.974-.471-7.597-.492-7.242-.518-6.851-.393-6.534-.214-6.21L.424-5.047C.795-4.361 1.239-3.703 1.643-2.997 2.014-2.331 2.404-1.661 2.83-1.004 2.997-.736 3.364-.338 3.382-.014 3.405 .419 2.718 .305 2.455 .276 2.347 .264 1.275 .126 1.273 .143Z" fill="#3a3a33"/>
<path transform="matrix(1,0,0,-1,182.1703,112.77292)" d="M0 0C-.049 .33-.19 .632-.31 .952L-.467 1.419C-.518 1.586-.545 1.805-.635 1.942-.909 2.317-1.194 1.761-1.328 1.545-1.488 1.279-1.663 1.014-1.806 .728-1.923 .51-2.209 .099-2.022-.14-1.853-.359-1.472-.334-1.227-.364-.823-.416 .136-.769 0 0M.679 5.27C.772 4.739 .999 4.264 1.15 3.744 1.345 3.163 1.504 2.571 1.681 1.975 1.876 1.394 2.091 .813 2.176 .211 2.324-.9 2.695-1.948 3.007-3.026 3.143-3.509 3.324-4.213 2.643-4.36 2.386-4.417 2.088-4.361 1.824-4.328 1.541-4.294 1.231-4.2 1.047-3.946 .755-3.551 .879-2.85 .356-2.604-.034-2.431-.551-2.402-.974-2.35-1.413-2.295-1.845-2.295-2.269-2.26-2.519-2.246-2.779-2.179-3.015-2.202-3.306-2.238-3.493-2.446-3.645-2.661-3.99-3.119-4.27-3.496-4.89-3.435-5.353-3.415-6.107-3.302-6.081-2.659-6.086-2.409-5.894-2.163-5.761-1.966L-5.308-1.199C-5.014-.698-4.651-.24-4.356 .258-4.019 .808-3.78 1.422-3.49 2.012-3.207 2.569-2.772 3.034-2.449 3.603-2.13 4.154-1.773 4.717-1.468 5.288-1.347 5.542-1.221 5.829-1.036 6.04-.85 6.232-.471 6.4-.198 6.294 .402 6.22 .567 5.821 .679 5.27" fill="#3a3a33"/>
<path transform="matrix(1,0,0,-1,198.0311,115.87862)" d="M0 0C.321-.051 .766-.033 1.077 .074 1.754 .343 2.239 1.144 1.96 1.846 1.852 2.155 1.559 2.481 1.282 2.647 .986 2.819 .624 2.865 .309 2.989 .029 3.097-.316 3.384-.63 3.316-.956 3.214-1.091 2.677-1.161 2.401-1.283 1.99-1.4 1.597-1.554 1.199-1.728 .753-1.444 .603-1.063 .455-.685 .345-.397 .059 0 0M-3.155 3.542C-2.961 4.133-2.751 4.72-2.475 5.279-2.183 5.832-1.801 6.369-1.118 6.064-.53 5.814 .011 5.489 .625 5.305 1.232 5.106 1.923 4.968 2.468 4.604 3 4.261 3.472 3.809 3.863 3.295 4.037 3.055 4.203 2.799 4.314 2.547 4.437 2.231 4.427 1.912 4.416 1.591 4.367 .923 4.361 .277 3.933-.28 3.541-.794 3.154-1.444 2.555-1.705 2.232-1.846 1.919-1.913 1.575-2.01 1.24-2.088 1.089-2.276 1.169-2.613 1.221-2.919 1.354-3.257 1.515-3.53 1.692-3.81 1.983-3.942 2.196-4.179 2.639-4.658 2.547-5.479 2.021-5.845 1.765-6.011 1.468-5.992 1.203-5.887 .905-5.77 .577-5.585 .341-5.361-.174-4.928-.496-4.383-.681-3.738-.847-3.139-1.108-2.485-1.533-2.012-1.71-1.828-2.015-1.538-2.288-1.507-2.652-1.46-2.772-1.909-2.868-2.158-3.004-2.505-3.151-2.83-3.302-3.172-3.442-3.478-3.625-3.75-4.004-3.793-4.321-3.821-4.683-3.68-4.952-3.537-5.243-3.402-5.515-3.22-5.553-2.88-5.577-2.548-5.411-2.173-5.31-1.869-5.155-1.473-4.998-1.076-4.828-.685-4.743-.471-3.842 1.445-3.908 1.472-3.636 2.167-3.372 2.845-3.155 3.542" fill="#3a3a33"/>
<path transform="matrix(1,0,0,-1,207.1531,126.29732)" d="M0 0C-.154 .315-.099 .661 .058 .962 .445 1.685 1.004 2.276 1.486 2.916 1.988 3.586 2.363 4.319 2.75 5.041 3.124 5.775 3.672 6.415 4.118 7.099L4.828 8.184C5.042 8.512 5.362 8.643 5.758 8.531 6.099 8.435 6.604 8.17 6.79 7.835 6.979 7.478 6.791 7.09 6.6 6.769 6.494 6.606 5.268 4.477 5.253 4.486L5.235 4.456C4.805 3.802 4.302 3.196 3.875 2.541 3.641 2.184 3.423 1.817 3.218 1.442 3.009 1.091 2.742 .776 2.507 .42 2.292 .093 2.139-.337 1.835-.606 1.566-.854 1.206-.852 .879-.702 .567-.56 .17-.323 0 0" fill="#3a3a33"/>
<path transform="matrix(1,0,0,-1,221.757,133.00582)" d="M0 0C.163 .288 .24 .615 .341 .941L.507 1.407C.57 1.57 .683 1.758 .695 1.922 .709 2.386 .143 2.124-.096 2.036-.386 1.924-.688 1.824-.978 1.685-1.205 1.586-1.683 1.435-1.683 1.135-1.683 .857-1.369 .643-1.194 .467-.904 .177-.365-.692 0 0M3.779 3.736C3.526 3.258 3.412 2.743 3.209 2.243 3.008 1.665 2.766 1.099 2.538 .521 2.338-.056 2.147-.647 1.845-1.174 1.277-2.14 .923-3.195 .506-4.239 .316-4.702 .026-5.368-.603-5.066-.841-4.952-1.043-4.724-1.229-4.536-1.431-4.334-1.618-4.069-1.606-3.757-1.592-3.266-1.062-2.788-1.325-2.272-1.526-1.894-1.915-1.556-2.216-1.253-2.53-.938-2.867-.673-3.181-.383-3.369-.22-3.531-.005-3.733 .12-3.983 .272-4.261 .223-4.512 .148-5.066-.003-5.519-.128-5.971 .302-6.321 .603-6.847 1.158-6.432 1.648-6.281 1.849-5.981 1.924-5.753 1.997L-4.923 2.323C-4.382 2.534-3.816 2.672-3.275 2.885-2.67 3.108-2.106 3.448-1.512 3.735-.946 3.999-.317 4.097 .286 4.347 .876 4.585 1.507 4.81 2.098 5.073 2.347 5.198 2.625 5.349 2.902 5.398 3.166 5.435 3.569 5.332 3.72 5.082 4.145 4.654 4.031 4.239 3.779 3.736" fill="#3a3a33"/>
<path transform="matrix(1,0,0,-1,136.5619,227.80503)" d="M0 0C.301 0 .551 .235 .551 .518V6.012C.551 6.295 .301 6.53 0 6.53H-1.185C-1.486 6.53-1.736 6.295-1.736 6.012V.518C-1.736 .235-1.486 0-1.185 0ZM1.453 9.051C2.471 9.051 3.257 8.266 3.257 7.364V-.868C3.257-1.769 2.455-2.521 1.453-2.521H-4.758C-4.942-2.521-5.075-2.455-5.075-2.371-5.075-2.287-4.893-2.07-4.775-1.802-4.575-1.319-4.492-.584-4.459 .034V6.479C-4.492 7.114-4.575 7.849-4.775 8.316-4.893 8.584-5.075 8.817-5.075 8.901-5.075 8.983-4.942 9.051-4.758 9.051H-4.459Z" fill="#3a3a33"/>
<path transform="matrix(1,0,0,-1,148.1123,227.80503)" d="M0 0C.301 0 .802 .018 1.102 .067 1.386 .118 1.654 .168 1.853 .251 2.137 .352 2.387 .534 2.471 .534 2.571 .534 2.639 .418 2.639 .268V0-2.07C2.639-2.32 2.387-2.521 2.088-2.521H-4.658C-4.825-2.521-4.959-2.455-4.959-2.371-4.959-2.287-4.776-2.07-4.658-1.802-4.475-1.386-4.391-.784-4.358-.217V6.747C-4.391 7.298-4.475 7.915-4.658 8.316-4.776 8.584-4.959 8.817-4.959 8.901-4.959 8.983-4.825 9.051-4.658 9.051H-4.358 1.871C2.188 9.051 2.422 8.817 2.422 8.533V7.03 6.53 6.229C2.422 6.078 2.354 5.945 2.254 5.945 2.17 5.945 1.92 6.112 1.636 6.213 1.119 6.412 .301 6.496-.383 6.53H-1.085C-1.386 6.53-1.636 6.295-1.636 6.012V4.743C-1.619 4.459-1.386 4.225-1.069 4.242-.401 4.275 .368 4.358 .868 4.542 1.152 4.659 1.402 4.827 1.486 4.827 1.586 4.827 1.654 4.592 1.654 4.309V2.104C1.654 1.82 1.586 1.586 1.486 1.586 1.402 1.586 1.152 1.771 .868 1.871 .368 2.055-.401 2.137-1.069 2.172-1.386 2.188-1.619 1.955-1.636 1.67V.518C-1.636 .235-1.386 0-1.085 0Z" fill="#3a3a33"/>
<path transform="matrix(1,0,0,-1,157.4761,227.80503)" d="M0 0C.735 .018 1.754 .084 2.372 .317 2.655 .418 2.889 .602 2.989 .602 3.073 .602 3.14 .468 3.14 .301V0-2.037C3.14-2.303 2.889-2.521 2.589-2.521H-3.071C-3.239-2.521-3.372-2.455-3.372-2.371-3.372-2.287-3.188-2.07-3.071-1.802-2.889-1.368-2.805-.717-2.754-.133V6.43C-2.788 7.064-2.871 7.832-3.088 8.316-3.206 8.584-3.389 8.817-3.389 8.901-3.389 8.983-3.255 9.051-3.071 9.051H-2.754 .268C.434 9.051 .585 8.983 .585 8.901 .585 8.817 .385 8.584 .284 8.316 .067 7.832-.017 7.064-.049 6.43V.518C-.049 .235-.033 0-.033 0Z" fill="#3a3a33"/>
<path transform="matrix(1,0,0,-1,168.1103,218.75452)" d="M0 0C.166 0 .317-.067 .317-.15 .317-.234 .117-.467 .017-.735-.201-1.218-.284-1.986-.317-2.621V-8.967C-.284-9.601-.201-10.353 .017-10.853 .117-11.121 .317-11.338 .317-11.421 .317-11.505 .166-11.571 0-11.571H-.317-3.341C-3.523-11.571-3.658-11.505-3.658-11.421-3.658-11.338-3.474-11.121-3.357-10.853-3.14-10.353-3.056-9.601-3.023-8.967V-2.621C-3.056-1.986-3.14-1.218-3.357-.735-3.474-.467-3.658-.234-3.658-.15-3.658-.067-3.523 0-3.341 0H-3.023Z" fill="#3a3a33"/>
<path transform="matrix(1,0,0,-1,181.3984,218.75452)" d="M0 0C.051 0 .084-.067 .084-.15 .084-.234-.016-.367-.1-.484-.184-.6-.266-.935-.334-1.218L-1.001-4.191-2.52-11.07C-2.571-11.354-2.872-11.571-3.173-11.571H-6.178C-6.478-11.571-6.779-11.354-6.829-11.07L-8.316-4.391-8.899-1.753C-8.967-1.486-9.083-1.036-9.2-.784-9.217-.751-9.233-.735-9.233-.718-9.368-.467-9.55-.234-9.55-.15-9.55-.067-9.485 0-9.417 0H-9.284-6.027C-5.777 0-5.577-.067-5.577-.15-5.577-.234-5.761-.467-5.845-.751-5.994-1.335-5.894-2.271-5.777-2.989L-4.792-7.147C-4.725-7.43-4.625-7.43-4.558-7.147-4.375-6.412-4.058-5.009-3.873-4.275-3.806-3.99-3.707-3.54-3.673-3.255-3.556-2.588-3.406-1.419-3.623-.735-3.707-.467-3.89-.234-3.89-.15-3.89-.067-3.656 0-3.372 0H-2.872Z" fill="#3a3a33"/>
<path transform="matrix(1,0,0,-1,189.3583,227.80503)" d="M0 0C.301 0 .802 .018 1.102 .067 1.386 .118 1.654 .168 1.853 .251 2.137 .352 2.387 .534 2.471 .534 2.571 .534 2.639 .418 2.639 .268V0-2.07C2.639-2.32 2.387-2.521 2.088-2.521H-4.658C-4.825-2.521-4.959-2.455-4.959-2.371-4.959-2.287-4.776-2.07-4.658-1.802-4.475-1.386-4.391-.784-4.358-.217V6.747C-4.391 7.298-4.475 7.915-4.658 8.316-4.776 8.584-4.959 8.817-4.959 8.901-4.959 8.983-4.825 9.051-4.658 9.051H-4.358 1.871C2.188 9.051 2.422 8.817 2.422 8.533V7.03 6.53 6.229C2.422 6.078 2.354 5.945 2.254 5.945 2.17 5.945 1.92 6.112 1.636 6.213 1.119 6.412 .301 6.496-.383 6.53H-1.085C-1.386 6.53-1.636 6.295-1.636 6.012V4.743C-1.619 4.459-1.386 4.225-1.069 4.242-.401 4.275 .368 4.358 .868 4.542 1.152 4.659 1.402 4.827 1.486 4.827 1.586 4.827 1.654 4.592 1.654 4.309V2.104C1.654 1.82 1.586 1.586 1.486 1.586 1.402 1.586 1.152 1.771 .868 1.871 .368 2.055-.401 2.137-1.069 2.172-1.386 2.188-1.619 1.955-1.636 1.67V.518C-1.636 .235-1.386 0-1.085 0Z" fill="#3a3a33"/>
<path transform="matrix(1,0,0,-1,200.0585,223.7969)" d="M0 0C.317 0 .551 .217 .551 .501V2.004C.551 2.287 .317 2.522 0 2.522H-.852C-1.152 2.522-1.402 2.287-1.402 2.004V.501C-1.402 .217-1.152 0-.852 0ZM3.607-3.873C3.623-4.525 3.707-5.31 3.924-5.81 4.041-6.078 4.224-6.295 4.224-6.379 4.224-6.463 4.091-6.529 3.924-6.529H3.607 2.021C1.703-6.529 1.302-6.362 1.202-6.095 .985-5.544 .919-4.725 .885-4.091V-3.474C.835-2.972 .418-2.571-.117-2.522H-.852C-1.152-2.522-1.402-2.588-1.402-2.655V-2.772-2.821-2.872-3.523C-1.386-4.225-1.319-5.21-1.052-5.81-.952-6.078-.751-6.295-.751-6.379-.751-6.463-.902-6.529-1.085-6.529H-1.402-4.424C-4.592-6.529-4.725-6.463-4.725-6.379-4.725-6.295-4.542-6.078-4.424-5.81-4.242-5.376-4.158-4.725-4.108-4.158V2.655C-4.158 3.239-4.242 3.874-4.424 4.308-4.542 4.575-4.725 4.809-4.725 4.893-4.725 4.975-4.592 5.042-4.424 5.042H-4.108 1.47C2.488 5.042 3.273 4.258 3.273 3.356V.25C3.273-.233 3.089-.618 2.805-.868 2.588-1.069 2.588-1.169 2.838-1.336 3.339-1.654 3.607-2.238 3.607-2.788Z" fill="#3a3a33"/>
<path transform="matrix(1,0,0,-1,217.102,218.75452)" d="M0 0C.051 0 .084-.067 .084-.15 .084-.234-.082-.434-.25-.635-.416-.852-.617-1.235-.734-1.503L-3.139-7.18C-3.255-7.448-3.339-7.882-3.339-8.165V-8.967C-3.323-9.601-3.222-10.353-3.022-10.853-2.905-11.121-2.721-11.338-2.721-11.421-2.721-11.505-2.854-11.571-3.038-11.571H-3.339-6.378C-6.545-11.571-6.678-11.505-6.678-11.421-6.678-11.338-6.494-11.121-6.378-10.853-6.177-10.353-6.095-9.601-6.06-8.967V-8.165C-6.06-7.882-6.144-7.448-6.261-7.18L-8.248-2.488C-8.582-1.82-8.965-1.136-9.301-.684-9.467-.451-9.651-.234-9.651-.15-9.651-.067-9.567 0-9.483 0H-9.317-6.095C-5.86 0-5.677-.067-5.677-.15-5.677-.234-5.878-.467-5.927-.751-5.976-1.069-5.911-1.47-5.794-1.853-5.794-1.853-5.626-2.303-5.477-2.672L-5.108-3.64-4.891-4.224C-4.791-4.492-4.625-4.492-4.525-4.224L-4.058-3.022C-4.058-3.022-3.556-1.57-3.806-.735-3.89-.467-4.091-.234-4.091-.15-4.091-.067-3.839 0-3.54 0Z" fill="#3a3a33"/>
<path transform="matrix(1,0,0,-1,284.9294,173.30501)" d="M0 0C-2.182-5.652-5.456-11.794-10.028-11.794-11.795-11.794-12.937-9.645-12.937-6.88-12.937-6.401-12.907-5.925-12.857-5.452-12.736-5.119-12.688-4.765-12.707-4.412-11.617 1.654-6.779 6.818-3.065 6.818-1.144 6.818 1.559 4.054 0 0M-50.365-7.618C-52.999-10.79-55.632-12.706-57.425-12.706-58.153-12.706-58.265-10.525-58.265-9.667-58.265-3.059-53.839 7.71-47.788 7.71-46.331 7.71-43.139 6.85-44.203 3.217-45.491-.417-47.732-4.447-50.365-7.618M-160.838-7.618C-163.471-10.79-166.104-12.706-167.897-12.706-168.625-12.706-168.737-10.525-168.737-9.667-168.737-3.059-164.311 7.71-158.26 7.71-156.804 7.71-153.611 6.85-154.675 3.217-155.963-.417-158.204-4.447-160.838-7.618M19.276 .737C17.925 1.965 16.99 1.167 16.159 .184 11.119-5.775 5.819-12.347 3.844-12.347 2.806-12.347 1.559-10.811 2.754-7.371 4.416-2.703 7.949 3.747 9.612 8.17 10.08 9.399 5.975 10.627 5.351 9.276 5.092 8.785 4.676 7.924 4.416 7.617 4.156 7.31 3.533 6.204 3.273 6.818 2.39 8.907 0 10.627-2.546 10.627-9.964 10.627-16.171 2.236-17.039-4.373-18.716-6.836-20.767-9.754-22.578-11.384-23.083-11.846-23.867-11.186-23.587-10.459-22.298-6.627-19.609-1.143-18.321 3.151-16.64 8.766-17.592 12.929-21.963 12.929-24.203 12.929-26.389 11.673-28.237 10.088-28.629 9.757-29.134 9.956-29.302 10.484-29.414 11.013-29.806 11.542-30.311 11.805-31.263 12.4-32.44 11.872-32.888 10.748-33.197 9.984-36.533 2.179-39.373-4.455-41.038-6.873-42.418-8.751-43.586-10.129-46.836-13.961-46.724-12.772-45.883-10.261-45.436-8.874-44.651-7.222-43.754-5.57-43.642-5.372-43.531-5.174-43.474-4.976-43.474-4.844-43.474-4.778-43.419-4.711-42.242-2.597-41.234-.417-40.505 1.631-38.376 7.644-42.802 12.334-47.788 12.334-54.543 12.334-59.37 4.448-61.279-3.046-61.3-3.074-61.325-3.096-61.345-3.125-65.099-8.345-69.525-12.706-75.353-12.706-77.145-12.706-78.21-11.781-78.21-8.742-78.21-7.881-78.104-6.937-77.919-5.953-77.673-5.521-77.563-5.009-77.59-4.502-76.984-2.185-75.969 .264-74.68 2.424-73.055 5.133-70.366 8.238-67.565 8.238-66.668 8.238-64.876 7.577-65.884 5.529-66.444 4.406-66.164 3.018-65.211 2.358-64.315 1.697-63.082 2.027-62.522 3.151-59.945 8.238-63.307 12.863-67.565 12.863-71.767 12.863-75.464 9.163-77.873 5.067-79.531 2.363-80.787-.733-81.491-3.711-82.423-4.827-83.415-5.763-84.37-6.495-84.818-6.826-85.379-6.495-85.435-5.901-85.547-4.447-85.715-3.059-85.883-1.738-86.443 4.076-85.323 7.115-84.65 8.436-84.09 9.229-84.202 9.097-84.09 9.229-83.306 10.088-83.306 11.542-84.034 12.4-84.706 13.325-85.939 13.458-86.724 12.599-87.316 12.027-94.693 .524-97.052-2.827-97.165-2.934-97.273-3.053-97.367-3.192-100.728-8.081-102.858-10.459-104.09-11.649-104.594-12.177-105.322-11.582-105.155-10.79-104.987-10.129-104.707-9.204-104.314-8.081-103.25-5.24-101.737-1.738-100.112 1.961-99.048 4.406-97.927 6.916-96.919 9.427-96.414 10.551-96.807 11.938-97.759 12.533-98.767 13.127-99.944 12.599-100.448 11.409-101.456 8.965-102.521 6.454-103.585 4.076-104.714 1.51-105.704-.759-106.537-2.779-106.644-2.88-106.744-2.994-106.833-3.125-110.587-8.345-115.013-12.706-120.84-12.706-122.632-12.706-123.697-11.781-123.697-8.742-123.697-7.653-123.527-6.433-123.236-5.163-123.234-5.156-123.233-5.149-123.231-5.142-122.655-2.641-121.576 .063-120.167 2.424-118.543 5.133-115.853 8.238-113.052 8.238-112.155 8.238-110.363 7.577-111.372 5.529-111.932 4.406-111.652 3.018-110.699 2.358-109.803 1.697-108.57 2.027-108.01 3.151-105.432 8.238-108.794 12.863-113.052 12.863-117.254 12.863-120.952 9.163-123.361 5.067-124.983 2.421-126.218-.6-126.931-3.519-128.697-6.126-131.023-9.559-133.05-11.384-133.555-11.846-134.339-11.186-134.059-10.459-132.77-6.627-130.081-1.143-128.793 3.151-127.112 8.766-128.064 12.929-132.435 12.929-134.675 12.929-136.861 11.673-138.709 10.088-139.101 9.757-139.606 9.956-139.774 10.484-139.886 11.013-140.278 11.542-140.783 11.805-141.735 12.4-142.912 11.872-143.36 10.748-143.669 9.984-147.005 2.179-149.845-4.455-151.51-6.873-152.89-8.751-154.058-10.129-157.308-13.961-157.196-12.772-156.355-10.261-155.908-8.874-155.123-7.222-154.226-5.57-154.114-5.372-154.003-5.174-153.946-4.976-153.946-4.844-153.946-4.778-153.891-4.711-152.714-2.597-151.706-.417-150.977 1.631-148.848 7.644-153.274 12.334-158.26 12.334-165.043 12.334-169.882 4.383-171.775-3.14-171.807-3.18-171.844-3.214-171.874-3.258-173.442-5.504-176.468-9.6-178.989-11.582-179.549-12.045-180.221-11.384-179.997-10.658-178.484-6.429-175.179-.285-175.179 3.283-175.179 6.256-177.644 7.511-179.717 8.569-179.997 8.701-180.165 9.097-180.109 9.493-179.941 10.088-179.885 10.682-179.885 11.211-179.885 14.382-181.678 16.298-183.695 16.298-185.6 16.298-187.505 14.25-187.505 11.277-187.505 9.692-186.944 8.37-185.824 7.181-185.6 6.916-185.544 6.52-185.712 6.19-187.337 3.085-189.634-.549-191.426-3.324-192.099-4.381-191.931-5.769-191.034-6.561-190.194-7.354-188.961-7.156-188.289-6.099-185.936-2.399-183.751 1.036-182.238 4.01-182.07 4.34-181.678 4.538-181.398 4.34-180.726 4.01-179.997 3.679-179.493 3.349-179.269 3.151-179.101 2.821-179.213 2.424-179.549 .839-180.726-1.871-181.622-3.919-183.751-8.939-185.432-12.903-184.087-15.547-183.751-16.208-182.855-17.33-181.062-17.33-178.377-17.33-175.212-14.335-172.589-11.174-172.259-14.64-170.745-17.33-167.897-17.33-165.656-17.33-163.415-16.009-161.51-14.423-161.174-14.159-160.669-14.291-160.501-14.754-159.941-16.273-158.709-17.33-156.915-17.33-156.006-17.33-155.021-16.91-153.887-16.004-153.706-16.414-153.423-16.768-153.052-17-152.1-17.595-150.923-17.133-150.419-16.009-147.954-10.459-144.649-4.05-141.175 .839-136.973 6.719-130.081 12.533-132.547 4.538-134.9-3.059-140.335-11.649-138.206-15.613-137.869-16.273-137.084-17.33-135.404-17.33-132.829-17.33-130.367-15.242-127.38-11.355-126.645-15.198-124.225-17.33-120.84-17.33-116.449-17.33-112.709-15.437-109.416-12.481-109.462-13.628-109.284-14.593-108.852-15.414-108.46-16.141-107.564-17.396-105.602-17.396-104.034-17.396-102.297-16.141-99.888-13.432-98.397-11.737-96.6-9.379-94.646-6.54-94.518-6.433-94.395-6.313-94.287-6.165-93.839-5.504-92.55-3.588-91.038-1.342-90.645-.747-89.917-1.012-89.861-1.738-89.804-1.937-89.804-2.134-89.804-2.333V-2.399C-89.524-4.381-89.244-6.627-89.132-8.742-89.132-9.072-89.301-9.402-89.581-9.534-91.822-10.591-94.343-11.846-94.343-14.952-94.343-17.198-92.886-18.916-90.813-18.916-88.124-18.916-85.995-17-85.379-12.772-85.323-12.507-85.21-12.309-84.987-12.177-84.048-11.637-83.056-10.991-82.054-10.21-81.608-14.772-79.06-17.33-75.353-17.33-70.15-17.33-65.862-14.67-62.148-10.734-61.906-14.409-60.391-17.33-57.425-17.33-55.184-17.33-52.943-16.009-51.038-14.423-50.702-14.159-50.197-14.291-50.029-14.754-49.469-16.273-48.237-17.33-46.443-17.33-45.534-17.33-44.549-16.91-43.415-16.004-43.234-16.414-42.951-16.768-42.58-17-41.628-17.595-40.451-17.133-39.947-16.009-37.482-10.459-34.177-4.05-30.703 .839-26.5 6.719-19.609 12.533-22.075 4.538-24.428-3.059-29.862-11.649-27.734-15.613-27.397-16.273-26.612-17.33-24.932-17.33-22.28-17.33-19.749-15.12-16.639-11.005-15.88-14.179-14.131-16.463-10.496-16.463-7.274-16.463-3.845-12.532-2.442-11.426-2.131-11.18-2.027-10.996-1.975-11.18-1.144-13.085 .26-16.832 3.74-16.832 9.3-16.832 14.496-7.924 18.86-3.071 19.848-2.028 20.419-.369 19.276 .737" fill="#3a3a33"/>
<path transform="matrix(1,0,0,-1,60.1721,162.95291)" d="M0 0C1.177-.396 2.354-1.057 3.418-1.85 4.034-2.312 3.642-3.436 2.914-3.303 1.569-2.973 .336-2.312-.616-1.387-1.176-.859-.728 .264 0 0M22.915 .792C22.803 .529 22.523 .396 22.299 .396H18.825C17.705 .396 16.808-.661 16.808-1.982 16.808-3.237 17.705-4.228 18.77-4.228H19.61C20.114-4.228 20.45-4.889 20.226-5.418 18.153-9.977 15.631-15.262 12.662-19.952 7.844-27.682 3.194-31.712-1.176-31.977-9.749-32.571-15.687-25.106-15.687-14.866-15.687-8.391-12.101-2.115-7.003-.066-6.723 .066-6.387-.132-6.218-.462-3.809-5.748 .673-8.787 6.444-7.928 6.779-7.862 7.116-8.126 7.171-8.588 7.676-13.147 5.435-19.49-1.12-21.208-2.184-21.538-2.857-22.793-2.633-24.049-2.353-25.238-1.344-26.031-.28-25.766 8.685-23.388 12.158-14.072 10.925-7.004 10.87-6.607 10.982-6.276 11.262-6.079 12.102-5.616 12.887-4.955 13.559-4.228 16.08-1.718 17.425 1.783 17.425 5.616 17.425 8.061 16.584 10.769 15.184 12.884 13.447 15.46 11.037 16.913 8.404 16.913 7.284 16.979 6.387 15.922 6.387 14.667 6.387 13.346 7.228 12.289 8.348 12.289 10.197 12.289 11.43 11.099 12.102 10.042 13.167 8.457 13.502 6.673 13.502 5.616 13.502 3.106 12.662 .925 11.037-.727 10.645-1.123 10.197-1.52 9.749-1.85 9.468-2.048 9.077-1.916 8.853-1.586 8.124-.462 7.228 .595 6.219 1.52 3.53 3.832 .113 5.153-3.249 5.219-3.586 5.219-3.866 5.484-3.921 5.88-4.986 15.13 2.073 21.868 10.197 21.868 14.847 21.868 21.459 17.244 28.238 13.808 28.63 13.61 28.798 13.015 28.574 12.619 26.388 8.721 24.54 4.625 22.915 .792M36.193 16.583C38.098 18.764 40.171 20.349 42.804 20.547 44.597 20.68 46.67 19.886 46.67 17.773 46.67 15.262 43.589 14.535 41.404 14.535 39.779 14.535 38.154 14.799 36.53 15.262 36.025 15.394 35.857 16.187 36.193 16.583M35.465-1.916C35.465-.661 34.568 .396 33.504 .396H28.182C27.677 .396 27.397 .991 27.621 1.52 29.078 4.757 30.759 8.258 32.496 11.232 32.664 11.562 33 11.694 33.28 11.562 35.969 10.571 38.715 9.91 41.404 9.91H41.459C47.007 9.91 50.592 13.015 50.592 17.773 50.592 22.463 46.95 25.436 42.581 25.172 38.042 24.841 34.681 21.803 31.711 17.706 31.544 17.442 31.207 17.31 30.983 17.442 23.476 21.01 16.248 26.493 10.197 26.493-.447 26.493-9.244 17.178-7.787 5.153-7.731 4.823-7.899 4.427-8.235 4.294-14.847 1.718-19.609-6.21-19.609-14.866-19.609-27.881-11.653-37.329-.952-36.602 5.939-36.139 11.71-29.268 15.856-22.728 19.61-16.715 22.691-9.91 24.932-4.69 25.044-4.427 25.268-4.228 25.548-4.228H33.504C34.568-4.228 35.521-3.171 35.465-1.916" fill="#3a3a33"/>
<path transform="matrix(1,0,0,-1,190.4196,158.52602)" d="M0 0 .168 .33C.785 1.387 .56 2.84-.336 3.568-1.232 4.294-2.465 3.964-3.081 2.907L-3.249 2.577C-3.866 1.519-3.641 .066-2.745-.661-1.849-1.388-.616-1.058 0 0" fill="#3a3a33"/>
<path transform="matrix(1,0,0,-1,135.1016,260.6346)" d="M0 0C-.213-.757 .396-1.595 1.953-2.511 2.741-2.941 3.766-3.39 5.032-3.86 6.288-4.359 7.843-4.715 9.615-5.168 10.421-5.385 11.325-5.501 12.268-5.638 13.213-5.765 14.202-5.9 15.221-6.006 16.704-6.116 18.195-6.224 19.611-6.368 21.041-6.446 22.397-6.556 23.608-6.749L24.18-6.846C24.472-6.89 24.761-6.929 25.031-6.982 25.092-6.996 25.153-6.988 25.212-6.97 32.914-7.952 40.74-8.061 48.448-7.086 46.978-7.537 45.668-7.782 44.454-8.082 43.851-8.216 43.269-8.368 42.69-8.48 42.109-8.59 41.536-8.699 40.955-8.81 39.791-9.019 38.599-9.341 37.257-9.576 37.133-9.602 36.305-9.775 35.105-10.027 34.504-10.153 33.806-10.332 33.056-10.486 32.306-10.63 31.501-10.794 30.682-10.976 29.863-11.153 29.029-11.367 28.226-11.562 27.425-11.74 26.651-11.935 25.951-12.148 24.551-12.569 23.435-13.086 22.992-13.642 22.761-13.937 22.687-14.27 22.782-14.605 23.021-15.48 24.343-15.848 26.886-15.771 29.422-15.665 33.208-14.94 38.117-13.326 38.235-13.29 38.353-13.242 38.47-13.2 39.426-12.85 40.38-12.459 41.317-12.053 42.254-11.644 43.177-11.239 44.068-10.758 45.578-9.98 47.112-9.19 48.616-8.416 50.107-7.615 51.588-6.972 53.038-6.415 58.49-5.509 63.845-4.032 69.039-2.135 68.023-3.011 67.099-3.807 66.225-4.492 65.328-5.149 64.514-5.746 63.743-6.311 63.228-6.68 62.731-7.036 62.24-7.388 61.738-7.722 61.243-8.051 60.741-8.384 59.734-9.077 58.702-9.786 57.547-10.58 57.439-10.654 56.723-11.142 55.684-11.851 54.644-12.576 53.278-13.557 51.855-14.508 50.437-15.469 48.988-16.593 47.821-17.501 46.66-18.439 45.801-19.326 45.629-20.029 45.541-20.395 45.618-20.728 45.859-20.99 46.168-21.327 46.682-21.459 47.421-21.374 48.158-21.284 49.124-21.01 50.305-20.406 51.488-19.816 52.9-19.012 54.515-17.915 55.318-17.34 56.173-16.699 57.075-15.993 57.976-15.282 58.93-14.539 59.905-13.628L60.186-13.373C61.711-11.973 63.156-10.489 64.453-8.907 66.703-6.307 68.788-3.501 71.035-1.389 72.418-.804 73.821-.267 75.186 .359 74.466-1.136 73.807-2.226 73.228-3.238 72.47-4.523 71.816-5.631 70.984-7.043 70.788-7.381 69.824-9.05 68.905-10.843 67.984-12.605 67.088-14.437 67.348-15.203 67.447-15.493 67.664-15.614 67.829-15.665 68.292-15.807 68.873-15.593 69.751-14.523 70.604-13.406 71.778-11.439 73.206-8.121L73.288-7.919C73.741-6.813 74.118-5.649 74.462-4.533 74.75-3.601 75.03-2.66 75.333-1.756 75.628-.836 75.936 .071 76.304 .888L78.494 1.925C79.221 2.276 79.923 2.68 80.638 3.055L82.775 4.201 84.855 5.448C84.701 4.627 84.544 3.972 84.397 3.374 84.188 2.512 83.996 1.77 83.82 .838 83.765 .442 83.063-3.192 83.958-4.251 84.156-4.477 84.423-4.587 84.733-4.569 85.001-4.554 85.254-4.435 85.462-4.227 85.865-3.824 86.095-3.084 86.212-2.202 86.325-1.311 86.314-.257 86.272 .739L86.267 .861C86.239 1.552 86.127 2.254 86.017 2.931 85.837 4.022 85.67 5.049 85.77 5.998 86.669 6.513 87.519 7.108 88.381 7.683 89.234 8.27 90.118 8.813 90.946 9.437L90.499 10.079C89.678 9.46 88.801 8.922 87.955 8.339 87.1 7.769 86.257 7.179 85.366 6.669 85.306 6.663 85.247 6.65 85.196 6.619 85.144 6.587 85.101 6.542 85.068 6.489 83.86 5.785 82.693 5.007 81.445 4.376 81.411 4.388 81.377 4.401 81.339 4.404 80.118 4.475 78.881 4.747 77.666 5.126 76.443 5.517 75.218 6.061 74.053 6.581 72.683 7.201 71.319 7.829 69.964 8.418L69.718 8.523C68.355 9.104 67.174 9.605 66.146 10.019 65.104 10.469 64.212 10.841 63.452 11.11 62.692 11.381 62.063 11.556 61.544 11.635 61.024 11.719 60.604 11.74 60.289 11.641 59.959 11.543 59.735 11.335 59.608 11.023 59.472 10.689 59.479 10.308 59.633 9.92 59.88 9.298 60.537 8.648 61.414 8.028 61.852 7.72 62.347 7.411 62.866 7.132 63.381 6.865 63.924 6.614 64.468 6.383 65.554 5.921 66.643 5.539 67.486 5.268 68.329 4.999 68.905 4.887 68.995 4.859 70.962 4.423 72.618 4.152 74.49 4.045 76.037 3.94 77.816 3.772 80.15 3.682 75.532 1.233 70.713-.824 65.757-2.466 64.301-1.827 62.901-.792 61.594 .229 60.806 .84 59.993 1.47 59.209 2.079L59.059 2.191C57.277 3.526 55.983 4.479 55.017 5.067 54.048 5.675 53.401 5.953 52.984 5.867 52.824 5.837 52.698 5.756 52.6 5.629 52.507 5.507 52.405 5.296 52.454 4.98 52.574 4.204 53.776 3.035 55.077 2.027 56.367 1.039 57.738 .278 58.023 .111 59.221-.552 60.231-1.052 61.394-1.522 62.289-1.889 63.292-2.3 64.568-2.823L61.914-3.618C61.031-3.89 60.124-4.072 59.23-4.304 58.481-4.154 57.732-3.955 56.99-3.718 56.247-3.481 55.498-3.147 54.767-2.822 54.034-2.489 53.311-2.131 52.603-1.762L51.552-1.201 50.514-.585C48.945 .363 47.325 1.343 45.768 2.284L45.489 2.452C43.956 3.398 42.636 4.145 41.479 4.898 40.324 5.64 39.338 6.248 38.489 6.726 36.794 7.726 35.64 8.278 34.862 8.275 34.424 8.285 34.108 8.117 33.901 7.828 33.72 7.568 33.653 7.236 33.711 6.87 33.821 6.153 34.454 5.303 35.385 4.411 36.315 3.536 37.545 2.537 38.812 1.762 40.076 .973 41.373 .261 42.387-.266 43.398-.746 44.121-1.045 44.229-1.093 45.398-1.573 46.478-2.01 47.544-2.339 48.609-2.659 49.667-2.948 50.82-3.257 51.728-3.519 52.687-3.72 53.76-3.957 54.832-4.184 56.029-4.491 57.382-4.757 52.545-5.814 47.634-6.503 42.696-6.832 41.17-6.6 39.619-6.175 38.096-5.652 36.573-5.054 35.077-4.363 33.64-3.686 31.967-2.79 30.28-1.938 28.656-1.119L28.357-.966C22.922 1.741 19.798 3.647 17.88 4.052 16.891 4.279 16.266 4.193 15.922 3.703 15.728 3.43 15.662 3.096 15.734 2.735 15.991 1.321 18.62-.594 21.377-2.078 22.757-2.777 24.143-3.459 25.228-3.872 26.313-4.286 27.079-4.551 27.194-4.591 27.814-4.804 28.406-4.999 28.983-5.18 29.565-5.324 30.128-5.464 30.683-5.601 31.802-5.851 32.901-6.13 34.092-6.325 35.301-6.526 36.603-6.744 38.097-6.993 33.623-6.985 29.149-6.73 24.713-6.12 18.759-4.816 14.557-3.385 10.438-1.922L10.28-1.861C9.001-1.354 7.716-.93 6.55-.478 5.231 .03 4.013 .43 2.988 .641 1.982 .896 1.165 .955 .633 .718 .311 .576 .091 .327 0 0" fill="#9eb795"/>
<path transform="matrix(1,0,0,-1,81.9707,191.12822)" d="M0 0C-.726-.177-1.085-1.045-1.074-2.712-1.061-3.544-.998-4.58-.72-5.803-.593-6.417-.441-7.081-.262-7.796-.091-8.512 .119-9.277 .406-10.083 .91-11.557 1.561-13.247 2.424-14.967 3.014-16.218 3.606-17.476 4.233-18.659 4.845-19.847 5.335-21.013 5.819-22.051L6.029-22.549C6.132-22.805 6.23-23.058 6.313-23.302 6.329-23.357 6.365-23.403 6.407-23.442 9.221-30.119 12.997-36.399 17.46-42.169 16.432-41.161 15.491-40.297 14.71-39.426 13.917-38.569 13.179-37.77 12.421-36.952 11.676-36.121 10.928-35.258 10.037-34.317 9.846-34.156 7.904-31.973 5.719-29.678 4.672-28.511 3.495-27.347 2.485-26.409 1.485-25.469 .557-24.795-.129-24.7-.487-24.651-.796-24.743-1.022-24.971-1.59-25.548-1.343-26.814-.032-28.811 .65-29.796 1.551-30.981 2.766-32.315 4.039-33.619 5.479-35.148 7.39-36.712L7.659-36.94C8.398-37.554 9.133-38.168 9.937-38.723 10.74-39.279 11.549-39.815 12.339-40.332 15.067-42.102 17.943-43.709 20.223-45.546 23.621-49.482 27.379-53.126 31.439-56.425 28.969-55.653 27.157-54.809 25.451-54.103 24.358-53.617 23.368-53.117 22.314-52.636 21.787-52.393 21.253-52.148 20.699-51.894 20.152-51.63 19.586-51.358 18.988-51.07 18.874-51.018 18.119-50.675 17.024-50.177 15.915-49.687 14.523-48.983 13.005-48.316 11.473-47.662 9.981-46.917 8.615-46.436 7.261-45.948 6.111-45.668 5.466-45.843 5.124-45.938 4.888-46.153 4.784-46.469 4.507-47.285 5.372-48.359 7.423-49.771 9.493-51.153 12.863-52.806 17.607-54.378L17.944-54.493C19.834-55.067 21.786-55.508 23.665-55.864 25.295-56.143 26.923-56.399 28.481-56.7 30.08-56.957 31.606-57.261 33.004-57.694L36.434-60.227C34.886-60.299 33.648-60.305 32.542-60.3 31.113-60.306 29.917-60.234 28.349-60.235 27.985-60.225 26.115-60.258 24.235-60.308 22.359-60.365 20.401-60.514 19.902-61.069 19.713-61.281 19.719-61.51 19.758-61.664 19.866-62.099 20.328-62.459 21.631-62.668 22.907-62.894 25.138-62.871 28.533-62.511L28.735-62.489C29.839-62.369 30.996-62.113 32.076-61.88 33.898-61.469 35.687-61.072 37.406-60.882 38.689-61.717 39.933-62.612 41.267-63.372 42.583-64.16 43.887-64.967 45.256-65.667 44.506-65.921 43.891-66.096 43.329-66.252 42.518-66.483 41.838-66.633 40.978-66.933 40.625-67.071 37.298-68.179 36.859-69.38 36.768-69.643 36.806-69.907 36.97-70.146 37.112-70.353 37.331-70.501 37.602-70.572 38.664-70.837 40.454-69.967 42.064-68.962L42.161-68.902C42.716-68.562 43.24-68.151 43.744-67.751 44.555-67.107 45.319-66.502 46.149-66.147L47.448-66.844 48.78-67.483 51.447-68.753 51.761-68.1 49.115-66.842 47.795-66.208 46.506-65.516C46.472-65.47 46.433-65.429 46.383-65.403 46.332-65.375 46.274-65.362 46.215-65.36 45.042-64.736 43.868-64.113 42.743-63.41 42.737-63.378 42.732-63.345 42.715-63.313 42.187-62.299 41.804-61.202 41.543-60.034 41.291-58.853 41.133-57.642 41-56.468 40.833-55.107 40.73-53.673 40.547-52.333L40.513-52.089C40.12-49.409 39.912-47.332 39.609-45.875 39.294-44.434 39.003-43.484 38.525-43.08 38.282-42.862 38.001-42.781 37.681-42.823 37.34-42.869 37.029-43.05 36.786-43.351 36.007-44.307 35.936-46.667 36.215-48.861 36.515-51.012 37.091-53.043 37.146-53.198 37.741-54.972 38.336-56.399 39.125-57.983 39.457-58.635 39.808-59.325 40.199-60.093 40.588-60.875 41.021-61.739 41.547-62.694 37.322-60.098 33.322-57.164 29.598-53.931 29.411-52.479 29.578-50.889 29.777-49.379 29.912-48.454 30.07-47.501 30.166-46.594L30.184-46.424C30.605-42.401 30.831-40.452 30.259-39.871 30.154-39.759 30.026-39.696 29.872-39.677 29.726-39.659 29.502-39.676 29.266-39.861 28.688-40.314 28.321-41.803 28.136-43.298 28.041-44.044 27.99-44.789 27.964-45.387 27.945-45.978 27.961-46.411 27.964-46.561 27.999-47.826 28.113-48.83 28.259-50.008 28.357-50.913 28.542-51.868 28.723-53.15 27.397-52.013 26.169-50.777 24.927-49.555 23.978-46.865 23.762-43.781 23.789-40.844 23.762-39.148 23.864-37.37 23.86-35.723L23.859-35.426C23.83-33.81 23.939-32.327 23.951-31.087 23.979-29.846 24.004-28.772 24.025-27.85 24.029-26.94 23.991-26.201 23.902-25.611 23.842-25.006 23.727-24.553 23.554-24.235 23.357-23.875 23.086-23.69 22.737-23.662 22.431-23.638 22.125-23.736 21.854-23.949 20.819-24.751 20.181-27.612 20.098-30.381 20.009-31.784 20.081-33.131 20.161-34.17 20.237-35.211 20.32-35.94 20.332-36.049 20.479-37.219 20.708-38.24 20.927-39.262 21.042-39.77 21.158-40.277 21.287-40.786 21.436-41.286 21.587-41.792 21.743-42.316 21.997-43.152 22.266-44.037 22.564-45.015 22.898-45.991 23.263-47.061 23.676-48.27 20.434-44.911 17.535-41.252 14.919-37.423 14.635-36.765 14.372-36.089 14.169-35.378 13.979-34.66 13.819-33.927 13.682-33.188 13.55-32.445 13.414-31.712 13.341-30.957 13.281-30.206 13.22-29.454 13.16-28.709 13.002-26.999 13.007-25.201 12.859-23.54L12.833-23.234C12.688-20.459 12.571-18.205 12.478-16.417 12.43-15.535 12.327-14.788 12.257-14.136 12.188-13.483 12.088-12.945 11.955-12.512 11.678-11.61 11.26-11.159 10.696-11.105 10.375-11.075 10.069-11.175 9.812-11.396 9.318-11.82 8.99-12.772 8.782-13.992 8.686-14.599 8.587-15.283 8.571-15.98 8.555-16.676 8.563-17.404 8.588-18.125 8.62-18.844 8.639-19.567 8.719-20.227 8.8-20.887 8.886-21.503 8.966-22.038 9.126-23.107 9.262-23.85 9.283-23.961 9.836-26.318 10.379-28.19 11.2-30.282 11.397-30.818 11.603-31.373 11.82-31.96 12.059-32.539 12.311-33.149 12.581-33.801 12.027-32.912 11.479-32.019 10.994-31.092 10.497-30.173 9.978-29.263 9.498-28.335 8.591-26.454 7.647-24.588 6.876-22.649 6.651-21.978 6.433-21.33 6.222-20.702 6.042-20.065 5.866-19.448 5.696-18.848 5.354-17.651 5.019-16.531 4.786-15.432 4.535-14.339 4.267-13.303 4.048-12.282 3.85-11.258 3.656-10.259 3.463-9.261L3.433-9.107C3.171-7.862 3.033-6.609 2.793-5.475 2.514-4.193 2.312-3.022 2.016-2.1 1.722-1.177 1.359-.496 .9-.179 .623 .014 .311 .077 0 0" fill="#9eb795"/>
<path transform="matrix(1,0,0,-1,209.8241,84.58533)" d="M0 0C.213 .757-.396 1.595-1.953 2.511-2.741 2.941-3.766 3.39-5.032 3.86-6.288 4.359-7.843 4.715-9.615 5.168-10.421 5.385-11.325 5.501-12.268 5.638-13.213 5.765-14.202 5.9-15.221 6.006-16.704 6.116-18.195 6.224-19.611 6.368-21.041 6.446-22.398 6.556-23.608 6.749L-24.18 6.846C-24.472 6.89-24.761 6.929-25.032 6.982-25.092 6.996-25.153 6.988-25.212 6.97-32.914 7.952-40.74 8.061-48.448 7.086-46.978 7.537-45.668 7.782-44.454 8.082-43.851 8.216-43.269 8.368-42.69 8.48-42.109 8.59-41.536 8.699-40.955 8.81-39.791 9.019-38.599 9.341-37.257 9.576-37.133 9.602-36.305 9.775-35.105 10.027-34.504 10.153-33.806 10.332-33.056 10.485-32.306 10.63-31.501 10.794-30.682 10.976-29.863 11.153-29.029 11.367-28.226 11.562-27.425 11.74-26.651 11.935-25.951 12.148-24.551 12.569-23.435 13.086-22.992 13.642-22.761 13.937-22.687 14.27-22.782 14.605-23.021 15.48-24.343 15.848-26.886 15.77-29.422 15.665-33.208 14.94-38.117 13.326-38.235 13.29-38.353 13.241-38.47 13.2-39.426 12.85-40.38 12.459-41.317 12.053-42.254 11.644-43.177 11.239-44.068 10.758-45.578 9.98-47.112 9.19-48.616 8.416-50.107 7.615-51.587 6.972-53.038 6.415-58.49 5.509-63.845 4.032-69.039 2.135-68.023 3.011-67.099 3.807-66.225 4.492-65.328 5.149-64.514 5.746-63.743 6.311-63.228 6.68-62.731 7.036-62.24 7.388-61.738 7.722-61.243 8.051-60.741 8.384-59.734 9.077-58.702 9.786-57.547 10.58-57.439 10.654-56.723 11.142-55.684 11.851-54.644 12.576-53.278 13.557-51.855 14.508-50.437 15.469-48.988 16.593-47.821 17.501-46.66 18.439-45.801 19.326-45.629 20.029-45.541 20.395-45.618 20.728-45.859 20.99-46.168 21.327-46.682 21.459-47.421 21.374-48.158 21.284-49.124 21.01-50.305 20.406-51.488 19.816-52.9 19.012-54.515 17.915-55.318 17.34-56.173 16.699-57.075 15.993-57.976 15.282-58.93 14.539-59.905 13.628L-60.186 13.373C-61.711 11.973-63.156 10.489-64.453 8.907-66.703 6.307-68.788 3.501-71.035 1.389-72.418 .804-73.821 .267-75.186-.359-74.466 1.136-73.807 2.226-73.228 3.238-72.47 4.523-71.816 5.631-70.984 7.043-70.788 7.381-69.824 9.05-68.905 10.843-67.984 12.605-67.088 14.437-67.348 15.203-67.447 15.493-67.664 15.614-67.829 15.665-68.292 15.807-68.873 15.593-69.751 14.523-70.604 13.406-71.778 11.439-73.206 8.121L-73.288 7.919C-73.741 6.813-74.118 5.65-74.462 4.532-74.75 3.601-75.03 2.66-75.333 1.756-75.628 .836-75.936-.071-76.304-.888L-78.494-1.925C-79.221-2.276-79.923-2.68-80.638-3.055L-82.775-4.201-84.855-5.448C-84.701-4.627-84.544-3.972-84.397-3.374-84.188-2.512-83.996-1.77-83.82-.838-83.765-.442-83.063 3.192-83.958 4.251-84.156 4.477-84.423 4.587-84.733 4.569-85.001 4.554-85.254 4.435-85.462 4.227-85.866 3.824-86.095 3.084-86.212 2.202-86.325 1.311-86.314 .257-86.272-.739L-86.267-.861C-86.239-1.552-86.127-2.254-86.016-2.931-85.837-4.023-85.67-5.049-85.77-5.998-86.669-6.513-87.519-7.108-88.381-7.683-89.234-8.27-90.118-8.813-90.946-9.437L-90.499-10.079C-89.678-9.46-88.801-8.922-87.955-8.339-87.1-7.769-86.257-7.179-85.366-6.669-85.305-6.663-85.247-6.65-85.196-6.619-85.144-6.587-85.101-6.542-85.068-6.489-83.86-5.785-82.693-5.007-81.445-4.376-81.411-4.388-81.377-4.402-81.34-4.404-80.118-4.475-78.881-4.747-77.666-5.126-76.443-5.517-75.218-6.061-74.053-6.581-72.683-7.201-71.319-7.829-69.964-8.418L-69.718-8.523C-68.355-9.104-67.174-9.605-66.146-10.019-65.104-10.469-64.212-10.841-63.452-11.11-62.692-11.381-62.063-11.556-61.544-11.635-61.024-11.719-60.604-11.74-60.289-11.641-59.959-11.543-59.736-11.335-59.608-11.023-59.472-10.689-59.479-10.308-59.633-9.92-59.88-9.298-60.537-8.648-61.414-8.028-61.852-7.72-62.347-7.411-62.867-7.132-63.381-6.865-63.924-6.614-64.468-6.383-65.554-5.921-66.643-5.539-67.486-5.268-68.329-4.999-68.905-4.887-68.995-4.859-70.962-4.423-72.618-4.152-74.49-4.045-76.037-3.94-77.816-3.772-80.15-3.682-75.532-1.233-70.713 .824-65.757 2.466-64.301 1.827-62.901 .792-61.594-.229-60.806-.84-59.993-1.47-59.209-2.079L-59.059-2.191C-57.277-3.526-55.983-4.479-55.017-5.067-54.048-5.675-53.401-5.953-52.984-5.867-52.824-5.837-52.698-5.756-52.6-5.629-52.507-5.507-52.405-5.296-52.455-4.98-52.574-4.204-53.776-3.035-55.077-2.027-56.367-1.039-57.738-.278-58.023-.111-59.221 .552-60.232 1.052-61.394 1.522-62.289 1.889-63.292 2.3-64.568 2.823L-61.914 3.618C-61.031 3.89-60.124 4.072-59.231 4.304-58.481 4.154-57.732 3.955-56.989 3.718-56.247 3.481-55.498 3.147-54.767 2.822-54.034 2.489-53.311 2.131-52.603 1.762L-51.551 1.201-50.514 .585C-48.945-.364-47.325-1.343-45.768-2.284L-45.489-2.452C-43.956-3.398-42.636-4.145-41.48-4.898-40.324-5.64-39.338-6.248-38.489-6.726-36.794-7.726-35.64-8.278-34.862-8.275-34.424-8.285-34.108-8.117-33.901-7.828-33.72-7.568-33.653-7.236-33.711-6.87-33.821-6.153-34.454-5.303-35.385-4.411-36.315-3.536-37.546-2.537-38.812-1.762-40.076-.973-41.373-.261-42.387 .266-43.398 .746-44.121 1.045-44.229 1.093-45.397 1.573-46.478 2.01-47.544 2.339-48.609 2.659-49.668 2.948-50.82 3.257-51.728 3.519-52.687 3.72-53.76 3.957-54.832 4.184-56.029 4.491-57.382 4.757-52.545 5.814-47.634 6.503-42.696 6.832-41.17 6.6-39.619 6.175-38.097 5.652-36.572 5.054-35.077 4.363-33.64 3.686-31.967 2.79-30.28 1.938-28.656 1.119L-28.357 .966C-22.922-1.741-19.798-3.647-17.88-4.052-16.891-4.279-16.266-4.193-15.922-3.703-15.728-3.43-15.662-3.096-15.734-2.735-15.991-1.321-18.62 .594-21.377 2.078-22.757 2.777-24.143 3.459-25.228 3.872-26.313 4.286-27.079 4.551-27.194 4.591-27.814 4.804-28.406 4.999-28.983 5.179-29.565 5.324-30.128 5.464-30.683 5.601-31.802 5.851-32.901 6.13-34.092 6.325-35.301 6.526-36.603 6.743-38.097 6.993-33.623 6.985-29.149 6.73-24.713 6.12-18.759 4.816-14.557 3.385-10.438 1.922L-10.28 1.861C-9.001 1.354-7.716 .93-6.55 .478-5.231-.03-4.013-.43-2.988-.641-1.982-.896-1.166-.955-.633-.718-.311-.576-.091-.327 0 0" fill="#9eb795"/>
<path transform="matrix(1,0,0,-1,263.5647,152.45871)" d="M0 0C.734 .172 1.098 1.02 1.087 2.649 1.074 3.462 1.01 4.475 .729 5.669 .6 6.268 .446 6.917 .265 7.615 .092 8.316-.121 9.063-.411 9.849-.921 11.29-1.579 12.94-2.452 14.621-3.05 15.843-3.648 17.071-4.283 18.228-4.902 19.388-5.398 20.527-5.887 21.541L-6.1 22.028C-6.204 22.277-6.304 22.525-6.387 22.763-6.404 22.817-6.44 22.861-6.482 22.9-9.329 29.422-13.15 35.557-17.666 41.194-16.625 40.209-15.673 39.365-14.884 38.514-14.081 37.677-13.334 36.897-12.567 36.097-11.813 35.286-11.056 34.442-10.155 33.524-9.962 33.366-7.997 31.234-5.787 28.991-4.727 27.852-3.536 26.714-2.515 25.798-1.502 24.88-.564 24.221 .131 24.129 .493 24.081 .806 24.171 1.034 24.394 1.609 24.957 1.359 26.194 .033 28.145-.658 29.106-1.569 30.264-2.798 31.568-4.086 32.841-5.543 34.336-7.477 35.863L-7.749 36.086C-8.497 36.685-9.241 37.285-10.054 37.828-10.867 38.371-11.685 38.894-12.484 39.4-15.244 41.128-18.155 42.698-20.461 44.492-23.899 48.337-27.701 51.898-31.809 55.12-29.31 54.366-27.477 53.541-25.751 52.852-24.645 52.377-23.643 51.889-22.577 51.419-22.043 51.182-21.503 50.942-20.943 50.694-20.389 50.436-19.817 50.17-19.211 49.889-19.096 49.838-18.332 49.503-17.224 49.017-16.103 48.538-14.694 47.85-13.158 47.198-11.608 46.559-10.098 45.832-8.717 45.362-7.347 44.885-6.183 44.612-5.53 44.782-5.185 44.875-4.945 45.085-4.841 45.395-4.56 46.192-5.436 47.241-7.51 48.62-9.604 49.97-13.014 51.584-17.814 53.121L-18.155 53.233C-20.067 53.793-22.042 54.225-23.943 54.572-25.593 54.845-27.24 55.094-28.816 55.389-30.434 55.64-31.979 55.936-33.393 56.36L-36.864 58.834C-35.297 58.905-34.044 58.91-32.926 58.905-31.48 58.912-30.269 58.841-28.683 58.842-28.314 58.832-26.422 58.864-24.52 58.913-22.623 58.969-20.641 59.115-20.137 59.657-19.945 59.864-19.951 60.087-19.99 60.238-20.1 60.663-20.567 61.015-21.886 61.219-23.177 61.439-25.435 61.418-28.869 61.065L-29.073 61.043C-30.191 60.927-31.361 60.677-32.454 60.449-34.297 60.048-36.108 59.66-37.847 59.474-39.145 60.29-40.403 61.164-41.753 61.907-43.085 62.676-44.404 63.465-45.789 64.149-45.03 64.396-44.408 64.567-43.839 64.72-43.018 64.946-42.33 65.092-41.46 65.386-41.103 65.52-37.737 66.602-37.293 67.776-37.201 68.032-37.239 68.29-37.406 68.524-37.549 68.726-37.771 68.871-38.045 68.94-39.12 69.199-40.93 68.349-42.559 67.367L-42.658 67.308C-43.219 66.976-43.749 66.575-44.259 66.184-45.08 65.555-45.853 64.964-46.692 64.617L-48.007 65.298-49.354 65.923-52.053 67.163-52.37 66.525-49.694 65.296-48.358 64.676-47.054 64.001C-47.02 63.956-46.98 63.916-46.93 63.89-46.878 63.863-46.819 63.851-46.759 63.848-45.572 63.239-44.385 62.63-43.247 61.944-43.24 61.912-43.235 61.88-43.218 61.849-42.684 60.858-42.296 59.787-42.033 58.645-41.777 57.492-41.618 56.309-41.483 55.162-41.314 53.833-41.209 52.432-41.024 51.123L-40.99 50.884C-40.593 48.267-40.382 46.237-40.076 44.814-39.757 43.407-39.463 42.479-38.979 42.083-38.733 41.871-38.449 41.791-38.125 41.833-37.78 41.878-37.466 42.055-37.22 42.349-36.431 43.282-36.359 45.588-36.642 47.731-36.946 49.833-37.528 51.817-37.584 51.968-38.186 53.7-38.788 55.095-39.586 56.642-39.921 57.279-40.277 57.953-40.672 58.703-41.066 59.467-41.505 60.311-42.037 61.244-37.762 58.709-33.714 55.842-29.947 52.684-29.757 51.265-29.926 49.712-30.127 48.237-30.265 47.333-30.424 46.403-30.521 45.516L-30.539 45.35C-30.966 41.421-31.194 39.517-30.615 38.949-30.509 38.839-30.379 38.778-30.224 38.759-30.076 38.742-29.849 38.759-29.611 38.94-29.026 39.381-28.655 40.836-28.467 42.297-28.372 43.026-28.32 43.753-28.293 44.337-28.274 44.914-28.291 45.337-28.293 45.484-28.329 46.72-28.444 47.701-28.592 48.852-28.691 49.736-28.878 50.669-29.061 51.921-27.719 50.81-26.477 49.602-25.221 48.409-24.26 45.781-24.042 42.768-24.069 39.899-24.042 38.242-24.145 36.506-24.141 34.897L-24.14 34.607C-24.111 33.028-24.221 31.579-24.233 30.368-24.262 29.156-24.286 28.106-24.308 27.206-24.312 26.317-24.273 25.595-24.183 25.019-24.123 24.428-24.007 23.985-23.831 23.674-23.632 23.323-23.358 23.142-23.005 23.115-22.695 23.091-22.386 23.187-22.112 23.395-21.064 24.178-20.419 26.973-20.335 29.679-20.245 31.049-20.318 32.365-20.399 33.379-20.475 34.397-20.559 35.109-20.571 35.216-20.721 36.359-20.952 37.355-21.174 38.354-21.29 38.85-21.407 39.345-21.538 39.843-21.689 40.331-21.841 40.826-21.999 41.338-22.256 42.154-22.529 43.018-22.83 43.974-23.167 44.928-23.537 45.972-23.955 47.153-20.675 43.873-17.742 40.298-15.094 36.558-14.808 35.914-14.541 35.254-14.336 34.56-14.144 33.859-13.982 33.142-13.843 32.42-13.71 31.695-13.572 30.979-13.498 30.241-13.437 29.507-13.376 28.773-13.315 28.045-13.155 26.374-13.16 24.619-13.01 22.996L-12.984 22.696C-12.838 19.986-12.719 17.784-12.625 16.037-12.577 15.175-12.472 14.446-12.402 13.809-12.331 13.171-12.23 12.646-12.096 12.223-11.816 11.341-11.392 10.901-10.822 10.849-10.497 10.819-10.188 10.916-9.928 11.132-9.428 11.547-9.096 12.476-8.886 13.668-8.788 14.261-8.688 14.93-8.672 15.61-8.655 16.291-8.664 17.001-8.689 17.706-8.721 18.408-8.741 19.115-8.821 19.759-8.903 20.404-8.99 21.006-9.072 21.528-9.234 22.573-9.371 23.298-9.392 23.407-9.952 25.709-10.501 27.538-11.331 29.582-11.532 30.105-11.74 30.648-11.959 31.221-12.201 31.787-12.456 32.382-12.729 33.019-12.169 32.151-11.614 31.279-11.124 30.373-10.62 29.475-10.096 28.586-9.61 27.68-8.692 25.842-7.737 24.019-6.957 22.125-6.729 21.47-6.509 20.837-6.296 20.223-6.113 19.601-5.935 18.998-5.763 18.412-5.417 17.243-5.078 16.149-4.842 15.075-4.589 14.007-4.317 12.995-4.096 11.998-3.895 10.998-3.699 10.021-3.504 9.047L-3.473 8.897C-3.208 7.68-3.069 6.456-2.825 5.348-2.544 4.096-2.339 2.952-2.04 2.051-1.742 1.149-1.374 .485-.911 .174-.63-.014-.315-.075 0 0" fill="#9eb795"/>
<path transform="matrix(1,0,0,-1,262.8742,198.77931)" d="M0 0C-.074-.335-.134-.673-.213-1.008-1.476-1.867-2.999-2.516-4.56-3.078-5.496-3.418-6.46-3.754-7.354-4.119L-7.522-4.187C-8.51-4.592-9.371-4.946-10.119-5.253-10.877-5.558-11.502-5.825-12.007-6.068-13.016-6.555-13.544-6.946-13.674-7.312-13.724-7.452-13.715-7.588-13.652-7.723-13.591-7.851-13.459-8.025-13.167-8.126-12.437-8.381-10.866-7.953-9.378-7.376-7.899-6.803-6.487-6.09-6.23-5.933-5.074-5.287-4.2-4.704-3.182-4.01-2.795-3.745-2.384-3.464-1.932-3.154-1.493-2.837-1.014-2.492-.478-2.104L-.774-3.327-1.132-4.537-1.857-6.954C-2.858-7.996-4.097-8.927-5.361-9.79-6.621-10.654-8.071-11.399-9.41-12.118-10.969-12.968-12.721-13.735-14.231-14.549L-14.506-14.695C-17.545-16.199-19.909-17.369-21.68-18.246-23.348-19.143-24.41-19.794-24.817-20.394-25.048-20.732-25.079-21.045-24.922-21.344-24.785-21.607-24.534-21.809-24.195-21.926-23.544-22.15-22.491-22.041-21.248-21.719-20.63-21.557-19.948-21.35-19.279-21.092-18.619-20.83-17.942-20.531-17.278-20.218-16.614-19.905-15.963-19.577-15.355-19.259-14.762-18.934-14.234-18.608-13.767-18.324-12.838-17.753-12.203-17.329-12.108-17.266-11.058-16.59-10.252-15.896-9.409-15.221-8.583-14.538-7.766-13.853-6.972-13.072-6.326-12.457-5.642-11.806-4.886-11.087-4.13-10.356-3.357-9.529-2.423-8.596-2.819-9.656-3.155-10.735-3.601-11.779L-4.917-14.918-6.396-17.997C-6.874-19.03-7.473-20.012-8.006-21.022-8.898-22.146-10.097-23.142-11.321-24.092-12.521-25.056-13.929-25.881-15.233-26.7-15.617-26.934-16.004-27.171-16.393-27.408L-17.593-28.089C-18.387-28.544-19.163-29.003-19.898-29.47-19.99-29.527-20.076-29.587-20.173-29.64-21.464-30.384-22.607-31.055-23.614-31.668-24.653-32.258-25.576-32.776-26.358-33.26-27.131-33.751-27.817-34.166-28.389-34.544-28.955-34.925-29.399-35.275-29.729-35.599-30.407-36.284-30.638-36.821-30.399-37.302-30.263-37.575-30.01-37.776-29.665-37.881-29.335-37.981-28.894-37.992-28.387-37.917-27.889-37.835-27.317-37.674-26.699-37.456-25.466-37.018-24.025-36.368-22.74-35.594-20.075-34.12-17.871-32.296-17.667-32.168-16.652-31.407-15.873-30.623-15.062-29.883-14.666-29.503-14.276-29.129-13.88-28.75-13.51-28.351-13.136-27.948-12.748-27.531-11.973-26.68-11.085-25.786-10.176-24.692-12.408-28.197-14.836-31.612-17.622-34.782-21.714-38.863-25.025-41.527-28.328-44.11L-28.46-44.207C-29.528-44.986-30.561-45.775-31.502-46.518-32.598-47.321-33.553-48.093-34.248-48.799-34.941-49.505-35.422-50.091-35.48-50.62-35.519-50.935-35.416-51.218-35.182-51.435-34.647-51.931-33.603-51.855-32.067-51.014-31.303-50.59-30.405-49.991-29.367-49.212-28.343-48.42-27.233-47.39-25.963-46.202-25.396-45.647-24.836-44.999-24.245-44.325-23.666-43.639-23.031-42.947-22.464-42.167-21.633-41.051-20.751-39.967-19.963-38.888-19.179-37.805-18.383-36.809-17.623-35.94L-17.271-35.522C-17.089-35.313-16.906-35.107-16.723-34.92-16.681-34.879-16.657-34.828-16.642-34.774-14.233-32.015-12.142-29.047-10.123-26.048L-8.708-23.745-8-22.593-7.355-21.413-6.064-19.051-4.896-16.637C-5.288-17.973-5.618-19.156-6.035-20.215-6.422-21.279-6.783-22.271-7.153-23.288-7.558-24.293-7.955-25.334-8.368-26.519-8.397-26.634-8.668-27.355-9.067-28.403-9.471-29.448-9.917-30.873-10.471-32.291-11.465-35.188-12.604-38.266-12.055-39.494-11.913-39.811-11.666-40.018-11.337-40.09-10.492-40.279-9.489-39.429-8.27-37.413-7.702-36.38-7.101-35.048-6.464-33.422-6.162-32.6-5.886-31.684-5.59-30.705-5.295-29.725-4.992-28.674-4.761-27.513L-4.69-27.181C-4.496-26.282-4.337-25.367-4.201-24.458-4.098-23.532-4.025-22.609-3.954-21.711-3.808-20.182-3.78-18.61-3.676-17.099-3.537-15.601-3.453-14.116-3.174-12.74-1.48-8.597-.149-4.332 .808 0Z" fill="#9eb795"/>
<path transform="matrix(1,0,0,-1,86.4519,137.78221)" d="M0 0C.233 .728 .427 1.311 .531 1.575L1.792 4.836 3.21 8.034C3.668 9.107 4.242 10.126 4.753 11.175 5.608 12.343 6.756 13.377 7.929 14.364 9.08 15.366 10.428 16.223 11.678 17.073 12.046 17.316 12.417 17.562 12.79 17.808L13.94 18.516C14.701 18.989 15.444 19.465 16.148 19.951 16.237 20.009 16.319 20.072 16.412 20.127 17.649 20.899 18.744 21.596 19.709 22.233 20.704 22.846 21.59 23.384 22.339 23.887 23.08 24.397 23.737 24.828 24.285 25.22 24.827 25.617 25.253 25.98 25.569 26.317 26.219 27.028 26.44 27.585 26.211 28.085 26.08 28.369 25.838 28.578 25.507 28.687 25.192 28.79 24.769 28.801 24.283 28.724 23.805 28.639 23.257 28.472 22.666 28.245 21.484 27.79 20.103 27.115 18.872 26.311 16.318 24.78 14.206 22.886 14.01 22.752 13.038 21.962 12.292 21.148 11.514 20.379 11.135 19.985 10.761 19.596 10.382 19.202 10.027 18.788 9.668 18.37 9.296 17.936 8.554 17.052 7.703 16.124 6.832 14.988 8.971 18.628 11.298 22.175 13.967 25.467 17.888 29.706 21.061 32.473 24.227 35.157L24.353 35.257C25.377 36.066 26.367 36.885 27.268 37.657 28.319 38.492 29.233 39.293 29.899 40.026 30.563 40.76 31.024 41.369 31.079 41.918 31.117 42.246 31.019 42.539 30.794 42.765 30.281 43.28 29.281 43.2 27.809 42.328 27.077 41.887 26.217 41.264 25.222 40.456 24.241 39.633 23.177 38.563 21.96 37.329 21.416 36.753 20.88 36.08 20.314 35.379 19.759 34.667 19.151 33.948 18.607 33.138 17.811 31.979 16.966 30.853 16.211 29.732 15.459 28.608 14.696 27.573 13.968 26.67L13.631 26.236C13.456 26.019 13.281 25.806 13.106 25.611 13.065 25.569 13.042 25.515 13.028 25.459 10.72 22.594 8.716 19.511 6.781 16.396L5.425 14.004 4.747 12.808 4.129 11.581 2.892 9.128 1.772 6.621C2.148 8.009 2.465 9.238 2.864 10.337 3.235 11.443 3.581 12.473 3.935 13.529 4.323 14.573 4.703 15.654 5.1 16.885 5.128 17.005 5.387 17.753 5.769 18.842 6.157 19.927 6.584 21.407 7.115 22.881 8.068 25.89 9.158 29.087 8.633 30.362 8.497 30.691 8.26 30.906 7.944 30.981 7.135 31.177 6.173 30.294 5.005 28.201 4.462 27.128 3.885 25.743 3.275 24.055 2.986 23.201 2.721 22.25 2.437 21.233 2.155 20.215 1.864 19.123 1.643 17.918L1.575 17.573C1.389 16.639 1.237 15.689 1.106 14.745 1.008 13.783 .938 12.823 .87 11.891 .73 10.303 .703 8.67 .603 7.101 .471 5.545 .39 4.002 .123 2.573-.187 1.751-.48 .922-.765 .091Z" fill="#9eb795"/>
<path transform="matrix(1,0,0,-1,0,341.795)" d="M215.397 133.409H130.379V135.487H215.397Z" fill="#3a3a33"/>
<path transform="matrix(1,0,0,-1,160.8442,140.16532)" d="M0 0C1.859 1.796 3.026 2.972 3.026 3.992 3.026 4.696 2.637 5.148 1.922 5.148 1.408 5.148 .978 4.801 .62 4.402L-.052 5.074C.557 5.725 1.167 6.104 2.08 6.104 3.362 6.104 4.193 5.295 4.193 4.055 4.193 2.868 3.089 1.649 1.765 .252 2.112 .283 2.553 .326 2.879 .326H4.518V-.704H0Z" fill="#3a3a33"/>
<path transform="matrix(1,0,0,-1,170.0668,137.49712)" d="M0 0C0 1.891-.462 2.49-1.113 2.49-1.754 2.49-2.226 1.891-2.226 0-2.226-1.891-1.754-2.553-1.113-2.553-.462-2.553 0-1.891 0 0M-3.382 0C-3.382 2.258-2.5 3.436-1.113 3.436 .273 3.436 1.156 2.248 1.156 0 1.156-2.26 .273-3.499-1.113-3.499-2.5-3.499-3.382-2.26-3.382 0" fill="#3a3a33"/>
<path transform="matrix(1,0,0,-1,172.8598,139.88262)" d="M0 0H1.492V4.392H.261V5.149C.924 5.275 1.385 5.442 1.806 5.695H2.711V0H4.023V-.987H0Z" fill="#3a3a33"/>
<path transform="matrix(1,0,0,-1,181.6606,136.66661)" d="M0 0C-.126 1.176-.608 1.68-1.262 1.68-1.808 1.68-2.26 1.228-2.26 .419-2.26-.368-1.87-.778-1.198-.778-.82-.778-.368-.557 0 0M-2.616-2.837C-2.364-3.132-1.953-3.342-1.544-3.342-.703-3.342-.021-2.722 .031-.873-.356-1.356-.946-1.65-1.428-1.65-2.573-1.65-3.372-.978-3.372 .419-3.372 1.754-2.416 2.605-1.271 2.605 .031 2.605 1.145 1.597 1.145-.652 1.145-3.247-.105-4.329-1.48-4.329-2.281-4.329-2.868-3.993-3.267-3.572Z" fill="#3a3a33"/>
</g>
</g>
</svg>
