<?xml version="1.0" standalone="no"?>
<!DOCTYPE svg PUBLIC "-//W3C//DTD SVG 20010904//EN"
 "http://www.w3.org/TR/2001/REC-SVG-20010904/DTD/svg10.dtd">
<svg version="1.0" xmlns="http://www.w3.org/2000/svg"
 width="1621.000000pt" height="801.000000pt" viewBox="0 0 1621.000000 801.000000"
 preserveAspectRatio="xMidYMid meet">

<g transform="translate(0.000000,801.000000) scale(0.100000,-0.100000)"
fill="#000000" stroke="none">
<path d="M3300 5359 c-305 -35 -558 -141 -698 -293 -139 -150 -200 -341 -189
-588 8 -207 68 -350 197 -478 89 -88 186 -146 315 -189 148 -49 242 -61 491
-61 l224 0 0 95 0 95 -137 0 c-158 0 -203 14 -244 71 -24 34 -24 36 -24 286 0
238 1 253 21 279 27 37 79 63 150 74 35 6 460 10 1034 10 l975 1 255 334 c140
184 261 344 269 355 13 20 12 20 -1275 19 -709 -1 -1323 -5 -1364 -10z"/>
<path d="M6640 5329 c-180 -22 -281 -73 -326 -166 -25 -51 -28 -67 -28 -157 1
-111 15 -160 62 -209 71 -75 189 -104 547 -132 299 -23 392 -43 415 -86 11
-20 13 -79 4 -104 -13 -33 -65 -47 -210 -58 -162 -12 -464 2 -505 23 -48 25
-59 41 -59 87 l0 43 -131 0 -132 0 5 -82 c9 -162 70 -224 261 -265 116 -25
666 -26 773 -1 150 35 229 90 256 180 6 24 12 88 12 143 1 87 -3 107 -24 150
-32 65 -91 108 -188 139 -100 31 -176 42 -418 61 -356 28 -404 43 -404 133 0
39 34 68 95 83 69 16 452 16 529 0 73 -16 106 -46 106 -96 l0 -35 63 0 c34 0
93 3 131 7 l69 6 -6 66 c-10 116 -48 174 -144 218 -91 42 -180 54 -438 58
-132 2 -274 0 -315 -6z"/>
<path d="M7860 4770 l0 -550 130 0 130 0 0 550 0 550 -130 0 -130 0 0 -550z"/>
<path d="M8450 4770 l0 -550 130 0 130 0 0 431 0 430 36 -3 36 -3 109 -260
c60 -143 141 -335 180 -427 l71 -168 157 0 156 0 61 148 c34 81 115 274 180
430 l118 282 33 0 33 0 0 -430 0 -430 135 0 135 0 -2 548 -3 547 -248 0 -248
0 -105 -255 c-57 -140 -134 -338 -171 -439 -37 -101 -69 -177 -72 -170 -30 91
-122 334 -217 573 l-117 296 -259 0 -258 0 0 -550z"/>
<path d="M10410 4770 l0 -550 135 0 135 0 0 436 0 435 333 -3 c366 -3 380 -5
412 -68 20 -38 20 -142 -1 -181 -29 -57 -75 -69 -281 -69 l-183 0 0 -116 0
-116 228 5 c282 6 359 24 441 106 57 57 81 140 81 280 0 167 -32 254 -113 310
-105 71 -188 80 -739 81 l-448 0 0 -550z"/>
<path d="M11920 4770 l0 -550 540 0 540 0 0 120 0 120 -410 0 -410 0 0 430 0
430 -130 0 -130 0 0 -550z"/>
<path d="M13576 5228 c-24 -51 -119 -255 -211 -453 -92 -198 -187 -399 -211
-447 -24 -48 -44 -92 -44 -98 0 -7 46 -10 137 -8 l137 3 41 92 40 93 363 -3
363 -2 41 -92 40 -93 145 0 c112 0 144 3 140 13 -3 6 -62 136 -132 287 -70
151 -181 392 -246 535 l-119 260 -221 3 -220 2 -43 -92z m416 -363 c49 -115
92 -216 95 -222 4 -10 -51 -13 -257 -13 -245 0 -262 1 -257 18 3 9 45 111 94
225 l88 208 74 -3 74 -3 89 -210z"/>
<path d="M3962 4174 l3 -99 152 -5 c173 -6 191 -12 231 -91 22 -43 23 -51 20
-276 -3 -266 -4 -268 -94 -313 l-49 -25 -1020 -5 -1020 -5 -253 -330 c-139
-181 -262 -343 -274 -358 l-20 -28 1313 4 c1418 4 1370 2 1583 57 197 52 325
119 442 236 68 67 89 96 127 175 66 138 81 206 81 379 0 167 -19 253 -82 375
-55 105 -172 218 -287 277 -190 96 -295 118 -613 125 l-243 5 3 -98z"/>
<path d="M6125 3809 c-277 -29 -404 -116 -450 -311 -21 -90 -29 -286 -16 -398
34 -296 160 -395 541 -420 183 -13 444 1 552 29 100 26 148 51 190 101 58 67
71 121 76 318 l4 172 -411 0 -412 0 3 -102 3 -103 283 -3 283 -2 -6 -38 c-19
-110 -53 -129 -257 -142 -328 -22 -499 13 -549 112 -40 77 -44 342 -7 428 8
20 30 48 47 63 55 46 118 59 317 64 329 9 444 -25 444 -132 l0 -25 131 0 132
0 -6 73 c-9 106 -25 145 -82 203 -55 55 -125 84 -255 104 -92 15 -448 21 -555
9z"/>
<path d="M7623 3788 c-5 -7 -56 -114 -113 -238 -57 -124 -170 -366 -251 -538
l-147 -313 141 3 140 3 40 93 40 92 361 0 361 0 40 -92 40 -93 147 -3 147 -3
-80 173 c-44 95 -155 337 -246 538 -92 201 -171 371 -176 378 -7 9 -64 12
-222 12 -158 0 -215 -3 -222 -12z m367 -425 c45 -109 89 -210 96 -225 l15 -28
-265 0 -264 0 96 225 96 225 72 0 71 0 83 -197z"/>
<path d="M8730 3250 l0 -550 132 0 131 0 -6 430 -7 430 38 0 38 0 104 -247
c57 -137 138 -329 180 -428 l76 -180 159 0 159 0 146 346 c80 191 160 383 178
428 33 79 34 81 68 81 l34 0 0 -430 0 -430 130 0 130 0 0 550 0 550 -247 -2
-247 -3 -117 -290 c-65 -159 -142 -356 -171 -437 -30 -83 -56 -142 -60 -135
-3 7 -29 76 -57 154 -28 78 -102 269 -164 425 l-113 283 -257 3 -257 2 0 -550z"/>
<path d="M10690 3250 l0 -550 590 0 591 0 -3 108 -3 107 -452 3 -453 2 0 330
0 330 440 0 440 0 0 110 0 110 -575 0 -575 0 0 -550z"/>
<path d="M12080 3251 l0 -551 133 0 132 0 -3 436 -4 435 344 -3 c309 -3 346
-5 376 -21 81 -44 82 -191 2 -249 -34 -24 -139 -38 -303 -38 l-138 0 3 -107 3
-108 122 -5 122 -5 81 -113 c45 -63 97 -138 116 -168 l35 -54 150 0 c121 0
148 3 142 13 -17 28 -188 275 -224 323 l-38 52 57 21 c68 24 135 79 161 130
60 118 52 327 -17 425 -15 21 -50 52 -78 68 -101 56 -142 60 -681 65 l-493 5
0 -551z"/>
<path d="M11232 3258 l3 -103 273 -3 272 -2 0 105 0 105 -275 0 -276 0 3 -102z"/>
</g>
</svg>
