<?xml version="1.0" standalone="no"?>
<!DOCTYPE svg PUBLIC "-//W3C//DTD SVG 20010904//EN"
 "http://www.w3.org/TR/2001/REC-SVG-20010904/DTD/svg10.dtd">
<svg version="1.0" xmlns="http://www.w3.org/2000/svg"
 width="2364.000000pt" height="706.000000pt" viewBox="0 0 2364.000000 706.000000"
 preserveAspectRatio="xMidYMid meet">

<g transform="translate(0.000000,706.000000) scale(0.100000,-0.100000)"
fill="#000000" stroke="none">
<path d="M11700 3530 c0 -2340 3 -3520 10 -3520 7 0 10 1180 10 3520 0 2340
-3 3520 -10 3520 -7 0 -10 -1180 -10 -3520z"/>
<path d="M956 6012 c-7 -12 -216 -1020 -216 -1043 0 -18 23 -19 731 -21 l730
-3 -358 -309 -358 -309 -82 -416 c-45 -229 -83 -426 -83 -438 l0 -23 358 0
c280 0 371 -3 420 -15 108 -26 160 -61 197 -134 23 -45 17 -169 -10 -226 -44
-90 -155 -165 -296 -201 -99 -24 -375 -30 -526 -10 -251 33 -511 117 -717 232
-81 45 -101 53 -111 42 -17 -17 -614 -934 -621 -952 -13 -34 315 -205 536
-281 346 -118 652 -166 1060 -166 370 1 642 43 950 150 482 166 860 474 1040
846 80 165 115 290 129 470 41 493 -210 886 -686 1081 l-104 42 98 84 c54 46
270 231 481 411 210 180 382 332 382 337 0 6 36 194 80 419 44 225 80 416 80
425 0 15 -124 16 -1549 16 -853 0 -1552 -4 -1555 -8z"/>
<path d="M4785 6008 c-10 -29 -617 -2183 -622 -2209 l-5 -28 668 -3 c666 -3
669 -3 737 -26 91 -31 150 -87 165 -157 6 -27 8 -63 5 -79 -5 -25 -3 -28 12
-22 40 15 432 108 600 141 160 33 598 105 634 105 31 0 -19 262 -73 383 -67
151 -215 314 -361 397 -230 130 -536 200 -879 200 -136 0 -147 1 -142 18 11
33 96 342 96 347 0 3 322 5 715 5 393 0 715 1 715 3 0 1 43 209 94 462 52 253
92 463 89 468 -2 4 -553 7 -1224 7 -967 0 -1221 -3 -1224 -12z"/>
<path d="M15833 4648 c-521 -722 -949 -1316 -951 -1320 -2 -4 246 -8 552 -8
l555 0 637 893 c351 490 651 909 668 931 39 49 131 117 200 150 127 60 76 58
1211 56 572 -1 1041 -3 1043 -5 2 -2 -23 -48 -57 -102 l-62 -98 583 -3 c320
-1 585 1 589 5 29 29 349 571 349 590 0 36 -40 69 -99 82 -37 8 -528 11 -1716
11 -916 0 -1665 3 -1665 6 0 3 20 30 45 58 25 29 45 56 45 60 0 3 -220 6 -489
6 l-489 0 -949 -1312z"/>
<path d="M21916 5894 c185 -479 303 -995 365 -1594 17 -167 23 -743 10 -935
-37 -537 -134 -1029 -299 -1515 -28 -80 -53 -154 -58 -164 -37 -92 195 254
309 460 457 826 646 1915 517 2969 -23 183 -44 304 -57 314 -6 6 -669 440
-785 516 l-28 17 26 -68z"/>
<path d="M22924 5390 c13 -76 46 -322 58 -440 21 -198 17 -895 -5 -1085 -85
-715 -280 -1315 -600 -1855 -126 -211 -285 -422 -479 -635 l-73 -79 70 49
c472 331 829 723 1111 1220 321 567 532 1322 560 2000 l6 150 -307 335 c-169
184 -316 344 -327 355 l-20 20 6 -35z"/>
<path d="M18393 4780 c-366 -12 -531 -43 -683 -127 -87 -48 -206 -170 -305
-312 -44 -63 -561 -773 -1148 -1579 -587 -805 -1067 -1466 -1065 -1467 2 -1
231 -6 509 -10 l507 -7 423 554 c233 304 731 956 1107 1448 377 492 703 914
726 938 22 24 59 53 81 65 l40 22 1000 0 c946 0 1003 -1 1048 -18 54 -21 67
-40 67 -94 0 -73 -62 -178 -260 -443 -68 -91 -193 -259 -277 -374 -289 -392
-409 -528 -511 -578 l-67 -33 -782 -3 -782 -3 -181 -227 -182 -227 108 -6
c184 -11 1948 -10 2099 1 264 19 433 58 601 140 204 99 354 240 588 553 463
620 856 1210 887 1330 15 63 6 138 -27 204 -59 121 -230 206 -489 243 -98 14
-2661 22 -3032 10z"/>
<path d="M4154 3328 c-59 -90 -185 -284 -282 -431 -135 -207 -172 -271 -163
-280 13 -13 1 -20 241 122 263 155 610 325 923 451 l107 44 -114 22 c-187 36
-409 118 -554 203 l-52 31 -106 -162z"/>
<path d="M7730 2839 c-14 -6 -38 -23 -55 -38 -16 -16 -54 -35 -82 -44 -33 -9
-111 -53 -210 -120 -371 -247 -681 -398 -741 -361 -24 15 -27 97 -8 191 23
108 21 188 -4 213 -70 70 -172 20 -633 -309 -190 -134 -257 -171 -291 -158
-32 12 -16 62 64 202 82 142 89 162 68 183 -22 22 -52 13 -89 -27 -48 -50
-339 -234 -498 -315 -170 -86 -245 -110 -348 -110 -72 -1 -84 2 -106 22 -14
13 -27 36 -31 52 -8 43 11 133 50 235 42 107 42 139 -1 143 -24 3 -37 -5 -77
-48 l-47 -51 -36 27 c-56 42 -126 45 -207 7 -109 -51 -252 -204 -313 -334 -34
-74 -35 -150 0 -184 64 -65 197 1 413 207 100 96 115 97 123 13 9 -97 47 -150
126 -176 54 -17 205 -6 288 22 92 31 283 128 423 217 61 39 112 69 112 67 0
-1 -16 -37 -36 -78 -58 -123 -58 -192 -1 -228 75 -46 181 6 512 251 174 129
339 238 373 247 14 3 32 1 41 -4 17 -11 17 -19 6 -193 -6 -85 -4 -98 14 -128
31 -49 76 -72 142 -72 93 0 202 46 437 186 105 63 123 71 117 52 -39 -126 -40
-178 -4 -237 73 -120 239 -89 423 80 l56 51 80 -16 c44 -9 95 -16 114 -16 60
0 209 30 301 61 104 36 383 168 492 235 42 25 79 42 83 37 97 -115 95 -124
-34 -207 -234 -149 -333 -290 -263 -371 92 -107 389 29 479 221 16 34 32 88
35 118 4 36 13 63 26 77 25 27 173 97 437 209 205 86 249 115 230 151 -6 10
-19 19 -29 19 -27 0 -375 -144 -574 -237 -113 -53 -122 -52 -182 21 l-37 46
21 40 21 40 -20 20 c-24 24 -23 24 -172 -66 -204 -124 -457 -237 -625 -280
-111 -28 -247 -33 -279 -10 -19 14 -18 16 15 83 53 108 71 169 71 246 0 65 -2
71 -34 103 -36 36 -75 43 -126 23z m63 -141 c-5 -92 -70 -218 -113 -218 -61 0
-17 191 58 250 41 32 57 23 55 -32z m-255 -125 c5 -10 12 -41 15 -70 3 -28 15
-70 26 -92 12 -22 21 -47 21 -55 0 -20 -102 -110 -152 -134 -72 -34 -103 -37
-128 -12 -51 51 5 213 110 323 58 59 92 72 108 40z m-2947 -113 c10 -6 19 -19
19 -29 0 -25 -198 -214 -288 -275 -74 -51 -102 -55 -102 -14 0 34 75 144 150
218 92 93 169 127 221 100z m4289 -138 c0 -28 -52 -102 -104 -150 -80 -74
-195 -115 -210 -76 -9 23 13 54 77 109 130 112 237 165 237 117z"/>
<path d="M20327 1616 c-26 -7 -59 -24 -72 -36 -25 -23 -25 -24 -25 -221 l0
-197 30 -25 c73 -62 248 -55 300 10 18 24 20 40 20 215 l0 190 -28 28 c-18 17
-47 32 -80 39 -65 14 -84 13 -145 -3z m181 -46 l32 -20 0 -190 0 -190 -27 -17
c-38 -25 -178 -25 -216 0 l-27 17 0 189 c0 231 -1 229 135 230 53 1 78 -4 103
-19z"/>
<path d="M17420 1360 c0 -253 1 -260 20 -260 19 0 20 7 20 260 0 253 -1 260
-20 260 -19 0 -20 -7 -20 -260z"/>
<path d="M18170 1361 c0 -258 0 -261 21 -261 20 0 21 3 17 234 l-3 234 21 -42
c12 -22 73 -126 136 -231 86 -144 119 -191 136 -193 l22 -3 0 260 c0 258 0
261 -21 261 -20 0 -21 -3 -17 -234 l3 -234 -21 42 c-12 22 -73 127 -136 231
-86 144 -119 191 -136 193 l-22 3 0 -260z"/>
<path d="M19230 1360 c0 -253 1 -260 20 -260 19 0 20 7 20 120 l0 120 116 0
c105 0 115 2 112 18 -3 15 -18 17 -116 20 l-112 3 0 104 0 105 135 0 c113 0
135 2 135 15 0 13 -24 15 -155 15 l-155 0 0 -260z"/>
<path d="M22200 1371 c-49 -26 -72 -62 -77 -118 -12 -142 174 -209 259 -93 50
68 22 175 -54 210 -54 25 -84 25 -128 1z m131 -17 c38 -19 62 -62 62 -112 0
-52 -25 -90 -77 -116 -96 -47 -208 50 -177 153 25 86 108 118 192 75z"/>
<path d="M22192 1245 c3 -85 20 -118 26 -50 3 30 7 35 28 35 17 0 32 -12 52
-40 15 -21 33 -39 40 -40 19 0 15 12 -18 52 -27 33 -28 36 -10 41 24 6 37 52
20 72 -9 10 -32 15 -77 15 l-64 0 3 -85z m112 59 c9 -8 16 -17 16 -19 0 -15
-38 -35 -66 -35 -32 0 -34 2 -34 35 0 33 2 35 34 35 19 0 42 -7 50 -16z"/>
</g>
</svg>
