<svg width="816" height="176" viewBox="0 0 816 176" fill="none" xmlns="http://www.w3.org/2000/svg">
<path d="M527.75 59.3311V118.662H532.01H536.27V59.3311V-4.32134e-06H532.01H527.75V59.3311Z" fill="#00FFFF"/>
<path d="M0 62.5552V118.662H4.25986H8.51973L8.61439 69.7781L8.75639 20.8945L11.2176 24.119C12.5903 25.8817 31.1443 47.8084 52.4437 72.8736L91.1611 118.447L94.569 118.576L97.9769 118.705L97.8822 62.6842L97.7402 6.66361L93.3384 6.53463L88.9838 6.40565L89.0785 55.0313C89.1732 81.7303 89.1258 103.614 88.9838 103.614C88.8418 103.571 87.6585 102.109 86.2859 100.26C84.9133 98.4548 66.4066 76.6141 45.1072 51.7208L6.3898 6.49164L3.21856 6.44864H0V62.5552Z" fill="#00FFFF"/>
<path d="M567.035 62.5556V118.662H590.133C603.149 118.662 614.934 118.447 617.206 118.232C631.359 116.641 643.807 110.321 649.865 101.637C655.498 93.5539 656.161 82.2036 651.522 73.6479C647.783 66.7259 638.127 60.7498 628.755 59.546C625.3 59.0731 624.921 58.6862 627.241 58.0842C634.435 56.1495 642.482 50.2164 645.464 44.7133C649.487 37.2324 649.629 28.2897 645.842 21.4968C642.482 15.4347 634.104 10.3184 624.164 8.16877C617.68 6.79298 610.817 6.44903 588.476 6.44903H567.035V62.5556ZM611.621 22.1417C616.733 22.9585 619.478 23.9904 622.129 26.2261C625.347 28.8916 626.341 31.4713 626.105 36.5015C625.963 39.855 625.726 41.0588 624.685 43.0795C622.508 47.3359 618.91 50.0015 612.473 52.1511C610.201 52.925 608.45 53.054 598.889 53.226L587.861 53.398V37.7483C587.861 29.1066 588.003 21.9267 588.192 21.7977C588.807 21.1958 607.503 21.4968 611.621 22.1417ZM615.786 69.3915C626.152 71.6272 631.217 76.3995 631.737 84.3963C632.305 92.3931 628.897 97.8103 621.04 101.422C617.206 103.227 613.562 103.614 600.309 103.614H587.861V86.288C587.861 76.7434 588.003 68.7896 588.239 68.6177C588.429 68.4027 593.919 68.3597 600.404 68.4457C609.491 68.6177 613.041 68.8326 615.786 69.3915Z" fill="#00FFFF"/>
<path d="M678.739 62.5556V118.662H689.862H700.985V62.5556V6.44903H689.862H678.739V62.5556Z" fill="#00FFFF"/>
<path d="M720.39 14.4028V22.3566L738.754 22.4426L757.072 22.5716L757.214 70.5954L757.308 118.662H768.195H779.081V70.5094V22.3566H797.541H816V14.4028V6.44903H768.195H720.39V14.4028Z" fill="#00FFFF"/>
<path d="M228.282 16.638L224.827 17.7129V27.9883V38.2638H216.544H208.261V41.7032V45.1427H216.496H224.78L224.922 75.1092C225.064 101.808 225.206 105.377 225.916 107.612C228.235 114.792 232.542 118.576 239.973 119.994C243.949 120.725 250.007 120.252 254.078 118.877L257.486 117.716V114.491C257.486 111.912 257.344 111.31 256.823 111.482C253.084 112.815 249.345 113.502 246.126 113.502C239.831 113.502 237.133 112.127 234.672 107.612L233.11 104.689L232.968 74.9372L232.826 45.1427H245.18H257.486V41.7032V38.2638H245.18H232.873V26.8705C232.873 18.0138 232.731 15.4772 232.305 15.5202C231.974 15.5202 230.128 16.0361 228.282 16.638Z" fill="#00FFFF"/>
<path d="M157.568 36.9742C150.278 37.791 138.682 41.2305 134.659 43.7671L132.766 44.971L132.624 49.1413C132.576 51.42 132.624 53.3117 132.766 53.3117C132.86 53.3117 134.422 52.4088 136.174 51.334C140.67 48.5394 146.965 45.7448 151.793 44.455C155.343 43.4662 156.858 43.2942 161.875 43.2942C166.797 43.2942 168.265 43.4232 170.536 44.1971C176.264 46.1318 180.239 49.9582 182.464 55.7193C183.742 59.0728 185.067 68.1445 184.357 68.7034C184.073 68.9183 176.974 69.9932 168.501 71.111C160.029 72.2718 151.178 73.6476 148.811 74.1636C132.198 77.99 124.009 85.9008 124.009 98.1539C124.009 104.173 126.329 109.074 131.156 113.589C133.381 115.695 135.18 116.856 137.31 117.759C142.279 119.78 144.883 120.167 152.882 120.124C159.65 120.124 160.502 120.038 164.005 118.92C171.436 116.598 178.583 111.525 182.511 105.764L184.357 103.012L184.499 110.837L184.594 118.662H188.901H193.208L192.972 89.5122C192.735 56.8802 192.735 56.9661 189.28 50.3451C185.967 43.9391 179.956 39.4678 172.193 37.6621C168.691 36.8452 161.591 36.5012 157.568 36.9742ZM184.452 82.6333C184.168 90.888 183.269 94.5425 180.239 99.8307C177.778 104.173 172.856 108.816 168.643 110.837C164.336 112.901 159.319 113.933 153.639 113.933C150.988 113.933 147.959 113.718 146.823 113.503C141.617 112.385 137.073 109.203 134.612 104.861C133.476 102.883 133.286 101.894 133.097 98.1109C132.955 94.7574 133.097 93.2097 133.712 91.4899C135.937 85.2989 141.569 81.7734 152.645 79.7527C155.674 79.2368 181.375 75.8833 184.073 75.7113C184.594 75.6683 184.689 76.8721 184.452 82.6333Z" fill="#00FFFF"/>
<path d="M466.219 36.8017C465.556 36.8877 463.473 37.1886 461.533 37.4466C455.001 38.3064 444.635 41.7459 440.565 44.3685C439.287 45.1854 439.24 45.3144 439.24 49.4418V53.6551L443.168 51.2475C456.279 43.2077 470.147 40.929 479.803 45.1854C486.713 48.1949 490.879 55.5038 491.021 64.8764L491.068 68.9608L476.395 70.9815C468.349 72.0564 460.113 73.3032 458.078 73.6471C449.747 75.2379 443.073 77.9895 438.53 81.7729C433.134 86.2872 431.098 90.5436 431.004 97.5945C430.956 102.496 431.619 105.118 433.938 108.773C437.062 113.846 441.275 116.942 447.57 118.962C451.072 120.037 451.83 120.123 459.119 120.123C466.361 120.123 467.213 120.037 470.715 118.962C478.146 116.727 484.583 112.255 488.938 106.365L491.305 103.098V110.88V118.661H495.612H499.872L499.682 89.0818C499.493 55.9768 499.54 56.4927 496.038 50.0437C492.725 43.8956 486.193 39.1663 478.904 37.6185C475.827 36.9736 468.301 36.4577 466.219 36.8017ZM491.163 83.0627C490.926 91.5324 490.405 93.8111 487.471 99.2713C483.495 106.58 475.448 112.255 467.071 113.502C462.053 114.276 454.386 113.846 450.836 112.642C447.002 111.309 443.121 107.913 441.322 104.344C440.092 101.98 439.95 101.206 439.95 97.3795C439.95 92.0053 440.849 89.4257 443.783 86.4162C447.759 82.4608 454.244 80.3111 467.165 78.6344C475.732 77.5595 489.885 75.7968 490.784 75.7108C491.305 75.6678 491.352 77.0006 491.163 83.0627Z" fill="#00FFFF"/>
<path d="M404.688 37.4473C396.31 38.7801 387.648 45.9171 384.524 54.0428C384.051 55.2897 383.483 56.3215 383.294 56.3215C383.057 56.3215 382.915 52.2371 382.915 47.2929V38.2642H379.128H375.342V78.4632V118.662H379.128H382.915V98.3262C382.915 77.2164 383.294 71.0253 384.855 65.3501C388.074 53.9139 395.079 46.132 404.214 44.0254C408.237 43.1225 412.781 43.4234 416.284 44.8852L418.887 45.9601V42.1766V38.3502L416.852 37.9203C413.823 37.1894 407.622 36.9744 404.688 37.4473Z" fill="#00FFFF"/>
<path d="M274.05 64.3611C274.05 92.7368 274.24 95.6604 276.701 102.238C278.357 106.839 280.014 109.375 283.091 112.428C288.392 117.544 294.734 119.866 304.579 120.253C317.88 120.812 327.725 116.555 334.304 107.398L336.765 103.915L336.907 111.31L337.002 118.662H341.261H345.521V78.463V38.2641H341.261H337.002V63.0283C337.002 79.0649 336.812 88.8244 336.481 90.8451C334.872 100.175 328.955 108 320.767 111.525C316.46 113.374 313.478 113.933 307.987 113.933C297.669 113.933 289.622 110.063 286.215 103.528C282.759 96.9502 282.097 89.9423 282.097 59.8468V38.2641H278.073H274.05V64.3611Z" fill="#00FFFF"/>
<path d="M412.874 137.192C407.478 138.74 402.603 143.082 400.379 148.241C399.053 151.294 398.627 158.087 399.479 161.612C400.805 167.159 405.443 172.318 410.697 174.124C414.436 175.37 420.116 175.671 424.518 174.811C429.393 173.866 430.245 173.307 430.245 170.899C430.245 169.824 430.15 168.964 430.008 168.964C429.866 168.964 428.92 169.351 427.973 169.781C426.979 170.254 424.802 170.856 423.145 171.114C417.323 172.06 411.786 170.684 408.52 167.46C405.916 164.88 404.828 162.773 404.307 159.162C403.076 151.165 406.484 144.286 413.158 141.363C416.377 139.944 422.104 139.772 426.364 140.976C428.21 141.449 429.819 141.878 429.961 141.878C430.103 141.878 430.245 140.933 430.245 139.729V137.622L427.784 136.934C424.234 135.988 416.613 136.117 412.874 137.192Z" fill="#00FFFF"/>
<path d="M520.413 136.848C512.461 139.255 508.154 144.286 506.923 152.712C505.456 162.73 510.094 171.2 518.661 174.166C524.152 176.015 531.867 175.542 536.506 173.048C545.025 168.534 548.528 156.496 544.221 146.478C542.753 143.082 538.919 139.255 535.417 137.751C533.05 136.676 532.056 136.547 527.512 136.418C524.152 136.332 521.643 136.504 520.413 136.848ZM532.198 141.018C538.162 143.082 541.381 149.015 540.86 157.098C540.576 161.87 539.487 164.579 536.884 167.244C534.139 169.996 530.968 171.243 526.329 171.286C521.643 171.329 518.141 169.867 515.443 166.728C510.946 161.569 510.378 152.369 514.212 146.435C515.727 144.028 518.756 141.663 521.312 140.846C524.247 139.9 529.122 139.986 532.198 141.018Z" fill="#00FFFF"/>
<path d="M617.445 136.891C609.493 139.255 605.139 144.414 603.955 152.884C602.961 160.107 605.328 166.857 610.345 171.027C614.179 174.209 617.161 175.155 623.361 175.155C630.224 175.112 632.922 174.166 637.088 170.254C640.637 166.943 642.057 164.234 642.862 158.989C644.329 149.574 640.211 141.19 632.449 137.707C630.035 136.633 629.183 136.504 624.545 136.418C621.231 136.332 618.675 136.504 617.445 136.891ZM630.272 141.362C632.828 142.566 635.668 145.532 636.804 148.155C638.082 151.25 638.366 158.215 637.324 161.483C635.573 167.029 631.976 170.168 626.249 171.113C621.184 171.93 616.877 170.813 613.516 167.76C610.108 164.664 608.404 159.806 608.83 154.346C609.351 147.51 612.617 143.039 618.865 140.717C621.137 139.857 627.905 140.244 630.272 141.362Z" fill="#00FFFF"/>
<path d="M676.039 137.063C665.957 140.33 660.419 149.273 662.076 159.634C663.733 170.039 672.252 176.101 683.943 175.241C687.919 174.94 690.238 174.424 693.552 173.177L695.776 172.317V163.547V154.776H688.676H681.577V156.926V159.075H686.31H691.043V164.364C691.043 170.469 691.28 170.168 685.884 171.157C683.612 171.544 682.192 171.544 679.541 171.157C673.53 170.254 669.791 167.33 667.85 162.085C666.998 159.763 666.856 158.559 666.998 155.163C667.14 151.595 667.377 150.692 668.702 148.241C670.596 144.759 673.483 142.308 677.127 141.018C681.056 139.685 687.73 139.943 691.706 141.577C693.22 142.222 694.546 142.738 694.688 142.738C694.782 142.738 694.83 141.663 694.735 140.287C694.593 137.923 694.593 137.88 692.7 137.235C691.516 136.848 688.487 136.547 684.653 136.418C679.541 136.289 678.074 136.418 676.039 137.063Z" fill="#00FFFF"/>
<path d="M309.55 138.653V140.588H315.703H321.856V157.571V174.553H324.223H326.589V157.571V140.588H332.742H338.896V138.653V136.719H324.223H309.55V138.653Z" fill="#00FFFF"/>
<path d="M358.301 155.636V174.553H369.424H380.547V172.618V170.684H371.79H363.034V164.02V157.356H370.607H378.18V155.421V153.529L370.749 153.4L363.271 153.271V147.037V140.803L371.459 140.674L379.6 140.588V138.653V136.719H368.95H358.301V155.636Z" fill="#00FFFF"/>
<path d="M451.546 155.636V174.553H453.912H456.279V158.387V142.222L461.391 149.445C464.183 153.443 469.39 160.709 472.893 165.61L479.235 174.553H482.217H485.151V155.636V136.719H482.785H480.371L480.513 152.841C480.608 161.698 480.655 168.964 480.608 168.964C480.608 168.964 475.496 161.698 469.248 152.841L457.936 136.719H454.764H451.546V155.636Z" fill="#00FFFF"/>
<path d="M567.508 155.636V174.553H578.157H588.807V172.618V170.684H580.524H572.241V153.701V136.719H569.874H567.508V155.636Z" fill="#00FFFF"/>
<path d="M718.497 155.636V174.553H720.864H723.23V155.636V136.719H720.864H718.497V155.636Z" fill="#00FFFF"/>
<path d="M750.825 154.862C746.612 164.88 743.015 173.393 742.826 173.822C742.542 174.51 742.778 174.596 745.24 174.467L747.985 174.338L749.926 169.265L751.866 164.235H760.907H769.947L771.982 169.222C773.118 171.974 774.301 174.295 774.633 174.424C774.917 174.51 776.147 174.553 777.331 174.467L779.461 174.338L771.509 155.636L763.604 136.934L761.049 136.805L758.493 136.676L750.825 154.862ZM766.444 155.722L768.148 159.936H760.907H753.617L757.12 151.294C759.061 146.522 760.623 142.351 760.67 141.964C760.67 141.534 761.569 143.555 762.705 146.393C763.841 149.23 765.545 153.444 766.444 155.722Z" fill="#00FFFF"/>
</svg>
