<svg width="526" height="113" viewBox="0 0 526 113" fill="none" xmlns="http://www.w3.org/2000/svg">
<path d="M340.151 38.2406V76.4812H342.896H345.642V38.2406V1.71363e-06H342.896H340.151V38.2406Z" fill="black"/>
<path d="M0 40.3186V76.4809H2.74561H5.49122L5.55223 44.9739L5.64375 13.467L7.2301 15.5453C8.1148 16.6814 20.0734 30.8138 33.8015 46.9691L58.756 76.3423L60.9525 76.4255L63.149 76.5086L63.088 40.4017L62.9965 4.29478L60.1593 4.21165L57.3527 4.12852L57.4137 35.4692C57.4747 52.6775 57.4442 66.7822 57.3527 66.7822C57.2612 66.7545 56.4985 65.8123 55.6138 64.6207C54.7291 63.4569 42.801 49.3799 29.0729 33.3355L4.11841 4.18394L2.07446 4.15623H0V40.3186Z" fill="black"/>
<path d="M365.471 40.3189V76.4812H380.358C388.747 76.4812 396.344 76.3427 397.808 76.2041C406.929 75.1788 414.953 71.1054 418.858 65.5079C422.488 60.2983 422.915 52.9827 419.925 47.4683C417.515 43.0069 411.292 39.1551 405.252 38.3792C403.025 38.0744 402.78 37.825 404.275 37.437C408.912 36.19 414.098 32.366 416.02 28.819C418.613 23.9974 418.705 18.2336 416.264 13.8553C414.098 9.94811 408.699 6.65055 402.292 5.26502C398.113 4.37829 393.689 4.1566 379.29 4.1566H365.471V40.3189ZM394.208 14.271C397.503 14.7975 399.272 15.4625 400.981 16.9035C403.055 18.6215 403.696 20.2842 403.543 23.5263C403.452 25.6877 403.299 26.4636 402.628 27.766C401.225 30.5094 398.906 32.2274 394.757 33.613C393.293 34.1118 392.164 34.1949 386.002 34.3057L378.894 34.4166V24.3299C378.894 18.7601 378.985 14.1324 379.107 14.0493C379.504 13.6613 391.554 13.8553 394.208 14.271ZM396.893 44.7249C403.574 46.1659 406.838 49.2417 407.173 54.3959C407.54 59.5501 405.343 63.0416 400.279 65.3693C397.808 66.5331 395.459 66.7825 386.917 66.7825H378.894V55.6152C378.894 49.4634 378.985 44.337 379.138 44.2261C379.26 44.0876 382.799 44.0599 386.978 44.1153C392.835 44.2261 395.123 44.3647 396.893 44.7249Z" fill="black"/>
<path d="M437.468 40.3189V76.4812H444.637H451.806V40.3189V4.1566H444.637H437.468V40.3189Z" fill="black"/>
<path d="M464.312 9.28306V14.4095L476.149 14.4649L487.955 14.5481L488.047 45.5008L488.108 76.4812H495.124H502.141V45.4454V14.4095H514.039H525.936V9.28306V4.1566H495.124H464.312V9.28306Z" fill="black"/>
<path d="M147.135 10.7236L144.908 11.4163V18.0392V24.662H139.569H134.23V26.8788V29.0957H139.539H144.877L144.969 48.41C145.06 65.6183 145.152 67.9182 145.609 69.3592C147.104 73.9869 149.88 76.4254 154.67 77.3398C157.233 77.8109 161.137 77.5061 163.761 76.6194L165.958 75.8712V73.7929C165.958 72.1302 165.866 71.7423 165.53 71.8531C163.12 72.7122 160.71 73.1555 158.636 73.1555C154.578 73.1555 152.84 72.2688 151.253 69.3592L150.247 67.4749L150.155 48.2991L150.063 29.0957H158.026H165.958V26.8788V24.662H158.026H150.094V17.3187C150.094 11.6103 150.002 9.97539 149.728 10.0031C149.514 10.0031 148.325 10.3356 147.135 10.7236Z" fill="black"/>
<path d="M101.557 23.8311C96.859 24.3576 89.3848 26.5744 86.7918 28.2093L85.5715 28.9852L85.48 31.6732C85.4495 33.1418 85.48 34.3611 85.5715 34.3611C85.6325 34.3611 86.6392 33.7792 87.768 33.0864C90.6661 31.2852 94.7235 29.484 97.8352 28.6527C100.123 28.0154 101.099 27.9045 104.333 27.9045C107.506 27.9045 108.452 27.9876 109.916 28.4864C113.607 29.7334 116.17 32.1997 117.604 35.9129C118.427 38.0743 119.281 43.9212 118.824 44.2815C118.641 44.42 114.065 45.1128 108.604 45.8333C103.143 46.5815 97.4386 47.4682 95.9133 47.8007C85.2054 50.267 79.9277 55.3657 79.9277 63.2632C79.9277 67.1427 81.4226 70.3017 84.5343 73.2113C85.9681 74.5692 87.1273 75.3173 88.5001 75.8993C91.7033 77.2017 93.3812 77.4511 98.5369 77.4233C102.899 77.4233 103.448 77.3679 105.706 76.6475C110.496 75.1511 115.102 71.8812 117.634 68.168L118.824 66.3945L118.915 71.4379L118.976 76.4812H121.753H124.529L124.376 57.6934C124.224 36.6611 124.224 36.7165 121.997 32.4491C119.861 28.3202 115.987 25.4383 110.984 24.2744C108.726 23.7479 104.15 23.5262 101.557 23.8311ZM118.885 53.2597C118.702 58.5801 118.122 60.9355 116.17 64.3439C114.583 67.1427 111.411 70.1355 108.696 71.4379C105.92 72.768 102.686 73.433 99.025 73.433C97.3166 73.433 95.3642 73.2945 94.632 73.1559C91.2763 72.4354 88.3476 70.3849 86.7613 67.5861C86.0291 66.3114 85.9071 65.6741 85.785 63.2355C85.6935 61.0741 85.785 60.0765 86.1816 58.9681C87.6154 54.9778 91.2457 52.7055 98.3843 51.4031C100.337 51.0706 116.902 48.9091 118.641 48.7983C118.976 48.7706 119.037 49.5465 118.885 53.2597Z" fill="black"/>
<path d="M300.492 23.7198C300.065 23.7752 298.723 23.9692 297.472 24.1354C293.262 24.6896 286.581 26.9065 283.957 28.5968C283.134 29.1233 283.103 29.2065 283.103 31.8667V34.5823L285.635 33.0305C294.086 27.8486 303.024 26.38 309.247 29.1233C313.701 31.0631 316.386 35.7739 316.478 41.8148L316.508 44.4473L307.051 45.7497C301.865 46.4425 296.557 47.2461 295.245 47.4677C289.876 48.493 285.574 50.2665 282.646 52.705C279.168 55.6147 277.856 58.358 277.795 62.9025C277.764 66.0616 278.192 67.7519 279.686 70.1073C281.7 73.3772 284.415 75.3723 288.472 76.6747C290.73 77.3675 291.218 77.4229 295.916 77.4229C300.584 77.4229 301.133 77.3675 303.39 76.6747C308.18 75.2338 312.329 72.3519 315.135 68.5555L316.661 66.4495V71.4651V76.4807H319.437H322.182L322.06 57.4158C321.938 36.0787 321.969 36.4112 319.711 32.2546C317.576 28.292 313.366 25.2438 308.668 24.2463C306.685 23.8306 301.834 23.4981 300.492 23.7198ZM316.569 53.5364C316.417 58.9954 316.081 60.464 314.19 63.9833C311.627 68.6941 306.441 72.3519 301.041 73.1555C297.807 73.6543 292.865 73.3772 290.577 72.6013C288.106 71.7422 285.605 69.5531 284.445 67.2531C283.652 65.729 283.561 65.2302 283.561 62.764C283.561 59.3002 284.14 57.6375 286.032 55.6978C288.594 53.1484 292.774 51.7629 301.102 50.6822C306.624 49.9894 315.745 48.8533 316.325 48.7979C316.661 48.7701 316.691 49.6292 316.569 53.5364Z" fill="black"/>
<path d="M260.833 24.1359C255.433 24.995 249.851 29.5949 247.837 34.8322C247.532 35.6358 247.166 36.3009 247.044 36.3009C246.892 36.3009 246.8 33.6684 246.8 30.4817V24.6624H244.359H241.919V50.5718V76.4812H244.359H246.8V63.3741C246.8 49.7682 247.044 45.7779 248.051 42.1201C250.125 34.7491 254.64 29.7335 260.528 28.3757C263.121 27.7937 266.05 27.9877 268.307 28.9299L269.985 29.6226V27.1841V24.7179L268.673 24.4407C266.721 23.9697 262.725 23.8311 260.833 24.1359Z" fill="black"/>
<path d="M176.634 41.4828C176.634 59.7718 176.756 61.6561 178.342 65.8958C179.41 68.8608 180.478 70.4958 182.461 72.4632C185.877 75.7608 189.965 77.2571 196.311 77.5065C204.883 77.8668 211.228 75.1234 215.469 69.2211L217.055 66.9765L217.147 71.7427L217.208 76.4812H219.953H222.699V50.5718V24.6624H219.953H217.208V40.6237C217.208 50.9598 217.086 57.2501 216.872 58.5525C215.835 64.5657 212.022 69.609 206.744 71.8813C203.968 73.0728 202.046 73.4331 198.507 73.4331C191.857 73.4331 186.671 70.9391 184.474 66.7271C182.247 62.4874 181.82 57.9706 181.82 38.5732V24.6624H179.227H176.634V41.4828Z" fill="black"/>
<path d="M266.11 88.4245C262.632 89.4221 259.49 92.2209 258.056 95.5461C257.202 97.5136 256.927 101.892 257.476 104.164C258.33 107.739 261.32 111.064 264.706 112.228C267.116 113.032 270.777 113.226 273.614 112.671C276.757 112.062 277.306 111.701 277.306 110.15C277.306 109.457 277.245 108.903 277.153 108.903C277.062 108.903 276.451 109.152 275.841 109.429C275.201 109.734 273.797 110.122 272.73 110.288C268.977 110.898 265.408 110.011 263.303 107.933C261.625 106.27 260.924 104.912 260.588 102.585C259.795 97.4305 261.991 92.9968 266.293 91.1125C268.367 90.198 272.058 90.0872 274.804 90.8631C275.994 91.1679 277.031 91.445 277.123 91.445C277.214 91.445 277.306 90.8353 277.306 90.0595V88.7016L275.719 88.2583C273.431 87.6486 268.52 87.7318 266.11 88.4245Z" fill="black"/>
<path d="M335.422 88.2024C330.296 89.7542 327.52 92.9963 326.727 98.4276C325.781 104.884 328.771 110.343 334.293 112.255C337.832 113.447 342.804 113.142 345.794 111.535C351.285 108.625 353.543 100.866 350.766 94.4095C349.821 92.2204 347.35 89.7542 345.092 88.7843C343.567 88.0915 342.926 88.0084 339.998 87.9253C337.832 87.8698 336.215 87.9807 335.422 88.2024ZM343.018 90.8903C346.862 92.2204 348.936 96.0445 348.601 101.254C348.417 104.33 347.716 106.076 346.038 107.794C344.269 109.567 342.225 110.371 339.235 110.399C336.215 110.426 333.957 109.484 332.218 107.461C329.32 104.136 328.954 98.2059 331.425 94.3818C332.401 92.83 334.354 91.306 336.001 90.7795C337.893 90.1698 341.035 90.2253 343.018 90.8903Z" fill="black"/>
<path d="M397.962 88.23C392.836 89.754 390.03 93.0793 389.267 98.5383C388.627 103.194 390.152 107.544 393.386 110.232C395.857 112.283 397.779 112.892 401.775 112.892C406.198 112.865 407.937 112.255 410.622 109.733C412.91 107.6 413.825 105.854 414.344 102.473C415.289 96.4046 412.635 91.001 407.632 88.7565C406.076 88.0637 405.527 87.9806 402.538 87.9251C400.402 87.8697 398.755 87.9806 397.962 88.23ZM406.229 91.1119C407.876 91.8878 409.707 93.7998 410.439 95.4901C411.263 97.4853 411.446 101.974 410.774 104.08C409.646 107.655 407.327 109.678 403.636 110.288C400.372 110.814 397.596 110.094 395.43 108.126C393.233 106.131 392.135 103 392.409 99.4805C392.745 95.0745 394.85 92.1926 398.877 90.6962C400.341 90.142 404.704 90.3914 406.229 91.1119Z" fill="black"/>
<path d="M435.727 88.341C429.229 90.447 425.66 96.2108 426.728 102.889C427.795 109.595 433.287 113.502 440.822 112.948C443.384 112.754 444.879 112.422 447.015 111.618L448.448 111.064V105.411V99.7578H443.872H439.296V101.143V102.529H442.347H445.398V105.937C445.398 109.872 445.55 109.678 442.073 110.315C440.608 110.565 439.693 110.565 437.985 110.315C434.11 109.734 431.7 107.849 430.449 104.469C429.9 102.972 429.809 102.196 429.9 100.007C429.992 97.7072 430.144 97.1253 430.999 95.5458C432.219 93.3012 434.08 91.7217 436.429 90.8904C438.961 90.0313 443.262 90.1976 445.825 91.2506C446.801 91.6663 447.655 91.9988 447.747 91.9988C447.808 91.9988 447.838 91.306 447.777 90.4193C447.686 88.8952 447.686 88.8675 446.465 88.4518C445.703 88.2024 443.75 88.0085 441.279 87.9253C437.985 87.8422 437.039 87.9253 435.727 88.341Z" fill="black"/>
<path d="M199.514 89.3661V90.6131H203.48H207.446V101.559V112.504H208.971H210.497V101.559V90.6131H214.462H218.428V89.3661V88.1191H208.971H199.514V89.3661Z" fill="black"/>
<path d="M230.936 100.312V112.504H238.105H245.274V111.257V110.01H239.63H233.986V105.715V101.42H238.867H243.748V100.173V98.954L238.959 98.8708L234.139 98.7877V94.7697V90.7516L239.416 90.6685L244.664 90.6131V89.3661V88.1191H237.8H230.936V100.312Z" fill="black"/>
<path d="M291.035 100.312V112.504H292.56H294.085V102.085V91.6661L297.38 96.3215C299.18 98.8985 302.536 103.582 304.793 106.741L308.881 112.504H310.803H312.694V100.312V88.1191H311.169H309.613L309.705 98.5106C309.766 104.219 309.796 108.902 309.766 108.902C309.766 108.902 306.471 104.219 302.444 98.5106L295.153 88.1191H293.109H291.035V100.312Z" fill="black"/>
<path d="M365.776 100.312V112.504H372.64H379.504V111.257V110.01H374.165H368.827V99.0648V88.1191H367.301H365.776V100.312Z" fill="black"/>
<path d="M463.093 100.312V112.504H464.618H466.143V100.312V88.1191H464.618H463.093V100.312Z" fill="black"/>
<path d="M483.929 99.8132C481.214 106.27 478.895 111.756 478.773 112.034C478.59 112.477 478.743 112.532 480.329 112.449L482.098 112.366L483.349 109.096L484.6 105.854H490.427H496.254L497.565 109.069C498.298 110.842 499.06 112.338 499.274 112.422C499.457 112.477 500.25 112.505 501.013 112.449L502.385 112.366L497.26 100.312L492.166 88.2579L490.518 88.1748L488.871 88.0916L483.929 99.8132ZM493.996 100.367L495.094 103.083H490.427H485.729L487.986 97.5132C489.237 94.4374 490.244 91.7494 490.274 91.5C490.274 91.2229 490.854 92.5253 491.586 94.3542C492.318 96.1831 493.416 98.8988 493.996 100.367Z" fill="black"/>
</svg>
