<?xml version="1.0" standalone="no"?>
<!DOCTYPE svg PUBLIC "-//W3C//DTD SVG 20010904//EN"
 "http://www.w3.org/TR/2001/REC-SVG-20010904/DTD/svg10.dtd">
<svg version="1.0" xmlns="http://www.w3.org/2000/svg"
 width="2178.000000pt" height="794.000000pt" viewBox="0 0 2178.000000 794.000000"
 preserveAspectRatio="xMidYMid meet">

<g transform="translate(0.000000,794.000000) scale(0.100000,-0.100000)"
fill="#000000" stroke="none">
<path d="M12940 4670 l0 -1380 90 0 90 0 0 1380 0 1380 -90 0 -90 0 0 -1380z"/>
<path d="M1790 4595 l0 -1305 90 0 90 0 2 1137 3 1137 52 -75 c29 -41 421
-551 871 -1134 l818 -1060 72 -3 72 -3 -2 1303 -3 1303 -93 3 -92 3 2 -1131
c2 -621 1 -1130 -2 -1130 -3 1 -28 35 -57 78 -29 42 -420 550 -870 1129 l-818
1052 -67 1 -68 0 0 -1305z"/>
<path d="M13770 4595 l0 -1305 488 0 c275 0 524 5 572 10 299 37 562 184 690
386 119 188 133 452 35 651 -79 161 -283 300 -481 328 -73 11 -81 20 -32 34
152 45 322 183 385 311 85 174 88 382 8 540 -71 141 -248 260 -458 310 -137
32 -282 40 -754 40 l-453 0 0 -1305z m942 940 c108 -19 166 -43 222 -95 68
-62 89 -122 84 -239 -3 -78 -8 -106 -30 -153 -46 -99 -122 -161 -258 -211 -48
-18 -85 -21 -287 -25 l-233 -4 0 364 c0 201 3 368 7 371 13 14 408 7 495 -8z
m88 -1099 c219 -52 326 -163 337 -349 12 -186 -60 -312 -226 -396 -81 -42
-158 -51 -438 -51 l-263 0 0 403 c0 222 3 407 8 411 4 5 120 6 257 4 192 -4
267 -9 325 -22z"/>
<path d="M16130 4595 l0 -1305 235 0 235 0 0 1305 0 1305 -235 0 -235 0 0
-1305z"/>
<path d="M17010 5715 l0 -185 388 -2 387 -3 3 -1117 2 -1118 230 0 230 0 0
1120 0 1120 390 0 390 0 0 185 0 185 -1010 0 -1010 0 0 -185z"/>
<path d="M6613 5663 l-73 -25 0 -239 0 -239 -175 0 -175 0 0 -80 0 -80 174 0
175 0 3 -697 c3 -621 6 -704 21 -756 49 -167 140 -255 297 -288 84 -17 212 -6
298 26 l72 27 0 75 c0 60 -3 74 -14 70 -79 -31 -158 -47 -226 -47 -133 0 -190
32 -242 137 l-33 68 -3 692 -3 693 261 0 260 0 0 80 0 80 -260 0 -260 0 0 265
c0 206 -3 265 -12 264 -7 0 -46 -12 -85 -26z"/>
<path d="M5119 5190 c-154 -19 -399 -99 -484 -158 l-40 -28 -3 -97 c-1 -53 0
-97 3 -97 2 0 35 21 72 46 95 65 228 130 330 160 75 23 107 27 213 27 104 0
135 -3 183 -21 121 -45 205 -134 252 -268 27 -78 55 -289 40 -302 -6 -5 -156
-30 -335 -56 -179 -27 -366 -59 -416 -71 -351 -89 -524 -273 -524 -558 0 -140
49 -254 151 -359 47 -49 85 -76 130 -97 105 -47 160 -56 329 -55 143 0 161 2
235 28 157 54 308 172 391 306 l39 64 3 -182 2 -182 91 0 91 0 -5 678 c-5 759
-5 757 -78 911 -70 149 -197 253 -361 295 -74 19 -224 27 -309 16z m568 -1062
c-6 -192 -25 -277 -89 -400 -52 -101 -156 -209 -245 -256 -91 -48 -197 -72
-317 -72 -56 0 -120 5 -144 10 -110 26 -206 100 -258 201 -24 46 -28 69 -32
157 -3 78 0 114 13 154 47 144 166 226 400 273 64 12 607 90 664 94 11 1 13
-27 8 -161z"/>
<path d="M11640 5194 c-14 -2 -58 -9 -99 -15 -138 -20 -357 -100 -443 -161
-27 -19 -28 -22 -28 -118 l0 -98 83 56 c277 187 570 240 774 141 146 -70 234
-240 237 -458 l1 -95 -310 -47 c-170 -25 -344 -54 -387 -62 -176 -37 -317
-101 -413 -189 -114 -105 -157 -204 -159 -368 -1 -114 13 -175 62 -260 66
-118 155 -190 288 -237 74 -25 90 -27 244 -27 153 0 171 2 245 27 157 52 293
156 385 293 l50 76 0 -181 0 -181 91 0 90 0 -4 688 c-4 770 -3 758 -77 908
-70 143 -208 253 -362 289 -65 15 -224 27 -268 19z m527 -1076 c-5 -197 -16
-250 -78 -377 -84 -170 -254 -302 -431 -331 -106 -18 -268 -8 -343 20 -81 31
-163 110 -201 193 -26 55 -29 73 -29 162 0 125 19 185 81 255 84 92 221 142
494 181 181 25 480 66 499 68 11 1 12 -30 8 -171z"/>
<path d="M10340 5179 c-177 -31 -360 -197 -426 -386 -10 -29 -22 -53 -26 -53
-5 0 -8 95 -8 210 l0 210 -80 0 -80 0 0 -935 0 -935 80 0 80 0 0 473 c0 491 8
635 41 767 68 266 216 447 409 496 85 21 181 14 255 -20 l55 -25 0 88 0 89
-43 10 c-64 17 -195 22 -257 11z"/>
<path d="M7580 4553 c0 -660 4 -728 56 -881 35 -107 70 -166 135 -237 112
-119 246 -173 454 -182 281 -13 489 86 628 299 l52 81 3 -172 2 -171 90 0 90
0 0 935 0 935 -90 0 -90 0 0 -576 c0 -373 -4 -600 -11 -647 -34 -217 -159
-399 -332 -481 -91 -43 -154 -56 -270 -56 -218 0 -388 90 -460 242 -73 153
-87 316 -87 1016 l0 502 -85 0 -85 0 0 -607z"/>
<path d="M10513 2859 c-114 -36 -217 -137 -264 -257 -28 -71 -37 -229 -19
-311 28 -129 126 -249 237 -291 79 -29 199 -36 292 -16 103 22 121 35 121 91
0 25 -2 45 -5 45 -3 0 -23 -9 -43 -19 -21 -11 -67 -25 -102 -31 -123 -22 -240
10 -309 85 -55 60 -78 109 -89 193 -26 186 46 346 187 414 68 33 189 37 279 9
39 -11 73 -21 76 -21 3 0 6 22 6 50 l0 49 -52 16 c-75 22 -236 19 -315 -6z"/>
<path d="M12785 2867 c-168 -56 -259 -173 -285 -369 -31 -233 67 -430 248
-499 116 -43 279 -32 377 26 180 105 254 385 163 618 -31 79 -112 168 -186
203 -50 25 -71 28 -167 31 -71 2 -124 -2 -150 -10z m249 -97 c126 -48 194
-186 183 -374 -6 -111 -29 -174 -84 -236 -58 -64 -125 -93 -223 -94 -99 -1
-173 33 -230 106 -95 120 -107 334 -26 472 32 56 96 111 150 130 62 22 165 20
230 -4z"/>
<path d="M14835 2866 c-168 -55 -260 -175 -285 -372 -21 -168 29 -325 135
-422 81 -74 144 -96 275 -96 145 1 202 23 290 114 75 77 105 140 122 262 31
219 -56 414 -220 495 -51 25 -69 28 -167 30 -70 2 -124 -2 -150 -11z m271
-104 c54 -28 114 -97 138 -158 27 -72 33 -234 11 -310 -37 -129 -113 -202
-234 -224 -107 -19 -198 7 -269 78 -72 72 -108 185 -99 312 11 159 80 263 212
317 48 20 191 11 241 -15z"/>
<path d="M16073 2862 c-213 -76 -330 -284 -295 -525 35 -242 215 -383 462
-363 84 7 133 19 203 48 l47 20 0 204 0 204 -150 0 -150 0 0 -50 0 -50 100 0
100 0 0 -123 c0 -142 5 -135 -109 -158 -48 -9 -78 -9 -134 0 -127 21 -206 89
-247 211 -18 54 -21 82 -18 161 3 83 8 104 36 161 40 81 101 138 178 168 83
31 224 25 308 -13 32 -15 60 -27 63 -27 2 0 3 25 1 57 -3 55 -3 56 -43 71 -25
9 -89 16 -170 19 -108 3 -139 0 -182 -15z"/>
<path d="M8330 2825 l0 -45 130 0 130 0 0 -395 0 -395 50 0 50 0 0 395 0 395
130 0 130 0 0 45 0 45 -310 0 -310 0 0 -45z"/>
<path d="M9360 2430 l0 -440 235 0 235 0 0 45 0 45 -185 0 -185 0 0 155 0 155
160 0 160 0 0 45 0 44 -157 3 -158 3 0 145 0 145 173 3 172 2 0 45 0 45 -225
0 -225 0 0 -440z"/>
<path d="M11330 2430 l0 -440 50 0 50 0 0 376 0 376 108 -168 c59 -93 169
-262 243 -376 l134 -208 63 0 62 0 0 440 0 440 -50 0 -51 0 3 -375 c2 -206 3
-375 2 -375 0 0 -108 169 -240 375 l-239 375 -67 0 -68 0 0 -440z"/>
<path d="M13780 2430 l0 -440 225 0 225 0 0 45 0 45 -175 0 -175 0 0 395 0
395 -50 0 -50 0 0 -440z"/>
<path d="M16970 2430 l0 -440 50 0 50 0 0 440 0 440 -50 0 -50 0 0 -440z"/>
<path d="M17653 2448 c-89 -233 -165 -431 -169 -441 -6 -16 -1 -18 51 -15 l58
3 41 118 41 117 191 0 191 0 43 -116 c24 -64 49 -118 56 -121 6 -2 32 -3 57
-1 l45 3 -168 435 -167 435 -54 3 -54 3 -162 -423z m330 -20 l36 -98 -153 0
-154 0 74 201 c41 111 74 208 75 217 0 10 19 -37 43 -103 24 -66 60 -164 79
-217z"/>
</g>
</svg>
