<svg width="816" height="421" viewBox="0 0 816 421" fill="none" xmlns="http://www.w3.org/2000/svg">
<path d="M436.843 363.168C431.229 364.631 425.069 365.051 419.443 366.363C405.243 369.344 390.664 371.951 376.186 373.49C361.059 375.099 345.066 378.109 329.937 378.955C268.521 382.392 204.501 384.266 146.042 361.996C137.327 358.676 124.859 352.14 116.828 347.832C102.854 340.453 89.4885 331.979 76.8556 322.488C45.1153 298.321 17.6306 266.479 12.6166 225.558C5.47553 167.277 41.4573 123.977 86.7636 93C121.233 69.8685 159 52.0738 198.786 40.2188C205.117 38.2806 211.519 36.712 217.902 34.9309C267.916 20.9754 322.176 13.5094 373.87 11.1179C437.042 8.05294 500.342 13.2144 562.184 26.4725C567.18 27.5437 572.252 28.4629 577.217 29.664C616.016 39.0483 655.972 52.1502 691.413 70.4962C709.155 79.7271 726.001 90.5839 741.731 102.927C771.566 126.001 798.437 158.412 802.896 196.908C806.478 227.865 799.553 253.066 781.551 278.328C746.971 326.861 689.357 356.117 634.91 375.552C620.622 380.768 606.119 385.377 591.441 389.366C584.867 391.111 578.113 392.294 571.511 393.889C528.424 404.295 485.102 409.429 440.796 411.122C388.8 413.552 336.691 410.549 285.317 402.169C281.211 401.523 261.757 398.656 259.382 396.8C259.303 395.465 259.159 395.983 259.959 394.862C263.168 393.714 273.112 393.551 276.905 393.226C293.372 391.813 310.136 388.922 326.617 391.181C331.258 391.817 336.285 392.139 340.973 392.574C352.656 393.551 364.357 394.312 376.068 394.855C475.161 399.803 593.967 382.763 682.807 337.184C703.043 326.801 722.822 314.969 739.759 299.634C760.331 281.003 776.029 260.434 783.225 233.254C784.85 227.114 786.245 221.189 786.544 214.817C786.938 206.413 785.819 198.579 783.878 190.445C778.683 168.673 767.542 151.306 752.601 134.955C741.811 123.146 728.543 112.834 715.287 103.952C672.272 75.1324 622.945 57.7407 572.874 45.7835C567.296 44.4512 561.777 42.8285 556.163 41.6639C547.003 39.7644 537.783 38.4488 528.567 36.9071C519.638 35.4135 510.709 33.6757 501.733 32.5334C484.241 30.4329 466.686 28.9289 449.091 28.0241C440.991 27.6305 432.887 27.5736 424.786 27.2029C412.411 26.6364 400.338 27.1659 387.982 27.4234C285.779 29.5527 148.213 56.0898 70.9444 126.722C56.4226 139.996 43.2116 156.981 36.2942 175.524C34.4698 180.415 33.2874 185.394 32.096 190.462C30.8933 195.579 29.5772 200.643 29.3552 205.919C29.0926 212.164 29.124 218.782 30.045 224.97C30.5427 228.313 31.544 231.653 32.4146 234.917C37.7525 254.93 48.3363 272.241 62.3202 287.391C86.3779 313.454 118.339 331.789 150.499 345.962C162.955 351.451 175.566 356.569 188.848 359.758C198.27 362.02 208.35 363.216 217.948 364.543C229.207 366.101 240.59 367.856 251.908 368.85C265.536 370.047 279.273 370.375 292.943 370.916C306.916 371.469 320.929 370.952 334.889 370.351C345.799 369.881 356.685 369.546 367.574 368.6C371.616 368.249 375.612 367.51 379.642 367.055C392.07 365.652 404.442 364.17 416.798 362.183C421.846 361.371 430.922 360.759 435.066 358.256C437.823 356.589 438.911 349.481 440.413 346.501C441.911 343.531 444.035 340.613 446.501 338.377C450.494 334.761 458.331 331.736 463.789 331.967C465.319 332.896 464.132 333.35 465.614 335.07C468.718 335.377 477.42 326.712 486.389 326.73C487.078 327.891 486.644 330.125 486.5 331.61C487.369 332.35 489.999 330.681 490.939 330.114C496.445 326.789 501.063 325.379 507.554 325.38L510.757 327.11C515.973 324.245 522.276 321.822 527.452 318.366C528.428 317.713 530.125 319.223 532.018 318.574C534.592 317.692 541.357 312.339 543.573 312.549C544.748 313.784 545.947 315.137 547.653 314.167C550.533 312.527 564.59 301.765 567.415 301.903C566.809 302.983 566.698 303.149 566.582 304.374C569.73 309.555 589.999 290.275 593.286 288.603L593.441 288.524C592.345 290.349 590.891 291.937 591.959 293.939C594.652 294.159 609.39 286.824 611.893 284.787L613.032 285.654C611.279 287.612 609.442 289.086 609.502 291.632L610.088 292.114C615.04 291.03 624.583 288.605 628.994 286.321C629.914 285.843 636.412 280.714 637.608 279.787L637.54 280.01C636.249 284.171 633.811 286.045 631.799 289.602C628.946 294.643 626.742 300.052 623.16 304.691C621.619 306.717 617.993 308.482 618.144 311.209C620.419 313.81 628.802 310.471 631.352 308.977L632.631 309.615C627.069 314.93 620.332 319.611 614.829 325.146C612.873 327.118 604.498 330.606 605.295 333.279C607.299 334.119 613.048 333.089 615.506 332.764C609.506 337.166 598.864 339.375 591.891 342.871C590.05 343.794 588.237 346.001 586.648 346.933C581.583 349.9 576.213 352.391 570.746 354.416C569.802 355.815 570.112 357.02 569.746 359.006C566.443 362.598 545.899 362.271 541.907 363.803C538.449 365.13 534.823 370.041 528.767 371.345C522.204 372.757 520.487 371.114 514.981 371.563C515.379 373.49 515.762 373.574 515.025 374.905C510.458 378.293 498.812 375.861 493.867 376.071C493.361 376.817 493.114 377.299 492.7 378.104C490.6 379.313 481.847 379.397 479.121 379.143C477.484 378.991 473.36 377.123 471.718 377.31C471.483 378.464 471.435 378.657 470.878 379.691C470.192 380.179 469.686 380.324 468.846 380.39C459.61 381.111 450.223 381.063 442.7 374.89C438.162 371.165 437.417 368.52 436.843 363.168ZM596.362 326.552C601.78 326.296 614.702 323.548 614.371 316.753C612.666 313.876 603.844 314.398 600.896 314.787C596.529 315.58 583.703 320.38 583.663 325.251C585.249 327.125 593.935 326.777 596.362 326.552ZM462.885 356.709C467.136 356.558 469.563 355.478 473.571 354.078C477.994 349.022 481.046 339.918 481.452 333.333C480.751 332.827 481.014 332.978 480.082 332.871C473.033 335.858 466.403 341.28 463.463 348.529C462.658 350.513 462.024 353.72 461.467 355.908L461.789 356.462L462.885 356.709ZM523.85 367.147C526.181 366.834 529.48 366.819 530.914 364.819C530.492 362.756 523.244 357.591 521.292 356.119C518.842 354.272 512.152 354.092 508.976 354.262C506.709 354.419 503.41 354.64 501.525 355.89C497.035 362.914 520.451 366.51 523.85 367.147ZM483.397 354.284C487.899 354.045 489.708 353.155 493.931 351.481C499.633 343.468 500.677 339.631 502.617 330.03C502.506 329.866 502.283 329.478 502.143 329.394C499.418 331.54 496.234 332.171 493.577 333.855C487.803 337.509 484.034 347.571 482.604 353.914L482.891 354.295L483.397 354.284ZM441.461 361.547C442.465 366.203 443.473 370.346 447.9 373.072C452.016 375.607 458.765 376.82 463.55 376.939C460.295 365.898 452.785 361.148 441.461 361.547ZM460.514 360.217C462.594 369.764 476.173 376.541 485.293 374.744C484.652 371.106 480.783 367.917 477.894 365.831C472.356 361.825 467.073 361.118 460.514 360.217ZM601.665 294.87C593.258 299.128 587.584 301.99 584.038 311.732C583.56 313.038 582.6 316.092 582.623 317.397L582.93 317.765C586.911 317.416 594.437 309.823 596.959 306.744C599.86 303.2 602.107 299.887 601.987 295.182L601.665 294.87ZM505.155 372.285C505.303 362.148 487.907 360.877 480.894 360.404C484.588 367.568 497.338 372.52 505.155 372.285ZM548.533 358.715C550.756 358.839 553.864 359.383 554.251 356.652C553.358 354.235 550.597 352.667 548.362 351.645C543.557 349.449 538.257 348.557 532.998 349.06C529.643 349.448 527.798 349.78 524.515 350.579C531.775 354.543 540.106 358.222 548.533 358.715ZM565.718 349.538C568.204 349.287 569.814 349.289 571.69 347.646L572.085 346.75C570.352 343.571 552.996 340.916 549.031 341.413C547.362 341.84 545.122 342.207 543.903 343.324L543.553 344.153C545.688 348.195 560.928 350.565 565.718 349.538ZM562.721 330.81C564.447 330.027 571.077 327.468 571.83 326.653C575.248 322.967 577.774 310.567 578.456 306.271L578.113 305.558C568.065 309.207 563.51 320.191 562.136 330.134L562.721 330.81ZM607.016 307.868C609.837 306.906 610.442 307.023 613.375 307.391C615.702 304.666 623.097 296.983 622.352 293.727C621.583 293.364 621.519 293.414 620.646 293.573C614.275 295.972 609.159 296.793 606.195 303.776C605.649 305.065 604.876 306.451 605.059 307.804C606.155 308.21 605.745 308.114 607.016 307.868ZM514.606 346.024C518.794 340.281 519.806 332.44 521.563 325.368C521.467 325.006 521.415 324.544 521.196 324.321C514.096 328.388 508.713 334.908 506.582 342.85C506.211 344.23 504.805 348.464 504.928 349.348L505.327 349.701C508.454 349.435 511.251 347.211 514.606 346.024ZM460.239 335.739C450.673 338.259 444.637 346.151 443.796 355.915L444.234 356.514L445.186 356.628C451.466 354.614 453.86 353.775 457.335 347.343C458.375 345.422 461.267 337.809 461.152 335.93C460.729 335.799 460.646 335.712 460.239 335.739ZM556.315 313.658C550.195 317.235 543.573 329.426 544.489 336.198L544.879 336.808L546.374 336.637C553.908 334.648 559.167 327.511 558.446 319.704C558.287 317.993 557.952 316.169 557.669 314.468C557.048 313.659 557.394 313.896 556.315 313.658ZM539.377 319.759C532.584 323.898 526.838 328.986 524.639 337.086C524.248 338.536 523.336 344.281 524.029 345.456C538.704 340.499 540.142 335.124 539.867 320.437L539.377 319.759ZM579.181 330.677C575.699 331.263 563.642 332.54 562.554 336.214C563.634 339.533 575.579 340.902 578.83 341.122C581.671 341.506 591.987 338.554 593.879 336.333C593.712 332.595 582.775 330.344 579.671 330.625C579.508 330.64 579.344 330.657 579.181 330.677Z" fill="#00FFFF"/>
<path d="M74.6074 148.703C83.7786 148.671 92.157 148.856 101.65 148.995C119.03 149.294 138.957 146.484 155.758 151.126C171.726 155.538 174.979 176.382 169.839 189.899C166.255 199.206 159.138 206.721 150.038 210.807C142.485 214.147 131.284 215.529 123.229 213.515C120.019 212.713 117.212 208.292 118.789 204.754C122.541 201.684 133.097 206.549 139.322 199.153C147.862 189.008 148.054 173.229 139.006 163.442C133.324 157.296 121.702 159.202 114.221 159.423C114.428 162.671 114.271 164.123 113.909 167.38C112.695 177.146 113.419 193.546 113.384 203.723C113.327 220.424 113.736 237.456 114.39 254.156C114.442 255.472 114.904 259.628 115.833 260.18C118.412 261.711 127.854 262.242 130.696 261.949C130.895 264.38 131.596 268.762 129.854 270.602C123.854 271.15 109.206 270.137 102.158 270.145C92.294 270.156 81.4705 271.138 72.0745 271.02C72.0056 268.202 72.112 265.384 72.3925 262.58C75.5306 261.817 83.0519 261.976 85.0074 259.33C88.0363 255.232 87.5192 192.659 87.1482 182.982C86.849 175.169 86.4402 166.82 85.125 159.116C77.9511 157.208 71.2334 159.272 72.2853 149.989C73.1077 148.905 73.0627 149.188 74.6074 148.703Z" fill="#00FFFF"/>
<path d="M561.845 175.341C564.06 175.177 577.81 175.774 581.328 175.936C595.604 176.593 613.036 172.861 626.344 177.192C630.942 178.929 636.285 182.54 637.974 187.317C644.022 204.404 634.177 214.526 619.885 220.768C622.459 227.211 640.923 255.07 645.807 260.035C646.712 260.956 647.716 261.993 648.844 262.631C650.537 263.59 653.402 263.551 654.569 265.107C655.227 266.925 654.816 268.261 654.051 269.983C653.565 270.317 628.607 271.04 627.902 270.454C623.595 266.853 610.45 244.508 606.824 238.936C603.764 234.237 595.166 223.948 597.174 220.138C598.366 219.227 599.796 219.421 601.342 219.412C616.662 219.545 624.551 199.179 614.072 188.429C608.876 183.097 600.298 184.021 593.345 184.307C592.357 193.703 591.636 255.247 593.744 260.451C594.612 262.599 601.294 263.159 603.501 264.243C604.617 264.791 605.45 265.463 605.844 266.683C605.84 268.673 604.533 270.514 602.382 270.417C589.708 269.851 577.041 270.049 564.355 270.257C563.004 270.279 562.689 270.373 561.761 269.571C561.215 268.009 561.57 266.092 561.737 264.411C564.558 263.656 568.084 263.677 570.535 262.081C573.308 257.979 571.758 191.073 570.662 183.435C567.718 182.699 564.14 182.38 561.076 182.021C561.056 180.049 561.04 177.093 561.845 175.341Z" fill="#00FFFF"/>
<path d="M283.298 175.309C285.422 175.275 309.901 175.701 310.054 175.75C310.957 176.041 311.88 177.168 312.477 177.865C316.831 182.952 320.662 188.464 324.898 193.645C332.264 202.657 339.932 211.442 347.349 220.416C350.577 224.323 359.619 236.398 363.508 238.179C364.452 238.611 364.924 238.67 365.889 238.338C367.926 233.894 366.264 191.254 365.264 183.854C361.726 182.963 357.739 182.57 354.091 182.118L354.433 175.689C356.035 175.398 386.056 175.719 387.288 176.047C387.822 177.401 387.722 178.972 387.661 180.461C387.499 184.468 381.699 180.572 378.877 183.611C377.791 184.628 377.061 186.635 376.937 188.111C376.279 195.939 376.457 203.981 376.453 211.839L376.456 254.925C376.46 259.782 376.491 264.513 376.698 269.371C376.765 270.944 376.306 271.602 375.295 272.583C373.921 273.029 373.109 272.583 371.733 272.097C369.349 271.56 364.814 271.329 363.17 269.857C356.764 264.122 349.907 255.23 344.319 248.622C332.463 234.601 320.488 220.933 309.242 206.463C308.026 204.898 306.277 202.893 304.291 202.689C302.568 206.273 304.442 252.706 304.687 260.404C304.766 262.896 317.318 262.43 316.523 267.016C316.411 267.662 315.726 269.479 314.949 270.016C304.744 270.629 294.308 269.899 284.044 270.429C282.078 270.529 281.359 266.926 282.148 265.538C283.42 263.303 290.102 262.585 292.631 261.825C294.622 254.065 294.427 193.143 293.044 184.29C290.087 183.008 285.585 182.518 282.284 182.031C282.293 179.688 282.112 177.303 283.298 175.309Z" fill="#00FFFF"/>
<path d="M707 174.27C709.195 174.164 711.526 174.192 713.733 174.181C717.805 180.987 721.491 192.287 724.658 199.716C732.894 219.035 740.588 238.596 749.114 257.801C750.824 261.645 754.274 262.16 757.888 263.213C760.785 264.057 761.211 267.684 760.083 269.995C758.426 270.977 745.122 270.199 742.002 270.155C736.859 270.127 731.711 270.234 726.571 270.476C724.981 270.541 717.973 271.135 717.391 270.125C712.693 261.969 724.148 262.253 727.169 261.915C725.818 258.361 720.949 245.645 720.447 242.486L711.311 242.434C703.051 242.426 694.792 242.463 686.532 242.545C685.635 247.708 681.623 255.486 681.531 260.615C681.5 262.476 688.56 261.912 690.696 263.448C692.397 265.695 693.393 270.84 689.237 270.635C684.297 270.111 679.344 270.404 674.431 270.222C669.853 270.052 663.885 271.234 659.554 270.703C658.665 270.037 658.661 270.015 658.458 268.835C657.398 262.702 662.395 262.925 666.694 262.217C671.802 254.997 675.208 245.041 678.428 236.812L687.783 213.151C688.381 211.619 689.114 210.001 689.847 208.527C695.202 197.789 697.724 185.318 703.979 175.034C705.019 174.149 705.657 174.275 707 174.27ZM705.868 233.006C708.992 232.947 713.291 232.748 716.319 232.933C714.375 229.188 704.426 203.535 703.051 202.548C700.075 210.448 693.146 225.171 691.648 233.009C696.385 232.896 701.127 232.895 705.868 233.006Z" fill="#00FFFF"/>
<path d="M223.322 174.276C225.052 174.184 231.325 173.53 232.106 175.521C238.636 192.142 246.017 208.728 252.614 225.314L261.996 248.249C263.636 252.206 265.431 257.105 267.663 260.74C269.364 263.511 273.46 261.492 276.067 264.085C277.016 265.992 277.286 267.558 276.759 269.645C273.877 270.664 239.66 270.449 234.08 270.394C234.108 268.303 234.296 265.789 234.399 263.667C238.002 262.361 240.395 262.322 244.205 261.981C242.51 255.923 238.336 246.907 237.422 242.48L230.396 242.395L203.874 242.505C203.53 243.963 202.983 245.362 202.434 246.753C200.516 251.615 199.237 256.601 198.06 261.692C202.235 262.559 211.979 261.513 208.587 269.683C206.93 270.803 180.873 270.397 176.825 270.408C176.871 268.656 176.761 265.641 177.641 264.156C179.468 261.071 183.703 263.649 185.654 260.487C187.553 257.41 188.644 254.086 190.045 250.772C193.008 243.93 195.837 237.03 198.531 230.077C205.676 211.892 213.04 193.639 220.726 175.696C221.243 174.489 222.251 174.475 223.322 174.276ZM223.623 232.878C227.007 232.917 230.392 232.934 233.776 232.927C232.596 230.792 231.403 228.373 230.436 226.36C228.532 222.394 222.538 204.463 219.93 202.504C218.905 206.005 217.691 209.449 216.292 212.819C214.396 217.49 208.723 228.272 209.343 232.67C210.415 233.32 221.368 232.86 223.623 232.878Z" fill="#00FFFF"/>
<path d="M478.902 175.34C485.862 175.008 495.552 176.048 503.326 175.994C515.61 175.908 527.531 175.224 539.763 175.235C542.158 175.237 548.883 175.122 550.883 175.59C552.649 178.58 549.991 193.653 549.095 197.524C547.206 197.757 545.289 197.747 543.385 197.778C542.393 194.27 541.943 189.927 541.7 186.296C532.041 182.735 520.268 185.237 510.737 184.153C511.016 194.514 509.92 205.815 510.028 216.625C516.498 216.556 522.869 217.02 529.38 216.612C537.592 216.098 532.177 208.921 536.352 205.702C537.799 205.455 539.715 205.197 541.03 205.997C541.58 206.329 541.652 206.811 541.811 207.405C542.544 210.152 542.847 234.801 541.855 236.23C541.373 236.929 539.958 237.718 539.134 237.882C533.36 239.021 535.747 227.982 532.177 225.973C529.922 224.702 513.339 224.524 510.597 225.266L510.338 226.132C510.562 230.686 510.354 235.936 510.442 240.611C510.57 247.255 510.864 254.121 510.673 260.734C519.036 260.618 534.703 261.292 542.516 259.577C544.273 255.198 544.572 251.526 545.919 247.168C546.477 245.372 550.509 244.73 552.274 245.771C552.728 246.422 553.334 247.101 553.178 247.937C552.541 251.351 552.485 268.27 550.768 270.013C546.712 271.257 511.044 269.837 504.394 270.02C502.043 270.085 485.707 270.331 483.56 270.179C478.635 267.084 484.755 264.086 487.532 262.81C491.612 253.395 489.966 207.386 489.863 194.622C489.847 192.645 488.683 186.227 488.245 183.879C484.452 182.845 481.822 182.446 477.93 181.94C477.862 179.512 477.639 177.414 478.902 175.34Z" fill="#00FFFF"/>
<path d="M430.464 173.778C438.361 172.704 453.86 174.333 460.562 178.921C464.108 181.351 460.785 197.184 459.717 201.005C459.454 201.945 454.625 201.487 453.769 201.434C452.948 197.746 452.717 194.092 452.434 190.34C451.948 189.823 451.45 189.319 450.944 188.828C440.206 178.523 416.001 180.957 416.869 199.271C417.156 205.355 420.627 208.504 426.257 209.902C443.334 214.143 466.993 211.209 467.921 235.687C469.312 260.372 449.968 271.74 427.288 272.483C421.714 271.174 397.61 270.851 398.335 261.592C398.78 255.92 399.581 246.897 400.358 241.145L401.306 241.007C403.048 240.762 405.721 240.203 407.14 241.27C408.725 246.259 406.167 253.844 411 257.301C416.268 261.071 426.559 263.533 433.07 263.209C436.13 263.057 444.003 259.515 445.716 256.837C448.461 252.526 449.991 248.763 449.242 243.497C446.764 226.055 418.909 234.219 407.295 223.922C402.187 219.392 400.087 216.885 399.175 209.926C398.04 201.267 399.103 192.833 404.721 185.94C411.614 177.484 420.388 175.128 430.464 173.778Z" fill="#00FFFF"/>
<path d="M516.271 97.7664C526.802 96.9563 538.962 106.595 528.731 116.284C527.591 117.363 524.176 117.382 522.846 119.132C522.858 121.054 525.862 123.435 527.276 124.843C530.209 127.769 529.583 131.302 531.006 134.903C531.787 136.884 535.237 139.204 535.205 141.666C533.46 143.067 525.129 142.47 522.73 141.944C520.041 134.714 519.925 129.113 516.331 123.143C514.753 122.076 512.988 120.926 511.064 121.352C510.972 121.591 510.897 121.836 510.841 122.085C510.506 123.497 510.602 136.591 511.307 138.586C511.781 139.92 513.064 139.103 514.439 141.334L514.176 141.864C511.554 143.152 500.975 141.858 497.393 142.139C496.899 142.177 496.808 141.83 496.485 141.388C496.943 140.074 498.529 139.405 499.904 137.787C501.131 134.299 500.127 111.085 500.143 106.045C500.155 102.68 498.346 102.191 496.302 100.525L496.37 99.877C498.684 98.4336 512.805 97.9644 516.271 97.7664ZM510.693 117.617C513.566 117.068 515.833 116.607 518.471 115.191C521.555 112.218 520.646 107.845 519.698 104.133C516.052 101.689 515.22 101.884 510.841 101.448L510.693 117.617Z" fill="#00FFFF"/>
<path d="M209.538 98.3774C213.406 98.7916 222.671 98.6693 227.543 98.4774C239.967 97.9886 251.513 107.383 240.44 118.544C236.234 122.784 228.052 122.912 221.818 122.304L221.518 129.192C221.566 131.566 221.576 136.578 222.937 138.545C223.278 139.036 226.112 139.934 226.54 141.728C224.845 142.907 208.39 142.736 207.42 141.563C208.345 137.939 211.405 140.316 211.009 132.137C210.564 122.949 211.597 112.797 210.623 103.553C210.438 101.796 208.123 101.865 207.524 99.7941C208.087 98.7231 208.219 98.939 209.538 98.3774ZM228.691 117.044C232.417 114.321 232.463 110.061 231.86 105.813C228.628 103.199 227.284 102.685 223.035 102.811C222.361 103.719 222.096 115.869 221.994 117.922C223.622 118.714 227.111 117.775 228.691 117.044Z" fill="#00FFFF"/>
<path d="M399.836 98.9649C404.127 98.3829 405.239 107.027 404.183 109.652L403.561 109.741C401.533 108.693 399.214 105.937 397.393 104.366C394.433 101.811 388.363 102.573 384.555 102.764C384.35 107.395 384.497 112.771 384.382 117.544C393.742 116.899 389.639 113.018 394.692 110.928L395.421 111.391C396.443 113.756 396.512 126.699 395.006 128.153C391.031 127.177 393.804 122.385 384.631 121.533C384.181 132.955 381.192 141.564 396.363 138.172C401.374 136.24 403.334 132.83 406.558 131.49L407.135 131.901C407.888 134.642 407.028 140.008 404.717 141.92C401.788 142.746 373.009 142.29 369.239 141.891C370.507 140.59 372.008 139.224 372.819 137.582C374.295 134.593 374.236 108.166 373.262 104.163C372.788 102.218 370.865 102.054 370.273 100.258L370.688 99.636C372.831 98.5275 395.115 99.2612 399.836 98.9649Z" fill="#00FFFF"/>
<path d="M322.476 98.5451C336.978 98.2376 351.456 98.7458 365.949 98.2543C366.246 100.925 367.936 109.19 366.202 111.15C363.786 110.913 360.907 105.887 357.418 103.551C354.597 103.452 351.418 103.541 348.565 103.563C351.086 111.388 345.32 130.484 351.027 138.778C351.52 138.946 354.37 139.337 355.208 139.497C355.953 140.306 355.763 139.895 355.743 141.216C353.54 144.405 340.593 142.554 336.503 142.939C334.805 143.099 332.46 142.5 331.512 140.877C332.475 139.147 337.577 139.238 337.84 135.191C338.515 124.83 337.225 113.746 337.903 103.44L329.636 103.58C326.013 105.812 324.627 107.901 321.752 111.08L321.264 111.101C319.564 108.93 319.924 100.312 322.476 98.5451Z" fill="#00FFFF"/>
<path d="M297.153 97.7286C302.017 97.2901 304.706 97.9811 309.43 98.7992C310.722 99.0226 311.61 97.3056 313.775 98.6682C315.734 101.855 314.803 108.587 314.474 112.397C310.87 107.347 309.644 105.085 304.255 101.958C302.343 101.921 297.627 101.631 296.326 103.438C289.564 113.431 307.939 112.939 313.236 118.475C320.138 125.688 319.897 131.866 313.315 139.312C309.793 143.297 305.71 143.061 300.509 143.3C297.082 143.111 295.227 142.367 292.029 141.264C288.029 143.467 286.049 143.681 286.294 138.184C286.398 135.869 285.93 129.132 287.527 127.621C290.938 128.287 295.825 144.401 305.281 138.92C310.279 136.024 309.36 132.304 307.173 127.895C300.339 124.203 290.083 123.383 286.843 115.243C283.454 106.729 289.984 100.616 297.153 97.7286Z" fill="#00FFFF"/>
<path d="M261.455 97.3574C267.784 100.955 274.929 129.594 279.59 136.536C280.548 137.963 283.328 140.562 283.447 141.953C281.893 142.461 267.252 142.962 264.968 142.479C264.382 142.355 264.304 141.904 264.157 141.449C264.49 140.516 266.708 138.914 267.597 138.188C267.976 135.829 265.497 129.476 264.407 127.154C264.252 126.825 263.404 126.96 263.065 126.966C259.691 126.994 256.17 127.093 252.823 126.77C252.222 129.776 250.985 133.157 249.991 136.105C251.042 137.921 252.693 139.281 254.119 141.335L253.967 141.952C251.011 143.598 244.412 143.173 241.154 142.204C240.774 142.091 240.625 141.46 240.449 141.07C240.855 139.57 240.501 140.419 241.808 139.378C250.685 132.309 253.729 103.521 261.455 97.3574ZM259.683 124.089C261.017 124.092 262.351 124.072 263.685 124.029C262.734 120.595 261.737 116.881 260.489 113.557L257.973 111.36C256.54 116.605 254.119 119.176 253.8 124.159C255.542 124.103 258.001 123.949 259.683 124.089Z" fill="#00FFFF"/>
<path d="M470.017 97.3948C470.897 97.5186 472.128 98.1006 472.579 98.9003C476.954 106.703 479.707 115.856 483.221 124.103C484.368 127.727 486.309 131.522 487.576 135.02C488.747 138.258 493.556 140.003 492.899 141.883C490.755 142.559 476.495 142.804 474.67 141.83L474.543 141.194C475.296 140.062 475.989 139.328 476.898 138.323C477.444 136.202 474.814 129.334 474.029 126.864C472.79 126.802 471.499 126.821 470.256 126.817C467.359 126.925 464.929 127.083 462.044 126.744C461.112 128.625 460.331 130.578 459.709 132.582C457.446 139.952 461.773 138.481 463.231 141.256C461.57 142.953 451.091 142.585 449.465 141.146C449.84 139.558 454.693 136.936 455.446 134.539C457.378 128.392 459.629 122.152 461.992 116.156C464.072 110.872 466.204 101.481 470.017 97.3948Z" fill="#00FFFF"/>
<path d="M584.52 97.3984C588.09 98.8103 589.839 105.714 591.257 109.116C594.811 117.634 597.843 126.381 601.417 134.896C602.581 137.668 604.593 139.017 605.724 141.436C604.254 142.834 589.309 142.645 587.5 141.323L587.464 140.722C588.333 139.829 589.472 139.537 590.648 139.121C591.695 136.442 589.062 129.263 588.157 126.457C586.787 126.37 584.719 126.434 583.288 126.431C577.28 126.917 572.941 128.269 573.463 136.075C573.654 138.926 575.893 140.097 578.109 141.659C575.65 142.014 564.506 143.209 563.502 140.79C564.295 139.473 565.57 139.877 566.638 138.947C567.713 138.014 568.674 135.953 569.283 134.651C572.503 127.735 580.463 100.975 584.52 97.3984ZM579.416 122.965C581.38 123.006 583.456 123.012 585.404 123.149L586.225 123.052C586.631 121.063 583.571 116.301 581.32 115.68C579.455 118.492 579.595 119.635 579.416 122.965Z" fill="#00FFFF"/>
<path d="M413.104 98.9111C417.431 99.033 426.587 98.6343 430.472 99.5118C431.456 100.708 426.165 103.856 426.396 106.286C426.934 111.901 425.013 135.913 427.826 138.811C428.631 139.21 428.962 139.223 429.818 139.196C439.544 138.883 441.935 134.045 447.445 128.16C448.186 130.759 448.593 132.197 448.441 134.905C448.111 136.872 447.999 139.787 446.987 141.221C446.258 141.82 445.326 142.306 444.401 142.308C438.771 142.316 413.343 143.258 410.466 141.021C410.693 140.036 413.602 139.106 414.479 137.899C416.658 134.892 415.813 107.38 414.981 102.568C413.471 102.075 411.323 101.564 410.96 99.8503C411.69 99.0788 411.996 99.127 413.104 98.9111Z" fill="#00FFFF"/>
<path d="M541.457 98.8629C544.481 98.806 558.147 98.3905 559.892 99.6826C559.657 101.379 557.689 102.669 556.342 103.794C554.892 113.681 555.175 124.148 556.378 134.035C556.538 135.341 556.562 136.837 556.617 138.164C557.928 139.195 559.398 140.156 560.088 141.652C557.984 142.373 542.927 142.769 541.62 141.741C541.672 139.687 544.76 138.084 544.883 135.628C545.035 132.595 544.983 129.376 544.987 126.351C545.039 118.852 544.927 111.353 544.648 103.86C542.891 101.284 540.947 102.287 541.457 98.8629Z" fill="#00FFFF"/>
<path d="M611.893 284.787C612.423 284.207 619.706 278.626 620.399 278.257C620.347 279.936 614.678 284.767 613.032 285.654L611.893 284.787Z" fill="#00FFFF" fill-opacity="0.847059"/>
<path d="M631.352 308.977C632.958 308.563 635.109 306.849 637.193 305.989L637.647 306.88C636.799 307.372 633.332 309.474 632.631 309.615L631.352 308.977Z" fill="#00FFFF" fill-opacity="0.403922"/>
<path d="M637.193 305.989C638.723 304.869 640.094 303.663 641.955 303.318L642.138 303.717C640.628 305.079 639.449 305.905 637.648 306.88L637.193 305.989Z" fill="#00FFFF" fill-opacity="0.278431"/>
</svg>
