<svg width="816" height="218" viewBox="0 0 816 218" fill="none" xmlns="http://www.w3.org/2000/svg">
<path d="M757.738 82.7423L766.877 39.0047L776.016 82.7423H757.738ZM815.51 131.539L790.867 8.97591C789.398 0.65271 788.909 0.65271 784.013 0.65271H780.586H780.259H753.494H753.168H749.741C745.008 0.65271 744.518 0.65271 742.886 8.97591L718.243 131.539C716.938 138.067 718.406 141.168 721.67 141.168H731.136H731.789H732.442H737.501C744.518 141.168 745.824 141.168 747.456 132.845C747.946 129.744 749.741 121.584 751.699 111.302H781.891L786.134 132.845C787.603 141.168 788.909 141.168 796.09 141.168H801.149H801.802H802.454H811.92C815.347 141.168 816.816 138.067 815.51 131.539ZM680.707 46.3487V48.6335V50.4287C680.707 60.3839 675.648 65.4431 665.693 65.4431H644.64V36.5567V29.3759H651.168H651.821H663.898H664.061H665.693C675.648 29.3759 680.707 34.4351 680.707 44.3903V46.3487ZM700.128 102.163C698.496 96.6143 695.885 91.3919 692.131 86.4959C702.413 79.4783 708.614 67.8911 708.614 55.3247V48.6335V46.1855V39.4943C708.614 18.6047 691.642 1.63191 670.752 1.63191H664.061H663.734H621.792C618.365 1.63191 616.896 3.59031 616.896 6.69111V115.219V124.522V135.293C616.896 140.352 618.365 140.352 621.302 140.352H630.115H630.768H631.421H640.234C643.171 140.352 644.64 139.373 644.64 134.477V124.522V115.219V93.1871H653.779C664.061 93.3503 670.915 98.8991 673.853 109.181L680.381 132.029V132.192C682.829 140.189 683.971 140.189 688.541 140.189H694.906H695.558H696.211H706.819C710.246 140.189 710.41 136.109 709.594 133.171L700.128 102.163ZM416.323 1.63191H395.923C393.638 1.63191 391.843 3.42711 391.843 5.71191V13.0559V73.4399V95.1455C391.843 109.507 387.11 111.955 377.155 111.955C371.77 111.955 368.342 111.139 366.221 109.181C363.61 106.733 362.304 102.163 362.304 95.1455V73.9295V13.2191V5.71191C362.304 3.42711 360.509 1.63191 358.224 1.63191H337.824C335.539 1.63191 333.744 3.42711 333.744 5.71191V13.0559V72.6239V95.1455C333.744 111.302 337.661 122.89 345.658 130.234C352.838 136.925 363.12 140.026 377.318 140.026C391.517 140.026 401.798 136.762 408.979 130.234C416.976 122.89 420.73 111.302 420.73 95.1455V72.1343V13.2191V5.71191C420.566 3.42711 418.608 1.63191 416.323 1.63191ZM491.395 53.6927C491.395 63.8111 487.152 69.3599 479.318 69.3599H457.123V29.8655H479.318C487.152 29.8655 491.395 35.4143 491.395 45.3695V53.6927ZM506.736 10.2815C499.718 4.73271 489.926 1.63191 479.318 1.63191H432.48C430.195 1.63191 428.4 3.42711 428.4 5.71191V135.946C428.4 138.23 430.195 140.026 432.48 140.026H452.88C455.165 140.026 456.96 138.23 456.96 135.946V97.4303H479.155C489.763 97.4303 499.555 94.3295 506.573 88.7807C515.549 81.5999 520.282 70.6655 520.282 56.3039V42.9215C520.282 28.5599 515.712 17.6255 506.736 10.2815ZM604.982 111.955H556.838V85.6799H592.416C594.701 85.6799 596.496 83.8847 596.496 81.5999V61.6895C596.496 59.4047 594.701 57.6095 592.416 57.6095H556.838V29.8655H603.024C605.309 29.8655 607.104 28.0703 607.104 25.7855V5.71191C607.104 3.42711 605.309 1.63191 603.024 1.63191H552.595H532.195C529.91 1.63191 528.115 3.42711 528.115 5.71191V135.946C528.115 138.23 529.91 140.026 532.195 140.026H543.293H604.819C607.104 140.026 608.899 138.23 608.899 135.946V116.198C608.939 115.658 608.868 115.116 608.69 114.604C608.512 114.093 608.23 113.624 607.863 113.226C607.495 112.828 607.05 112.51 606.555 112.291C606.059 112.072 605.524 111.958 604.982 111.955ZM313.997 8.48631C307.306 3.42711 298.003 0.81591 287.232 0.81591H275.645C241.862 0.81591 236.803 21.8687 236.803 34.4351V37.3727V41.7791V42.1055C236.803 50.1023 236.803 59.2415 253.45 71.6447H253.613L284.947 93.5135C290.659 97.9199 290.659 99.2255 290.659 102V104.285V107.875C290.659 109.67 289.68 112.934 282.662 112.934H275.971C270.422 112.934 266.016 112.771 263.568 111.629C262.589 111.139 260.794 110.16 260.794 104.122V102.653V99.0623C260.794 94.1663 257.53 93.1871 254.592 93.1871H247.411H246.758H246.106H238.925C235.987 93.1871 232.723 94.1663 232.723 99.2255V109.018C232.723 119.299 236.803 127.622 244.474 133.334C251.165 138.393 260.467 141.005 271.238 141.005H282.826C316.608 141.005 321.667 119.952 321.667 107.386V104.448V100.042V99.7151C321.667 91.7183 321.667 82.5791 305.021 70.1759H304.858L273.523 48.3071C267.811 43.9007 267.811 42.5951 267.811 39.8207V37.5359V33.9455C267.811 32.1503 268.79 28.8863 275.808 28.8863H282.499C288.048 28.8863 292.454 29.0495 294.902 30.1919C295.882 30.6815 297.677 31.6607 297.677 37.6991V39.1679V42.7583C297.677 47.6543 301.757 48.6335 304.694 48.6335H311.059H311.712H312.365H320.362C323.299 48.6335 325.747 47.6543 325.747 42.5951V32.8031C325.584 22.5215 321.667 14.0351 313.997 8.48631Z" fill="#00FFFF"/>
<path d="M190.781 37.2095C190.781 16.9727 174.461 0.65271 154.224 0.65271H91.5552C63.8112 0.65271 54.672 14.8511 54.672 32.1503C54.672 33.7823 54.8352 37.2095 54.8352 39.9839C54.8352 48.3071 54.672 56.3039 70.8288 68.2175L104.122 91.5551C111.955 97.5935 111.955 100.205 111.955 103.958V110.16C111.955 113.261 110.16 119.626 99.2256 119.626H41.7792C28.7232 119.626 21.5424 112.445 21.5424 99.3887V78.0095V67.7279V64.4639C21.5424 51.4079 22.032 47.6543 35.088 47.6543H43.7376C49.6128 47.6543 49.4496 42.9215 49.4496 36.8831C49.4496 31.0079 49.6128 26.1119 43.7376 26.1119H29.8656C9.6288 25.9487 0 38.8415 0 59.0783V67.5647V104.611C0 124.848 16.32 141.168 36.5568 141.168H99.2256C126.97 141.168 136.109 126.97 136.109 109.67C136.109 108.038 135.946 104.611 135.946 101.837C135.946 93.5135 136.109 85.5167 119.952 73.6031L86.6592 50.2655C78.8256 44.2271 78.8256 41.6159 78.8256 37.8623V31.6607C78.8256 28.5599 80.6208 22.1951 91.5552 22.1951H149.002C162.058 22.1951 169.238 29.3759 169.238 42.4319V74.2559V77.5199C169.238 90.5759 168.749 94.3295 155.693 94.3295H147.043C141.168 94.3295 141.331 99.0623 141.331 105.101C141.331 110.976 141.168 115.872 147.043 115.872H160.915C181.152 115.872 190.781 102.816 190.781 82.7423V74.2559V37.2095Z" fill="#00FFFF"/>
<path d="M285.763 205.632L290.822 204.652V205.795C290.822 209.222 292.128 211.344 296.861 211.344C300.451 211.344 302.083 209.712 302.083 207.916C302.083 204.979 299.472 204 294.413 201.062C288.374 197.308 286.579 195.513 286.579 191.107C286.579 185.232 291.638 183.273 296.371 183.273C301.104 183.273 306.326 185.395 306.326 192.249V193.228L301.267 194.208C301.267 190.944 300.288 188.332 296.208 188.332C293.434 188.332 291.965 189.475 291.965 191.107C291.965 193.392 295.066 194.534 301.104 198.124C305.51 201.062 307.469 203.184 307.469 207.753C307.469 214.608 301.757 216.24 297.024 216.24C292.291 216.24 285.926 214.281 285.926 207.264V205.632H285.763V205.632Z" fill="#00FFFF"/>
<path d="M312.039 183.6H317.098V216.077H312.039V183.6Z" fill="#00FFFF"/>
<path d="M321.177 205.632L326.236 204.652V205.795C326.236 209.222 327.542 211.344 332.275 211.344C335.865 211.344 337.497 209.712 337.497 207.916C337.497 204.979 334.886 204 329.827 201.062C323.788 197.308 321.993 195.513 321.993 191.107C321.993 185.232 327.052 183.273 331.785 183.273C336.518 183.273 341.74 185.395 341.74 192.249V193.228L336.681 194.208C336.681 190.944 335.702 188.332 331.622 188.332C328.848 188.332 327.379 189.475 327.379 191.107C327.379 193.392 330.48 194.534 336.518 198.124C340.924 201.062 342.883 203.184 342.883 207.753C342.883 214.608 337.171 216.24 332.438 216.24C327.705 216.24 321.34 214.281 321.34 207.264V205.632H321.177V205.632Z" fill="#00FFFF"/>
<path d="M364.426 188.496H357.082V216.077H351.859V188.496H344.515V183.6H357.082H364.426V188.496ZM384.173 211.181V216.077H370.79H368.016V183.6H373.075H383.683V188.496H373.075V197.472H381.072V202.531H373.075V211.181H384.173ZM417.139 183.6V216.077H411.917V194.698L402.941 210.202L393.802 194.698V216.077H388.579V183.6H393.802L402.941 200.083L411.917 183.6H417.139ZM437.05 204.979L432.806 190.291L428.563 204.979H437.05ZM438.518 209.875H427.094L425.299 216.077H420.24L429.869 183.6H435.581L445.21 216.077H440.15L438.518 209.875Z" fill="#00FFFF"/>
<path d="M446.679 205.632L451.738 204.652V205.795C451.738 209.222 453.043 211.344 457.776 211.344C461.367 211.344 462.999 209.712 462.999 207.916C462.999 204.979 460.387 204 455.328 201.062C449.29 197.308 447.495 195.513 447.495 191.107C447.495 185.232 452.554 183.273 457.287 183.273C462.02 183.273 467.242 185.395 467.242 192.249V193.228L462.183 194.208C462.183 190.944 461.204 188.332 457.124 188.332C454.349 188.332 452.88 189.475 452.88 191.107C452.88 193.392 455.981 194.534 462.02 198.124C466.426 201.062 468.384 203.184 468.384 207.753C468.384 214.608 462.672 216.24 457.94 216.24C453.207 216.24 446.842 214.281 446.842 207.264V205.632H446.679V205.632Z" fill="#00FFFF"/>
<path d="M499.392 203.347H492.374V210.201H489.926V203.347H483.072V200.899H489.926V193.881H492.374V200.899H499.392V203.347ZM514.733 183.6H519.792V216.077H514.733V183.6ZM547.862 183.6V216.077H542.803L530.073 193.555V216.077H525.014V183.6H530.073L542.803 206.121V183.6H547.862ZM571.363 188.496H564.019V216.077H558.96V188.496H551.453V183.6H564.019H571.363V188.496ZM591.11 211.181V216.077H577.728H574.953V183.6H580.176H590.621V188.496H580.176V197.472H588.009V202.531H580.176V211.181H591.11ZM612.326 211.181V216.077H599.923H595.517V183.6H600.739V211.181H612.326ZM615.917 183.6H620.976V216.077H615.917V183.6ZM640.07 194.697V194.208C640.07 189.475 638.112 188.333 635.337 188.333C632.563 188.333 630.605 189.475 630.605 194.208V206.121C630.605 210.528 632.563 211.344 635.337 211.344C638.112 211.344 640.07 210.528 640.07 206.121V203.673H635.337V198.777H645.129V203.673V206.285C645.129 214.118 641.376 216.403 635.337 216.403C629.299 216.403 625.382 213.955 625.382 206.285V193.555C625.382 185.721 629.136 183.437 635.337 183.437C641.376 183.437 645.129 185.885 645.129 193.555V193.881L640.07 194.697ZM666.509 211.181V216.077H653.126H650.352V183.6H655.411H666.019V188.496H655.411V197.472H663.408V202.531H655.411V211.181H666.509ZM693.926 183.6V216.077H688.704L676.137 193.555V216.077H670.915V183.6H676.137L688.704 206.121V183.6H693.926ZM717.427 188.496H709.92V216.077H704.861V188.496H697.353V183.6H709.92H717.427V188.496ZM737.011 211.181V216.077H723.792H721.017V183.6H726.077H736.521V188.496H726.077V197.472H733.91V202.531H726.077V211.181H737.011Z" fill="#00FFFF"/>
<path d="M741.581 205.632L746.64 204.652V205.795C746.64 209.222 747.945 211.344 752.678 211.344C756.269 211.344 757.901 209.712 757.901 207.916C757.901 204.979 755.289 204 750.23 201.062C744.192 197.308 742.397 195.513 742.397 191.107C742.397 185.232 747.456 183.273 752.189 183.273C756.921 183.273 762.144 185.395 762.144 192.249V193.228L757.085 194.208C757.085 190.944 756.105 188.332 752.025 188.332C749.251 188.332 747.782 189.475 747.782 191.107C747.782 193.392 750.883 194.534 756.921 198.124C761.328 201.062 763.286 203.184 763.286 207.753C763.286 214.608 757.574 216.24 752.841 216.24C748.109 216.24 741.744 214.281 741.744 207.264V205.632H741.581V205.632Z" fill="#00FFFF"/>
</svg>
