<svg width="500" height="133" viewBox="0 0 500 133" fill="none" xmlns="http://www.w3.org/2000/svg">
<g clip-path="url(#clip0_112_64)">
<path d="M464.3 50.6999L469.9 23.8999L475.5 50.6999H464.3ZM499.7 80.5999L484.6 5.4999C483.7 0.399902 483.4 0.399902 480.4 0.399902H478.3H478.1H461.7H461.5H459.4C456.5 0.399902 456.2 0.399902 455.2 5.4999L440.1 80.5999C439.3 84.5999 440.2 86.4999 442.2 86.4999H448H448.4H448.8H451.9C456.2 86.4999 457 86.4999 458 81.3999C458.3 79.4999 459.4 74.4999 460.6 68.1999H479.1L481.7 81.3999C482.6 86.4999 483.4 86.4999 487.8 86.4999H490.9H491.3H491.7H497.5C499.6 86.4999 500.5 84.5999 499.7 80.5999ZM417.1 28.3999V29.7999V30.8999C417.1 36.9999 414 40.0999 407.9 40.0999H395V22.3999V17.9999H399H399.4H406.8H406.9H407.9C414 17.9999 417.1 21.0999 417.1 27.1999V28.3999ZM429 62.5999C428 59.1999 426.4 55.9999 424.1 52.9999C430.4 48.6999 434.2 41.5999 434.2 33.8999V29.7999V28.2999V24.1999C434.2 11.3999 423.8 0.999902 411 0.999902H406.9H406.7H381C378.9 0.999902 378 2.1999 378 4.0999V70.5999V76.2999V82.8999C378 85.9999 378.9 85.9999 380.7 85.9999H386.1H386.5H386.9H392.3C394.1 85.9999 395 85.3999 395 82.3999V76.2999V70.5999V57.0999H400.6C406.9 57.1999 411.1 60.5999 412.9 66.8999L416.9 80.8999V80.9999C418.4 85.8999 419.1 85.8999 421.9 85.8999H425.8H426.2H426.6H433.1C435.2 85.8999 435.3 83.3999 434.8 81.5999L429 62.5999ZM255.1 0.999902H242.6C241.2 0.999902 240.1 2.0999 240.1 3.4999V7.9999V44.9999V58.2999C240.1 67.0999 237.2 68.5999 231.1 68.5999C227.8 68.5999 225.7 68.0999 224.4 66.8999C222.8 65.3999 222 62.5999 222 58.2999V45.2999V8.0999V3.4999C222 2.0999 220.9 0.999902 219.5 0.999902H207C205.6 0.999902 204.5 2.0999 204.5 3.4999V7.9999V44.4999V58.2999C204.5 68.1999 206.9 75.2999 211.8 79.7999C216.2 83.8999 222.5 85.7999 231.2 85.7999C239.9 85.7999 246.2 83.7999 250.6 79.7999C255.5 75.2999 257.8 68.1999 257.8 58.2999V44.1999V8.0999V3.4999C257.7 2.0999 256.5 0.999902 255.1 0.999902ZM301.1 32.8999C301.1 39.0999 298.5 42.4999 293.7 42.4999H280.1V18.2999H293.7C298.5 18.2999 301.1 21.6999 301.1 27.7999V32.8999ZM310.5 6.2999C306.2 2.8999 300.2 0.999902 293.7 0.999902H265C263.6 0.999902 262.5 2.0999 262.5 3.4999V83.2999C262.5 84.6999 263.6 85.7999 265 85.7999H277.5C278.9 85.7999 280 84.6999 280 83.2999V59.6999H293.6C300.1 59.6999 306.1 57.7999 310.4 54.3999C315.9 49.9999 318.8 43.2999 318.8 34.4999V26.2999C318.8 17.4999 316 10.7999 310.5 6.2999ZM370.7 68.5999H341.2V52.4999H363C364.4 52.4999 365.5 51.3999 365.5 49.9999V37.7999C365.5 36.3999 364.4 35.2999 363 35.2999H341.2V18.2999H369.5C370.9 18.2999 372 17.1999 372 15.7999V3.4999C372 2.0999 370.9 0.999902 369.5 0.999902H338.6H326.1C324.7 0.999902 323.6 2.0999 323.6 3.4999V83.2999C323.6 84.6999 324.7 85.7999 326.1 85.7999H332.9H370.6C372 85.7999 373.1 84.6999 373.1 83.2999V71.1999C373.125 70.869 373.081 70.5365 372.972 70.2232C372.863 69.9098 372.69 69.6223 372.465 69.3784C372.24 69.1346 371.967 68.9396 371.663 68.8057C371.36 68.6718 371.032 68.6017 370.7 68.5999ZM192.4 5.1999C188.3 2.0999 182.6 0.499902 176 0.499902H168.9C148.2 0.499902 145.1 13.3999 145.1 21.0999V22.8999V25.5999V25.7999C145.1 30.6999 145.1 36.2999 155.3 43.8999H155.4L174.6 57.2999C178.1 59.9999 178.1 60.7999 178.1 62.4999V63.8999V66.0999C178.1 67.1999 177.5 69.1999 173.2 69.1999H169.1C165.7 69.1999 163 69.0999 161.5 68.3999C160.9 68.0999 159.8 67.4999 159.8 63.7999V62.8999V60.6999C159.8 57.6999 157.8 57.0999 156 57.0999H151.6H151.2H150.8H146.4C144.6 57.0999 142.6 57.6999 142.6 60.7999V66.7999C142.6 73.0999 145.1 78.1999 149.8 81.6999C153.9 84.7999 159.6 86.3999 166.2 86.3999H173.3C194 86.3999 197.1 73.4999 197.1 65.7999V63.9999V61.2999V61.0999C197.1 56.1999 197.1 50.5999 186.9 42.9999H186.8L167.6 29.5999C164.1 26.8999 164.1 26.0999 164.1 24.3999V22.9999V20.7999C164.1 19.6999 164.7 17.6999 169 17.6999H173.1C176.5 17.6999 179.2 17.7999 180.7 18.4999C181.3 18.7999 182.4 19.3999 182.4 23.0999V23.9999V26.1999C182.4 29.1999 184.9 29.7999 186.7 29.7999H190.6H191H191.4H196.3C198.1 29.7999 199.6 29.1999 199.6 26.0999V20.0999C199.5 13.7999 197.1 8.5999 192.4 5.1999Z" fill="black"/>
<path d="M116.9 22.7999C116.9 10.3999 106.9 0.399902 94.5 0.399902H56.1C39.1 0.399902 33.5 9.0999 33.5 19.6999C33.5 20.6999 33.6 22.7999 33.6 24.4999C33.6 29.5999 33.5 34.4999 43.4 41.7999L63.8 56.0999C68.6 59.7999 68.6 61.3999 68.6 63.6999V67.4999C68.6 69.3999 67.5 73.2999 60.8 73.2999H25.6C17.6 73.2999 13.2 68.8999 13.2 60.8999V47.7999V41.4999V39.4999C13.2 31.4999 13.5 29.1999 21.5 29.1999H26.8C30.4 29.1999 30.3 26.2999 30.3 22.5999C30.3 18.9999 30.4 15.9999 26.8 15.9999H18.3C5.9 15.8999 0 23.7999 0 36.1999V41.3999V64.0999C0 76.4999 10 86.4999 22.4 86.4999H60.8C77.8 86.4999 83.4 77.7999 83.4 67.1999C83.4 66.1999 83.3 64.0999 83.3 62.3999C83.3 57.2999 83.4 52.3999 73.5 45.0999L53.1 30.7999C48.3 27.0999 48.3 25.4999 48.3 23.1999V19.3999C48.3 17.4999 49.4 13.5999 56.1 13.5999H91.3C99.3 13.5999 103.7 17.9999 103.7 25.9999V45.4999V47.4999C103.7 55.4999 103.4 57.7999 95.4 57.7999H90.1C86.5 57.7999 86.6 60.6999 86.6 64.3999C86.6 67.9999 86.5 70.9999 90.1 70.9999H98.6C111 70.9999 116.9 62.9999 116.9 50.6999V45.4999V22.7999Z" fill="black"/>
<path d="M175.1 126L178.2 125.4V126.1C178.2 128.2 179 129.5 181.9 129.5C184.1 129.5 185.1 128.5 185.1 127.4C185.1 125.6 183.5 125 180.4 123.2C176.7 120.9 175.6 119.8 175.6 117.1C175.6 113.5 178.7 112.3 181.6 112.3C184.5 112.3 187.7 113.6 187.7 117.8V118.4L184.6 119C184.6 117 184 115.4 181.5 115.4C179.8 115.4 178.9 116.1 178.9 117.1C178.9 118.5 180.8 119.2 184.5 121.4C187.2 123.2 188.4 124.5 188.4 127.3C188.4 131.5 184.9 132.5 182 132.5C179.1 132.5 175.2 131.3 175.2 127V126H175.1Z" fill="black"/>
<path d="M191.2 112.5H194.3V132.4H191.2V112.5Z" fill="black"/>
<path d="M196.8 126L199.9 125.4V126.1C199.9 128.2 200.7 129.5 203.6 129.5C205.8 129.5 206.8 128.5 206.8 127.4C206.8 125.6 205.2 125 202.1 123.2C198.4 120.9 197.3 119.8 197.3 117.1C197.3 113.5 200.4 112.3 203.3 112.3C206.2 112.3 209.4 113.6 209.4 117.8V118.4L206.3 119C206.3 117 205.7 115.4 203.2 115.4C201.5 115.4 200.6 116.1 200.6 117.1C200.6 118.5 202.5 119.2 206.2 121.4C208.9 123.2 210.1 124.5 210.1 127.3C210.1 131.5 206.6 132.5 203.7 132.5C200.8 132.5 196.9 131.3 196.9 127V126H196.8Z" fill="black"/>
<path d="M223.3 115.5H218.8V132.4H215.6V115.5H211.1V112.5H218.8H223.3V115.5ZM235.4 129.4V132.4H227.2H225.5V112.5H228.6H235.1V115.5H228.6V121H233.5V124.1H228.6V129.4H235.4ZM255.6 112.5V132.4H252.4V119.3L246.9 128.8L241.3 119.3V132.4H238.1V112.5H241.3L246.9 122.6L252.4 112.5H255.6ZM267.8 125.6L265.2 116.6L262.6 125.6H267.8ZM268.7 128.6H261.7L260.6 132.4H257.5L263.4 112.5H266.9L272.8 132.4H269.7L268.7 128.6Z" fill="black"/>
<path d="M273.7 126L276.8 125.4V126.1C276.8 128.2 277.6 129.5 280.5 129.5C282.7 129.5 283.7 128.5 283.7 127.4C283.7 125.6 282.1 125 279 123.2C275.3 120.9 274.2 119.8 274.2 117.1C274.2 113.5 277.3 112.3 280.2 112.3C283.1 112.3 286.3 113.6 286.3 117.8V118.4L283.2 119C283.2 117 282.6 115.4 280.1 115.4C278.4 115.4 277.5 116.1 277.5 117.1C277.5 118.5 279.4 119.2 283.1 121.4C285.8 123.2 287 124.5 287 127.3C287 131.5 283.5 132.5 280.6 132.5C277.7 132.5 273.8 131.3 273.8 127V126H273.7Z" fill="black"/>
<path d="M306 124.6H301.7V128.8H300.2V124.6H296V123.1H300.2V118.8H301.7V123.1H306V124.6ZM315.4 112.5H318.5V132.4H315.4V112.5ZM335.7 112.5V132.4H332.6L324.8 118.6V132.4H321.7V112.5H324.8L332.6 126.3V112.5H335.7ZM350.1 115.5H345.6V132.4H342.5V115.5H337.9V112.5H345.6H350.1V115.5ZM362.2 129.4V132.4H354H352.3V112.5H355.5H361.9V115.5H355.5V121H360.3V124.1H355.5V129.4H362.2ZM375.2 129.4V132.4H367.6H364.9V112.5H368.1V129.4H375.2ZM377.4 112.5H380.5V132.4H377.4V112.5ZM392.2 119.3V119C392.2 116.1 391 115.4 389.3 115.4C387.6 115.4 386.4 116.1 386.4 119V126.3C386.4 129 387.6 129.5 389.3 129.5C391 129.5 392.2 129 392.2 126.3V124.8H389.3V121.8H395.3V124.8V126.4C395.3 131.2 393 132.6 389.3 132.6C385.6 132.6 383.2 131.1 383.2 126.4V118.6C383.2 113.8 385.5 112.4 389.3 112.4C393 112.4 395.3 113.9 395.3 118.6V118.8L392.2 119.3ZM408.4 129.4V132.4H400.2H398.5V112.5H401.6H408.1V115.5H401.6V121H406.5V124.1H401.6V129.4H408.4ZM425.2 112.5V132.4H422L414.3 118.6V132.4H411.1V112.5H414.3L422 126.3V112.5H425.2ZM439.6 115.5H435V132.4H431.9V115.5H427.3V112.5H435H439.6V115.5ZM451.6 129.4V132.4H443.5H441.8V112.5H444.9H451.3V115.5H444.9V121H449.7V124.1H444.9V129.4H451.6Z" fill="black"/>
<path d="M454.4 126L457.5 125.4V126.1C457.5 128.2 458.3 129.5 461.2 129.5C463.4 129.5 464.4 128.5 464.4 127.4C464.4 125.6 462.8 125 459.7 123.2C456 120.9 454.9 119.8 454.9 117.1C454.9 113.5 458 112.3 460.9 112.3C463.8 112.3 467 113.6 467 117.8V118.4L463.9 119C463.9 117 463.3 115.4 460.8 115.4C459.1 115.4 458.2 116.1 458.2 117.1C458.2 118.5 460.1 119.2 463.8 121.4C466.5 123.2 467.7 124.5 467.7 127.3C467.7 131.5 464.2 132.5 461.3 132.5C458.4 132.5 454.5 131.3 454.5 127V126H454.4Z" fill="black"/>
</g>
<defs>
<clipPath id="clip0_112_64">
<rect width="500" height="133" fill="white"/>
</clipPath>
</defs>
</svg>
