<?xml version="1.0" encoding="UTF-8"?>
<svg xmlns="http://www.w3.org/2000/svg" xmlns:xlink="http://www.w3.org/1999/xlink" width="4924px" height="3483px" viewBox="0 0 4926 3483" version="1.1">
<g id="surface1">
<path style=" stroke:none;fill-rule:nonzero;fill:rgb(0%,0%,0%);fill-opacity:1;" d="M 2393.960938 899.664062 C 2334.742188 911.734375 2298.539062 943.453125 2287.875 992.296875 C 2282.539062 1017.277344 2281.980469 1030.753906 2284.226562 1072.296875 C 2286.1875 1111.035156 2286.75 1114.121094 2295.730469 1130.683594 C 2310.042969 1157.632812 2338.953125 1182.613281 2426.234375 1243.246094 C 2510.429688 1301.351562 2529.796875 1317.632812 2534.566406 1333.632812 C 2536.25 1338.96875 2537.371094 1354.96875 2536.8125 1369.285156 C 2535.40625 1398.476562 2531.480469 1406.898438 2512.957031 1416.160156 C 2502.292969 1421.496094 2496.398438 1421.777344 2350.457031 1421.777344 C 2180.664062 1421.777344 2183.472656 1422.054688 2160.457031 1401.285156 C 2134.917969 1377.984375 2132.113281 1363.109375 2133.515625 1242.125 C 2134.355469 1157.351562 2134.917969 1145.5625 2139.410156 1137.703125 C 2148.390625 1121.140625 2155.125 1118.894531 2199.46875 1117.210938 C 2253.074219 1115.246094 2252.230469 1115.804688 2252.230469 1069.488281 C 2252.230469 1038.332031 2251.667969 1035.523438 2245.777344 1029.628906 C 2240.164062 1023.734375 2236.234375 1023.171875 2207.046875 1022.332031 C 2168.878906 1021.207031 2137.164062 1024.859375 2114.992188 1032.996094 C 2093.101562 1041.417969 2068.121094 1065 2057.457031 1087.453125 C 2042.304688 1120.015625 2041.742188 1125.070312 2041.742188 1258.964844 C 2041.742188 1379.390625 2042.023438 1383.039062 2048.195312 1402.6875 C 2065.316406 1457.144531 2112.746094 1500.09375 2169.4375 1511.882812 C 2200.871094 1518.339844 2516.042969 1516.375 2542.144531 1509.355469 C 2587.609375 1497.003906 2618.761719 1471.742188 2632.515625 1435.25 C 2641.496094 1411.390625 2643.738281 1386.6875 2641.214844 1340.371094 C 2639.25 1302.757812 2638.40625 1296.582031 2631.671875 1283.386719 C 2615.675781 1251.386719 2603.324219 1240.71875 2494.996094 1164.929688 C 2452.617188 1135.457031 2413.042969 1106.542969 2407.429688 1100.929688 C 2390.59375 1084.929688 2387.785156 1075.945312 2388.90625 1044.226562 C 2390.03125 1011.945312 2393.679688 1004.648438 2413.605469 994.261719 C 2425.953125 988.085938 2425.953125 988.085938 2573.578125 988.085938 C 2735.792969 988.085938 2738.039062 988.367188 2760.773438 1004.925781 C 2768.910156 1011.101562 2775.644531 1019.523438 2781.820312 1032.4375 L 2791.082031 1051.242188 L 2791.082031 1156.507812 C 2791.082031 1296.300781 2793.609375 1291.246094 2724.285156 1294.054688 C 2672.648438 1296.300781 2673.207031 1295.738281 2673.207031 1341.492188 C 2673.207031 1388.652344 2670.683594 1386.6875 2731.863281 1386.6875 C 2763.015625 1386.6875 2784.90625 1385.285156 2793.886719 1382.757812 C 2836.546875 1371.53125 2864.894531 1342.898438 2878.644531 1296.582031 C 2885.660156 1273.28125 2887.34375 1052.367188 2880.890625 1022.894531 C 2867.417969 962.539062 2819.988281 913.699219 2761.332031 899.664062 C 2736.636719 894.046875 2422.585938 893.769531 2393.960938 899.664062 Z M 2393.960938 899.664062 "/>
<path style=" stroke:none;fill-rule:nonzero;fill:rgb(0%,0%,0%);fill-opacity:1;" d="M 1314.855469 1674.691406 C 1270.792969 1684.234375 1233.464844 1710.339844 1216.90625 1742.621094 C 1203.996094 1767.886719 1201.191406 1785.289062 1201.191406 1836.097656 C 1201.191406 1925.921875 1210.449219 1939.117188 1340.113281 2029.503906 C 1383.332031 2059.539062 1423.183594 2089.015625 1429.078125 2094.628906 L 1439.742188 2105.296875 L 1439.742188 2129.15625 C 1439.742188 2166.207031 1435.253906 2168.453125 1367.617188 2166.488281 C 1344.601562 2165.648438 1323.835938 2164.242188 1321.027344 2162.839844 C 1312.328125 2159.191406 1307.835938 2145.996094 1307.835938 2124.101562 C 1307.835938 2098.839844 1304.1875 2087.328125 1294.925781 2083.121094 C 1290.71875 2081.152344 1270.792969 2080.03125 1243.289062 2080.03125 C 1200.066406 2080.03125 1198.382812 2080.3125 1190.804688 2086.769531 L 1182.945312 2093.503906 L 1183.226562 2136.734375 C 1183.507812 2173.226562 1184.351562 2182.207031 1189.683594 2196.523438 C 1206.800781 2243.683594 1243.847656 2273.71875 1299.980469 2286.351562 C 1318.222656 2290.28125 1332.816406 2290.839844 1389.789062 2290 C 1464.722656 2288.597656 1479.875 2285.789062 1511.589844 2267.824219 C 1528.148438 2258.28125 1551.722656 2234.417969 1559.863281 2218.699219 C 1574.738281 2189.226562 1580.910156 2136.171875 1574.738281 2087.050781 C 1568 2031.46875 1548.917969 2010.136719 1438.339844 1932.941406 C 1396.804688 1903.746094 1358.914062 1876.800781 1354.144531 1872.871094 C 1339.269531 1860.519531 1335.902344 1853.222656 1335.902344 1830.765625 C 1335.902344 1812.800781 1336.746094 1809.429688 1342.636719 1803.535156 C 1351.617188 1794.554688 1362.84375 1792.871094 1409.433594 1794.273438 C 1464.441406 1795.675781 1466.96875 1797.359375 1469.492188 1836.378906 C 1472.300781 1881.292969 1471.738281 1880.730469 1536.289062 1880.730469 L 1582.59375 1880.730469 L 1588.207031 1873.433594 C 1593.539062 1866.695312 1594.101562 1862.203125 1594.101562 1829.082031 C 1594.101562 1788.660156 1590.453125 1769.289062 1578.667969 1745.710938 C 1563.230469 1715.675781 1534.042969 1692.375 1494.75 1679.464844 C 1472.859375 1672.164062 1469.210938 1671.886719 1403.257812 1671.042969 C 1350.214844 1670.480469 1330.007812 1671.324219 1314.855469 1674.691406 Z M 1314.855469 1674.691406 "/>
<path style=" stroke:none;fill-rule:nonzero;fill:rgb(0%,0%,0%);fill-opacity:1;" d="M 3428.441406 1679.183594 C 3422.546875 1692.9375 3311.691406 2250.699219 3311.691406 2265.578125 C 3311.691406 2286.910156 3313.9375 2287.753906 3371.1875 2287.753906 C 3398.414062 2287.753906 3422.828125 2286.910156 3425.355469 2286.070312 C 3433.214844 2282.980469 3437.140625 2270.910156 3447.808594 2217.578125 C 3453.421875 2188.945312 3458.753906 2163.402344 3459.3125 2160.59375 C 3460.71875 2156.101562 3465.769531 2155.820312 3527.230469 2156.382812 L 3593.746094 2157.226562 L 3605.535156 2216.171875 C 3621.25 2293.085938 3615.355469 2287.753906 3682.152344 2287.753906 C 3736.878906 2287.753906 3738.84375 2287.191406 3742.492188 2270.910156 C 3744.457031 2262.210938 3631.351562 1692.375 3625.179688 1678.621094 L 3621.8125 1671.605469 L 3526.949219 1670.761719 L 3432.089844 1670.199219 Z M 3547.4375 1935.46875 C 3558.382812 1986.277344 3566.523438 2028.101562 3565.960938 2028.664062 C 3565.398438 2029.222656 3547.4375 2029.222656 3525.828125 2028.941406 L 3486.535156 2028.101562 L 3506.183594 1934.90625 C 3517.128906 1883.539062 3526.390625 1841.992188 3526.949219 1842.554688 C 3527.511719 1843.117188 3536.773438 1884.941406 3547.4375 1935.46875 Z M 3547.4375 1935.46875 "/>
<path style=" stroke:none;fill-rule:nonzero;fill:rgb(0%,0%,0%);fill-opacity:1;" d="M 1634.796875 1680.023438 L 1627.78125 1686.761719 L 1627.78125 1891.398438 C 1627.78125 2013.222656 1628.902344 2107.820312 1630.585938 2124.664062 C 1639.566406 2210.839844 1679.140625 2261.085938 1754.074219 2281.296875 C 1780.453125 2288.597656 1865.773438 2288.316406 1891.59375 2281.015625 C 1939.863281 2267.824219 1974.105469 2240.875 1992.628906 2202.417969 C 2013.957031 2157.507812 2013.113281 2167.613281 2014.238281 1913.292969 L 2015.359375 1686.199219 L 2009.1875 1679.746094 C 2003.011719 1673.007812 2001.890625 1673.007812 1951.652344 1673.007812 C 1905.625 1673.007812 1900.011719 1673.570312 1894.117188 1678.339844 L 1887.382812 1683.675781 L 1885.980469 1905.152344 C 1884.296875 2150.488281 1885.417969 2139.542969 1866.054688 2153.296875 C 1857.632812 2159.191406 1852.863281 2160.03125 1826.480469 2160.875 C 1787.472656 2162.277344 1774.84375 2157.507812 1765.019531 2137.296875 L 1758.285156 2123.539062 L 1756.878906 1903.746094 L 1755.476562 1683.675781 L 1748.742188 1678.339844 C 1742.847656 1673.570312 1737.234375 1673.007812 1691.769531 1673.007812 C 1642.09375 1673.007812 1641.53125 1673.007812 1634.796875 1680.023438 Z M 1634.796875 1680.023438 "/>
<path style=" stroke:none;fill-rule:nonzero;fill:rgb(0%,0%,0%);fill-opacity:1;" d="M 2062.511719 1678.339844 L 2055.773438 1683.675781 L 2055.773438 1979.820312 C 2055.773438 2266.980469 2056.054688 2276.246094 2061.105469 2281.859375 C 2066.160156 2287.472656 2069.246094 2287.753906 2118.640625 2287.753906 C 2147.265625 2287.753906 2172.246094 2286.632812 2173.929688 2285.507812 C 2182.628906 2279.894531 2183.472656 2270.070312 2183.472656 2184.171875 L 2183.472656 2096.875 L 2247.460938 2096.875 C 2322.113281 2096.875 2339.234375 2094.066406 2374.035156 2076.945312 C 2415.851562 2056.171875 2443.355469 2021.925781 2455.984375 1974.207031 C 2463.5625 1946.132812 2466.648438 1863.886719 2461.597656 1825.992188 C 2452.054688 1754.414062 2417.253906 1708.375 2356.070312 1686.199219 C 2323.234375 1674.410156 2303.589844 1673.007812 2182.628906 1673.007812 C 2074.859375 1673.007812 2068.683594 1673.289062 2062.511719 1678.339844 Z M 2311.730469 1807.183594 C 2316.5 1810.554688 2323.515625 1819.253906 2327.164062 1826.835938 C 2333.058594 1838.90625 2333.621094 1843.394531 2333.621094 1886.34375 C 2333.621094 1928.449219 2333.058594 1933.785156 2327.445312 1943.890625 C 2319.585938 1958.484375 2310.042969 1967.1875 2298.257812 1970.554688 C 2292.925781 1972.242188 2265.140625 1973.363281 2236.234375 1973.363281 L 2183.472656 1973.363281 L 2183.472656 1799.042969 L 2243.25 1799.886719 C 2299.941406 1800.730469 2303.308594 1801.007812 2311.730469 1807.183594 Z M 2311.730469 1807.183594 "/>
<path style=" stroke:none;fill-rule:nonzero;fill:rgb(0%,0%,0%);fill-opacity:1;" d="M 2497.800781 1678.621094 C 2492.1875 1684.234375 2492.1875 1687.886719 2492.1875 1981.222656 C 2492.1875 2265.578125 2492.46875 2278.769531 2497.238281 2282.980469 C 2502.011719 2287.191406 2518.007812 2287.753906 2670.683594 2287.753906 C 2763.015625 2287.753906 2840.195312 2286.632812 2841.878906 2285.507812 C 2849.738281 2280.175781 2851.421875 2269.789062 2851.421875 2223.753906 C 2851.421875 2181.085938 2850.859375 2175.472656 2846.089844 2169.578125 L 2840.757812 2162.839844 L 2729.621094 2161.996094 L 2618.480469 2161.15625 L 2618.480469 2046.347656 L 2701.273438 2046.347656 C 2780.417969 2046.347656 2784.347656 2046.066406 2789.679688 2040.734375 C 2795.011719 2035.398438 2795.292969 2031.46875 2795.292969 1983.75 C 2795.292969 1934.90625 2795.011719 1931.820312 2789.398438 1926.765625 C 2783.785156 1921.714844 2777.609375 1921.433594 2700.992188 1920.589844 L 2618.480469 1919.75 L 2618.480469 1799.605469 L 2725.410156 1798.765625 L 2832.335938 1797.921875 L 2837.671875 1791.183594 C 2842.441406 1785.289062 2843.003906 1779.675781 2843.003906 1735.605469 C 2843.003906 1687.605469 2843.003906 1686.761719 2835.984375 1680.023438 L 2829.25 1673.007812 L 2666.191406 1673.007812 C 2507.0625 1673.007812 2503.414062 1673.007812 2497.800781 1678.621094 Z M 2497.800781 1678.621094 "/>
<path style=" stroke:none;fill-rule:nonzero;fill:rgb(0%,0%,0%);fill-opacity:1;" d="M 2889.308594 1679.746094 L 2882.292969 1686.761719 L 2882.292969 1982.625 C 2882.292969 2215.050781 2883.136719 2279.332031 2885.941406 2282.980469 C 2889.03125 2287.472656 2895.203125 2287.753906 2944.039062 2287.191406 L 2998.484375 2286.351562 L 3002.132812 2279.332031 C 3004.9375 2274 3005.78125 2247.894531 3005.78125 2175.753906 L 3005.78125 2079.46875 L 3040.300781 2080.59375 C 3072.015625 2081.433594 3075.664062 2081.996094 3089.695312 2089.855469 C 3104.570312 2097.996094 3119.164062 2113.433594 3127.304688 2129.15625 C 3129.546875 2133.644531 3139.933594 2166.488281 3150.035156 2201.859375 C 3160.417969 2237.226562 3170.242188 2268.945312 3171.925781 2272.035156 C 3180.066406 2287.753906 3179.503906 2287.753906 3235.914062 2287.753906 C 3272.679688 2287.753906 3289.238281 2286.632812 3291.484375 2284.386719 C 3298.21875 2277.648438 3294.570312 2259.964844 3270.714844 2182.488281 C 3248.824219 2112.03125 3233.667969 2073.015625 3221.039062 2056.453125 C 3217.390625 2051.398438 3218.515625 2049.433594 3237.039062 2031.1875 C 3258.648438 2009.855469 3273.523438 1984.589844 3282.785156 1955.117188 C 3286.992188 1940.800781 3287.835938 1928.730469 3287.835938 1875.117188 C 3287.554688 1813.640625 3287.554688 1811.394531 3279.976562 1790.0625 C 3261.171875 1736.449219 3224.96875 1700.234375 3171.363281 1680.867188 C 3153.402344 1674.691406 3150.878906 1674.410156 3024.863281 1673.570312 L 2896.328125 1672.726562 Z M 3125.058594 1800.449219 C 3153.964844 1809.148438 3165.753906 1831.324219 3165.753906 1876.519531 C 3165.753906 1907.957031 3160.699219 1926.203125 3148.351562 1938.835938 C 3134.039062 1953.714844 3119.726562 1956.519531 3058.542969 1956.519531 L 3005.78125 1956.519531 L 3005.78125 1796.519531 L 3058.542969 1796.519531 C 3096.710938 1796.519531 3115.234375 1797.640625 3125.058594 1800.449219 Z M 3125.058594 1800.449219 "/>
<path style=" stroke:none;fill-rule:nonzero;fill:rgb(0%,0%,0%);fill-opacity:1;" d="M 1437.777344 2448.035156 C 1433.007812 2449.441406 1425.710938 2454.773438 1421.5 2459.546875 C 1415.046875 2467.40625 1413.921875 2470.492188 1415.328125 2482.28125 C 1416.730469 2498.285156 1423.746094 2506.703125 1447.320312 2520.460938 C 1476.226562 2537.582031 1481.839844 2542.636719 1481.839844 2551.617188 C 1481.839844 2562.285156 1472.859375 2568.460938 1457.707031 2568.460938 C 1442.550781 2568.460938 1431.324219 2560.039062 1431.324219 2548.53125 C 1431.324219 2539.828125 1428.238281 2538.703125 1415.046875 2542.355469 C 1409.152344 2543.757812 1408.589844 2545.160156 1410.273438 2554.144531 C 1412.800781 2568.742188 1418.976562 2576.601562 1432.167969 2582.777344 C 1455.179688 2593.160156 1489.136719 2586.988281 1497.277344 2570.984375 C 1503.171875 2559.757812 1502.609375 2540.671875 1495.875 2529.722656 C 1492.785156 2524.667969 1482.402344 2515.6875 1473.140625 2510.074219 C 1432.726562 2485.371094 1427.113281 2478.351562 1440.304688 2469.089844 C 1452.652344 2460.386719 1476.226562 2466.28125 1476.226562 2478.074219 C 1476.226562 2487.335938 1480.71875 2490.703125 1489.980469 2488.457031 C 1496.714844 2487.054688 1498.679688 2485.089844 1498.679688 2479.757812 C 1498.679688 2454.773438 1468.371094 2439.054688 1437.777344 2448.035156 Z M 1437.777344 2448.035156 "/>
<path style=" stroke:none;fill-rule:nonzero;fill:rgb(0%,0%,0%);fill-opacity:1;" d="M 1526.746094 2516.527344 L 1526.746094 2588.109375 L 1546.390625 2588.109375 L 1546.390625 2444.949219 L 1526.746094 2444.949219 Z M 1526.746094 2516.527344 "/>
<path style=" stroke:none;fill-rule:nonzero;fill:rgb(0%,0%,0%);fill-opacity:1;" d="M 1592.699219 2449.160156 C 1577.261719 2454.773438 1571.648438 2462.914062 1571.648438 2480.597656 C 1571.648438 2498.5625 1577.824219 2505.582031 1612.0625 2526.355469 C 1624.972656 2533.933594 1636.480469 2542.355469 1637.324219 2544.878906 C 1642.65625 2559.195312 1633.675781 2568.460938 1614.308594 2568.460938 C 1597.75 2568.460938 1592.136719 2564.8125 1588.207031 2551.335938 C 1584.839844 2540.671875 1584 2540.109375 1576.140625 2541.511719 C 1565.195312 2543.757812 1564.914062 2544.039062 1567.160156 2555.546875 C 1571.089844 2576.039062 1588.207031 2588.109375 1613.746094 2588.109375 C 1641.8125 2588.109375 1658.652344 2574.636719 1658.652344 2552.179688 C 1658.652344 2534.496094 1651.074219 2524.109375 1627.78125 2509.511719 C 1590.171875 2485.933594 1584.28125 2478.074219 1597.46875 2469.089844 C 1605.046875 2463.757812 1614.589844 2463.476562 1623.007812 2467.6875 C 1630.867188 2471.898438 1633.394531 2475.546875 1633.394531 2483.96875 C 1633.394531 2490.144531 1634.234375 2490.421875 1643.496094 2489.019531 C 1656.40625 2486.773438 1656.6875 2486.492188 1654.441406 2475.828125 C 1649.109375 2451.125 1621.324219 2439.054688 1592.699219 2449.160156 Z M 1592.699219 2449.160156 "/>
<path style=" stroke:none;fill-rule:nonzero;fill:rgb(0%,0%,0%);fill-opacity:1;" d="M 1669.878906 2454.773438 L 1669.878906 2464.316406 L 1686.15625 2465.160156 L 1702.152344 2466.003906 L 1702.996094 2526.914062 L 1703.554688 2588.109375 L 1723.203125 2588.109375 L 1723.203125 2464.597656 L 1754.074219 2464.597656 L 1754.074219 2444.949219 L 1669.878906 2444.949219 Z M 1669.878906 2454.773438 "/>
<path style=" stroke:none;fill-rule:nonzero;fill:rgb(0%,0%,0%);fill-opacity:1;" d="M 1773.71875 2516.527344 L 1773.71875 2588.109375 L 1841.074219 2588.109375 L 1841.074219 2568.460938 L 1793.363281 2568.460938 L 1793.363281 2526.355469 L 1827.042969 2526.355469 L 1827.042969 2506.703125 L 1793.363281 2506.703125 L 1793.363281 2464.597656 L 1841.074219 2464.597656 L 1841.074219 2444.949219 L 1773.71875 2444.949219 Z M 1773.71875 2516.527344 "/>
<path style=" stroke:none;fill-rule:nonzero;fill:rgb(0%,0%,0%);fill-opacity:1;" d="M 1863.527344 2516.527344 L 1863.527344 2588.109375 L 1883.171875 2588.109375 L 1883.171875 2541.792969 C 1883.171875 2496.039062 1884.855469 2488.457031 1891.875 2501.652344 C 1893.839844 2505.300781 1901.976562 2519.898438 1910.398438 2534.214844 L 1925.832031 2560.320312 L 1945.757812 2526.355469 L 1965.964844 2492.386719 L 1966.808594 2540.109375 L 1967.367188 2588.109375 L 1987.015625 2588.109375 L 1987.015625 2444.949219 L 1977.472656 2444.949219 C 1967.929688 2444.949219 1967.367188 2445.511719 1947.722656 2481.441406 C 1936.496094 2501.371094 1926.675781 2517.933594 1925.550781 2517.933594 C 1924.710938 2517.933594 1915.167969 2501.371094 1904.222656 2481.441406 L 1884.578125 2444.949219 L 1863.527344 2444.949219 Z M 1863.527344 2516.527344 "/>
<path style=" stroke:none;fill-rule:nonzero;fill:rgb(0%,0%,0%);fill-opacity:1;" d="M 2042.023438 2459.546875 C 2039.777344 2467.6875 2030.234375 2499.96875 2020.972656 2531.40625 L 2004.414062 2588.390625 L 2014.519531 2587.546875 C 2024.0625 2586.707031 2024.902344 2585.863281 2028.550781 2573.230469 L 2032.199219 2560.039062 L 2084.679688 2560.039062 L 2088.050781 2574.074219 C 2091.136719 2587.546875 2091.699219 2588.109375 2100.960938 2588.109375 C 2106.292969 2588.109375 2110.5 2587.265625 2110.5 2585.863281 C 2110.78125 2584.742188 2101.519531 2552.742188 2090.292969 2514.5625 L 2069.808594 2444.949219 L 2046.230469 2444.949219 Z M 2068.683594 2508.109375 C 2073.457031 2524.390625 2076.824219 2538.703125 2075.980469 2539.265625 C 2075.140625 2540.109375 2066.4375 2540.390625 2056.617188 2539.828125 L 2038.375 2538.984375 L 2047.636719 2508.109375 C 2052.6875 2490.984375 2056.898438 2476.667969 2056.898438 2476.109375 C 2057.738281 2471.898438 2061.386719 2481.722656 2068.683594 2508.109375 Z M 2068.683594 2508.109375 "/>
<path style=" stroke:none;fill-rule:nonzero;fill:rgb(0%,0%,0%);fill-opacity:1;" d="M 2148.109375 2448.035156 C 2133.234375 2452.246094 2125.9375 2462.914062 2125.9375 2480.039062 C 2125.9375 2498.003906 2131.832031 2505.582031 2157.371094 2520.460938 C 2186.277344 2537.582031 2191.890625 2542.636719 2191.890625 2551.617188 C 2191.890625 2562.285156 2182.910156 2568.460938 2167.753906 2568.460938 C 2152.597656 2568.460938 2141.375 2560.039062 2141.375 2548.53125 C 2141.375 2540.109375 2136.601562 2538.144531 2126.21875 2542.074219 C 2120.324219 2544.320312 2120.324219 2562.285156 2126.21875 2570.984375 C 2139.410156 2589.511719 2182.347656 2594.003906 2201.433594 2578.566406 C 2215.183594 2567.617188 2216.027344 2538.703125 2202.835938 2524.667969 C 2199.1875 2520.738281 2185.714844 2511.195312 2172.804688 2503.335938 C 2145.300781 2486.773438 2139.410156 2478.074219 2149.511719 2469.933594 C 2162.984375 2458.984375 2184.3125 2465.441406 2187.679688 2481.441406 C 2189.644531 2490.144531 2191.609375 2490.984375 2202.554688 2488.179688 C 2209.851562 2486.214844 2210.414062 2479.757812 2204.519531 2465.722656 C 2197.785156 2449.160156 2171.964844 2441.019531 2148.109375 2448.035156 Z M 2148.109375 2448.035156 "/>
<path style=" stroke:none;fill-rule:nonzero;fill:rgb(0%,0%,0%);fill-opacity:1;" d="M 2419.21875 2516.527344 L 2419.21875 2588.109375 L 2441.671875 2588.109375 L 2441.671875 2444.949219 L 2419.21875 2444.949219 Z M 2419.21875 2516.527344 "/>
<path style=" stroke:none;fill-rule:nonzero;fill:rgb(0%,0%,0%);fill-opacity:1;" d="M 2466.929688 2516.25 L 2466.929688 2588.109375 L 2486.574219 2588.109375 L 2486.574219 2538.425781 C 2486.574219 2503.617188 2487.417969 2489.582031 2489.660156 2491.828125 C 2491.066406 2493.230469 2504.253906 2515.40625 2518.289062 2540.671875 C 2544.109375 2586.425781 2544.390625 2586.707031 2554.773438 2587.546875 L 2565.15625 2588.390625 L 2565.15625 2444.949219 L 2545.511719 2444.949219 L 2544.949219 2496.039062 L 2544.109375 2547.40625 L 2515.761719 2496.878906 C 2487.699219 2446.632812 2487.417969 2446.351562 2477.3125 2445.511719 L 2466.929688 2444.667969 Z M 2466.929688 2516.25 "/>
<path style=" stroke:none;fill-rule:nonzero;fill:rgb(0%,0%,0%);fill-opacity:1;" d="M 2581.996094 2454.773438 L 2581.996094 2464.597656 L 2615.675781 2464.597656 L 2615.675781 2588.109375 L 2635.320312 2588.109375 L 2635.882812 2526.914062 L 2636.722656 2466.003906 L 2653 2465.160156 L 2669 2464.316406 L 2669 2444.949219 L 2581.996094 2444.949219 Z M 2581.996094 2454.773438 "/>
<path style=" stroke:none;fill-rule:nonzero;fill:rgb(0%,0%,0%);fill-opacity:1;" d="M 2685.835938 2516.527344 L 2685.835938 2588.109375 L 2756 2588.109375 L 2756 2568.460938 L 2708.289062 2568.460938 L 2708.289062 2526.355469 L 2741.96875 2526.355469 L 2741.96875 2506.703125 L 2708.289062 2506.703125 L 2708.289062 2464.597656 L 2753.195312 2464.597656 L 2753.195312 2444.949219 L 2685.835938 2444.949219 Z M 2685.835938 2516.527344 "/>
<path style=" stroke:none;fill-rule:nonzero;fill:rgb(0%,0%,0%);fill-opacity:1;" d="M 2778.453125 2516.527344 L 2778.453125 2588.109375 L 2848.617188 2588.109375 L 2848.617188 2568.460938 L 2798.097656 2568.460938 L 2798.097656 2444.949219 L 2778.453125 2444.949219 Z M 2778.453125 2516.527344 "/>
<path style=" stroke:none;fill-rule:nonzero;fill:rgb(0%,0%,0%);fill-opacity:1;" d="M 2868.261719 2516.527344 L 2868.261719 2588.109375 L 2887.90625 2588.109375 L 2887.90625 2444.949219 L 2868.261719 2444.949219 Z M 2868.261719 2516.527344 "/>
<path style=" stroke:none;fill-rule:nonzero;fill:rgb(0%,0%,0%);fill-opacity:1;" d="M 2933.089844 2448.316406 C 2914.289062 2455.335938 2911.761719 2462.351562 2910.921875 2512.039062 C 2909.796875 2562.566406 2912.324219 2572.949219 2927.757812 2582.496094 C 2935.335938 2587.265625 2940.667969 2588.109375 2956.105469 2587.546875 C 2972.945312 2586.707031 2976.03125 2585.582031 2984.171875 2577.441406 C 2992.871094 2568.460938 2993.152344 2567.617188 2993.992188 2540.390625 L 2995.117188 2512.320312 L 2955.261719 2512.320312 L 2955.261719 2522.144531 C 2955.261719 2531.40625 2955.824219 2531.96875 2965.085938 2531.96875 C 2974.910156 2531.96875 2974.910156 2531.96875 2974.910156 2544.601562 C 2974.910156 2560.878906 2967.894531 2568.460938 2953.019531 2568.460938 C 2932.53125 2568.460938 2931.40625 2565.933594 2931.40625 2517.933594 C 2931.40625 2476.667969 2931.6875 2475.265625 2938.144531 2469.933594 C 2941.792969 2467.125 2948.246094 2464.597656 2953.019531 2464.597656 C 2963.121094 2464.597656 2974.910156 2475.828125 2974.910156 2485.652344 C 2974.910156 2492.949219 2977.433594 2493.792969 2988.378906 2490.984375 C 2992.589844 2489.863281 2994.554688 2487.054688 2994.554688 2482.5625 C 2994.554688 2471.898438 2987.257812 2457.019531 2979.679688 2451.96875 C 2970.417969 2446.070312 2945.160156 2444.105469 2933.089844 2448.316406 Z M 2933.089844 2448.316406 "/>
<path style=" stroke:none;fill-rule:nonzero;fill:rgb(0%,0%,0%);fill-opacity:1;" d="M 3019.8125 2516.527344 L 3019.8125 2588.109375 L 3087.167969 2588.109375 L 3087.167969 2568.460938 L 3039.457031 2568.460938 L 3039.457031 2526.355469 L 3075.945312 2526.355469 L 3075.945312 2506.703125 L 3039.457031 2506.703125 L 3039.457031 2464.597656 L 3087.167969 2464.597656 L 3087.167969 2444.949219 L 3019.8125 2444.949219 Z M 3019.8125 2516.527344 "/>
<path style=" stroke:none;fill-rule:nonzero;fill:rgb(0%,0%,0%);fill-opacity:1;" d="M 3112.429688 2516.527344 L 3112.429688 2588.109375 L 3132.074219 2588.109375 L 3132.636719 2538.144531 L 3133.476562 2488.457031 L 3161.542969 2538.144531 L 3189.328125 2588.109375 L 3210.65625 2588.109375 L 3210.65625 2444.949219 L 3191.011719 2444.949219 L 3191.011719 2495.757812 C 3191.011719 2523.546875 3189.886719 2545.722656 3188.484375 2544.878906 C 3187.363281 2544.039062 3173.890625 2521.300781 3158.734375 2494.074219 C 3131.511719 2445.792969 3130.953125 2444.949219 3121.691406 2444.949219 L 3112.429688 2444.949219 Z M 3112.429688 2516.527344 "/>
<path style=" stroke:none;fill-rule:nonzero;fill:rgb(0%,0%,0%);fill-opacity:1;" d="M 3227.496094 2454.773438 L 3227.496094 2464.597656 L 3261.171875 2464.597656 L 3261.171875 2588.109375 L 3280.820312 2588.109375 L 3280.820312 2464.597656 L 3311.691406 2464.597656 L 3311.691406 2444.949219 L 3227.496094 2444.949219 Z M 3227.496094 2454.773438 "/>
<path style=" stroke:none;fill-rule:nonzero;fill:rgb(0%,0%,0%);fill-opacity:1;" d="M 3331.335938 2516.527344 L 3331.335938 2588.109375 L 3400.378906 2588.109375 L 3400.65625 2578.285156 L 3400.9375 2568.460938 L 3350.980469 2568.460938 L 3350.980469 2526.355469 L 3387.46875 2526.355469 L 3387.46875 2506.703125 L 3350.980469 2506.703125 L 3350.980469 2464.597656 L 3398.691406 2464.597656 L 3398.691406 2444.949219 L 3331.335938 2444.949219 Z M 3331.335938 2516.527344 "/>
<path style=" stroke:none;fill-rule:nonzero;fill:rgb(0%,0%,0%);fill-opacity:1;" d="M 3450.050781 2448.035156 C 3427.320312 2454.773438 3419.179688 2483.6875 3434.898438 2501.652344 C 3439.386719 2506.703125 3450.332031 2515.125 3459.59375 2520.460938 C 3488.222656 2537.582031 3494.113281 2542.636719 3494.113281 2551.617188 C 3494.113281 2562.285156 3485.132812 2568.460938 3469.980469 2568.460938 C 3454.824219 2568.460938 3443.597656 2560.039062 3443.597656 2548.53125 C 3443.597656 2540.109375 3438.828125 2538.144531 3428.441406 2542.074219 C 3422.546875 2544.320312 3422.546875 2562.285156 3428.441406 2570.984375 C 3439.386719 2586.144531 3471.664062 2592.601562 3493.835938 2583.617188 C 3510.390625 2577.160156 3515.445312 2566.777344 3514.320312 2542.636719 C 3513.480469 2531.40625 3501.972656 2519.617188 3475.589844 2503.898438 C 3450.050781 2488.457031 3444.4375 2482.003906 3448.929688 2473.300781 C 3452.296875 2467.125 3457.910156 2464.597656 3468.574219 2464.597656 C 3478.960938 2464.597656 3487.660156 2471.335938 3489.90625 2481.441406 C 3491.871094 2490.144531 3493.835938 2490.984375 3504.78125 2488.179688 C 3512.078125 2486.214844 3512.636719 2479.757812 3506.742188 2465.722656 C 3500.007812 2449.160156 3474.1875 2441.019531 3450.050781 2448.035156 Z M 3450.050781 2448.035156 "/>
<path style=" stroke:none;fill-rule:nonzero;fill:rgb(0%,0%,0%);fill-opacity:1;" d="M 2312.570312 2508.109375 L 2312.570312 2523.546875 L 2297.136719 2523.546875 C 2285.347656 2523.546875 2281.699219 2524.390625 2281.699219 2527.757812 C 2281.699219 2531.125 2285.347656 2531.96875 2297.136719 2531.96875 L 2312.570312 2531.96875 L 2312.570312 2547.40625 C 2312.570312 2559.195312 2313.414062 2562.847656 2316.78125 2562.847656 C 2320.148438 2562.847656 2320.992188 2559.195312 2320.992188 2547.40625 L 2320.992188 2531.96875 L 2336.425781 2531.96875 C 2348.214844 2531.96875 2351.863281 2531.125 2351.863281 2527.757812 C 2351.863281 2524.390625 2348.214844 2523.546875 2336.425781 2523.546875 L 2320.992188 2523.546875 L 2320.992188 2508.109375 C 2320.992188 2496.320312 2320.148438 2492.667969 2316.78125 2492.667969 C 2313.414062 2492.667969 2312.570312 2496.320312 2312.570312 2508.109375 Z M 2312.570312 2508.109375 "/>
</g>
</svg>
