<?xml version="1.0" standalone="no"?>
<!DOCTYPE svg PUBLIC "-//W3C//DTD SVG 20010904//EN"
 "http://www.w3.org/TR/2001/REC-SVG-20010904/DTD/svg10.dtd">
<svg version="1.0" xmlns="http://www.w3.org/2000/svg"
 width="1755.000000pt" height="1241.000000pt" viewBox="0 0 1755.000000 1241.000000"
 preserveAspectRatio="xMidYMid meet">

<g transform="translate(0.000000,1241.000000) scale(0.100000,-0.100000)"
fill="#000000" stroke="none">
<path d="M8530 9205 c-211 -43 -340 -156 -378 -330 -19 -89 -21 -137 -13 -285
7 -138 9 -149 41 -208 51 -96 154 -185 465 -401 300 -207 369 -265 386 -322 6
-19 10 -76 8 -127 -5 -104 -19 -134 -85 -167 -38 -19 -59 -20 -579 -20 -605 0
-595 -1 -677 73 -91 83 -101 136 -96 567 3 302 5 344 21 372 32 59 56 67 214
73 191 7 188 5 188 170 0 111 -2 121 -23 142 -20 21 -34 23 -138 26 -136 4
-249 -9 -328 -38 -78 -30 -167 -114 -205 -194 -54 -116 -56 -134 -56 -611 0
-429 1 -442 23 -512 61 -194 230 -347 432 -389 112 -23 1235 -16 1328 9 162
44 273 134 322 264 32 85 40 173 31 338 -7 134 -10 156 -34 203 -57 114 -101
152 -487 422 -151 105 -292 208 -312 228 -60 57 -70 89 -66 202 4 115 17 141
88 178 44 22 44 22 570 22 578 0 586 -1 667 -60 29 -22 53 -52 75 -98 l33 -67
0 -375 c0 -498 9 -480 -238 -490 -184 -8 -182 -6 -182 -169 0 -168 -9 -161
209 -161 111 0 189 5 221 14 152 40 253 142 302 307 25 83 31 870 8 975 -48
215 -217 389 -426 439 -88 20 -1207 21 -1309 0z"/>
<path d="M4685 6444 c-157 -34 -290 -127 -349 -242 -46 -90 -56 -152 -56 -333
0 -320 33 -367 495 -689 154 -107 296 -212 317 -232 l38 -38 0 -85 c0 -132
-16 -140 -257 -133 -82 3 -156 8 -166 13 -31 13 -47 60 -47 138 0 90 -13 131
-46 146 -15 7 -86 11 -184 11 -154 0 -160 -1 -187 -24 l-28 -24 1 -154 c1
-130 4 -162 23 -213 61 -168 193 -275 393 -320 65 -14 117 -16 320 -13 267 5
321 15 434 79 59 34 143 119 172 175 53 105 75 294 53 469 -24 198 -92 274
-486 549 -148 104 -283 200 -300 214 -53 44 -65 70 -65 150 0 64 3 76 24 97
32 32 72 38 238 33 196 -5 205 -11 214 -150 10 -160 8 -158 238 -158 l165 0
20 26 c19 24 21 40 21 158 0 144 -13 213 -55 297 -55 107 -159 190 -299 236
-78 26 -91 27 -326 30 -189 2 -261 -1 -315 -13z"/>
<path d="M12216 6428 c-21 -49 -416 -2036 -416 -2089 0 -76 8 -79 212 -79 97
0 184 3 193 6 28 11 42 54 80 244 20 102 39 193 41 203 5 16 23 17 242 15
l237 -3 42 -210 c56 -274 35 -255 273 -255 195 0 202 2 215 60 7 31 -396 2061
-418 2110 l-12 25 -338 3 -338 2 -13 -32z m424 -913 c39 -181 68 -330 66 -332
-2 -2 -66 -2 -143 -1 l-140 3 70 332 c39 183 72 331 74 329 2 -2 35 -151 73
-331z"/>
<path d="M5825 6425 l-25 -24 0 -729 c0 -434 4 -771 10 -831 32 -307 173 -486
440 -558 94 -26 398 -25 490 1 172 47 294 143 360 280 76 160 73 124 77 1030
l4 809 -22 23 c-22 24 -26 24 -205 24 -164 0 -184 -2 -205 -19 l-24 -19 -5
-789 c-6 -874 -2 -835 -71 -884 -30 -21 -47 -24 -141 -27 -139 -5 -184 12
-219 84 l-24 49 -5 783 -5 784 -24 19 c-21 17 -41 19 -203 19 -177 0 -179 0
-203 -25z"/>
<path d="M7349 6431 l-24 -19 0 -1055 c0 -1023 1 -1056 19 -1076 18 -20 29
-21 205 -21 102 0 191 4 197 8 31 20 34 55 34 361 l0 311 228 0 c266 0 327 10
451 71 149 74 247 196 292 366 27 100 38 393 20 528 -34 255 -158 419 -376
498 -117 42 -187 47 -618 47 -384 0 -406 -1 -428 -19z m888 -459 c17 -12 42
-43 55 -70 21 -43 23 -59 23 -212 0 -150 -2 -169 -22 -205 -28 -52 -62 -83
-104 -95 -19 -6 -118 -10 -221 -10 l-188 0 0 311 0 310 213 -3 c202 -3 214 -4
244 -26z"/>
<path d="M8900 6430 c-20 -20 -20 -33 -20 -1078 0 -1013 1 -1060 18 -1075 17
-15 74 -17 618 -17 329 0 604 4 610 8 28 19 34 56 34 220 0 152 -2 172 -19
193 l-19 24 -396 3 -396 3 0 204 0 205 295 0 c282 0 296 1 315 20 19 19 20 33
20 203 0 174 -1 185 -21 203 -20 18 -42 19 -315 22 l-294 3 0 214 0 214 381 3
381 3 19 24 c17 21 19 41 19 198 0 171 0 174 -25 198 l-24 25 -581 0 c-567 0
-580 0 -600 -20z"/>
<path d="M10295 6426 l-25 -25 0 -1054 c0 -828 3 -1057 13 -1070 11 -16 33
-17 207 -15 l194 3 13 25 c10 19 13 112 13 369 l0 343 123 -4 c113 -3 126 -5
176 -33 53 -29 105 -84 134 -140 8 -16 45 -133 81 -259 37 -126 72 -239 78
-250 29 -56 27 -56 228 -56 131 0 190 4 198 12 24 24 11 87 -74 363 -78 251
-132 390 -177 449 -13 18 -9 25 57 90 77 76 130 166 163 271 15 51 18 94 18
285 -1 219 -1 227 -28 303 -67 191 -196 320 -387 389 -64 22 -73 23 -522 26
l-458 3 -25 -25z m840 -430 c103 -31 145 -110 145 -271 0 -112 -18 -177 -62
-222 -51 -53 -102 -63 -320 -63 l-188 0 0 285 0 285 188 0 c136 0 202 -4 237
-14z"/>
<path d="M5123 3689 c-17 -5 -43 -24 -58 -41 -23 -28 -27 -39 -22 -81 5 -57
30 -87 114 -136 103 -61 123 -79 123 -111 0 -38 -32 -60 -86 -60 -54 0 -94 30
-94 71 0 31 -11 35 -58 22 -21 -5 -23 -10 -17 -42 9 -52 31 -80 78 -102 82
-37 203 -15 232 42 21 40 19 108 -5 147 -11 18 -48 50 -81 70 -144 88 -164
113 -117 146 44 31 128 10 128 -32 0 -33 16 -45 49 -37 24 5 31 12 31 31 0 89
-108 145 -217 113z"/>
<path d="M5440 3445 l0 -255 35 0 35 0 0 255 0 255 -35 0 -35 0 0 -255z"/>
<path d="M5675 3685 c-55 -20 -75 -49 -75 -112 0 -64 22 -89 144 -163 46 -27
87 -57 90 -66 19 -51 -13 -84 -82 -84 -59 0 -79 13 -93 61 -12 38 -15 40 -43
35 -39 -8 -40 -9 -32 -50 14 -73 75 -116 166 -116 100 0 160 48 160 128 0 63
-27 100 -110 152 -134 84 -155 112 -108 144 27 19 61 20 91 5 28 -15 37 -28
37 -58 0 -22 3 -23 36 -18 46 8 47 9 39 47 -19 88 -118 131 -220 95z"/>
<path d="M5950 3665 l0 -34 58 -3 57 -3 3 -217 2 -218 35 0 35 0 0 220 0 220
55 0 55 0 0 35 0 35 -150 0 -150 0 0 -35z"/>
<path d="M6320 3445 l0 -255 120 0 120 0 0 35 0 35 -85 0 -85 0 0 75 0 75 60
0 60 0 0 35 0 35 -60 0 -60 0 0 75 0 75 85 0 85 0 0 35 0 35 -120 0 -120 0 0
-255z"/>
<path d="M6640 3445 l0 -255 35 0 35 0 0 165 c0 163 6 190 31 143 7 -13 36
-65 66 -116 l55 -93 71 121 72 121 3 -170 2 -171 35 0 35 0 0 255 0 255 -34 0
c-34 0 -36 -2 -106 -130 -40 -71 -75 -130 -79 -130 -3 0 -37 59 -76 130 l-70
130 -37 0 -38 0 0 -255z"/>
<path d="M7276 3648 c-8 -29 -42 -144 -75 -256 l-59 -203 36 3 c34 3 37 6 50
51 l13 47 94 0 93 0 12 -50 c11 -48 13 -50 46 -50 19 0 34 3 34 8 1 4 -32 118
-72 254 l-73 248 -42 0 -42 0 -15 -52z m95 -173 c17 -58 29 -109 26 -111 -3
-3 -34 -4 -69 -2 l-65 3 33 110 c18 61 33 112 33 114 3 15 16 -20 42 -114z"/>
<path d="M7654 3689 c-53 -15 -79 -53 -79 -114 0 -64 21 -91 112 -144 103 -61
123 -79 123 -111 0 -38 -32 -60 -86 -60 -54 0 -94 30 -94 71 0 30 -17 37 -54
23 -21 -8 -21 -72 0 -103 47 -66 200 -82 268 -27 49 39 52 142 5 192 -13 14
-61 48 -107 76 -98 59 -119 90 -83 119 48 39 124 16 136 -41 7 -31 14 -34 53
-24 26 7 28 30 7 80 -24 59 -116 88 -201 63z"/>
<path d="M8620 3445 l0 -255 40 0 40 0 0 255 0 255 -40 0 -40 0 0 -255z"/>
<path d="M8790 3446 l0 -256 35 0 35 0 0 177 c0 124 3 174 11 166 5 -5 52 -84
102 -174 92 -163 93 -164 130 -167 l37 -3 0 255 0 256 -35 0 -35 0 -2 -182 -3
-183 -101 180 c-100 179 -101 180 -137 183 l-37 3 0 -255z"/>
<path d="M9200 3665 l0 -35 60 0 60 0 0 -220 0 -220 35 0 35 0 2 218 3 217 58
3 57 3 0 34 0 35 -155 0 -155 0 0 -35z"/>
<path d="M9570 3445 l0 -255 125 0 125 0 0 35 0 35 -85 0 -85 0 0 75 0 75 60
0 60 0 0 35 0 35 -60 0 -60 0 0 75 0 75 80 0 80 0 0 35 0 35 -120 0 -120 0 0
-255z"/>
<path d="M9900 3445 l0 -255 125 0 125 0 0 35 0 35 -90 0 -90 0 0 220 0 220
-35 0 -35 0 0 -255z"/>
<path d="M10220 3445 l0 -255 35 0 35 0 0 255 0 255 -35 0 -35 0 0 -255z"/>
<path d="M10451 3688 c-67 -25 -76 -50 -79 -227 -4 -180 5 -217 60 -251 27
-17 46 -20 101 -18 60 3 71 7 100 36 31 32 32 35 35 132 l4 100 -71 0 -71 0 0
-35 c0 -33 2 -35 35 -35 35 0 35 0 35 -45 0 -58 -25 -85 -78 -85 -73 0 -77 9
-77 180 0 147 1 152 24 171 13 10 36 19 53 19 36 0 78 -40 78 -75 0 -26 9 -29
48 -19 15 4 22 14 22 30 0 38 -26 91 -53 109 -33 21 -123 28 -166 13z"/>
<path d="M10760 3445 l0 -255 120 0 120 0 0 35 0 35 -85 0 -85 0 0 75 0 75 65
0 65 0 0 35 0 35 -65 0 -65 0 0 75 0 75 85 0 85 0 0 35 0 35 -120 0 -120 0 0
-255z"/>
<path d="M11090 3445 l0 -255 35 0 35 0 2 178 3 177 100 -177 99 -178 38 0 38
0 0 255 0 255 -35 0 -35 0 0 -181 c0 -99 -4 -178 -9 -175 -4 3 -52 84 -106
181 -97 172 -99 175 -132 175 l-33 0 0 -255z"/>
<path d="M11500 3665 l0 -35 60 0 60 0 0 -220 0 -220 35 0 35 0 0 220 0 220
55 0 55 0 0 35 0 35 -150 0 -150 0 0 -35z"/>
<path d="M11870 3445 l0 -255 123 0 123 0 1 35 1 35 -89 0 -89 0 0 75 0 75 65
0 65 0 0 35 0 35 -65 0 -65 0 0 75 0 75 85 0 85 0 0 35 0 35 -120 0 -120 0 0
-255z"/>
<path d="M12293 3689 c-81 -24 -110 -127 -54 -191 16 -18 55 -48 88 -67 102
-61 123 -79 123 -111 0 -38 -32 -60 -86 -60 -54 0 -94 30 -94 71 0 30 -17 37
-54 23 -21 -8 -21 -72 0 -103 39 -54 154 -77 233 -45 59 23 77 60 73 146 -3
40 -44 82 -138 138 -91 55 -111 78 -95 109 12 22 32 31 70 31 37 0 68 -24 76
-60 7 -31 14 -34 53 -24 26 7 28 30 7 80 -24 59 -116 88 -202 63z"/>
<path d="M8240 3475 l0 -55 -55 0 c-42 0 -55 -3 -55 -15 0 -12 13 -15 55 -15
l55 0 0 -55 c0 -42 3 -55 15 -55 12 0 15 13 15 55 l0 55 55 0 c42 0 55 3 55
15 0 12 -13 15 -55 15 l-55 0 0 55 c0 42 -3 55 -15 55 -12 0 -15 -13 -15 -55z"/>
</g>
</svg>
