<svg width="220" height="103" viewBox="0 0 220 103" fill="none" xmlns="http://www.w3.org/2000/svg">
<path d="M139.19 9.15527L139.012 8.89844L138.216 7.75684C137.602 6.85239 136.906 6.2309 136.061 5.77734L136.054 5.77344L136.046 5.76953L135.682 5.58496C135.317 5.40506 134.944 5.24197 134.481 5.1123C133.874 4.9421 133.152 4.84027 132.105 4.77344C130.03 4.64086 126.453 4.63672 119.504 4.63672C113.171 4.63672 109.979 4.63623 108.243 4.68359C107.379 4.70719 106.831 4.74411 106.419 4.80664C105.975 4.87407 105.703 4.97008 105.425 5.06836L105.412 5.07324C104.555 5.38903 103.772 5.74279 103.273 6.45508C102.786 7.1506 102.687 8.02472 102.64 8.99219C102.591 9.95746 102.606 10.7966 102.946 11.5371C103.297 12.3014 103.923 12.8102 104.671 13.3125V13.3115C104.856 13.4387 105.206 13.6369 105.618 13.8604C106.07 14.1053 106.661 14.4163 107.347 14.7705C108.033 15.1249 108.818 15.5241 109.659 15.9473L112.312 17.2666C116.981 19.5754 119.526 20.8653 121.079 21.8164C122.57 22.7296 123.077 23.2861 123.683 24.1416L123.688 24.1494C123.928 24.4814 124.017 24.6554 124.09 24.9668C124.18 25.3552 124.237 25.935 124.323 27.1016V27.1045C124.535 29.8491 124.328 31.1213 123.689 32.3213C122.717 34.1448 120.405 35.5847 116.614 36.3125C116.417 36.3496 115.829 36.3972 114.849 36.4414C113.899 36.4842 112.654 36.5223 111.209 36.5547C108.32 36.6195 104.646 36.6617 100.955 36.6787C97.2645 36.6957 93.5618 36.6876 90.6152 36.6504C87.6257 36.6126 85.5121 36.545 84.918 36.459H84.9189C80.254 35.7734 76.552 33.2991 75.2656 30.4082C75.1356 30.1157 75.0643 29.9435 75.0098 29.7285C74.954 29.5086 74.9072 29.2075 74.873 28.6787C74.8034 27.6007 74.7969 25.759 74.7969 22.084C74.7969 17.9824 74.8103 15.9556 74.9746 14.6963C75.0531 14.0947 75.1621 13.7107 75.3047 13.3809C75.453 13.0379 75.6533 12.7152 75.9775 12.2227C76.3389 11.6849 76.9926 11.0708 77.8145 10.5215C78.6271 9.9783 79.5342 9.54415 80.3506 9.32129C82.1279 8.86125 84.7473 8.64056 87.9854 8.70801H87.9863C89.2635 8.73398 89.9104 8.75471 90.3018 8.80566C90.4828 8.82925 90.5628 8.85435 90.6006 8.86914C90.6304 8.88083 90.6639 8.89768 90.7412 8.95508L90.75 8.96191L90.7598 8.96875C90.7921 8.99161 90.8162 9.00725 90.832 9.01953C90.8483 9.09123 90.8674 9.22762 90.8789 9.49316C90.8903 9.75687 90.8936 10.1027 90.8936 10.5762C90.8936 11.3242 90.8939 11.744 90.8457 12.0361C90.83 12.1313 90.8122 12.1797 90.8037 12.2002C90.7381 12.2387 90.5269 12.3203 89.918 12.375C89.3168 12.429 88.4974 12.4492 87.3291 12.4795H87.3281C85.457 12.5297 84.2422 12.5877 83.4014 12.79C82.9517 12.8983 82.566 13.0564 82.2188 13.2998C81.9628 13.4793 81.7564 13.6851 81.5762 13.8984L81.4199 14.0928C81.0232 14.5833 80.9016 15.1512 80.8301 16.0605C80.7576 16.9823 80.7273 18.4862 80.6914 21.0449C80.6319 24.672 80.6528 26.8804 81.0088 28.3525C81.197 29.1309 81.4877 29.7511 81.9307 30.2871C82.3597 30.8063 82.8906 31.1955 83.4629 31.5645L83.4668 31.5664C83.9376 31.8667 84.3899 32.1692 84.9961 32.3896C85.6036 32.6105 86.3184 32.7359 87.3604 32.8154C89.4202 32.9726 93.0631 32.9678 100.33 32.9678C106.593 32.9678 109.872 32.9631 111.696 32.918C113.293 32.8784 113.867 32.8084 114.398 32.6455L114.626 32.5693C115.455 32.2764 116.195 31.9243 116.683 31.2383C117.157 30.5713 117.277 29.7457 117.338 28.8516V28.8389C117.365 28.3523 117.352 27.8428 117.312 27.4053C117.276 27.0209 117.208 26.5583 117.067 26.2314H117.068C117.067 26.2288 117.066 26.2263 117.064 26.2236C117.063 26.2201 117.062 26.2164 117.061 26.2129H117.06C116.709 25.4008 115.911 24.7714 114.562 23.9756C113.504 23.3505 111.967 22.5489 109.741 21.4443L107.278 20.2344C103.529 18.3938 101.071 17.1116 99.4014 16.0938C97.7329 15.0764 96.9274 14.3657 96.4229 13.6943L96.417 13.6865C96.04 13.1952 95.9407 13.0266 95.8662 12.7588C95.7695 12.4104 95.7189 11.8919 95.6318 10.6758L95.6309 10.6709L95.5713 9.8125C95.5239 9.03378 95.5147 8.47929 95.5449 8.00391C95.5837 7.39537 95.6893 6.89055 95.9033 6.18164C96.6439 3.7849 99.235 1.96478 104.21 1.24805L104.212 1.24707C104.746 1.16946 106.807 1.10261 109.755 1.05859C112.657 1.01526 116.323 0.995042 119.979 0.996094C123.636 0.997146 127.28 1.01962 130.141 1.06348C131.571 1.08541 132.802 1.11243 133.739 1.14453C134.692 1.17719 135.272 1.21391 135.471 1.24414H135.472C140.283 2.05779 143.951 4.85274 144.961 8.04004V8.04102C144.995 8.1508 145.047 8.4573 145.096 9.00391C145.142 9.52081 145.179 10.1788 145.206 10.9355C145.26 12.4473 145.275 14.32 145.254 16.1865C145.233 18.0534 145.176 19.9026 145.088 21.3662C145.044 22.0991 144.992 22.7248 144.935 23.2031C144.906 23.4425 144.878 23.6345 144.85 23.7793C144.819 23.9388 144.799 23.9899 144.804 23.9785L144.802 23.9824C143.781 26.4122 141.678 27.9862 138.254 28.623L138.241 28.626C137.584 28.7566 135.807 28.8447 133.105 28.8447C131.772 28.8447 130.835 28.8525 130.146 28.8203C129.49 28.7897 129.223 28.7222 129.119 28.6787C129.113 28.6571 129.104 28.6249 129.097 28.5781C129.051 28.2872 129.061 27.8755 129.061 27.0957C129.061 26.3591 129.062 25.9439 129.109 25.6562C129.125 25.561 129.142 25.5124 129.15 25.4922C129.212 25.4565 129.413 25.3787 129.991 25.3232C130.57 25.2677 131.359 25.2446 132.485 25.21L132.484 25.209C133.926 25.1677 135.121 25.1561 136.019 25.0156C136.952 24.8695 137.809 24.553 138.38 23.7217C138.893 22.9735 139.056 21.9611 139.129 20.7861C139.204 19.5782 139.19 17.9602 139.19 15.8613V9.15527Z" fill="black" stroke="black" stroke-width="1.99133"/>
<path d="M23.0635 72.9692L22.6426 72.6714L21.7256 72.0239L21.7168 72.0171L21.707 72.0103C21.3941 71.7997 20.3461 71.2355 18.9902 70.5317C17.5998 69.8101 15.8086 68.9029 13.9453 67.9878H13.9463C11.1586 66.6144 9.04426 65.5473 7.43164 64.6313C5.81312 63.7121 4.75954 62.9782 4.05762 62.2866C3.3812 61.6201 3.02849 60.9902 2.82812 60.2427C2.61655 59.4531 2.56348 58.4965 2.56348 57.1353C2.56348 55.5988 2.62577 54.6638 2.7959 53.9438C2.95652 53.2642 3.22287 52.7345 3.72461 52.0405C4.92378 50.39 7.82114 48.8779 11.4863 48.3169L11.4902 48.3159C12.6958 48.1266 14.3447 48.0716 18.9238 48.106V48.1069C24.6101 48.1583 24.8116 48.1777 26.5664 48.5913L26.5693 48.5923C29.8224 49.3477 32.0663 50.6743 33.1973 52.2251C33.649 52.8647 33.9182 53.4083 34.0859 54.0464C34.2591 54.7054 34.3369 55.5157 34.3369 56.7095C34.3369 57.7493 34.321 58.2146 34.2725 58.4741C34.2535 58.5755 34.2376 58.5912 34.2451 58.5786C34.2399 58.5854 34.2193 58.6086 34.1621 58.6597L34.1523 58.6694L33.9561 58.8501H30.3643C28.9644 58.8501 27.9595 58.8518 27.2119 58.814C26.4374 58.7748 26.0895 58.6961 25.9258 58.6196C25.8679 58.5926 25.8432 58.5913 25.7949 58.4331C25.7168 58.1771 25.6809 57.7963 25.6162 57.0649L25.6152 57.061C25.5631 56.491 25.5028 55.9102 25.3271 55.4253C25.1235 54.8636 24.7635 54.4151 24.1758 54.1245C23.6624 53.8707 23.0263 53.7659 22.3174 53.7056C21.5902 53.6437 20.6568 53.6203 19.4834 53.5991H19.4844C17.492 53.5567 16.1905 53.559 15.2832 53.6489C14.3371 53.7427 13.7192 53.9409 13.1484 54.3442C12.8389 54.5632 12.4881 54.8541 12.3037 55.3804C12.1567 55.8 12.1484 56.2988 12.1484 56.811C12.1484 57.5394 12.2194 58.2252 12.6025 58.8442C12.9732 59.4429 13.5555 59.8441 14.208 60.2271L14.2109 60.229C14.6587 60.4897 17.9617 62.149 21.5039 63.9087L21.5068 63.9097C26.2826 66.2659 28.9633 67.7153 30.5332 68.9673C31.298 69.5772 31.7598 70.1107 32.0654 70.644C32.3712 71.1776 32.5544 71.7683 32.6875 72.5444L32.6885 72.5503C33.1878 75.3587 32.6568 78.2763 31.5869 79.7837C31.3316 80.1319 30.7537 80.6595 30.0068 81.1958C29.3661 81.6558 28.6788 82.0661 28.1045 82.3296L27.8662 82.4331C26.5573 82.9569 25.6348 83.2429 24.2734 83.4185C23.2199 83.5543 21.9003 83.6249 19.9443 83.6694L17.7617 83.7065C12.8569 83.7576 11.6832 83.7203 10.2119 83.4966C5.53223 82.7519 2.72662 81.0267 1.46484 78.5698L1.45996 78.561L1.33691 78.311C1.23004 78.074 1.16731 77.8614 1.12305 77.5669C1.07313 77.2346 1.04751 76.8011 1.03223 76.1333L1.01953 75.3833L1.00098 73.3247L1.18848 73.2114L1.18945 73.2124C1.34537 73.1185 1.40148 73.0902 1.45996 73.0698C1.51911 73.0493 1.62758 73.022 1.87305 72.9995C2.39745 72.9515 3.30287 72.9458 5.18555 72.9458C6.35951 72.9458 7.36344 72.9625 8.11328 72.9937C8.48901 73.0093 8.79222 73.0284 9.0166 73.0493C9.27646 73.0736 9.34276 73.0932 9.31055 73.0825V73.0835L9.31836 73.0854C9.45347 73.1288 9.50775 73.1745 9.56738 73.3081C9.65806 73.5113 9.73632 73.8988 9.73633 74.6265C9.73633 76.0232 10.1393 77.4735 11.5342 77.9175V77.9185C11.5356 77.919 11.5376 77.9189 11.5391 77.9194C11.5537 77.9241 11.5682 77.9297 11.583 77.9341V77.9312C11.704 77.9681 11.8249 77.9886 11.8887 77.9976C11.9873 78.0113 12.1027 78.0236 12.2266 78.0347C12.4761 78.057 12.7973 78.0777 13.1641 78.0972C13.8997 78.1362 14.8498 78.1702 15.8438 78.1958H15.8496C17.2985 78.2255 18.44 78.2408 19.3262 78.2085C20.1916 78.1769 20.9202 78.0988 21.4893 77.8911C22.1314 77.6567 22.6001 77.2445 22.8447 76.6138C23.0483 76.0888 23.0635 75.4775 23.0635 74.9331V72.9692Z" fill="black" stroke="black" stroke-width="1.99133"/>
<path d="M201.425 48.0884V48.0894L209.03 48.1362C209.056 48.2068 209.089 48.3015 209.13 48.4224C209.226 48.7103 209.355 49.1165 209.513 49.6274C209.827 50.6477 210.248 52.0651 210.739 53.7485C211.721 57.1143 212.979 61.5319 214.216 65.9409C215.453 70.3501 216.668 74.7477 217.562 78.0747C218.01 79.739 218.375 81.1312 218.624 82.1216C218.749 82.618 218.843 83.006 218.901 83.2739C218.914 83.3293 218.921 83.378 218.93 83.4194C218.902 83.4275 218.864 83.4378 218.813 83.4478C218.266 83.5557 217.181 83.5698 214.768 83.5698C213.298 83.5698 212.306 83.589 211.562 83.5483C210.807 83.5072 210.523 83.4081 210.379 83.313C210.265 83.2377 210.117 83.0834 209.909 82.522C209.694 81.9411 209.491 81.156 209.14 79.9409L208.129 76.3667L207.926 75.6489L207.18 75.6421L201.464 75.5913H201.461C198.834 75.5743 197.373 75.5695 196.558 75.605C196.168 75.6219 195.833 75.6501 195.569 75.7241C195.426 75.7645 195.244 75.8337 195.072 75.9683C194.883 76.1168 194.773 76.2915 194.708 76.439L194.679 76.5044L194.66 76.5728C194.622 76.7089 194.149 78.311 193.67 80.0366C193.208 81.6688 192.915 82.5821 192.671 83.1089C192.56 83.3479 192.484 83.4493 192.448 83.4888C192.38 83.4938 192.286 83.4999 192.165 83.5054C191.912 83.5169 191.565 83.5281 191.146 83.5376C190.311 83.5566 189.208 83.5698 188.045 83.5698C186.811 83.5698 185.895 83.5658 185.206 83.5415C184.538 83.5179 184.156 83.4745 183.936 83.4224C183.934 83.382 183.93 83.3307 183.93 83.2661C183.931 83.2571 183.934 83.2465 183.937 83.2339C183.951 83.1593 183.975 83.0502 184.009 82.9058C184.076 82.6184 184.177 82.2161 184.307 81.7114C184.566 80.7033 184.94 79.3074 185.39 77.6509C186.29 74.3389 187.496 69.997 188.718 65.6558C189.94 61.3145 191.177 56.9766 192.14 53.6733C192.621 52.0211 193.034 50.6308 193.341 49.6294C193.495 49.128 193.62 48.7292 193.714 48.4458C193.761 48.3036 193.798 48.1974 193.825 48.1245C193.834 48.1016 193.84 48.0848 193.845 48.0737L193.854 48.0571L201.425 48.0884ZM202.008 56.7153C201.534 56.3781 201.059 56.582 200.894 56.687C200.742 56.7837 200.655 56.8983 200.632 56.9282C200.57 57.0091 200.532 57.084 200.522 57.104C200.493 57.1632 200.468 57.2246 200.452 57.2661C200.416 57.3591 200.371 57.4842 200.322 57.6274C200.222 57.9188 200.086 58.337 199.924 58.8472C199.599 59.87 199.163 61.2858 198.692 62.8481V62.8511L197.004 68.5112L196.628 69.771L197.942 69.7915L201.319 69.8423H201.325C202.255 69.8508 203.11 69.8552 203.74 69.853C204.054 69.852 204.318 69.849 204.51 69.8442C204.604 69.8419 204.691 69.8389 204.761 69.8345C204.794 69.8324 204.838 69.8296 204.884 69.8237C204.905 69.821 204.946 69.815 204.994 69.8042C205.018 69.7988 205.058 69.7885 205.105 69.772C205.142 69.7593 205.244 69.7232 205.355 69.645L205.357 69.6431C205.679 69.4157 205.747 69.0897 205.757 69.0444C205.779 68.9455 205.781 68.8643 205.781 68.8306C205.782 68.7565 205.775 68.695 205.771 68.6694C205.764 68.609 205.752 68.5478 205.742 68.5015C205.721 68.4016 205.69 68.2709 205.652 68.1216C205.576 67.8187 205.461 67.3921 205.317 66.8765C205.029 65.8429 204.616 64.4285 204.144 62.8794C203.685 61.3442 203.256 59.9401 202.936 58.9136C202.775 58.4004 202.641 57.9781 202.543 57.6802C202.494 57.5325 202.452 57.4088 202.42 57.3179C202.404 57.2741 202.387 57.2264 202.369 57.1841C202.361 57.1649 202.347 57.1305 202.328 57.0923C202.319 57.0743 202.3 57.0375 202.272 56.9946C202.268 56.987 202.179 56.8376 202.007 56.7153H202.008Z" fill="black" stroke="black" stroke-width="1.99133"/>
<path d="M66.0581 48.2258C68.2442 48.2258 69.2904 48.2268 69.8687 48.2737C70.1485 48.2964 70.2368 48.3251 70.2583 48.3333C70.263 48.3349 70.2724 48.3332 70.394 48.427L70.4019 48.4338L70.4106 48.4397L70.5327 48.5295L70.4399 61.8157V61.8167C70.3914 69.5794 70.3848 73.2134 70.1685 75.2678C70.0632 76.2671 69.9143 76.8167 69.7192 77.2551C69.5118 77.7214 69.2388 78.1037 68.7563 78.8215C67.3694 80.8565 64.7173 82.4035 60.7075 83.178L60.7017 83.1799C59.7009 83.3799 57.4057 83.4969 55.0044 83.5012C52.6035 83.5055 50.2953 83.3961 49.27 83.1956L49.2651 83.1946C46.1538 82.6014 43.884 81.5875 42.312 80.178C40.7578 78.7844 39.8087 76.9361 39.4517 74.5149C39.3905 74.0718 39.3301 72.4616 39.2876 69.9504C39.2456 67.4688 39.2222 64.1889 39.2222 60.4934V48.592L39.3882 48.4797L39.4038 48.469L39.4194 48.4573C39.5668 48.3488 39.5846 48.343 39.6021 48.3362C39.6262 48.3267 39.712 48.2977 39.979 48.2747C40.542 48.2262 41.5611 48.2258 43.7251 48.2258C45.6913 48.2258 46.7498 48.2346 47.3813 48.2766C47.8297 48.3065 47.9858 48.349 48.0649 48.385L48.1265 48.4182L48.1343 48.4221L48.2085 48.4631L48.3247 61.2522L48.4448 74.6008L48.4478 74.9075L48.6226 75.1584L49.2007 75.9944C49.746 76.7864 50.4208 77.3158 51.4604 77.5969C52.4114 77.854 53.6532 77.8973 55.3267 77.8547L55.3257 77.8538C57.5552 77.8034 58.1901 77.7627 59.1431 77.2913L59.1489 77.2893C59.4338 77.1463 60.0301 76.9153 60.4331 76.4045C60.8469 75.8802 61.0144 75.17 61.1177 74.2493C61.3271 72.3821 61.3378 68.7421 61.4097 61.3381V61.3372L61.5249 48.4631L61.6001 48.4221L61.6079 48.4182C61.6763 48.3791 61.7536 48.3165 62.3579 48.2766C62.9958 48.2345 64.0673 48.2258 66.0581 48.2258Z" fill="black" stroke="black" stroke-width="1.99133"/>
<path d="M85.9072 48.2258C96.3403 48.2258 97.8908 48.3165 100.566 48.9954C103.083 49.6401 104.977 50.6129 106.329 51.8782C107.67 53.1333 108.527 54.7232 108.901 56.7053C109.096 57.7387 109.144 59.4695 109.052 61.1926C108.958 62.9395 108.732 64.4745 108.468 65.1672L108.465 65.1731C107.508 67.7282 105.416 69.6315 102.028 70.8215C99.2022 71.8042 97.87 71.9768 91.4785 71.9768H84.9844V78.2747C84.9844 80.914 84.9641 82.2874 84.8633 83.05C84.8394 83.2302 84.8135 83.3524 84.79 83.4348C84.7858 83.4498 84.7792 83.4624 84.7754 83.4739C84.7365 83.4768 84.6916 83.4825 84.6406 83.4856C84.3958 83.5006 84.0491 83.515 83.623 83.5276C82.7722 83.5528 81.63 83.5696 80.4082 83.5696C78.2655 83.5696 77.185 83.5644 76.5791 83.5208C76.3708 83.5058 76.2539 83.4853 76.1895 83.4719C76.1405 83.1754 76.0973 82.5962 76.0674 81.4221C76.0075 79.075 76.002 74.5915 76.002 65.8635V48.4602L76.0713 48.4221L76.083 48.4153C76.1022 48.4042 76.1218 48.3151 77.5029 48.2717C78.8396 48.2297 81.2674 48.2258 85.9072 48.2258ZM84.9844 66.467H90.5137C91.7634 66.467 92.9917 66.4494 93.9688 66.4192C94.4565 66.4041 94.8875 66.3862 95.2295 66.3645C95.5319 66.3453 95.836 66.3185 96.04 66.2756L96.041 66.2766C96.044 66.276 96.0468 66.2743 96.0498 66.2737C96.0533 66.2729 96.0571 66.2735 96.0605 66.2727L96.0596 66.2717C97.3145 66.0137 98.3303 65.3471 99.1348 64.2961C99.2754 64.1172 99.4226 63.912 99.542 63.6536C99.663 63.3915 99.7357 63.1183 99.7822 62.8118C99.8684 62.2435 99.8779 61.4372 99.8779 60.1868C99.8779 58.9116 99.8691 58.1026 99.7793 57.5237C99.673 56.8389 99.4503 56.4458 99.1465 56.0061C98.9313 55.6916 98.643 55.3866 98.3633 55.137C98.0895 54.8926 97.7672 54.6509 97.458 54.4944H97.459C97.4547 54.4922 97.4506 54.4898 97.4463 54.4875H97.4453C97.2416 54.3824 97.0181 54.2768 96.7197 54.1965C96.4284 54.1182 96.102 54.074 95.6885 54.0432C94.8764 53.9827 93.5443 53.9651 91.127 53.9397H91.126L85.9893 53.8889L84.9844 53.8782V66.467Z" fill="black" stroke="black" stroke-width="1.99133"/>
<path d="M127.461 48.2258H141.146L141.461 48.4573L141.477 48.469L141.493 48.4797C141.539 48.511 141.571 48.5342 141.593 48.55C141.594 48.5578 141.597 48.5665 141.599 48.5764C141.655 48.8944 141.659 49.5136 141.659 51.0315C141.659 52.3965 141.645 53.0722 141.593 53.4543C141.578 53.5631 141.562 53.6199 141.555 53.6448C141.551 53.648 141.547 53.6528 141.542 53.6575L141.534 53.6643L141.356 53.8225L132.544 53.8713L123.355 53.9231L122.365 53.928V63.2034L123.354 63.2112L130.443 63.261V63.262C133.747 63.2877 135.5 63.305 136.49 63.3528C136.989 63.3768 137.241 63.4068 137.382 63.4358C137.441 63.448 137.469 63.4579 137.486 63.4661C137.489 63.4809 137.494 63.4978 137.497 63.5178C137.55 63.8833 137.56 64.5775 137.56 66.1018C137.56 67.5879 137.551 68.2849 137.499 68.6624C137.493 68.7053 137.484 68.7374 137.479 68.761C137.465 68.7717 137.463 68.7742 137.423 68.7834C137.315 68.8085 137.095 68.8386 136.607 68.8606C135.644 68.904 133.889 68.9084 130.476 68.9084H122.365V77.8665L123.355 77.8723L132.906 77.9231L142.079 77.9719L142.257 78.1311L142.28 78.1516C142.288 78.1755 142.302 78.2298 142.316 78.3333C142.368 78.7029 142.383 79.3555 142.383 80.678C142.383 82.0973 142.342 82.8435 142.249 83.2668C142.229 83.3582 142.209 83.4185 142.193 83.4573C142.186 83.4576 142.178 83.4589 142.17 83.4592C141.969 83.4672 141.675 83.4757 141.294 83.4836C140.533 83.4995 139.447 83.5138 138.114 83.5266C135.45 83.5521 131.811 83.5696 127.847 83.5696C121.282 83.5696 117.67 83.561 115.647 83.5208C114.631 83.5005 114.046 83.4726 113.698 83.4377C113.688 83.4367 113.677 83.4349 113.667 83.4338C113.627 83.0948 113.591 82.5054 113.566 81.468C113.51 79.0922 113.504 74.5903 113.504 65.9485C113.504 57.0313 113.504 52.5409 113.563 50.2327C113.591 49.1782 113.631 48.6402 113.675 48.3586C113.678 48.3582 113.681 48.3581 113.684 48.3577C113.922 48.3209 114.374 48.2892 115.302 48.2678C117.135 48.2256 120.616 48.2258 127.461 48.2258Z" fill="black" stroke="black" stroke-width="1.99133"/>
<path d="M158.278 48.2598C167.822 48.3047 169.057 48.3287 170.152 48.5615L170.637 48.6748C175.051 49.8041 177.866 51.8641 179.313 54.7812L179.316 54.7861C179.628 55.4051 179.728 55.6418 179.791 56.1338C179.847 56.5739 179.865 57.1833 179.876 58.2627L179.886 59.5107C179.886 62.7754 179.8 63.3186 179.537 63.959C178.822 65.5675 177.669 66.9645 175.947 68.166C175.55 68.4426 175.231 68.6681 174.986 68.8525C174.754 69.0276 174.533 69.2066 174.37 69.3896C174.219 69.5596 173.941 69.9289 174.014 70.4443C174.076 70.8871 174.378 71.1647 174.444 71.2295L174.454 71.2393L174.464 71.248C174.888 71.6409 175.423 72.3721 176.106 73.6016C176.612 74.5115 177.179 75.6552 177.825 77.0684L178.498 78.5732C179.529 80.9401 180.091 82.3212 180.332 83.1543C180.371 83.2885 180.396 83.3982 180.415 83.4863C180.269 83.4975 180.091 83.5101 179.876 83.5195C179.124 83.5526 177.995 83.5703 176.419 83.5703C173.934 83.5703 172.857 83.5659 172.286 83.4658C172.163 83.4443 172.095 83.4225 172.06 83.4082C172.029 83.3961 172.018 83.3873 172.011 83.3818C171.971 83.3503 171.928 83.3003 171.74 83.0439C171.735 83.0351 171.729 83.0223 171.72 83.0049C171.689 82.9454 171.646 82.8585 171.592 82.7432C171.484 82.5138 171.341 82.1969 171.172 81.8135C171.003 81.4307 170.811 80.9863 170.605 80.5039L169.959 78.9668C169.522 77.8865 169.079 76.8441 168.72 76.0342C168.54 75.6286 168.378 75.276 168.248 75.0049C168.135 74.7699 168.006 74.5092 167.899 74.3584L167.89 74.3447L167.728 74.1348C166.888 73.092 165.562 72.1418 164.22 71.6211H164.221C163.588 71.3705 163.12 71.2083 162.431 71.1182C161.794 71.0349 160.972 71.0134 159.632 70.9883H159.633L156.666 70.9199L155.647 70.8965V77.7637C155.647 79.9554 155.629 81.4247 155.582 82.3818C155.558 82.8625 155.529 83.1874 155.496 83.3984C155.491 83.4344 155.482 83.4641 155.478 83.4893L151.326 83.5361C149.215 83.5533 148.07 83.5567 147.416 83.5244C147.335 83.5204 147.266 83.5116 147.207 83.5068C147.201 83.4325 147.194 83.3479 147.188 83.252C147.148 82.6598 147.117 81.7295 147.093 80.3477C147.045 77.5895 147.027 73.0931 147.027 66.0342V48.5801L147.209 48.4521L147.551 48.21L158.278 48.2598ZM155.647 65.4443H161.177C163.794 65.4443 165.485 65.4029 166.684 65.2363C167.938 65.0619 168.713 64.7411 169.478 64.1807L169.479 64.1816C170.156 63.6915 170.653 63.0715 170.967 62.2754C171.271 61.5027 171.386 60.6099 171.386 59.5898C171.386 58.1124 171.116 56.8391 170.367 55.8486C169.608 54.8445 168.478 54.2892 167.101 53.9961L167.09 53.9941L166.693 53.9268C165.678 53.7842 164.018 53.7354 161.177 53.7354H155.647V65.4443Z" fill="black" stroke="black" stroke-width="1.99133"/>
<mask id="path-8-inside-1_103_80" fill="white">
<path d="M21.8994 94.2994C21.4895 94.3848 20.8625 94.7087 20.5006 94.9986C19.946 95.4759 19.8494 95.6633 19.9702 96.3793C20.0907 97.3513 20.6936 97.8625 22.7194 98.6981C25.2035 99.7379 25.6858 100.045 25.6858 100.59C25.6858 101.238 24.9141 101.613 23.612 101.613C22.3096 101.613 21.3448 101.102 21.3448 100.403C21.3448 99.8743 21.0796 99.806 19.946 100.028C19.4395 100.113 19.3912 100.198 19.5358 100.744C19.753 101.63 20.2837 102.108 21.4173 102.483C23.3948 103.113 26.3129 102.739 27.0125 101.767C27.519 101.085 27.4707 99.9256 26.8919 99.2606C26.6264 98.9536 25.7342 98.4082 24.9383 98.0673C21.4653 96.567 20.983 96.1407 22.1166 95.5782C23.1776 95.0496 25.2035 95.4076 25.2035 96.1238C25.2035 96.6863 25.5895 96.8908 26.3854 96.7544C26.9641 96.6692 27.133 96.5499 27.133 96.2261C27.133 94.7087 24.5284 93.754 21.8994 94.2994Z"/>
</mask>
<path d="M21.8994 94.2994C21.4895 94.3848 20.8625 94.7087 20.5006 94.9986C19.946 95.4759 19.8494 95.6633 19.9702 96.3793C20.0907 97.3513 20.6936 97.8625 22.7194 98.6981C25.2035 99.7379 25.6858 100.045 25.6858 100.59C25.6858 101.238 24.9141 101.613 23.612 101.613C22.3096 101.613 21.3448 101.102 21.3448 100.403C21.3448 99.8743 21.0796 99.806 19.946 100.028C19.4395 100.113 19.3912 100.198 19.5358 100.744C19.753 101.63 20.2837 102.108 21.4173 102.483C23.3948 103.113 26.3129 102.739 27.0125 101.767C27.519 101.085 27.4707 99.9256 26.8919 99.2606C26.6264 98.9536 25.7342 98.4082 24.9383 98.0673C21.4653 96.567 20.983 96.1407 22.1166 95.5782C23.1776 95.0496 25.2035 95.4076 25.2035 96.1238C25.2035 96.6863 25.5895 96.8908 26.3854 96.7544C26.9641 96.6692 27.133 96.5499 27.133 96.2261C27.133 94.7087 24.5284 93.754 21.8994 94.2994Z" fill="black"/>
<path d="M21.8994 94.2994L21.4949 92.3496L21.4932 92.35L21.8994 94.2994ZM20.5006 94.9986L19.2555 93.4445L19.2281 93.4664L19.2015 93.4893L20.5006 94.9986ZM19.9702 96.3793L21.9464 96.1343L21.941 96.091L21.9338 96.0479L19.9702 96.3793ZM22.7194 98.6981L23.4884 96.8612L23.4787 96.8572L22.7194 98.6981ZM19.946 100.028L20.2762 101.992L20.3024 101.987L20.3285 101.982L19.946 100.028ZM19.5358 100.744L21.47 100.27L21.4655 100.252L21.4607 100.233L19.5358 100.744ZM21.4173 102.483L20.7918 104.373L20.8021 104.377L20.8124 104.38L21.4173 102.483ZM27.0125 101.767L25.414 100.579L25.405 100.591L25.3962 100.603L27.0125 101.767ZM26.8919 99.2606L25.3858 100.563L25.3898 100.568L26.8919 99.2606ZM24.9383 98.0673L24.1486 99.8953L24.1542 99.8977L24.9383 98.0673ZM22.1166 95.5782L23.0017 97.362L23.0045 97.3606L22.1166 95.5782ZM26.3854 96.7544L26.0955 94.7843L26.0722 94.7877L26.049 94.7917L26.3854 96.7544ZM21.8994 94.2994L21.4932 92.35C21.0474 92.4429 20.6125 92.6291 20.2844 92.7948C19.942 92.9676 19.5705 93.1922 19.2555 93.4445L20.5006 94.9986L21.7457 96.5527C21.7926 96.5151 21.9155 96.4328 22.0796 96.3499C22.1551 96.3117 22.2218 96.2825 22.2729 96.2628C22.3296 96.241 22.339 96.2419 22.3056 96.2489L21.8994 94.2994ZM20.5006 94.9986L19.2015 93.4893C18.9484 93.7072 18.4144 94.1567 18.1331 94.8601C17.8345 95.6071 17.9398 96.3147 18.0067 96.7107L19.9702 96.3793L21.9338 96.0479C21.9106 95.9103 21.9157 95.8959 21.9154 95.9403C21.915 96.0076 21.9033 96.1582 21.8311 96.3388C21.7614 96.5132 21.6748 96.6159 21.6557 96.6374C21.6486 96.6454 21.6751 96.6151 21.7997 96.5078L20.5006 94.9986ZM19.9702 96.3793L17.994 96.6243C18.1132 97.5856 18.5271 98.4203 19.3457 99.1114C20.024 99.6841 20.9406 100.118 21.9602 100.539L22.7194 98.6981L23.4787 96.8572C23.0002 96.6598 22.6457 96.4978 22.3794 96.3577C22.1106 96.2163 21.9765 96.1203 21.9149 96.0683C21.8648 96.026 21.8905 96.0364 21.9239 96.0992C21.9568 96.1609 21.9535 96.1918 21.9464 96.1343L19.9702 96.3793ZM22.7194 98.6981L21.9505 100.535C22.5653 100.792 23.0325 100.994 23.391 101.161C23.7582 101.332 23.9585 101.442 24.0635 101.509C24.1793 101.582 24.0656 101.534 23.9329 101.342C23.7544 101.083 23.6945 100.796 23.6945 100.59H25.6858H27.6772C27.6772 100.112 27.557 99.5815 27.2104 99.0794C26.9097 98.6438 26.5201 98.3516 26.2048 98.1506C25.6015 97.7659 24.6895 97.364 23.4884 96.8612L22.7194 98.6981ZM25.6858 100.59H23.6945C23.6945 100.329 23.7809 100.061 23.9397 99.8451C24.0827 99.6503 24.2278 99.5729 24.2591 99.5575C24.2907 99.542 24.2611 99.5619 24.1378 99.5838C24.0191 99.6048 23.8457 99.622 23.612 99.622V101.613V103.605C24.407 103.605 25.2718 103.497 26.0153 103.132C26.8258 102.734 27.6772 101.897 27.6772 100.59H25.6858ZM23.612 101.613V99.622C23.1917 99.622 22.9681 99.535 22.9263 99.5127C22.9103 99.5042 22.9982 99.5458 23.1031 99.6843C23.221 99.8399 23.3362 100.091 23.3362 100.403H21.3448H19.3535C19.3535 101.791 20.3207 102.637 21.0537 103.028C21.8199 103.436 22.7299 103.605 23.612 103.605V101.613ZM21.3448 100.403H23.3362C23.3362 100.159 23.3162 99.649 23.0298 99.1291C22.6813 98.4966 22.1169 98.152 21.5833 98.0098C21.1411 97.8919 20.7254 97.9118 20.4649 97.9351C20.1767 97.961 19.8675 98.0141 19.5636 98.0735L19.946 100.028L20.3285 101.982C20.5914 101.931 20.7404 101.909 20.8207 101.902C20.9289 101.892 20.792 101.921 20.5578 101.858C20.4206 101.822 20.2274 101.748 20.0263 101.601C19.8176 101.449 19.6548 101.257 19.5416 101.051C19.4345 100.857 19.3909 100.686 19.3721 100.582C19.3536 100.481 19.3535 100.413 19.3535 100.403H21.3448ZM19.946 100.028L19.6159 98.064C19.4787 98.0871 19.2063 98.1344 18.9283 98.2421C18.6232 98.3604 18.1094 98.6284 17.7685 99.224C17.4463 99.7868 17.4604 100.332 17.4847 100.596C17.5091 100.862 17.5727 101.11 17.611 101.254L19.5358 100.744L21.4607 100.233C21.4266 100.105 21.442 100.137 21.4507 100.232C21.4591 100.324 21.4898 100.74 21.225 101.202C20.9414 101.698 20.5257 101.894 20.3675 101.956C20.2366 102.006 20.1601 102.011 20.2762 101.992L19.946 100.028ZM19.5358 100.744L17.6017 101.218C17.7872 101.975 18.1476 102.685 18.7857 103.271C19.3814 103.819 20.0971 104.143 20.7918 104.373L21.4173 102.483L22.0429 100.592C21.604 100.447 21.4875 100.345 21.4802 100.339C21.4798 100.338 21.4835 100.342 21.489 100.349C21.4946 100.356 21.4984 100.362 21.5001 100.365C21.5041 100.372 21.4894 100.349 21.47 100.27L19.5358 100.744ZM21.4173 102.483L20.8124 104.38C22.1335 104.801 23.6587 104.866 24.9473 104.701C25.6012 104.617 26.2661 104.465 26.864 104.225C27.4186 104.002 28.1351 103.616 28.6287 102.93L27.0125 101.767L25.3962 100.603C25.54 100.404 25.6294 100.429 25.3783 100.53C25.1706 100.613 24.8512 100.698 24.441 100.75C23.6012 100.858 22.6787 100.795 22.0223 100.586L21.4173 102.483ZM27.0125 101.767L28.6109 102.954C29.193 102.171 29.386 101.231 29.3484 100.416C29.3106 99.5962 29.0309 98.685 28.3941 97.9533L26.8919 99.2606L25.3898 100.568C25.3727 100.548 25.3631 100.533 25.3588 100.526C25.3545 100.518 25.3544 100.517 25.3564 100.522C25.3584 100.527 25.3615 100.537 25.3643 100.552C25.3671 100.566 25.3692 100.582 25.3699 100.599C25.3707 100.616 25.3701 100.631 25.3688 100.644C25.3675 100.656 25.3658 100.663 25.3654 100.665C25.3649 100.667 25.3666 100.66 25.3732 100.646C25.3798 100.632 25.3923 100.608 25.414 100.579L27.0125 101.767ZM26.8919 99.2606L28.3981 97.9579C28.0438 97.5484 27.5142 97.1985 27.1522 96.9774C26.722 96.7145 26.2153 96.4479 25.7223 96.2368L24.9383 98.0673L24.1542 99.8977C24.4572 100.028 24.7945 100.204 25.0758 100.376C25.2152 100.461 25.3229 100.534 25.3951 100.588C25.4879 100.657 25.4593 100.648 25.3858 100.563L26.8919 99.2606ZM24.9383 98.0673L25.728 96.2392C24.8675 95.8675 24.23 95.5784 23.7683 95.3459C23.2666 95.0933 23.1169 94.9774 23.1175 94.9779C23.1198 94.9799 23.2937 95.1262 23.4243 95.4293C23.589 95.8117 23.6212 96.3021 23.4265 96.7653C23.2685 97.1409 23.0317 97.3266 22.9877 97.3606C22.9291 97.4059 22.9152 97.4049 23.0017 97.362L22.1166 95.5782L21.2314 93.7944C21.0345 93.8921 20.7878 94.0274 20.5521 94.2095C20.3311 94.3804 19.9731 94.7034 19.7552 95.2215C19.5005 95.8272 19.534 96.4653 19.7667 97.0053C19.9652 97.4661 20.2736 97.7799 20.4824 97.9642C20.896 98.3291 21.4472 98.6362 21.9773 98.9031C22.5474 99.1901 23.2725 99.5169 24.1486 99.8953L24.9383 98.0673ZM22.1166 95.5782L23.0045 97.3606C22.9822 97.3717 23.0464 97.3386 23.2195 97.3235C23.3813 97.3094 23.5593 97.3182 23.7113 97.3451C23.8849 97.3758 23.9098 97.4087 23.833 97.3619C23.7905 97.3359 23.6546 97.2472 23.5162 97.0611C23.3647 96.8572 23.2121 96.5338 23.2121 96.1238H25.2035H27.1948C27.1948 94.9067 26.3376 94.2246 25.9077 93.9623C25.4179 93.6634 24.87 93.5055 24.4045 93.4232C23.5146 93.266 22.2704 93.2768 21.2287 93.7957L22.1166 95.5782ZM25.2035 96.1238H23.2121C23.2121 96.9032 23.5285 97.9095 24.5599 98.4588C25.3578 98.8837 26.2074 98.8053 26.7218 98.7171L26.3854 96.7544L26.049 94.7917C25.9489 94.8088 25.9348 94.8018 25.9828 94.8047C26.0283 94.8074 26.2064 94.8234 26.4321 94.9436C26.6848 95.0782 26.911 95.2989 27.0532 95.5801C27.1825 95.8357 27.1948 96.046 27.1948 96.1238H25.2035ZM26.3854 96.7544L26.6753 98.7245C26.9553 98.6833 27.582 98.59 28.1255 98.2059C28.4601 97.9694 28.7475 97.6388 28.928 97.2174C29.0949 96.8278 29.1243 96.4675 29.1243 96.2261H27.133H25.1416C25.1416 96.1465 25.15 95.9225 25.2671 95.6491C25.3979 95.3438 25.6068 95.1091 25.8269 94.9535C26.016 94.8198 26.1699 94.7752 26.1911 94.7691C26.2174 94.7614 26.1982 94.7692 26.0955 94.7843L26.3854 96.7544ZM27.133 96.2261H29.1243C29.1243 94.1749 27.4111 93.0693 26.1891 92.6201C24.8237 92.1182 23.1336 92.0097 21.4949 92.3496L21.8994 94.2994L22.3039 96.2493C23.2942 96.0438 24.2209 96.1399 24.815 96.3582C25.5526 96.6294 25.1416 96.7598 25.1416 96.2261H27.133Z" fill="black" mask="url(#path-8-inside-1_103_80)"/>
<mask id="path-10-inside-2_103_80" fill="white">
<path d="M29.5444 98.4597V102.807H31.2326V94.1125H29.5444V98.4597Z"/>
</mask>
<path d="M29.5444 98.4597V102.807H31.2326V94.1125H29.5444V98.4597Z" fill="black"/>
<path d="M29.5444 102.807H27.5531V104.798H29.5444V102.807ZM31.2326 102.807V104.798H33.2239V102.807H31.2326ZM31.2326 94.1125H33.2239V92.1212H31.2326V94.1125ZM29.5444 94.1125V92.1212H27.5531V94.1125H29.5444ZM29.5444 98.4597H27.5531V102.807H29.5444H31.5358V98.4597H29.5444ZM29.5444 102.807V104.798H31.2326V102.807V100.816H29.5444V102.807ZM31.2326 102.807H33.2239V94.1125H31.2326H29.2412V102.807H31.2326ZM31.2326 94.1125V92.1212H29.5444V94.1125V96.1039H31.2326V94.1125ZM29.5444 94.1125H27.5531V98.4597H29.5444H31.5358V94.1125H29.5444Z" fill="black" mask="url(#path-10-inside-2_103_80)"/>
<mask id="path-12-inside-3_103_80" fill="white">
<path d="M35.2118 94.3678C33.8852 94.7087 33.4028 95.2031 33.4028 96.2771C33.4028 97.3682 33.9335 97.7945 36.8757 99.0561C37.9852 99.5164 38.9741 100.028 39.0466 100.181C39.5048 101.051 38.7331 101.613 37.0688 101.613C35.6458 101.613 35.1634 101.392 34.8257 100.573C34.5364 99.9256 34.4642 99.8914 33.7888 99.9766C32.8482 100.113 32.8241 100.13 33.0171 100.829C33.3548 102.074 34.8257 102.807 37.0204 102.807C39.4323 102.807 40.8794 101.988 40.8794 100.625C40.8794 99.5505 40.2282 98.9197 38.2265 98.0332C34.9946 96.6012 34.4884 96.1239 35.6216 95.5782C36.2729 95.2544 37.0929 95.2373 37.8163 95.493C38.4917 95.7488 38.7089 95.9704 38.7089 96.4818C38.7089 96.8569 38.7811 96.8738 39.577 96.7886C40.6864 96.6522 40.7105 96.6351 40.5175 95.9874C40.0593 94.4871 37.6716 93.7541 35.2118 94.3678Z"/>
</mask>
<path d="M35.2118 94.3678C33.8852 94.7087 33.4028 95.2031 33.4028 96.2771C33.4028 97.3682 33.9335 97.7945 36.8757 99.0561C37.9852 99.5164 38.9741 100.028 39.0466 100.181C39.5048 101.051 38.7331 101.613 37.0688 101.613C35.6458 101.613 35.1634 101.392 34.8257 100.573C34.5364 99.9256 34.4642 99.8914 33.7888 99.9766C32.8482 100.113 32.8241 100.13 33.0171 100.829C33.3548 102.074 34.8257 102.807 37.0204 102.807C39.4323 102.807 40.8794 101.988 40.8794 100.625C40.8794 99.5505 40.2282 98.9197 38.2265 98.0332C34.9946 96.6012 34.4884 96.1239 35.6216 95.5782C36.2729 95.2544 37.0929 95.2373 37.8163 95.493C38.4917 95.7488 38.7089 95.9704 38.7089 96.4818C38.7089 96.8569 38.7811 96.8738 39.577 96.7886C40.6864 96.6522 40.7105 96.6351 40.5175 95.9874C40.0593 94.4871 37.6716 93.7541 35.2118 94.3678Z" fill="black"/>
<path d="M35.2118 94.3678L34.7297 92.4357L34.7161 92.4391L35.2118 94.3678ZM36.8757 99.0561L36.091 100.886L36.1018 100.891L36.1127 100.895L36.8757 99.0561ZM39.0466 100.181L37.2465 101.033L37.2649 101.072L37.2849 101.109L39.0466 100.181ZM34.8257 100.573L36.6665 99.8138L36.6556 99.7872L36.6439 99.761L34.8257 100.573ZM33.7888 99.9766L33.5397 98.0009L33.5213 98.0032L33.503 98.0059L33.7888 99.9766ZM33.0171 100.829L34.939 100.308L34.9366 100.299L33.0171 100.829ZM38.2265 98.0332L37.4198 99.8538L37.4201 99.8539L38.2265 98.0332ZM35.6216 95.5782L36.4855 97.3724L36.4969 97.3669L36.5083 97.3612L35.6216 95.5782ZM37.8163 95.493L38.5215 93.6307L38.5009 93.6229L38.4801 93.6156L37.8163 95.493ZM39.577 96.7886L39.7888 98.7686L39.8044 98.767L39.82 98.765L39.577 96.7886ZM40.5175 95.9874L42.426 95.4187L42.422 95.4058L40.5175 95.9874ZM35.2118 94.3678L34.7161 92.4391C33.9477 92.6366 33.0478 92.9609 32.3684 93.6736C31.6093 94.47 31.4115 95.4333 31.4115 96.2771H33.4028H35.3941C35.3941 96.151 35.4092 96.1386 35.3925 96.1897C35.3834 96.2177 35.3671 96.2576 35.3403 96.303C35.3133 96.3489 35.2821 96.3891 35.2512 96.4216C35.1895 96.4863 35.1591 96.4887 35.23 96.4547C35.3061 96.4183 35.4516 96.3622 35.7074 96.2965L35.2118 94.3678ZM33.4028 96.2771H31.4115C31.4115 96.7065 31.4622 97.247 31.7152 97.8101C31.9724 98.3828 32.3641 98.8151 32.7914 99.1572C33.5424 99.7584 34.6784 100.281 36.091 100.886L36.8757 99.0561L37.6605 97.226C36.9346 96.9147 36.3964 96.6714 35.9906 96.4661C35.5757 96.2562 35.3738 96.1228 35.2805 96.0481C35.2073 95.9896 35.2824 96.0319 35.3482 96.1783C35.4097 96.3152 35.3941 96.3932 35.3941 96.2771H33.4028ZM36.8757 99.0561L36.1127 100.895C36.6257 101.108 37.0981 101.328 37.4342 101.502C37.6065 101.591 37.7129 101.653 37.762 101.684C37.7894 101.702 37.7662 101.689 37.7176 101.649C37.6931 101.629 37.6369 101.582 37.5689 101.509C37.5159 101.453 37.3682 101.29 37.2465 101.033L39.0466 100.181L40.8466 99.3295C40.6282 98.8678 40.2794 98.5995 40.2384 98.566C40.1175 98.4672 39.9964 98.3857 39.9037 98.3265C39.7123 98.2044 39.4885 98.0808 39.2658 97.9655C38.812 97.7305 38.2352 97.4642 37.6388 97.2168L36.8757 99.0561ZM39.0466 100.181L37.2849 101.109C37.256 101.055 37.1335 100.787 37.2099 100.393C37.2913 99.9729 37.5373 99.718 37.6842 99.6115C37.8052 99.5237 37.8498 99.5374 37.7133 99.5677C37.5902 99.595 37.3802 99.622 37.0688 99.622V101.613V103.605C38.0151 103.605 39.1554 103.465 40.023 102.835C40.5136 102.479 40.9706 101.921 41.1199 101.151C41.2642 100.406 41.0662 99.7423 40.8083 99.2527L39.0466 100.181ZM37.0688 101.613V99.622C36.7551 99.622 36.5565 99.6092 36.4298 99.5922C36.3044 99.5754 36.3095 99.562 36.3768 99.5931C36.4136 99.6102 36.4613 99.6369 36.5125 99.6758C36.564 99.7149 36.6064 99.7566 36.6389 99.7949C36.7003 99.8675 36.7022 99.9001 36.6665 99.8138L34.8257 100.573L32.9849 101.333C33.272 102.028 33.7606 102.771 34.7037 103.207C35.4735 103.564 36.3387 103.605 37.0688 103.605V101.613ZM34.8257 100.573L36.6439 99.761C36.5745 99.6057 36.4658 99.3646 36.326 99.1405C36.174 98.897 35.9022 98.534 35.4366 98.2692C34.9669 98.0021 34.5126 97.9554 34.2203 97.9517C33.9569 97.9483 33.6956 97.9813 33.5397 98.0009L33.7888 99.9766L34.038 101.952C34.2198 101.929 34.2207 101.935 34.1699 101.934C34.0901 101.933 33.7986 101.919 33.4675 101.731C33.1405 101.545 32.9833 101.307 32.9473 101.249C32.9235 101.211 32.9323 101.217 33.0076 101.386L34.8257 100.573ZM33.7888 99.9766L33.503 98.0059C33.2984 98.0356 33.0182 98.0752 32.7776 98.1332C32.5994 98.1762 31.9916 98.3201 31.509 98.8473C30.9065 99.5055 30.9072 100.265 30.9425 100.618C30.9729 100.923 31.0624 101.232 31.0976 101.359L33.0171 100.829L34.9366 100.299C34.8753 100.077 34.8954 100.121 34.9055 100.222C34.9204 100.372 34.9497 100.987 34.4467 101.536C34.2383 101.764 34.023 101.881 33.9034 101.935C33.8417 101.963 33.7925 101.98 33.7631 101.99C33.7334 101.999 33.7144 102.004 33.711 102.005C33.7081 102.006 33.7311 102 33.8016 101.989C33.8703 101.977 33.9554 101.965 34.0746 101.947L33.7888 99.9766ZM33.0171 100.829L31.0953 101.35C31.4464 102.644 32.3683 103.539 33.4387 104.069C34.4813 104.585 35.7259 104.798 37.0204 104.798V102.807V100.815C36.1203 100.815 35.532 100.661 35.206 100.5C35.051 100.423 34.9807 100.358 34.9556 100.33C34.9433 100.316 34.9395 100.309 34.9393 100.309C34.9391 100.308 34.9392 100.309 34.9393 100.309C34.9395 100.309 34.9393 100.309 34.9389 100.308L33.0171 100.829ZM37.0204 102.807V104.798C38.4073 104.798 39.757 104.57 40.8345 103.96C41.997 103.303 42.8707 102.158 42.8707 100.625H40.8794H38.8881C38.8881 100.596 38.9011 100.525 38.9426 100.461C38.9764 100.408 38.9826 100.432 38.8742 100.494C38.6252 100.634 38.0454 100.815 37.0204 100.815V102.807ZM40.8794 100.625H42.8707C42.8707 99.5741 42.5076 98.6265 41.6939 97.8329C41.0084 97.1644 40.0608 96.6677 39.0329 96.2124L38.2265 98.0332L37.4201 99.8539C37.8831 100.059 38.2252 100.231 38.4792 100.379C38.7352 100.529 38.8593 100.632 38.9133 100.684C38.9566 100.726 38.9315 100.714 38.9053 100.65C38.8798 100.588 38.8881 100.563 38.8881 100.625H40.8794ZM38.2265 98.0332L39.0332 96.2125C38.2367 95.8596 37.6477 95.5827 37.2235 95.3597C36.7602 95.116 36.6368 95.009 36.653 95.0242C36.6653 95.0358 36.8321 95.1893 36.9507 95.4932C37.0969 95.8679 37.1143 96.3349 36.9275 96.7724C36.7726 97.1354 36.5444 97.3179 36.4914 97.3587C36.427 97.4084 36.407 97.4102 36.4855 97.3724L35.6216 95.5782L34.7578 93.784C34.553 93.8826 34.3009 94.0187 34.0599 94.2045C33.8303 94.3815 33.481 94.702 33.2646 95.2088C32.6902 96.5545 33.5561 97.5782 33.9213 97.9224C34.3263 98.3042 34.8647 98.619 35.3698 98.8847C35.9142 99.1709 36.6004 99.4907 37.4198 99.8538L38.2265 98.0332ZM35.6216 95.5782L36.5083 97.3612C36.6095 97.3109 36.862 97.2678 37.1526 97.3705L37.8163 95.493L38.4801 93.6156C37.3239 93.2068 35.9362 93.1978 34.735 93.7952L35.6216 95.5782ZM37.8163 95.493L37.1111 97.3553C37.2328 97.4014 37.2714 97.423 37.2661 97.42C37.2579 97.4154 37.1617 97.3612 37.0481 97.2373C36.9215 97.0992 36.824 96.9302 36.7676 96.7539C36.7173 96.5964 36.7176 96.4881 36.7176 96.4818H38.7089H40.7002C40.7002 95.9171 40.5682 95.1834 39.9836 94.5458C39.5073 94.0262 38.8984 93.7735 38.5215 93.6307L37.8163 95.493ZM38.7089 96.4818H36.7176C36.7176 96.5555 36.7074 96.9562 36.8604 97.3784C37.0881 98.0067 37.5781 98.478 38.1964 98.6908C38.6289 98.8396 39.0316 98.825 39.1816 98.8192C39.3788 98.8117 39.5984 98.789 39.7888 98.7686L39.577 96.7886L39.3651 94.8086C39.1575 94.8308 39.0697 94.8379 39.0295 94.8395C38.9422 94.8428 39.1776 94.8165 39.4925 94.9249C39.6873 94.9919 39.935 95.1168 40.1655 95.342C40.3976 95.5688 40.5311 95.8182 40.6048 96.0216C40.6724 96.2081 40.69 96.3565 40.6955 96.413C40.7012 96.4721 40.7002 96.5057 40.7002 96.4818H38.7089ZM39.577 96.7886L39.82 98.765C40.0735 98.7339 40.3646 98.6984 40.6078 98.65C40.7743 98.6168 41.3369 98.5113 41.8237 98.0984C42.5341 97.4959 42.6319 96.6963 42.5931 96.2088C42.5654 95.8606 42.4554 95.5176 42.4259 95.4187L40.5175 95.9874L38.6091 96.5562C38.6338 96.6388 38.6425 96.6704 38.6459 96.6842C38.6505 96.7025 38.6318 96.6356 38.6229 96.5246C38.6139 96.4112 38.6075 96.1665 38.7052 95.8687C38.8134 95.539 39.0101 95.2625 39.2476 95.0611C39.458 94.8827 39.6519 94.8039 39.7304 94.7753C39.812 94.7455 39.8578 94.7385 39.8304 94.7439C39.763 94.7573 39.6351 94.7751 39.3339 94.8122L39.577 96.7886ZM40.5175 95.9874L42.422 95.4058C41.9238 93.7746 40.4962 92.8777 39.1976 92.4806C37.8494 92.0683 36.2665 92.0523 34.7297 92.4357L35.2118 94.3678L35.6938 96.2999C36.617 96.0696 37.4578 96.1133 38.0329 96.2891C38.6577 96.4802 38.653 96.7 38.613 96.5691L40.5175 95.9874Z" fill="black" mask="url(#path-12-inside-3_103_80)"/>
<mask id="path-14-inside-4_103_80" fill="white">
<path d="M41.8438 94.7092V95.2888L43.2425 95.34L44.6171 95.3913L44.6896 99.0905L44.7376 102.807H46.4261V95.3059H49.079V94.1125H41.8438V94.7092Z"/>
</mask>
<path d="M41.8438 94.7092V95.2888L43.2425 95.34L44.6171 95.3913L44.6896 99.0905L44.7376 102.807H46.4261V95.3059H49.079V94.1125H41.8438V94.7092Z" fill="black"/>
<path d="M41.8438 95.2888H39.8524V97.2085L41.7708 97.2788L41.8438 95.2888ZM43.2425 95.34L43.3167 93.3501L43.3154 93.35L43.2425 95.34ZM44.6171 95.3913L46.6081 95.3522L46.5712 93.4714L44.6913 93.4013L44.6171 95.3913ZM44.6896 99.0905L46.6809 99.0648L46.6806 99.0515L44.6896 99.0905ZM44.7376 102.807L42.7465 102.833L42.7719 104.798H44.7376V102.807ZM46.4261 102.807V104.798H48.4174V102.807H46.4261ZM46.4261 95.3059V93.3145H44.4348V95.3059H46.4261ZM49.079 95.3059V97.2972H51.0703V95.3059H49.079ZM49.079 94.1125H51.0703V92.1212H49.079V94.1125ZM41.8438 94.1125V92.1212H39.8524V94.1125H41.8438ZM41.8438 94.7092H39.8524V95.2888H41.8438H43.8351V94.7092H41.8438ZM41.8438 95.2888L41.7708 97.2788L43.1696 97.33L43.2425 95.34L43.3154 93.35L41.9167 93.2988L41.8438 95.2888ZM43.2425 95.34L43.1683 97.33L44.543 97.3812L44.6171 95.3913L44.6913 93.4013L43.3167 93.3501L43.2425 95.34ZM44.6171 95.3913L42.6262 95.4303L42.6987 99.1296L44.6896 99.0905L46.6806 99.0515L46.6081 95.3522L44.6171 95.3913ZM44.6896 99.0905L42.6985 99.1163L42.7465 102.833L44.7376 102.807L46.7288 102.781L46.6808 99.0648L44.6896 99.0905ZM44.7376 102.807V104.798H46.4261V102.807V100.816H44.7376V102.807ZM46.4261 102.807H48.4174V95.3059H46.4261H44.4348V102.807H46.4261ZM46.4261 95.3059V97.2972H49.079V95.3059V93.3145H46.4261V95.3059ZM49.079 95.3059H51.0703V94.1125H49.079H47.0877V95.3059H49.079ZM49.079 94.1125V92.1212H41.8438V94.1125V96.1039H49.079V94.1125ZM41.8438 94.1125H39.8524V94.7092H41.8438H43.8351V94.1125H41.8438Z" fill="black" mask="url(#path-14-inside-4_103_80)"/>
<mask id="path-16-inside-5_103_80" fill="white">
<path d="M50.7671 98.4597V102.807H56.5552V101.614H52.4552V99.0566H55.3495V97.8631H52.4552V95.3059H56.5552V94.1125H50.7671V98.4597Z"/>
</mask>
<path d="M50.7671 98.4597V102.807H56.5552V101.614H52.4552V99.0566H55.3495V97.8631H52.4552V95.3059H56.5552V94.1125H50.7671V98.4597Z" fill="black"/>
<path d="M50.7671 102.807H48.7758V104.798H50.7671V102.807ZM56.5552 102.807V104.798H58.5466V102.807H56.5552ZM56.5552 101.614H58.5466V99.6225H56.5552V101.614ZM52.4552 101.614H50.4639V103.605H52.4552V101.614ZM52.4552 99.0566V97.0653H50.4639V99.0566H52.4552ZM55.3495 99.0566V101.048H57.3408V99.0566H55.3495ZM55.3495 97.8631H57.3408V95.8717H55.3495V97.8631ZM52.4552 97.8631H50.4639V99.8544H52.4552V97.8631ZM52.4552 95.3059V93.3145H50.4639V95.3059H52.4552ZM56.5552 95.3059V97.2972H58.5466V95.3059H56.5552ZM56.5552 94.1125H58.5466V92.1212H56.5552V94.1125ZM50.7671 94.1125V92.1212H48.7758V94.1125H50.7671ZM50.7671 98.4597H48.7758V102.807H50.7671H52.7584V98.4597H50.7671ZM50.7671 102.807V104.798H56.5552V102.807V100.816H50.7671V102.807ZM56.5552 102.807H58.5466V101.614H56.5552H54.5639V102.807H56.5552ZM56.5552 101.614V99.6225H52.4552V101.614V103.605H56.5552V101.614ZM52.4552 101.614H54.4466V99.0566H52.4552H50.4639V101.614H52.4552ZM52.4552 99.0566V101.048H55.3495V99.0566V97.0653H52.4552V99.0566ZM55.3495 99.0566H57.3408V97.8631H55.3495H53.3581V99.0566H55.3495ZM55.3495 97.8631V95.8717H52.4552V97.8631V99.8544H55.3495V97.8631ZM52.4552 97.8631H54.4466V95.3059H52.4552H50.4639V97.8631H52.4552ZM52.4552 95.3059V97.2972H56.5552V95.3059V93.3145H52.4552V95.3059ZM56.5552 95.3059H58.5466V94.1125H56.5552H54.5639V95.3059H56.5552ZM56.5552 94.1125V92.1212H50.7671V94.1125V96.1039H56.5552V94.1125ZM50.7671 94.1125H48.7758V98.4597H50.7671H52.7584V94.1125H50.7671Z" fill="black" mask="url(#path-16-inside-5_103_80)"/>
<path d="M63.8359 99.5637L63.8174 99.5403C63.831 99.5403 63.8443 99.5379 63.8574 99.5374L63.8359 99.5637ZM59.8008 95.1086L60.6445 96.2151C60.3097 96.1755 59.9763 96.2869 59.7275 96.5276C59.6168 96.6348 59.538 96.753 59.4814 96.8625V95.1086H59.8008Z" fill="black" stroke="black" stroke-width="1.99133"/>
<mask id="path-19-inside-6_103_80" fill="white">
<path d="M73.8242 94.9991C73.6312 95.4935 72.8111 97.4541 72.0152 99.3634L70.5923 102.824L71.4607 102.773C72.2808 102.722 72.3529 102.671 72.6665 101.903L72.98 101.102H77.4898L77.7795 101.955C78.0447 102.773 78.0931 102.807 78.889 102.807C79.3472 102.807 79.7087 102.756 79.7087 102.671C79.7329 102.603 78.937 100.659 77.9722 98.3404L76.2119 94.1125H74.1857L73.8242 94.9991ZM76.1152 97.9485C76.5254 98.9373 76.8148 99.8065 76.7423 99.8407C76.6701 99.8919 75.9222 99.909 75.0783 99.8749L73.5107 99.8236L74.3066 97.9485C74.7406 96.9084 75.1025 96.0389 75.1025 96.005C75.1747 95.7493 75.4882 96.3459 76.1152 97.9485Z"/>
</mask>
<path d="M73.8242 94.9991C73.6312 95.4935 72.8111 97.4541 72.0152 99.3634L70.5923 102.824L71.4607 102.773C72.2808 102.722 72.3529 102.671 72.6665 101.903L72.98 101.102H77.4898L77.7795 101.955C78.0447 102.773 78.0931 102.807 78.889 102.807C79.3472 102.807 79.7087 102.756 79.7087 102.671C79.7329 102.603 78.937 100.659 77.9722 98.3404L76.2119 94.1125H74.1857L73.8242 94.9991ZM76.1152 97.9485C76.5254 98.9373 76.8148 99.8065 76.7423 99.8407C76.6701 99.8919 75.9222 99.909 75.0783 99.8749L73.5107 99.8236L74.3066 97.9485C74.7406 96.9084 75.1025 96.0389 75.1025 96.005C75.1747 95.7493 75.4882 96.3459 76.1152 97.9485Z" fill="black"/>
<path d="M73.8242 94.9991L71.9803 94.2472L71.9747 94.261L71.9692 94.2749L73.8242 94.9991ZM72.0152 99.3634L70.1772 98.5972L70.1735 98.6061L72.0152 99.3634ZM70.5923 102.824L68.7506 102.067L67.5451 104.999L70.7096 104.812L70.5923 102.824ZM71.4607 102.773L71.578 104.761L71.5843 104.76L71.4607 102.773ZM72.6665 101.903L74.5098 102.657L74.5154 102.643L74.5208 102.629L72.6665 101.903ZM72.98 101.102V99.111H71.6209L71.1256 100.377L72.98 101.102ZM77.4898 101.102L79.3753 100.462L78.9163 99.111H77.4898V101.102ZM77.7795 101.955L79.6739 101.341L79.6695 101.327L79.665 101.314L77.7795 101.955ZM79.7087 102.671L77.8321 102.005L77.7174 102.328V102.671H79.7087ZM77.9722 98.3404L79.8108 97.5754L79.8106 97.575L77.9722 98.3404ZM76.2119 94.1125L78.0503 93.3471L77.5398 92.1212H76.2119V94.1125ZM74.1857 94.1125V92.1212H72.8472L72.3418 93.3606L74.1857 94.1125ZM76.1152 97.9485L74.2608 98.6741L74.2682 98.6929L74.2759 98.7115L76.1152 97.9485ZM76.7423 99.8407L75.8935 98.0393L75.7336 98.1147L75.5894 98.217L76.7423 99.8407ZM75.0783 99.8749L75.1589 97.8851L75.1511 97.8848L75.1434 97.8846L75.0783 99.8749ZM73.5107 99.8236L71.6776 99.0456L70.5429 101.719L73.4456 101.814L73.5107 99.8236ZM74.3066 97.9485L76.1397 98.7265L76.1443 98.7154L74.3066 97.9485ZM75.1025 96.005L73.186 95.4642L73.1112 95.7294V96.005H75.1025ZM73.8242 94.9991L71.9692 94.2749C71.7872 94.7413 70.9827 96.6648 70.1772 98.5972L72.0152 99.3634L73.8533 100.13C74.6396 98.2433 75.4752 96.2457 75.6792 95.7233L73.8242 94.9991ZM72.0152 99.3634L70.1735 98.6061L68.7506 102.067L70.5923 102.824L72.434 103.581L73.857 100.121L72.0152 99.3634ZM70.5923 102.824L70.7096 104.812L71.578 104.761L71.4607 102.773L71.3434 100.785L70.475 100.836L70.5923 102.824ZM71.4607 102.773L71.5843 104.76C71.7783 104.748 72.0545 104.73 72.3203 104.68C72.6137 104.625 73.0185 104.51 73.4176 104.222C73.8157 103.936 74.0526 103.589 74.1978 103.33C74.3299 103.095 74.4354 102.839 74.5098 102.657L72.6665 101.903L70.8231 101.15C70.7862 101.241 70.7608 101.301 70.7411 101.345C70.7211 101.389 70.7165 101.396 70.7244 101.382C70.7422 101.35 70.8511 101.163 71.0895 100.991C71.3288 100.819 71.5422 100.774 71.5817 100.767C71.5989 100.763 71.5924 100.766 71.5448 100.77C71.4978 100.775 71.4337 100.779 71.3371 100.785L71.4607 102.773ZM72.6665 101.903L74.5208 102.629L74.8344 101.828L72.98 101.102L71.1256 100.377L70.8121 101.178L72.6665 101.903ZM72.98 101.102V103.094H77.4898V101.102V99.111H72.98V101.102ZM77.4898 101.102L75.6044 101.743L75.8941 102.595L77.7795 101.955L79.665 101.314L79.3753 100.462L77.4898 101.102ZM77.7795 101.955L75.8852 102.569C75.9454 102.754 76.032 103.022 76.1429 103.263C76.2608 103.521 76.4853 103.932 76.9245 104.269C77.3774 104.616 77.8479 104.722 78.1554 104.763C78.4286 104.799 78.714 104.798 78.889 104.798V102.807V100.816C78.792 100.816 78.7317 100.815 78.6883 100.814C78.6439 100.812 78.6481 100.811 78.6788 100.815C78.7451 100.824 79.0378 100.871 79.3459 101.107C79.6404 101.332 79.7534 101.582 79.7628 101.603C79.7651 101.608 79.7463 101.564 79.6739 101.341L77.7795 101.955ZM78.889 102.807V104.798C79.1743 104.798 79.4933 104.784 79.7831 104.738C79.91 104.717 80.1464 104.674 80.3985 104.571C80.5174 104.523 80.7643 104.412 81.0129 104.191C81.2683 103.965 81.7 103.456 81.7 102.671H79.7087H77.7174C77.7174 101.907 78.1378 101.418 78.3716 101.211C78.5987 101.009 78.8137 100.917 78.8916 100.885C78.9899 100.844 79.065 100.825 79.0964 100.817C79.1325 100.808 79.1547 100.805 79.1582 100.804C79.1638 100.803 79.1415 100.807 79.0863 100.81C79.0344 100.814 78.9676 100.816 78.889 100.816V102.807ZM79.7087 102.671L81.5853 103.337C81.7019 103.008 81.7013 102.732 81.7004 102.646C81.6992 102.525 81.6872 102.428 81.6796 102.375C81.6642 102.268 81.6431 102.183 81.6331 102.143C81.611 102.057 81.5859 101.979 81.5703 101.932C81.5359 101.829 81.4915 101.708 81.4456 101.587C81.3514 101.338 81.2174 101 81.0579 100.604C80.7371 99.8095 80.2935 98.7357 79.8108 97.5754L77.9722 98.3404L76.1337 99.1053C76.6157 100.264 77.0524 101.321 77.3647 102.095C77.5217 102.484 77.6425 102.789 77.7208 102.996C77.7613 103.103 77.7826 103.163 77.7909 103.188C77.7966 103.205 77.7871 103.179 77.7744 103.129C77.7691 103.109 77.7513 103.038 77.7375 102.942C77.7307 102.895 77.7192 102.804 77.718 102.687C77.7172 102.604 77.7163 102.331 77.8321 102.005L79.7087 102.671ZM77.9722 98.3404L79.8106 97.575L78.0503 93.3471L76.2119 94.1125L74.3736 94.878L76.1339 99.1058L77.9722 98.3404ZM76.2119 94.1125V92.1212H74.1857V94.1125V96.1039H76.2119V94.1125ZM74.1857 94.1125L72.3418 93.3606L71.9803 94.2472L73.8242 94.9991L75.6681 95.751L76.0297 94.8645L74.1857 94.1125ZM76.1152 97.9485L74.2759 98.7115C74.4679 99.1744 74.6244 99.5922 74.7198 99.8798C74.7431 99.9499 74.7609 100.007 74.7738 100.051C74.7874 100.097 74.792 100.116 74.7917 100.115C74.7914 100.114 74.7878 100.098 74.7833 100.072C74.7794 100.049 74.7703 99.9915 74.7654 99.9119C74.762 99.8561 74.7512 99.6642 74.802 99.4194C74.8284 99.2926 74.887 99.0726 75.0294 98.8293C75.1791 98.5735 75.4494 98.2486 75.8935 98.0393L76.7423 99.8407L77.591 101.642C78.48 101.223 78.667 100.395 78.7014 100.23C78.7558 99.9681 78.7458 99.7531 78.7406 99.6684C78.7287 99.4743 78.6925 99.3072 78.6735 99.2244C78.6291 99.031 78.5638 98.8184 78.4997 98.6254C78.3661 98.2225 78.1727 97.7113 77.9546 97.1854L76.1152 97.9485ZM76.7423 99.8407L75.5894 98.217C75.7373 98.112 75.8688 98.0497 75.945 98.0168C76.0273 97.9814 76.0964 97.9584 76.142 97.9446C76.2307 97.9176 76.2988 97.9045 76.3264 97.8994C76.3838 97.8889 76.4138 97.8872 76.3949 97.8889C76.3647 97.8916 76.2878 97.8961 76.1574 97.8989C75.9045 97.9043 75.5483 97.9009 75.1589 97.8851L75.0783 99.8749L74.9978 101.865C75.4522 101.883 75.8919 101.888 76.242 101.881C76.413 101.877 76.5894 101.87 76.7461 101.856C76.8206 101.849 76.9276 101.838 77.0429 101.817C77.0995 101.807 77.1919 101.788 77.2999 101.755C77.3695 101.734 77.6244 101.657 77.8951 101.464L76.7423 99.8407ZM75.0783 99.8749L75.1434 97.8846L73.5757 97.8333L73.5107 99.8236L73.4456 101.814L75.0133 101.865L75.0783 99.8749ZM73.5107 99.8236L75.3437 100.602L76.1396 98.7265L74.3066 97.9485L72.4735 97.1704L71.6776 99.0456L73.5107 99.8236ZM74.3066 97.9485L76.1443 98.7154C76.3609 98.1963 76.5618 97.7143 76.7088 97.3574C76.7818 97.18 76.8445 97.0261 76.89 96.9115C76.912 96.856 76.9348 96.7978 76.9538 96.7462C76.9625 96.7228 76.9773 96.6822 76.9922 96.6362C76.9991 96.615 77.0134 96.5702 77.0281 96.5139C77.0354 96.486 77.0477 96.4366 77.0594 96.3745C77.0672 96.3326 77.0938 96.1898 77.0938 96.005H75.1025H73.1112C73.1112 95.8212 73.1375 95.6799 73.1451 95.6399C73.1564 95.5797 73.1682 95.5325 73.1748 95.5073C73.1881 95.4564 73.2003 95.4185 73.2044 95.4058C73.2138 95.3767 73.2204 95.3594 73.2183 95.365C73.2159 95.3715 73.207 95.3949 73.1883 95.442C73.1524 95.5324 73.0975 95.6673 73.0258 95.8415C72.8833 96.1878 72.6863 96.6606 72.4689 97.1816L74.3066 97.9485ZM75.1025 96.005L77.019 96.5458C76.9898 96.6491 76.9201 96.8632 76.7574 97.0987C76.5854 97.3478 76.2548 97.6936 75.7152 97.8561C74.6335 98.1819 73.9045 97.4863 73.8609 97.4465C73.7688 97.3625 73.7082 97.2893 73.6789 97.2521C73.6469 97.2114 73.6271 97.1816 73.6197 97.1702C73.6062 97.1494 73.611 97.1545 73.6356 97.2015C73.7461 97.4132 73.947 97.872 74.2608 98.6741L76.1152 97.9485L77.9697 97.2229C77.6564 96.4224 77.387 95.7816 77.166 95.3582C77.0973 95.2267 76.8895 94.8185 76.5451 94.5043C76.4522 94.4196 75.6819 93.7068 74.5668 94.0426C73.48 94.3699 73.2166 95.3557 73.186 95.4642L75.1025 96.005Z" fill="black" mask="url(#path-19-inside-6_103_80)"/>
<mask id="path-21-inside-7_103_80" fill="white">
<path d="M82.9407 94.2999C81.6625 94.5557 81.0354 95.2036 81.0354 96.2436C81.0354 97.3347 81.542 97.7949 83.7366 98.6986C86.2207 99.7384 86.703 100.045 86.703 100.591C86.703 101.239 85.9313 101.614 84.6289 101.614C83.3264 101.614 82.362 101.102 82.362 100.403C82.362 99.8919 81.9518 99.7725 81.0596 100.011C80.5531 100.148 80.5531 101.239 81.0596 101.767C82.1932 102.892 85.883 103.165 87.5231 102.227C88.7047 101.563 88.7772 99.8065 87.6436 98.9541C87.3301 98.7154 86.1723 98.1358 85.0629 97.6585C82.6994 96.6526 82.1932 96.1243 83.0613 95.6299C84.219 94.9649 86.0518 95.357 86.3412 96.3288C86.51 96.8574 86.6789 96.9084 87.6195 96.738C88.2465 96.6187 88.2948 96.2265 87.7883 95.3741C87.2096 94.3682 84.9907 93.8738 82.9407 94.2999Z"/>
</mask>
<path d="M82.9407 94.2999C81.6625 94.5557 81.0354 95.2036 81.0354 96.2436C81.0354 97.3347 81.542 97.7949 83.7366 98.6986C86.2207 99.7384 86.703 100.045 86.703 100.591C86.703 101.239 85.9313 101.614 84.6289 101.614C83.3264 101.614 82.362 101.102 82.362 100.403C82.362 99.8919 81.9518 99.7725 81.0596 100.011C80.5531 100.148 80.5531 101.239 81.0596 101.767C82.1932 102.892 85.883 103.165 87.5231 102.227C88.7047 101.563 88.7772 99.8065 87.6436 98.9541C87.3301 98.7154 86.1723 98.1358 85.0629 97.6585C82.6994 96.6526 82.1932 96.1243 83.0613 95.6299C84.219 94.9649 86.0518 95.357 86.3412 96.3288C86.51 96.8574 86.6789 96.9084 87.6195 96.738C88.2465 96.6187 88.2948 96.2265 87.7883 95.3741C87.2096 94.3682 84.9907 93.8738 82.9407 94.2999Z" fill="black"/>
<path d="M82.9407 94.2999L83.3314 96.2525L83.3387 96.2511L83.346 96.2496L82.9407 94.2999ZM83.7366 98.6986L84.5056 96.8616L84.4948 96.8572L83.7366 98.6986ZM81.0596 100.011L80.545 98.0875L80.5418 98.0884L81.0596 100.011ZM81.0596 101.767L79.6222 103.145L79.6392 103.163L79.6567 103.18L81.0596 101.767ZM87.5231 102.227L86.5464 100.492L86.5349 100.499L87.5231 102.227ZM87.6436 98.9541L86.4375 100.539L86.4468 100.546L87.6436 98.9541ZM85.0629 97.6585L85.8499 95.8293L85.8427 95.8262L85.0629 97.6585ZM83.0613 95.6299L84.0468 97.3602L84.0531 97.3566L83.0613 95.6299ZM86.3412 96.3288L84.4327 96.8971L84.4383 96.916L84.4443 96.9347L86.3412 96.3288ZM87.6195 96.738L87.9743 98.6975L87.983 98.6959L87.9917 98.6942L87.6195 96.738ZM87.7883 95.3741L86.0622 96.3672L86.0692 96.3793L86.0764 96.3914L87.7883 95.3741ZM82.9407 94.2999L82.5501 92.3473C81.6808 92.5212 80.7784 92.8757 80.0845 93.5859C79.3471 94.3405 79.0441 95.2915 79.0441 96.2436H81.0354H83.0268C83.0268 96.1841 83.0355 96.1892 83.019 96.2335C83.0005 96.2831 82.9683 96.3333 82.933 96.3694C82.9018 96.4012 82.8967 96.3931 82.956 96.365C83.0181 96.3356 83.136 96.2916 83.3314 96.2525L82.9407 94.2999ZM81.0354 96.2436H79.0441C79.0441 96.664 79.0916 97.1635 79.2925 97.681C79.501 98.2182 79.8278 98.6552 80.2238 99.0151C80.9187 99.6466 81.9122 100.101 82.9785 100.54L83.7366 98.6986L84.4948 96.8572C83.9677 96.6402 83.5906 96.4694 83.3155 96.3247C83.0357 96.1775 82.9291 96.092 82.9023 96.0677C82.8973 96.0632 82.9603 96.1241 83.0053 96.2399C83.0425 96.3359 83.0268 96.3687 83.0268 96.2436H81.0354ZM83.7366 98.6986L82.9677 100.535C83.5825 100.793 84.0497 100.995 84.4082 101.162C84.7754 101.333 84.9757 101.442 85.0807 101.509C85.1966 101.583 85.0828 101.535 84.9501 101.343C84.7716 101.084 84.7117 100.796 84.7117 100.591H86.703H88.6944C88.6944 100.112 88.5742 99.582 88.2276 99.0799C87.9269 98.6443 87.5373 98.3521 87.222 98.1511C86.6187 97.7664 85.7067 97.3645 84.5056 96.8617L83.7366 98.6986ZM86.703 100.591H84.7117C84.7117 100.33 84.7981 100.062 84.9569 99.8455C85.0999 99.6507 85.2451 99.5733 85.2764 99.5579C85.3079 99.5424 85.2783 99.5624 85.1549 99.5843C85.0361 99.6053 84.8627 99.6224 84.6289 99.6224V101.614V103.605C85.424 103.605 86.2888 103.498 87.0324 103.133C87.8429 102.734 88.6944 101.898 88.6944 100.591H86.703ZM84.6289 101.614V99.6224C84.2085 99.6224 83.9851 99.5354 83.9435 99.5133C83.9276 99.5048 84.0155 99.5464 84.1205 99.685C84.2383 99.8406 84.3534 100.092 84.3534 100.403H82.362H80.3707C80.3707 101.791 81.3374 102.637 82.0706 103.028C82.8368 103.436 83.7468 103.605 84.6289 103.605V101.614ZM82.362 100.403H84.3534C84.3534 100.024 84.2784 99.4995 83.946 98.9958C83.5932 98.4614 83.0897 98.1596 82.6153 98.0179C81.8275 97.7827 81.0269 97.9586 80.545 98.0875L81.0596 100.011L81.5742 101.935C81.7293 101.893 81.8023 101.885 81.8136 101.884C81.8375 101.881 81.6968 101.9 81.4756 101.834C81.2151 101.756 80.87 101.565 80.622 101.19C80.3943 100.845 80.3707 100.527 80.3707 100.403H82.362ZM81.0596 100.011L80.5418 98.0884C79.7104 98.3123 79.2241 98.9057 78.9851 99.3953C78.7541 99.8688 78.6884 100.353 78.6884 100.742C78.6884 101.486 78.9352 102.429 79.6222 103.145L81.0596 101.767L82.497 100.389C82.6022 100.499 82.64 100.591 82.6517 100.624C82.6641 100.659 82.671 100.694 82.671 100.742C82.671 100.776 82.6686 100.928 82.5642 101.142C82.4519 101.372 82.1555 101.778 81.5774 101.934L81.0596 100.011ZM81.0596 101.767L79.6567 103.18C80.259 103.778 81.0414 104.129 81.7126 104.343C82.4198 104.568 83.1973 104.702 83.958 104.757C85.387 104.86 87.1888 104.712 88.5114 103.956L87.5231 102.227L86.5349 100.499C86.2173 100.68 85.3542 100.865 84.2448 100.785C83.7364 100.748 83.2763 100.661 82.9216 100.548C82.5309 100.424 82.427 100.318 82.4625 100.354L81.0596 101.767ZM87.5231 102.227L88.4998 103.963C91.0498 102.528 91.014 98.9969 88.8404 97.3625L87.6436 98.9541L86.4468 100.546C86.455 100.552 86.4556 100.554 86.4566 100.556C86.4595 100.563 86.4621 100.574 86.4617 100.585C86.4613 100.596 86.4586 100.589 86.4712 100.567C86.478 100.555 86.4883 100.54 86.503 100.526C86.5181 100.511 86.5336 100.499 86.5465 100.492L87.5231 102.227ZM87.6436 98.9541L88.8498 97.3696C88.5208 97.1192 87.9836 96.8361 87.5445 96.6158C87.0409 96.3632 86.4387 96.0826 85.8499 95.8293L85.0629 97.6585L84.2759 99.4877C84.7965 99.7117 85.328 99.9596 85.7589 100.176C85.9748 100.284 86.1547 100.379 86.2898 100.455C86.4488 100.544 86.4768 100.568 86.4375 100.539L87.6436 98.9541ZM85.0629 97.6585L85.8427 95.8262C85.278 95.5859 84.8679 95.3922 84.5806 95.2364C84.2624 95.0637 84.2163 95.0013 84.2719 95.058C84.3158 95.1028 84.8395 95.6695 84.5932 96.5502C84.4923 96.9112 84.3012 97.1352 84.1994 97.2356C84.0995 97.334 84.0288 97.3705 84.0468 97.3602L83.0613 95.6299L82.0757 93.8995C81.7757 94.0704 81.0207 94.5369 80.7577 95.4777C80.436 96.628 81.0712 97.4824 81.4286 97.8468C81.7977 98.2231 82.267 98.5122 82.6814 98.737C83.1266 98.9786 83.666 99.2282 84.2831 99.4908L85.0629 97.6585ZM83.0613 95.6299L84.0531 97.3566C84.0765 97.3432 84.1449 97.313 84.2637 97.2984C84.3816 97.284 84.506 97.2906 84.6113 97.313C84.7233 97.337 84.7523 97.3651 84.7199 97.3422C84.686 97.3182 84.5187 97.1859 84.4327 96.8971L86.3412 96.3288L88.2497 95.7605C87.7951 94.2339 86.358 93.6135 85.4425 93.4181C84.4206 93.2 83.1534 93.2805 82.0695 93.9031L83.0613 95.6299ZM86.3412 96.3288L84.4443 96.9347C84.5474 97.2575 84.8916 98.3129 86.0874 98.6932C86.5321 98.8346 86.9413 98.8244 87.1905 98.8064C87.454 98.7873 87.7292 98.7419 87.9743 98.6975L87.6195 96.738L87.2646 94.7786C87.0394 94.8193 86.9408 94.8314 86.9029 94.8341C86.8505 94.8379 87.0306 94.8139 87.2945 94.8978C87.4426 94.9449 87.6045 95.0217 87.7607 95.138C87.9155 95.2532 88.0271 95.3791 88.1037 95.487C88.2338 95.6703 88.266 95.8102 88.2381 95.7228L86.3412 96.3288ZM87.6195 96.738L87.9917 98.6942C88.3081 98.634 88.7788 98.5018 89.2146 98.1581C89.7161 97.7627 90.0281 97.1995 90.1052 96.5754C90.1723 96.0331 90.0484 95.5647 89.938 95.2572C89.8217 94.9334 89.6612 94.6278 89.5002 94.3568L87.7883 95.3741L86.0764 96.3914C86.1687 96.5466 86.192 96.6098 86.1896 96.6029C86.187 96.5957 86.1704 96.5487 86.1575 96.4694C86.1445 96.3897 86.1317 96.2564 86.1527 96.0866C86.2027 95.682 86.4167 95.2924 86.7486 95.0308C87.0149 94.8208 87.2443 94.7823 87.2472 94.7818L87.6195 96.738ZM87.7883 95.3741L89.5144 94.3811C88.7961 93.1327 87.3903 92.5874 86.3478 92.356C85.1825 92.0974 83.83 92.0812 82.5355 92.3502L82.9407 94.2999L83.346 96.2496C84.1015 96.0925 84.8834 96.1106 85.4847 96.244C85.7831 96.3103 85.9848 96.3934 86.0973 96.4568C86.2212 96.5266 86.1515 96.5223 86.0622 96.3672L87.7883 95.3741Z" fill="black" mask="url(#path-21-inside-7_103_80)"/>
<mask id="path-23-inside-8_103_80" fill="white">
<path d="M106.239 98.4597V102.807H108.168V94.1125H106.239V98.4597Z"/>
</mask>
<path d="M106.239 98.4597V102.807H108.168V94.1125H106.239V98.4597Z" fill="black"/>
<path d="M106.239 102.807H104.247V104.798H106.239V102.807ZM108.168 102.807V104.798H110.16V102.807H108.168ZM108.168 94.1125H110.16V92.1212H108.168V94.1125ZM106.239 94.1125V92.1212H104.247V94.1125H106.239ZM106.239 98.4597H104.247V102.807H106.239H108.23V98.4597H106.239ZM106.239 102.807V104.798H108.168V102.807V100.816H106.239V102.807ZM108.168 102.807H110.16V94.1125H108.168H106.177V102.807H108.168ZM108.168 94.1125V92.1212H106.239V94.1125V96.1039H108.168V94.1125ZM106.239 94.1125H104.247V98.4597H106.239H108.23V94.1125H106.239Z" fill="black" mask="url(#path-23-inside-8_103_80)"/>
<path d="M111.334 95.1521C111.426 95.1598 111.44 95.1645 111.446 95.1667L111.449 95.1677C111.452 95.1691 111.459 95.1733 111.472 95.1814C111.498 95.1989 111.546 95.2343 111.621 95.3054C111.768 95.4434 111.947 95.6471 112.201 95.9509C111.987 95.9616 111.798 96.0378 111.651 96.1414C111.499 96.2485 111.399 96.3797 111.334 96.491V95.1521Z" fill="black" stroke="black" stroke-width="1.99133"/>
<mask id="path-26-inside-9_103_80" fill="white">
<path d="M120.226 94.7092V95.3059H123.12V102.807H124.808L124.856 99.0905L124.928 95.3913L126.327 95.34L127.702 95.2888V94.1125H120.226V94.7092Z"/>
</mask>
<path d="M120.226 94.7092V95.3059H123.12V102.807H124.808L124.856 99.0905L124.928 95.3913L126.327 95.34L127.702 95.2888V94.1125H120.226V94.7092Z" fill="black"/>
<path d="M120.226 95.3059H118.234V97.2972H120.226V95.3059ZM123.12 95.3059H125.111V93.3145H123.12V95.3059ZM123.12 102.807H121.128V104.798H123.12V102.807ZM124.808 102.807V104.798H126.774L126.799 102.833L124.808 102.807ZM124.856 99.0905L122.865 99.0517L122.865 99.0646L124.856 99.0905ZM124.928 95.3913L124.856 93.4013L122.974 93.4702L122.938 95.3524L124.928 95.3913ZM126.327 95.34L126.4 97.33L126.401 97.33L126.327 95.34ZM127.702 95.2888L127.776 97.2787L129.694 97.2073V95.2888H127.702ZM127.702 94.1125H129.694V92.1212H127.702V94.1125ZM120.226 94.1125V92.1212H118.234V94.1125H120.226ZM120.226 94.7092H118.234V95.3059H120.226H122.217V94.7092H120.226ZM120.226 95.3059V97.2972H123.12V95.3059V93.3145H120.226V95.3059ZM123.12 95.3059H121.128V102.807H123.12H125.111V95.3059H123.12ZM123.12 102.807V104.798H124.808V102.807V100.816H123.12V102.807ZM124.808 102.807L126.799 102.833L126.847 99.1164L124.856 99.0905L122.865 99.0646L122.817 102.781L124.808 102.807ZM124.856 99.0905L126.847 99.1294L126.919 95.4301L124.928 95.3913L122.938 95.3524L122.865 99.0517L124.856 99.0905ZM124.928 95.3913L125.001 97.3813L126.4 97.33L126.327 95.34L126.254 93.35L124.856 93.4013L124.928 95.3913ZM126.327 95.34L126.401 97.33L127.776 97.2787L127.702 95.2888L127.628 93.2988L126.253 93.3501L126.327 95.34ZM127.702 95.2888H129.694V94.1125H127.702H125.711V95.2888H127.702ZM127.702 94.1125V92.1212H120.226V94.1125V96.1039H127.702V94.1125ZM120.226 94.1125H118.234V94.7092H120.226H122.217V94.1125H120.226Z" fill="black" mask="url(#path-26-inside-9_103_80)"/>
<mask id="path-28-inside-10_103_80" fill="white">
<path d="M129.15 98.4597V102.807H135.18V101.614H131.08V99.0566H133.974V97.8631H131.08V95.3059H134.939V94.1125H129.15V98.4597Z"/>
</mask>
<path d="M129.15 98.4597V102.807H135.18V101.614H131.08V99.0566H133.974V97.8631H131.08V95.3059H134.939V94.1125H129.15V98.4597Z" fill="black"/>
<path d="M129.15 102.807H127.159V104.798H129.15V102.807ZM135.18 102.807V104.798H137.171V102.807H135.18ZM135.18 101.614H137.171V99.6225H135.18V101.614ZM131.08 101.614H129.089V103.605H131.08V101.614ZM131.08 99.0566V97.0653H129.089V99.0566H131.08ZM133.974 99.0566V101.048H135.965V99.0566H133.974ZM133.974 97.8631H135.965V95.8717H133.974V97.8631ZM131.08 97.8631H129.089V99.8544H131.08V97.8631ZM131.08 95.3059V93.3145H129.089V95.3059H131.08ZM134.939 95.3059V97.2972H136.93V95.3059H134.939ZM134.939 94.1125H136.93V92.1212H134.939V94.1125ZM129.15 94.1125V92.1212H127.159V94.1125H129.15ZM129.15 98.4597H127.159V102.807H129.15H131.142V98.4597H129.15ZM129.15 102.807V104.798H135.18V102.807V100.816H129.15V102.807ZM135.18 102.807H137.171V101.614H135.18H133.189V102.807H135.18ZM135.18 101.614V99.6225H131.08V101.614V103.605H135.18V101.614ZM131.08 101.614H133.071V99.0566H131.08H129.089V101.614H131.08ZM131.08 99.0566V101.048H133.974V99.0566V97.0653H131.08V99.0566ZM133.974 99.0566H135.965V97.8631H133.974H131.983V99.0566H133.974ZM133.974 97.8631V95.8717H131.08V97.8631V99.8544H133.974V97.8631ZM131.08 97.8631H133.071V95.3059H131.08H129.089V97.8631H131.08ZM131.08 95.3059V97.2972H134.939V95.3059V93.3145H131.08V95.3059ZM134.939 95.3059H136.93V94.1125H134.939H132.948V95.3059H134.939ZM134.939 94.1125V92.1212H129.15V94.1125V96.1039H134.939V94.1125ZM129.15 94.1125H127.159V98.4597H129.15H131.142V94.1125H129.15Z" fill="black" mask="url(#path-28-inside-10_103_80)"/>
<mask id="path-30-inside-11_103_80" fill="white">
<path d="M137.109 98.4597V102.807H143.138V101.614H138.797V94.1125H137.109V98.4597Z"/>
</mask>
<path d="M137.109 98.4597V102.807H143.138V101.614H138.797V94.1125H137.109V98.4597Z" fill="black"/>
<path d="M137.109 102.807H135.118V104.798H137.109V102.807ZM143.138 102.807V104.798H145.13V102.807H143.138ZM143.138 101.614H145.13V99.6225H143.138V101.614ZM138.797 101.614H136.806V103.605H138.797V101.614ZM138.797 94.1125H140.788V92.1212H138.797V94.1125ZM137.109 94.1125V92.1212H135.118V94.1125H137.109ZM137.109 98.4597H135.118V102.807H137.109H139.1V98.4597H137.109ZM137.109 102.807V104.798H143.138V102.807V100.816H137.109V102.807ZM143.138 102.807H145.13V101.614H143.138H141.147V102.807H143.138ZM143.138 101.614V99.6225H138.797V101.614V103.605H143.138V101.614ZM138.797 101.614H140.788V94.1125H138.797H136.806V101.614H138.797ZM138.797 94.1125V92.1212H137.109V94.1125V96.1039H138.797V94.1125ZM137.109 94.1125H135.118V98.4597H137.109H139.1V94.1125H137.109Z" fill="black" mask="url(#path-30-inside-11_103_80)"/>
<mask id="path-32-inside-12_103_80" fill="white">
<path d="M144.826 98.4597V102.807H146.514V94.1125H144.826V98.4597Z"/>
</mask>
<path d="M144.826 98.4597V102.807H146.514V94.1125H144.826V98.4597Z" fill="black"/>
<path d="M144.826 102.807H142.835V104.798H144.826V102.807ZM146.514 102.807V104.798H148.506V102.807H146.514ZM146.514 94.1125H148.506V92.1212H146.514V94.1125ZM144.826 94.1125V92.1212H142.835V94.1125H144.826ZM144.826 98.4597H142.835V102.807H144.826H146.818V98.4597H144.826ZM144.826 102.807V104.798H146.514V102.807V100.816H144.826V102.807ZM146.514 102.807H148.506V94.1125H146.514H144.523V102.807H146.514ZM146.514 94.1125V92.1212H144.826V94.1125V96.1039H146.514V94.1125ZM144.826 94.1125H142.835V98.4597H144.826H146.818V94.1125H144.826Z" fill="black" mask="url(#path-32-inside-12_103_80)"/>
<mask id="path-34-inside-13_103_80" fill="white">
<path d="M150.397 94.3172C148.782 94.7435 148.564 95.1696 148.492 98.1873C148.396 101.256 148.613 101.887 149.939 102.466C150.59 102.756 151.048 102.807 152.375 102.773C153.822 102.722 154.087 102.654 154.787 102.159C155.534 101.614 155.559 101.563 155.631 99.9091L155.727 98.2043H152.303V98.801C152.303 99.3635 152.351 99.3976 153.147 99.3976C153.991 99.3976 153.991 99.3977 153.991 100.165C153.991 101.153 153.388 101.614 152.11 101.614C150.349 101.614 150.253 101.46 150.253 98.5452C150.253 96.0391 150.277 95.9539 150.832 95.6301C151.145 95.4595 151.7 95.306 152.11 95.306C152.978 95.306 153.991 95.988 153.991 96.5847C153.991 97.0279 154.208 97.0791 155.148 96.9085C155.51 96.8404 155.679 96.6699 155.679 96.397C155.679 95.7494 155.052 94.8457 154.401 94.539C153.605 94.1808 151.434 94.0614 150.397 94.3172Z"/>
</mask>
<path d="M150.397 94.3172C148.782 94.7435 148.564 95.1696 148.492 98.1873C148.396 101.256 148.613 101.887 149.939 102.466C150.59 102.756 151.048 102.807 152.375 102.773C153.822 102.722 154.087 102.654 154.787 102.159C155.534 101.614 155.559 101.563 155.631 99.9091L155.727 98.2043H152.303V98.801C152.303 99.3635 152.351 99.3976 153.147 99.3976C153.991 99.3976 153.991 99.3977 153.991 100.165C153.991 101.153 153.388 101.614 152.11 101.614C150.349 101.614 150.253 101.46 150.253 98.5452C150.253 96.0391 150.277 95.9539 150.832 95.6301C151.145 95.4595 151.7 95.306 152.11 95.306C152.978 95.306 153.991 95.988 153.991 96.5847C153.991 97.0279 154.208 97.0791 155.148 96.9085C155.51 96.8404 155.679 96.6699 155.679 96.397C155.679 95.7494 155.052 94.8457 154.401 94.539C153.605 94.1808 151.434 94.0614 150.397 94.3172Z" fill="black"/>
<path d="M150.397 94.3172L149.92 92.3837L149.905 92.3876L149.889 92.3917L150.397 94.3172ZM148.492 98.1873L150.483 98.25L150.483 98.2424L150.483 98.2349L148.492 98.1873ZM149.939 102.466L150.748 100.647L150.737 100.642L149.939 102.466ZM152.375 102.773L152.426 104.764L152.436 104.764L152.445 104.763L152.375 102.773ZM154.787 102.159L155.936 103.786L155.948 103.777L155.961 103.768L154.787 102.159ZM155.631 99.9091L153.643 99.7964L153.642 99.8093L153.641 99.8223L155.631 99.9091ZM155.727 98.2043L157.716 98.3171L157.835 96.213H155.727V98.2043ZM152.303 98.2043V96.213H150.311V98.2043H152.303ZM150.832 95.6301L149.88 93.8808L149.854 93.8951L149.828 93.9102L150.832 95.6301ZM155.148 96.9085L155.504 98.8679L155.517 98.8655L155.148 96.9085ZM154.401 94.539L155.249 92.7375L155.234 92.7302L155.218 92.7231L154.401 94.539ZM150.397 94.3172L149.889 92.3917C149.02 92.6212 147.763 93.0174 147.081 94.3985C146.801 94.9648 146.682 95.5749 146.616 96.1353C146.548 96.7063 146.52 97.3792 146.501 98.1396L148.492 98.1873L150.483 98.2349C150.501 97.4865 150.527 96.9745 150.571 96.6035C150.616 96.222 150.666 96.1331 150.651 96.1624C150.605 96.2565 150.51 96.3513 150.442 96.3915C150.441 96.3917 150.534 96.3406 150.905 96.2426L150.397 94.3172ZM148.492 98.1873L146.502 98.1246C146.456 99.5837 146.452 100.884 146.796 101.899C146.997 102.494 147.319 103.017 147.793 103.451C148.233 103.856 148.725 104.109 149.141 104.291L149.939 102.466L150.737 100.642C150.49 100.534 150.457 100.491 150.487 100.518C150.549 100.576 150.575 100.64 150.568 100.621C150.547 100.559 150.502 100.378 150.479 99.9596C150.457 99.5484 150.459 99.0031 150.483 98.25L148.492 98.1873ZM149.939 102.466L149.13 104.286C150.204 104.764 151.035 104.8 152.426 104.764L152.375 102.773L152.324 100.782C151.664 100.799 151.349 100.79 151.148 100.765C151.01 100.748 150.923 100.725 150.748 100.647L149.939 102.466ZM152.375 102.773L152.445 104.763C153.133 104.739 153.776 104.709 154.353 104.562C155.04 104.387 155.518 104.081 155.936 103.786L154.787 102.159L153.638 100.533C153.485 100.641 153.421 100.679 153.391 100.694C153.379 100.701 153.381 100.7 153.37 100.703C153.343 100.71 153.268 100.726 153.087 100.742C152.904 100.758 152.661 100.77 152.305 100.783L152.375 102.773ZM154.787 102.159L155.961 103.768C156.261 103.549 156.976 103.08 157.325 102.153C157.472 101.764 157.526 101.38 157.555 101.076C157.586 100.766 157.603 100.396 157.62 99.996L155.631 99.9091L153.641 99.8223C153.623 100.249 153.61 100.505 153.592 100.687C153.573 100.874 153.561 100.848 153.599 100.747C153.622 100.685 153.658 100.612 153.707 100.538C153.755 100.466 153.8 100.418 153.824 100.394C153.843 100.375 153.844 100.377 153.805 100.408C153.764 100.44 153.708 100.482 153.613 100.551L154.787 102.159ZM155.631 99.9091L157.619 100.022L157.716 98.3171L155.727 98.2043L153.739 98.0916L153.643 99.7964L155.631 99.9091ZM155.727 98.2043V96.213H152.303V98.2043V100.196H155.727V98.2043ZM152.303 98.2043H150.311V98.801H152.303H154.294V98.2043H152.303ZM152.303 98.801H150.311C150.311 98.9138 150.308 99.2215 150.372 99.5336C150.454 99.9282 150.678 100.513 151.277 100.936C151.766 101.282 152.274 101.344 152.475 101.364C152.709 101.389 152.963 101.389 153.147 101.389V99.3976V97.4063C152.933 97.4063 152.882 97.4025 152.883 97.4027C152.892 97.4036 152.967 97.4112 153.076 97.4422C153.189 97.4743 153.374 97.5418 153.575 97.6841C153.79 97.8355 153.964 98.0311 154.089 98.2497C154.205 98.453 154.253 98.6312 154.273 98.7294C154.303 98.877 154.294 98.9694 154.294 98.801H152.303ZM153.147 99.3976V101.389C153.402 101.389 153.44 101.391 153.435 101.391C153.419 101.389 153.312 101.379 153.166 101.331C153.006 101.279 152.774 101.174 152.546 100.967C152.064 100.529 152.007 100.01 152.001 99.963C151.996 99.9213 152 99.9196 152 100.165H153.991H155.982C155.982 100.027 155.986 99.7371 155.954 99.4797C155.922 99.2173 155.812 98.5537 155.225 98.0199C154.677 97.5221 154.047 97.4498 153.835 97.4284C153.592 97.4039 153.314 97.4063 153.147 97.4063V99.3976ZM153.991 100.165H152C152 100.215 151.992 100.155 152.041 100.037C152.096 99.9048 152.194 99.7753 152.316 99.6814C152.426 99.5971 152.498 99.5853 152.464 99.5938C152.426 99.6031 152.318 99.6226 152.11 99.6226V101.614V103.605C152.922 103.605 153.921 103.471 154.743 102.839C155.677 102.121 155.982 101.089 155.982 100.165H153.991ZM152.11 101.614V99.6226C151.897 99.6226 151.75 99.62 151.639 99.6136C151.526 99.6071 151.503 99.5991 151.53 99.6053C151.563 99.613 151.688 99.6462 151.842 99.7477C152.01 99.8576 152.139 99.9998 152.224 100.14C152.299 100.264 152.316 100.347 152.311 100.329C152.307 100.31 152.293 100.239 152.279 100.084C152.251 99.7588 152.244 99.2884 152.244 98.5452H150.253H148.261C148.261 99.2597 148.266 99.9017 148.311 100.426C148.353 100.907 148.445 101.591 148.818 102.205C149.283 102.972 149.982 103.334 150.624 103.484C151.141 103.604 151.707 103.605 152.11 103.605V101.614ZM150.253 98.5452H152.244C152.244 97.9126 152.246 97.4679 152.255 97.1375C152.26 96.975 152.267 96.8582 152.274 96.7735C152.281 96.687 152.287 96.6568 152.286 96.6618C152.281 96.6895 152.227 96.9261 152.012 97.1736C151.847 97.3637 151.673 97.4446 151.835 97.3499L150.832 95.6301L149.828 93.9102C149.713 93.9774 149.327 94.1904 149.002 94.5658C148.627 94.9988 148.463 95.4739 148.382 95.8768C148.257 96.4991 148.261 97.4094 148.261 98.5452H150.253ZM150.832 95.6301L151.783 97.3793C151.761 97.3911 151.767 97.3864 151.804 97.3723C151.839 97.3594 151.884 97.3446 151.937 97.331C151.989 97.3175 152.036 97.3079 152.074 97.3023C152.115 97.2962 152.126 97.2973 152.11 97.2973V95.306V93.3147C151.352 93.3147 150.471 93.559 149.88 93.8808L150.832 95.6301ZM152.11 95.306V97.2973C152.074 97.2973 152.083 97.2918 152.133 97.3086C152.181 97.3246 152.227 97.3485 152.259 97.3702C152.297 97.3962 152.269 97.3872 152.214 97.3116C152.167 97.2482 152 96.9967 152 96.5847H153.991H155.982C155.982 95.8743 155.688 95.3139 155.424 94.9548C155.152 94.5835 154.816 94.2921 154.493 94.073C153.868 93.6498 153.016 93.3147 152.11 93.3147V95.306ZM153.991 96.5847H152C152 96.8022 152.015 97.2919 152.29 97.797C152.627 98.4178 153.177 98.7572 153.693 98.8978C154.115 99.013 154.505 98.9952 154.73 98.9772C154.984 98.9568 155.251 98.9137 155.504 98.8679L155.148 96.9085L154.793 94.9492C154.575 94.9887 154.463 95.0031 154.411 95.0073C154.331 95.0137 154.491 94.9874 154.741 95.0557C154.887 95.0954 155.087 95.1734 155.294 95.3263C155.508 95.4849 155.674 95.6837 155.789 95.8955C155.898 96.0957 155.943 96.2729 155.962 96.3827C155.982 96.4905 155.982 96.5656 155.982 96.5847H153.991ZM155.148 96.9085L155.517 98.8655C155.907 98.7921 156.466 98.6174 156.94 98.1554C157.47 97.6386 157.67 96.9832 157.67 96.397H155.679H153.688C153.688 96.0837 153.804 95.65 154.159 95.3038C154.458 95.0123 154.752 94.9569 154.78 94.9515L155.148 96.9085ZM155.679 96.397H157.67C157.67 95.5123 157.282 94.7289 156.923 94.2094C156.551 93.6691 155.983 93.083 155.249 92.7375L154.401 94.539L153.552 96.3405C153.52 96.3254 153.505 96.3146 153.505 96.3146C153.504 96.3143 153.513 96.3203 153.529 96.3349C153.563 96.3659 153.605 96.4134 153.645 96.471C153.664 96.4984 153.679 96.5239 153.691 96.5457C153.703 96.5677 153.709 96.582 153.711 96.587C153.713 96.5926 153.708 96.5819 153.702 96.5549C153.697 96.5287 153.688 96.4747 153.688 96.397H155.679ZM154.401 94.539L155.218 92.7231C154.462 92.3826 153.402 92.2539 152.599 92.2095C151.753 92.1628 150.722 92.1862 149.92 92.3837L150.397 94.3172L150.874 96.2506C151.11 96.1924 151.682 96.1476 152.38 96.1861C152.703 96.204 153.003 96.2373 153.245 96.2792C153.515 96.3261 153.609 96.3663 153.584 96.3549L154.401 94.539Z" fill="black" mask="url(#path-34-inside-13_103_80)"/>
<mask id="path-36-inside-14_103_80" fill="white">
<path d="M157.849 98.4597V102.807H163.637V101.614H159.537V99.0566H162.673V97.8631H159.537V95.3059H163.637V94.1125H157.849V98.4597Z"/>
</mask>
<path d="M157.849 98.4597V102.807H163.637V101.614H159.537V99.0566H162.673V97.8631H159.537V95.3059H163.637V94.1125H157.849V98.4597Z" fill="black"/>
<path d="M157.849 102.807H155.858V104.798H157.849V102.807ZM163.637 102.807V104.798H165.629V102.807H163.637ZM163.637 101.614H165.629V99.6225H163.637V101.614ZM159.537 101.614H157.546V103.605H159.537V101.614ZM159.537 99.0566V97.0653H157.546V99.0566H159.537ZM162.673 99.0566V101.048H164.664V99.0566H162.673ZM162.673 97.8631H164.664V95.8717H162.673V97.8631ZM159.537 97.8631H157.546V99.8544H159.537V97.8631ZM159.537 95.3059V93.3145H157.546V95.3059H159.537ZM163.637 95.3059V97.2972H165.629V95.3059H163.637ZM163.637 94.1125H165.629V92.1212H163.637V94.1125ZM157.849 94.1125V92.1212H155.858V94.1125H157.849ZM157.849 98.4597H155.858V102.807H157.849H159.84V98.4597H157.849ZM157.849 102.807V104.798H163.637V102.807V100.816H157.849V102.807ZM163.637 102.807H165.629V101.614H163.637H161.646V102.807H163.637ZM163.637 101.614V99.6225H159.537V101.614V103.605H163.637V101.614ZM159.537 101.614H161.529V99.0566H159.537H157.546V101.614H159.537ZM159.537 99.0566V101.048H162.673V99.0566V97.0653H159.537V99.0566ZM162.673 99.0566H164.664V97.8631H162.673H160.682V99.0566H162.673ZM162.673 97.8631V95.8717H159.537V97.8631V99.8544H162.673V97.8631ZM159.537 97.8631H161.529V95.3059H159.537H157.546V97.8631H159.537ZM159.537 95.3059V97.2972H163.637V95.3059V93.3145H159.537V95.3059ZM163.637 95.3059H165.629V94.1125H163.637H161.646V95.3059H163.637ZM163.637 94.1125V92.1212H157.849V94.1125V96.1039H163.637V94.1125ZM157.849 94.1125H155.858V98.4597H157.849H159.84V94.1125H157.849Z" fill="black" mask="url(#path-36-inside-14_103_80)"/>
<path d="M173.253 101.812H172.9L172.4 101.177C172.478 101.173 172.558 101.16 172.637 101.137C172.852 101.074 172.996 100.955 173.077 100.872C173.16 100.787 173.215 100.698 173.253 100.628V101.812Z" fill="black" stroke="black" stroke-width="1.99133"/>
<mask id="path-39-inside-15_103_80" fill="white">
<path d="M175.697 94.7092V95.3059H178.591V102.807H180.279V95.3059H182.932V94.1125H175.697V94.7092Z"/>
</mask>
<path d="M175.697 94.7092V95.3059H178.591V102.807H180.279V95.3059H182.932V94.1125H175.697V94.7092Z" fill="black"/>
<path d="M175.697 95.3059H173.705V97.2972H175.697V95.3059ZM178.591 95.3059H180.582V93.3145H178.591V95.3059ZM178.591 102.807H176.599V104.798H178.591V102.807ZM180.279 102.807V104.798H182.27V102.807H180.279ZM180.279 95.3059V93.3145H178.288V95.3059H180.279ZM182.932 95.3059V97.2972H184.923V95.3059H182.932ZM182.932 94.1125H184.923V92.1212H182.932V94.1125ZM175.697 94.1125V92.1212H173.705V94.1125H175.697ZM175.697 94.7092H173.705V95.3059H175.697H177.688V94.7092H175.697ZM175.697 95.3059V97.2972H178.591V95.3059V93.3145H175.697V95.3059ZM178.591 95.3059H176.599V102.807H178.591H180.582V95.3059H178.591ZM178.591 102.807V104.798H180.279V102.807V100.816H178.591V102.807ZM180.279 102.807H182.27V95.3059H180.279H178.288V102.807H180.279ZM180.279 95.3059V97.2972H182.932V95.3059V93.3145H180.279V95.3059ZM182.932 95.3059H184.923V94.1125H182.932H180.941V95.3059H182.932ZM182.932 94.1125V92.1212H175.697V94.1125V96.1039H182.932V94.1125ZM175.697 94.1125H173.705V94.7092H175.697H177.688V94.1125H175.697Z" fill="black" mask="url(#path-39-inside-15_103_80)"/>
<mask id="path-41-inside-16_103_80" fill="white">
<path d="M184.621 98.4597V102.807H190.554L190.578 102.21L190.602 101.614H186.309V99.0566H189.444V97.8631H186.309V95.3059H190.409V94.1125H184.621V98.4597Z"/>
</mask>
<path d="M184.621 98.4597V102.807H190.554L190.578 102.21L190.602 101.614H186.309V99.0566H189.444V97.8631H186.309V95.3059H190.409V94.1125H184.621V98.4597Z" fill="black"/>
<path d="M184.621 102.807H182.629V104.798H184.621V102.807ZM190.554 102.807V104.798H192.467L192.543 102.887L190.554 102.807ZM190.578 102.21L188.588 102.13L188.588 102.131L190.578 102.21ZM190.602 101.614L192.591 101.694L192.675 99.6225H190.602V101.614ZM186.309 101.614H184.317V103.605H186.309V101.614ZM186.309 99.0566V97.0653H184.317V99.0566H186.309ZM189.444 99.0566V101.048H191.436V99.0566H189.444ZM189.444 97.8631H191.436V95.8717H189.444V97.8631ZM186.309 97.8631H184.317V99.8544H186.309V97.8631ZM186.309 95.3059V93.3145H184.317V95.3059H186.309ZM190.409 95.3059V97.2972H192.4V95.3059H190.409ZM190.409 94.1125H192.4V92.1212H190.409V94.1125ZM184.621 94.1125V92.1212H182.629V94.1125H184.621ZM184.621 98.4597H182.629V102.807H184.621H186.612V98.4597H184.621ZM184.621 102.807V104.798H190.554V102.807V100.816H184.621V102.807ZM190.554 102.807L192.543 102.887L192.567 102.29L190.578 102.21L188.588 102.131L188.564 102.728L190.554 102.807ZM190.578 102.21L192.567 102.291L192.591 101.694L190.602 101.614L188.612 101.533L188.588 102.13L190.578 102.21ZM190.602 101.614V99.6225H186.309V101.614V103.605H190.602V101.614ZM186.309 101.614H188.3V99.0566H186.309H184.317V101.614H186.309ZM186.309 99.0566V101.048H189.444V99.0566V97.0653H186.309V99.0566ZM189.444 99.0566H191.436V97.8631H189.444H187.453V99.0566H189.444ZM189.444 97.8631V95.8717H186.309V97.8631V99.8544H189.444V97.8631ZM186.309 97.8631H188.3V95.3059H186.309H184.317V97.8631H186.309ZM186.309 95.3059V97.2972H190.409V95.3059V93.3145H186.309V95.3059ZM190.409 95.3059H192.4V94.1125H190.409H188.417V95.3059H190.409ZM190.409 94.1125V92.1212H184.621V94.1125V96.1039H190.409V94.1125ZM184.621 94.1125H182.629V98.4597H184.621H186.612V94.1125H184.621Z" fill="black" mask="url(#path-41-inside-16_103_80)"/>
<mask id="path-43-inside-17_103_80" fill="white">
<path d="M194.821 94.2999C192.868 94.7092 192.168 96.4652 193.519 97.5563C193.905 97.863 194.846 98.3745 195.641 98.6986C198.102 99.7384 198.608 100.045 198.608 100.591C198.608 101.239 197.836 101.614 196.534 101.614C195.232 101.614 194.267 101.102 194.267 100.403C194.267 99.8919 193.857 99.7725 192.964 100.011C192.458 100.148 192.458 101.239 192.964 101.767C193.905 102.688 196.679 103.08 198.584 102.534C200.007 102.142 200.441 101.512 200.344 100.045C200.272 99.3633 199.283 98.6473 197.016 97.6927C194.821 96.7549 194.339 96.3629 194.725 95.8344C195.014 95.4593 195.497 95.3058 196.413 95.3058C197.306 95.3058 198.053 95.715 198.246 96.3288C198.415 96.8574 198.584 96.9084 199.525 96.738C200.152 96.6187 200.2 96.2265 199.693 95.3741C199.114 94.3682 196.896 93.8738 194.821 94.2999Z"/>
</mask>
<path d="M194.821 94.2999C192.868 94.7092 192.168 96.4652 193.519 97.5563C193.905 97.863 194.846 98.3745 195.641 98.6986C198.102 99.7384 198.608 100.045 198.608 100.591C198.608 101.239 197.836 101.614 196.534 101.614C195.232 101.614 194.267 101.102 194.267 100.403C194.267 99.8919 193.857 99.7725 192.964 100.011C192.458 100.148 192.458 101.239 192.964 101.767C193.905 102.688 196.679 103.08 198.584 102.534C200.007 102.142 200.441 101.512 200.344 100.045C200.272 99.3633 199.283 98.6473 197.016 97.6927C194.821 96.7549 194.339 96.3629 194.725 95.8344C195.014 95.4593 195.497 95.3058 196.413 95.3058C197.306 95.3058 198.053 95.715 198.246 96.3288C198.415 96.8574 198.584 96.9084 199.525 96.738C200.152 96.6187 200.2 96.2265 199.693 95.3741C199.114 94.3682 196.896 93.8738 194.821 94.2999Z" fill="black"/>
<path d="M194.821 94.2999L194.421 92.3493L194.413 92.3509L194.821 94.2999ZM193.519 97.5563L192.268 99.1054L192.274 99.1101L192.28 99.1148L193.519 97.5563ZM195.641 98.6986L196.417 96.8643L196.405 96.8592L196.392 96.8543L195.641 98.6986ZM192.964 100.011L192.45 98.0875L192.447 98.0884L192.964 100.011ZM192.964 101.767L191.527 103.145L191.549 103.168L191.571 103.19L192.964 101.767ZM198.584 102.534L198.055 100.615L198.045 100.617L198.036 100.62L198.584 102.534ZM200.344 100.045L202.331 99.9143L202.329 99.875L202.325 99.8358L200.344 100.045ZM197.016 97.6927L196.234 99.5239L196.243 99.5279L197.016 97.6927ZM194.725 95.8344L193.148 94.618L193.132 94.6388L193.117 94.6599L194.725 95.8344ZM198.246 96.3288L196.347 96.9262L196.349 96.9347L198.246 96.3288ZM199.525 96.738L199.879 98.6975L199.888 98.6959L199.897 98.6942L199.525 96.738ZM199.693 95.3741L197.967 96.3672L197.974 96.3793L197.981 96.3914L199.693 95.3741ZM194.821 94.2999L194.413 92.3509C192.956 92.6562 191.638 93.5409 191.082 94.9339C190.477 96.4494 190.981 98.0655 192.268 99.1054L193.519 97.5563L194.771 96.0071C194.705 95.9543 194.756 95.9718 194.791 96.0914C194.827 96.2142 194.811 96.334 194.781 96.4109C194.725 96.5508 194.734 96.3528 195.23 96.2489L194.821 94.2999ZM193.519 97.5563L192.28 99.1148C192.877 99.5898 194.014 100.186 194.89 100.543L195.641 98.6986L196.392 96.8543C196.071 96.7234 195.702 96.5467 195.373 96.3687C195.21 96.2807 195.067 96.198 194.952 96.1268C194.895 96.0915 194.849 96.0615 194.814 96.0374C194.797 96.0255 194.783 96.0159 194.773 96.0087C194.769 96.0052 194.765 96.0025 194.762 96.0005C194.76 95.9986 194.759 95.9977 194.759 95.9977L193.519 97.5563ZM195.641 98.6986L194.866 100.533C195.476 100.791 195.942 100.993 196.301 101.161C196.669 101.332 196.872 101.443 196.982 101.512C197.103 101.589 196.994 101.545 196.863 101.359C196.684 101.106 196.617 100.814 196.617 100.591H198.608H200.599C200.599 100.094 200.468 99.5603 200.117 99.0631C199.815 98.634 199.425 98.3458 199.113 98.1477C198.512 97.7672 197.604 97.3663 196.417 96.8643L195.641 98.6986ZM198.608 100.591H196.617C196.617 100.33 196.703 100.062 196.862 99.8456C197.005 99.6508 197.15 99.5733 197.181 99.558C197.213 99.5425 197.183 99.5624 197.06 99.5843C196.941 99.6053 196.768 99.6224 196.534 99.6224V101.614V103.605C197.329 103.605 198.194 103.498 198.937 103.133C199.748 102.734 200.599 101.897 200.599 100.591H198.608ZM196.534 101.614V99.6224C196.114 99.6224 195.89 99.5354 195.848 99.5132C195.832 99.5046 195.92 99.5463 196.025 99.6848C196.143 99.8404 196.258 100.091 196.258 100.403H194.267H192.275C192.275 101.792 193.243 102.638 193.976 103.028C194.742 103.436 195.652 103.605 196.534 103.605V101.614ZM194.267 100.403H196.258C196.258 100.024 196.183 99.4999 195.851 98.9962C195.498 98.4617 194.995 98.1597 194.52 98.018C193.733 97.7827 192.932 97.9586 192.45 98.0875L192.964 100.011L193.479 101.935C193.634 101.893 193.707 101.885 193.718 101.884C193.742 101.881 193.602 101.9 193.38 101.834C193.12 101.756 192.774 101.565 192.527 101.189C192.299 100.844 192.275 100.527 192.275 100.403H194.267ZM192.964 100.011L192.447 98.0884C191.615 98.3123 191.129 98.9057 190.89 99.3953C190.659 99.8688 190.593 100.353 190.593 100.742C190.593 101.486 190.84 102.429 191.527 103.145L192.964 101.767L194.402 100.389C194.507 100.499 194.545 100.591 194.556 100.624C194.569 100.659 194.576 100.694 194.576 100.742C194.576 100.776 194.573 100.928 194.469 101.142C194.357 101.372 194.06 101.778 193.482 101.934L192.964 100.011ZM192.964 101.767L191.571 103.19C192.514 104.112 193.981 104.513 195.14 104.673C196.396 104.847 197.855 104.815 199.132 104.449L198.584 102.534L198.036 100.62C197.408 100.8 196.527 100.844 195.685 100.728C195.275 100.671 194.928 100.584 194.668 100.487C194.386 100.381 194.319 100.306 194.357 100.344L192.964 101.767ZM198.584 102.534L199.113 104.454C199.985 104.214 200.992 103.792 201.663 102.838C202.33 101.889 202.39 100.804 202.331 99.9143L200.344 100.045L198.357 100.176C198.375 100.447 198.361 100.585 198.351 100.641C198.343 100.682 198.348 100.629 198.405 100.547C198.463 100.464 198.514 100.44 198.482 100.459C198.437 100.485 198.314 100.543 198.055 100.615L198.584 102.534ZM200.344 100.045L202.325 99.8358C202.194 98.6026 201.305 97.8091 200.657 97.3482C199.937 96.8361 198.961 96.3512 197.789 95.8574L197.016 97.6927L196.243 99.5279C197.338 99.9888 197.991 100.339 198.35 100.594C198.78 100.901 198.422 100.806 198.364 100.255L200.344 100.045ZM197.016 97.6927L197.799 95.8615C197.265 95.6336 196.87 95.4534 196.581 95.306C196.437 95.2332 196.333 95.1748 196.258 95.1294C196.181 95.0828 196.154 95.0608 196.157 95.0637C196.158 95.0643 196.224 95.1169 196.306 95.2276C196.392 95.3446 196.508 95.545 196.564 95.8241C196.691 96.4585 196.411 96.902 196.333 97.0088L194.725 95.8344L193.117 94.6599C192.846 95.031 192.481 95.7217 192.659 96.6076C192.819 97.4063 193.338 97.9048 193.648 98.1564C194.25 98.6445 195.19 99.0781 196.234 99.5238L197.016 97.6927ZM194.725 95.8344L196.302 97.0507C196.246 97.1224 196.174 97.192 196.09 97.248C196.01 97.3018 195.948 97.3237 195.931 97.3292C195.917 97.3335 195.943 97.3239 196.028 97.3143C196.113 97.3047 196.237 97.2971 196.413 97.2971V95.3058V93.3145C195.398 93.3145 194.046 93.4539 193.148 94.618L194.725 95.8344ZM196.413 95.3058V97.2971C196.568 97.2971 196.637 97.3345 196.626 97.3283C196.618 97.3238 196.439 97.2189 196.347 96.9262L198.246 96.3288L200.146 95.7314C199.578 93.9262 197.724 93.3145 196.413 93.3145V95.3058ZM198.246 96.3288L196.349 96.9347C196.453 97.2575 196.797 98.3129 197.993 98.6932C198.437 98.8346 198.846 98.8244 199.096 98.8064C199.359 98.7873 199.634 98.7419 199.879 98.6975L199.525 96.738L199.17 94.7786C198.945 94.8193 198.846 94.8314 198.808 94.8341C198.756 94.8379 198.936 94.8139 199.2 94.8978C199.348 94.9449 199.51 95.0217 199.666 95.138C199.821 95.2532 199.932 95.3791 200.009 95.487C200.139 95.6704 200.171 95.8102 200.143 95.7228L198.246 96.3288ZM199.525 96.738L199.897 98.6942C200.213 98.634 200.684 98.5018 201.12 98.1579C201.622 97.7622 201.933 97.1987 202.01 96.5747C202.077 96.0324 201.953 95.5642 201.843 95.2569C201.726 94.9332 201.566 94.6277 201.405 94.3568L199.693 95.3741L197.981 96.3914C198.074 96.5467 198.097 96.6099 198.095 96.6033C198.092 96.5961 198.075 96.5492 198.062 96.4699C198.049 96.3904 198.037 96.2571 198.058 96.0873C198.107 95.6828 198.321 95.2929 198.653 95.031C198.92 94.8208 199.149 94.7823 199.152 94.7818L199.525 96.738ZM199.693 95.3741L201.419 94.3811C200.7 93.132 199.294 92.587 198.248 92.3557C197.08 92.0972 195.723 92.0818 194.421 92.3493L194.821 94.2999L195.222 96.2505C195.994 96.092 196.784 96.1107 197.388 96.2444C197.688 96.3107 197.89 96.394 198.003 96.4573C198.126 96.527 198.056 96.5225 197.967 96.3672L199.693 95.3741Z" fill="black" mask="url(#path-43-inside-17_103_80)"/>
<mask id="path-45-inside-18_103_80" fill="white">
<path d="M97.0743 97.9483V98.8859H95.748C94.7349 98.8859 94.4214 98.9371 94.4214 99.1416C94.4214 99.3461 94.7349 99.3974 95.748 99.3974H97.0743V100.335C97.0743 101.051 97.1468 101.273 97.4361 101.273C97.7255 101.273 97.798 101.051 97.798 100.335V99.3974H99.1243C100.137 99.3974 100.451 99.3461 100.451 99.1416C100.451 98.9371 100.137 98.8859 99.1243 98.8859H97.798V97.9483C97.798 97.2323 97.7255 97.0105 97.4361 97.0105C97.1468 97.0105 97.0743 97.2323 97.0743 97.9483Z"/>
</mask>
<path d="M97.0743 97.9483V98.8859H95.748C94.7349 98.8859 94.4214 98.9371 94.4214 99.1416C94.4214 99.3461 94.7349 99.3974 95.748 99.3974H97.0743V100.335C97.0743 101.051 97.1468 101.273 97.4361 101.273C97.7255 101.273 97.798 101.051 97.798 100.335V99.3974H99.1243C100.137 99.3974 100.451 99.3461 100.451 99.1416C100.451 98.9371 100.137 98.8859 99.1243 98.8859H97.798V97.9483C97.798 97.2323 97.7255 97.0105 97.4361 97.0105C97.1468 97.0105 97.0743 97.2323 97.0743 97.9483Z" fill="black"/>
<path d="M97.0743 98.8859V100.877H99.0656V98.8859H97.0743ZM97.0743 99.3974H99.0656V97.406H97.0743V99.3974ZM97.798 99.3974V97.406H95.8067V99.3974H97.798ZM97.798 98.8859H95.8067V100.877H97.798V98.8859ZM97.0743 97.9483H95.0829V98.8859H97.0743H99.0656V97.9483H97.0743ZM97.0743 98.8859V96.8945H95.748V98.8859V100.877H97.0743V98.8859ZM95.748 98.8859V96.8945C95.2716 96.8945 94.7549 96.9018 94.3384 96.9797C94.1444 97.016 93.7127 97.1096 93.2995 97.4163C92.748 97.8256 92.4301 98.4603 92.4301 99.1416H94.4214H96.4127C96.4127 99.3778 96.3654 99.6694 96.2157 99.9669C96.0663 100.264 95.861 100.475 95.673 100.614C95.4955 100.746 95.336 100.813 95.2468 100.845C95.1551 100.878 95.0899 100.891 95.0711 100.894C95.0407 100.9 95.0691 100.893 95.2059 100.886C95.3327 100.88 95.507 100.877 95.748 100.877V98.8859ZM94.4214 99.1416H92.4301C92.4301 99.823 92.748 100.458 93.2995 100.867C93.7127 101.174 94.1444 101.267 94.3384 101.304C94.7549 101.381 95.2716 101.389 95.748 101.389V99.3974V97.406C95.507 97.406 95.3327 97.4029 95.2059 97.397C95.0691 97.3906 95.0407 97.3831 95.0711 97.3888C95.0899 97.3924 95.1551 97.4053 95.2468 97.4382C95.336 97.4702 95.4955 97.5371 95.673 97.6688C95.861 97.8083 96.0663 98.0193 96.2157 98.3163C96.3654 98.6138 96.4127 98.9055 96.4127 99.1416H94.4214ZM95.748 99.3974V101.389H97.0743V99.3974V97.406H95.748V99.3974ZM97.0743 99.3974H95.0829V100.335H97.0743H99.0656V99.3974H97.0743ZM97.0743 100.335H95.0829C95.0829 100.643 95.0818 101.237 95.2819 101.771C95.4071 102.105 95.6564 102.549 96.1451 102.879C96.6269 103.203 97.1174 103.264 97.4361 103.264V101.273V99.2814C97.6102 99.2814 97.9831 99.3147 98.3699 99.5752C98.7637 99.8404 98.9406 100.185 99.0115 100.374C99.0737 100.54 99.0771 100.645 99.0729 100.599C99.0699 100.567 99.0656 100.489 99.0656 100.335H97.0743ZM97.4361 101.273V103.264C97.7549 103.264 98.2453 103.203 98.7271 102.879C99.2159 102.549 99.4652 102.105 99.5904 101.771C99.7905 101.237 99.7893 100.643 99.7893 100.335H97.798H95.8067C95.8067 100.489 95.8024 100.567 95.7994 100.599C95.7951 100.645 95.7986 100.54 95.8608 100.374C95.9316 100.185 96.1086 99.8404 96.5024 99.5752C96.8892 99.3147 97.2621 99.2814 97.4361 99.2814V101.273ZM97.798 100.335H99.7893V99.3974H97.798H95.8067V100.335H97.798ZM97.798 99.3974V101.389H99.1243V99.3974V97.406H97.798V99.3974ZM99.1243 99.3974V101.389C99.6007 101.389 100.117 101.381 100.534 101.304C100.728 101.267 101.16 101.174 101.573 100.867C102.124 100.458 102.442 99.823 102.442 99.1416H100.451H98.4595C98.4595 98.9055 98.5069 98.6138 98.6565 98.3163C98.806 98.0193 99.0113 97.8083 99.1993 97.6688C99.3767 97.5371 99.5363 97.4702 99.6254 97.4382C99.7171 97.4053 99.7823 97.3924 99.8011 97.3888C99.8316 97.3831 99.8032 97.3906 99.6664 97.397C99.5396 97.4029 99.3653 97.406 99.1243 97.406V99.3974ZM100.451 99.1416H102.442C102.442 98.4603 102.124 97.8256 101.573 97.4163C101.16 97.1096 100.728 97.016 100.534 96.9797C100.117 96.9018 99.6007 96.8945 99.1243 96.8945V98.8859V100.877C99.3653 100.877 99.5396 100.88 99.6664 100.886C99.8032 100.893 99.8316 100.9 99.8011 100.894C99.7823 100.891 99.7171 100.878 99.6254 100.845C99.5363 100.813 99.3767 100.746 99.1993 100.614C99.0113 100.475 98.806 100.264 98.6565 99.9669C98.5069 99.6694 98.4595 99.3778 98.4595 99.1416H100.451ZM99.1243 98.8859V96.8945H97.798V98.8859V100.877H99.1243V98.8859ZM97.798 98.8859H99.7893V97.9483H97.798H95.8067V98.8859H97.798ZM97.798 97.9483H99.7893C99.7893 97.6398 99.7905 97.0466 99.5904 96.5124C99.4652 96.1782 99.2159 95.7338 98.7271 95.4047C98.2453 95.0802 97.7549 95.0192 97.4361 95.0192V97.0105V99.0018C97.2621 99.0018 96.8892 98.9685 96.5024 98.708C96.1086 98.4428 95.9316 98.0986 95.8608 97.9094C95.7986 97.7433 95.7951 97.6385 95.7994 97.6845C95.8024 97.7163 95.8067 97.7939 95.8067 97.9483H97.798ZM97.4361 97.0105V95.0192C97.1174 95.0192 96.6269 95.0802 96.1451 95.4047C95.6564 95.7338 95.4071 96.1782 95.2819 96.5124C95.0818 97.0466 95.0829 97.6398 95.0829 97.9483H97.0743H99.0656C99.0656 97.7939 99.0699 97.7163 99.0729 97.6845C99.0771 97.6385 99.0737 97.7433 99.0115 97.9094C98.9406 98.0986 98.7637 98.4428 98.3699 98.708C97.9831 98.9685 97.6102 99.0018 97.4361 99.0018V97.0105Z" fill="black" mask="url(#path-45-inside-18_103_80)"/>
</svg>
