<?xml version="1.0" standalone="no"?>
<!DOCTYPE svg PUBLIC "-//W3C//DTD SVG 20010904//EN"
 "http://www.w3.org/TR/2001/REC-SVG-20010904/DTD/svg10.dtd">
<svg version="1.0" xmlns="http://www.w3.org/2000/svg"
 width="1080.000000pt" height="1080.000000pt" viewBox="0 0 1080.000000 1080.000000"
 preserveAspectRatio="xMidYMid meet">

<g transform="translate(0.000000,1080.000000) scale(0.100000,-0.100000)"
fill="#000000" stroke="none">
<path d="M4870 5870 c-89 -9 -139 -27 -177 -63 -52 -49 -68 -104 -68 -237 0
-99 3 -121 22 -157 46 -86 92 -101 358 -113 110 -6 256 -13 324 -16 102 -5
126 -9 142 -25 23 -23 25 -77 5 -105 -14 -18 -29 -19 -281 -19 l-267 0 -19 24
c-10 13 -19 36 -19 52 l0 30 -137 -3 -138 -3 2 -82 c2 -140 51 -196 192 -225
93 -18 702 -18 784 0 73 17 139 76 156 137 30 116 21 275 -20 342 -12 19 -41
43 -74 58 -57 28 -81 31 -554 53 -194 10 -205 14 -199 82 5 56 23 60 273 60
247 0 268 -5 273 -58 l3 -32 140 0 139 0 -1 68 c-2 154 -64 212 -250 232 -104
11 -507 11 -609 0z"/>
<path d="M6125 5870 c-151 -15 -219 -59 -251 -165 -16 -52 -19 -95 -19 -310 0
-292 9 -344 74 -405 47 -45 89 -58 231 -71 162 -16 727 -6 797 13 105 29 153
84 171 193 28 166 21 497 -13 595 -32 95 -99 135 -252 150 -110 11 -630 11
-738 0z m804 -236 c3 -2 -13 -22 -35 -45 l-39 -40 0 -152 c0 -241 2 -239 -360
-240 -362 0 -360 -2 -353 247 4 158 11 186 51 208 59 33 129 38 432 32 165 -3
302 -7 304 -10z"/>
<path d="M1410 5859 c0 -6 103 -220 229 -475 l230 -464 218 2 218 3 223 450
c122 247 225 459 228 471 6 22 5 22 -138 23 -78 1 -148 -2 -155 -7 -11 -7
-141 -270 -293 -589 -49 -104 -55 -113 -81 -113 -30 0 -44 26 -305 566 -35 72
-69 134 -77 137 -7 3 -77 6 -155 6 -103 2 -142 -1 -142 -10z"/>
<path d="M2820 5395 l0 -475 150 0 150 0 -2 473 -3 472 -147 3 -148 3 0 -476z"/>
<path d="M3417 5406 c-136 -255 -247 -469 -247 -475 0 -8 48 -11 159 -11 l159
0 183 365 c227 451 203 436 318 208 l76 -153 85 0 85 0 -55 -36 c-30 -20 -58
-39 -62 -43 -4 -3 30 -80 76 -171 l82 -165 162 -3 c89 -1 162 1 162 4 0 4 -22
48 -49 98 -26 50 -77 145 -111 211 -35 66 -102 194 -150 285 -48 91 -109 207
-135 258 l-48 92 -222 0 -221 0 -247 -464z"/>
<path d="M7267 5863 c-4 -3 -7 -217 -7 -475 l0 -469 143 3 142 3 3 163 2 162
268 0 267 0 68 108 68 107 -336 3 -335 2 0 80 0 80 563 -2 562 -3 3 -353 2
-353 148 3 147 3 3 353 2 352 210 0 210 0 0 120 0 120 -1063 0 c-585 0 -1067
-3 -1070 -7z"/>
</g>
</svg>
